<?xml version="1.0" encoding="UTF-8" standalone="no"?>
<svg
   xmlns:dc="http://purl.org/dc/elements/1.1/"
   xmlns:cc="http://creativecommons.org/ns#"
   xmlns:rdf="http://www.w3.org/1999/02/22-rdf-syntax-ns#"
   xmlns:svg="http://www.w3.org/2000/svg"
   xmlns="http://www.w3.org/2000/svg"
   xmlns:sodipodi="http://sodipodi.sourceforge.net/DTD/sodipodi-0.dtd"
   xmlns:inkscape="http://www.inkscape.org/namespaces/inkscape"
   width="384pt"
   height="384pt"
   version="1.1"
   viewBox="0 0 384 384"
   id="svg72"
   sodipodi:docname="xfce4-logo.svg"
   inkscape:version="0.92.1 r15371">
  <metadata
     id="metadata76">
    <rdf:RDF>
      <cc:Work
         rdf:about="">
        <dc:format>image/svg+xml</dc:format>
        <dc:type
           rdf:resource="http://purl.org/dc/dcmitype/StillImage" />
      </cc:Work>
    </rdf:RDF>
  </metadata>
  <sodipodi:namedview
     pagecolor="#ffffff"
     bordercolor="#666666"
     borderopacity="1"
     objecttolerance="10"
     gridtolerance="10"
     guidetolerance="10"
     inkscape:pageopacity="0"
     inkscape:pageshadow="2"
     inkscape:window-width="640"
     inkscape:window-height="480"
     id="namedview74"
     showgrid="false"
     inkscape:zoom="0.4609375"
     inkscape:cx="256"
     inkscape:cy="256"
     inkscape:window-x="857"
     inkscape:window-y="255"
     inkscape:window-maximized="0"
     inkscape:current-layer="svg72" />
  <defs
     id="defs48">
    <filter
       id="alpha"
       width="100%"
       height="100%"
       x="0%"
       y="0%"
       filterUnits="objectBoundingBox">
      <feColorMatrix
         in="SourceGraphic"
         type="matrix"
         values="0 0 0 0 1 0 0 0 0 1 0 0 0 0 1 0 0 0 1 0"
         id="feColorMatrix2" />
    </filter>
    <mask
       id="mask0">
      <g
         filter="url(#alpha)"
         id="g7">
        <rect
           width="384"
           height="384"
           x="0"
           y="0"
           style="fill:rgb(0%,0%,0%);fill-opacity:0.2"
           id="rect5" />
      </g>
    </mask>
    <clipPath
       id="clip1">
      <rect
         width="384"
         height="384"
         x="0"
         y="0"
         id="rect10" />
    </clipPath>
    <g
       id="surface5"
       clip-path="url(#clip1)">
      <path
         style="fill:rgb(0%,0%,0%)"
         d="M 24 319.332031 L 24 331.332031 C 24 340.570312 31.496094 348 40.804688 348 L 343.199219 348 C 352.5 348 360 340.570312 360 331.332031 L 360 319.332031 C 360 328.574219 352.5 336 343.199219 336 L 40.804688 336 C 31.503906 336 24.003906 328.574219 24.003906 319.332031 Z M 24 319.332031"
         id="path13" />
    </g>
    <mask
       id="mask1">
      <g
         filter="url(#alpha)"
         id="g18">
        <rect
           width="384"
           height="384"
           x="0"
           y="0"
           style="fill:rgb(0%,0%,0%);fill-opacity:0.2"
           id="rect16" />
      </g>
    </mask>
    <clipPath
       id="clip2">
      <rect
         width="384"
         height="384"
         x="0"
         y="0"
         id="rect21" />
    </clipPath>
    <g
       id="surface8"
       clip-path="url(#clip2)">
      <path
         style="fill-rule:evenodd;fill:rgb(0%,0%,0%)"
         d="M 125.222656 84.015625 C 122.898438 83.910156 120.675781 84.953125 119.269531 86.804688 C 111.191406 97.15625 102.761719 111.132812 94.734375 123.625 L 85.171875 107.222656 C 83.902344 105.035156 81.5625 103.6875 79.03125 103.699219 C 76.5 103.707031 74.167969 105.066406 72.914062 107.265625 C 71.664062 109.464844 71.679688 112.164062 72.960938 114.347656 L 88.21875 140.503906 C 89.441406 142.601562 91.660156 143.921875 94.085938 144.003906 C 96.511719 144.085938 98.8125 142.914062 100.171875 140.902344 C 110.101562 126.167969 121.34375 107.117188 130.40625 95.503906 C 132.078125 93.429688 132.441406 90.59375 131.347656 88.164062 C 130.253906 85.734375 127.882812 84.128906 125.222656 84.011719 Z M 125.222656 84.015625"
         id="path24" />
      <path
         style="fill:rgb(0%,0%,0%)"
         d="M 155.953125 108.015625 L 287.953125 108.015625 C 294.578125 108.015625 299.953125 113.386719 299.953125 120.015625 C 299.953125 126.640625 294.578125 132.015625 287.953125 132.015625 L 155.953125 132.015625 C 149.328125 132.015625 143.953125 126.640625 143.953125 120.015625 C 143.953125 113.386719 149.328125 108.015625 155.953125 108.015625 Z M 155.953125 108.015625"
         id="path26" />
      <path
         style="fill:rgb(0%,0%,0%)"
         d="M 155.953125 192.003906 L 287.953125 192.003906 C 294.578125 192.003906 299.953125 197.375 299.953125 204.003906 C 299.953125 210.628906 294.578125 216.003906 287.953125 216.003906 L 155.953125 216.003906 C 149.328125 216.003906 143.953125 210.628906 143.953125 204.003906 C 143.953125 197.375 149.328125 192.003906 155.953125 192.003906 Z M 155.953125 192.003906"
         id="path28" />
      <path
         style="fill:rgb(0%,0%,0%)"
         d="M 107.953125 204.003906 C 107.953125 210.628906 102.582031 216.003906 95.953125 216.003906 C 89.328125 216.003906 83.953125 210.628906 83.953125 204.003906 C 83.953125 197.375 89.328125 192.003906 95.953125 192.003906 C 102.582031 192.003906 107.953125 197.375 107.953125 204.003906 Z M 107.953125 204.003906"
         id="path30" />
      <path
         style="fill:rgb(0%,0%,0%)"
         d="M 155.953125 264 L 287.953125 264 C 294.578125 264 299.953125 269.371094 299.953125 276 C 299.953125 282.628906 294.578125 288 287.953125 288 L 155.953125 288 C 149.328125 288 143.953125 282.628906 143.953125 276 C 143.953125 269.371094 149.328125 264 155.953125 264 Z M 155.953125 264"
         id="path32" />
      <path
         style="fill:rgb(0%,0%,0%)"
         d="M 107.953125 276 C 107.953125 282.628906 102.582031 288 95.953125 288 C 89.328125 288 83.953125 282.628906 83.953125 276 C 83.953125 269.371094 89.328125 264 95.953125 264 C 102.582031 264 107.953125 269.371094 107.953125 276 Z M 107.953125 276"
         id="path34" />
    </g>
    <mask
       id="mask2">
      <g
         filter="url(#alpha)"
         id="g39">
        <rect
           width="384"
           height="384"
           x="0"
           y="0"
           style="fill:rgb(0%,0%,0%);fill-opacity:0.2"
           id="rect37" />
      </g>
    </mask>
    <clipPath
       id="clip3">
      <rect
         width="384"
         height="384"
         x="0"
         y="0"
         id="rect42" />
    </clipPath>
    <g
       id="surface11"
       clip-path="url(#clip3)">
      <path
         style="fill:rgb(100%,100%,100%)"
         d="M 40.804688 42 C 31.496094 42 24 49.429688 24 58.664062 L 24 64.664062 C 24 55.429688 31.496094 48 40.804688 48 L 343.195312 48 C 352.507812 48 360 55.429688 360 64.664062 L 360 58.664062 C 360 49.429688 352.507812 42 343.195312 42 Z M 40.804688 42"
         id="path45" />
    </g>
  </defs>
  <path
     style="fill:#c83737;fill-opacity:1;stroke-width:0.13577436"
     d="m 177.25358,322.98892 c -0.15832,-0.25602 -0.6558,-2.42222 -0.84558,-3.68102 -0.25884,-1.71723 -0.2553,-5.05874 0.008,-6.94193 1.31227,-9.40852 8.57016,-19.52883 20.25129,-28.23812 1.05929,-0.78978 1.90626,-1.4557 1.88215,-1.4798 -0.0241,-0.024 -0.70751,0.0359 -1.51865,0.13323 -0.95242,0.11431 -3.11005,0.17539 -6.09113,0.1723 -4.10398,-0.005 -4.83484,-0.0388 -6.58506,-0.31118 -3.65317,-0.56852 -6.41691,-1.36905 -9.09691,-2.63492 l -1.28986,-0.60925 0.54311,-0.0909 c 2.05219,-0.34345 3.05965,-0.5591 4.17186,-0.89303 5.77176,-1.73287 12.20139,-5.60556 18.43455,-11.10347 1.99449,-1.75924 5.51573,-5.31953 6.8825,-6.95886 1.40115,-1.68059 2.76492,-3.54406 2.6865,-3.67095 -0.0374,-0.0604 -0.37085,-0.21058 -0.74104,-0.33355 l -0.67309,-0.22356 -0.44547,0.51567 c -2.52945,2.92789 -5.30831,5.76306 -7.55804,7.71115 l -1.40358,1.21537 -1.64813,-0.0359 c -3.8086,-0.0828 -7.46732,0.60573 -11.10322,2.08948 -1.95586,0.79815 -3.65177,1.66196 -7.58623,3.864 -7.32978,4.10238 -10.54692,5.59567 -15.78996,7.32933 l -1.73898,0.57501 -2.13058,-1.43018 c -2.20977,-1.48335 -5.04166,-3.67385 -6.50655,-5.033 -0.82582,-0.76617 -0.84134,-0.79341 -0.65649,-1.15087 0.2427,-0.46931 1.17618,-1.19077 4.2857,-3.31212 3.63718,-2.48136 4.26208,-3.19932 3.12281,-3.58782 -0.67406,-0.22986 -3.65178,-0.21475 -7.79907,0.0397 -3.58737,0.22 -5.64097,0.19512 -6.40126,-0.0777 -0.84836,-0.30445 -5.17396,-6.55504 -7.45035,-10.76597 -0.35394,-0.65474 -0.61015,-1.27745 -0.56933,-1.38379 0.24426,-0.63651 1.86081,-0.99622 6.68599,-1.48773 3.82807,-0.3899 5.30287,-0.63641 6.01654,-1.00558 1.05627,-0.5464 0.58397,-1.24314 -1.52948,-2.25636 -1.77684,-0.85181 -2.81127,-1.2436 -8.43665,-3.1954 -5.93183,-2.05807 -7.54045,-2.72338 -8.16425,-3.37661 -0.72678,-0.76109 -2.03517,-2.57358 -3.47114,-4.80852 -0.82158,-1.27869 -1.79322,-2.76866 -2.15918,-3.31101 -0.36597,-0.54235 -0.66543,-1.04878 -0.66543,-1.12541 0,-0.3065 0.85089,-0.3107 3.18685,-0.0164 4.80401,0.60652 5.57628,0.68388 6.01189,0.60242 0.24268,-0.0454 0.44126,-0.16099 0.44126,-0.25701 0,-0.40276 -1.7951,-1.64956 -8.01068,-5.56394 -3.26792,-2.05805 -6.03743,-3.90559 -6.66835,-4.44852 -0.71982,-0.61938 -3.69967,-6.4878 -4.46026,-8.78382 -0.74616,-2.25246 -0.6894,-4.08518 0.1501,-4.84472 0.27773,-0.25129 0.2875,-0.24697 0.84372,0.37369 2.69488,3.00715 12.27263,8.58976 25.07171,14.61363 22.89057,10.77342 47.09474,19.12118 62.04718,21.39946 3.58017,0.54551 5.18598,0.68084 8.07857,0.68079 2.952,-2e-5 4.27972,-0.15483 5.81074,-0.67786 1.23899,-0.4232 4.63804,-1.30966 6.40895,-1.6714 13.9214,-2.84386 29.41852,-1.99143 44.05878,2.42344 2.89168,0.872 6.67571,2.21745 6.54837,2.32834 -0.25427,0.22133 -6.81561,1.26198 -11.84357,1.87838 -4.36133,0.53469 -6.4111,0.75947 -10.57132,1.15928 -1.89375,0.18196 -3.46974,0.35744 -3.50221,0.38991 -0.0325,0.0325 3.56376,2.09304 7.99161,4.57906 4.42786,2.486 8.16193,4.5949 8.29792,4.68641 0.2151,0.14475 0.074,0.22367 -1.0862,0.60714 -2.77932,0.91867 -6.75298,2.77066 -9.73498,4.53717 -2.60381,1.54244 -6.97489,4.49859 -7.38818,4.99659 -0.14845,0.17887 0.0263,0.24184 1.36042,0.49016 4.75203,0.88454 7.64121,1.16641 11.91747,1.16266 3.74822,-0.005 5.3938,-0.15008 8.38866,-0.74813 l 1.39629,-0.27886 0.97977,0.98047 c 1.21682,1.21774 2.21157,1.8895 2.94324,1.98766 0.48857,0.0656 0.73425,-0.0144 1.88773,-0.61814 3.31804,-1.73519 6.80445,-2.21635 10.06567,-1.3892 1.11821,0.28362 3.80992,1.50123 4.46148,2.01822 l 0.32036,0.25417 -1.0324,0.49029 c -1.82764,0.86793 -3.03749,1.85937 -4.79057,3.92567 l -1.02027,1.20256 0.0892,1.32006 c 0.37441,5.54228 1.36229,16.46221 1.83869,20.32491 0.0734,0.59543 0.13344,1.25225 0.13344,1.45958 v 0.37692 h -3.65373 -3.65374 l 1.20471,4.71194 c 0.66259,2.59158 1.18009,4.73654 1.15,4.76665 -0.0303,0.0303 -5.6298,-3.87084 -12.44381,-8.66878 -6.81397,-4.79791 -12.4845,-8.74596 -12.60115,-8.77338 -0.11658,-0.0274 -1.52569,0.18936 -3.13123,0.48189 l -2.91915,0.53183 -0.36394,-0.41216 c -0.20026,-0.22667 -1.51378,-2.67693 -2.91916,-5.44501 -2.41936,-4.76526 -3.50606,-6.72141 -3.65262,-6.57483 -0.0358,0.0359 0.70476,3.58934 1.64552,7.89691 0.94077,4.30757 1.69032,7.89255 1.66562,7.96663 -0.0247,0.074 -2.13582,-0.90387 -4.69142,-2.17319 l -4.64654,-2.30782 -0.0359,4.16837 -0.0359,4.16837 -1.81755,-2.07961 c -1.48806,-1.70269 -1.86953,-2.06699 -2.10449,-2.00981 -0.15791,0.0385 -1.75334,0.38284 -3.54557,0.76545 -20.84481,4.44985 -34.56832,9.26112 -42.59926,14.9347 -1.52364,1.0764 -3.98885,3.4251 -4.82635,4.5983 -0.33942,0.47547 -0.81276,1.2306 -1.05186,1.67812 -0.2391,0.4475 -0.46827,0.75936 -0.50927,0.69304 z m 105.19734,-0.5069 c -1.41325,-0.44812 -2.67781,-1.53223 -3.19519,-2.73926 -0.4906,-1.14456 -0.48941,-1.89116 0.006,-3.52335 0.43436,-1.43221 0.44097,-1.49336 0.36349,-3.37507 -0.081,-1.9699 -0.39011,-3.67803 -1.09519,-6.05338 -0.18772,-0.63246 -0.32123,-1.17001 -0.29669,-1.19455 0.0247,-0.0246 0.86145,0.0261 1.85975,0.11246 1.59115,0.13755 2.14174,0.25857 4.46271,0.98033 l 2.64759,0.82338 4.95577,0.021 c 6.03755,0.0255 8.23658,0.27323 9.79577,1.10387 0.30463,0.16221 0.68029,0.22969 1.13573,0.20394 1.56279,-0.0886 3.70134,0.75586 5.12303,2.02298 2.00356,1.78575 2.75338,4.25353 1.89642,6.24157 -0.30399,0.70518 -1.25931,1.95902 -1.65337,2.16989 -0.26256,0.14043 -0.26208,0.12851 0.0206,-0.50379 0.20653,-0.4631 0.30661,-1.02048 0.35095,-1.95485 0.0572,-1.20587 0.0332,-1.3716 -0.31179,-2.14007 -1.08344,-2.41419 -4.15722,-3.33327 -8.88908,-2.65795 -3.02872,0.43227 -6.70674,0.75246 -9.57209,0.83332 l -2.98705,0.0843 -2.12815,1.63631 -2.12815,1.63632 -0.16366,0.86756 c -0.34045,1.80427 0.0801,3.38985 1.07753,4.0616 0.63376,0.42689 1.26799,0.58013 2.45994,0.59441 l 1.0183,0.0123 -0.61099,0.28075 c -1.38591,0.6368 -3.00835,0.81561 -4.14113,0.45641 z m -37.87017,-0.91037 c -1.85894,-0.27111 -3.53934,-1.49096 -4.35832,-3.16386 -0.82769,-1.69075 -0.89181,-3.51429 -0.17106,-4.86388 0.27181,-0.5089 0.30881,-0.76931 0.30395,-2.14078 -0.005,-1.34603 -0.0574,-1.71125 -0.38204,-2.6476 -0.50858,-1.46727 -1.66087,-3.73437 -3.40349,-6.69646 -1.4028,-2.38437 -2.09072,-3.75997 -1.95047,-3.90021 0.0371,-0.0373 0.61118,0.27511 1.27533,0.69418 2.22817,1.40592 4.28461,2.32964 9.35405,4.20163 3.28847,1.21433 5.10772,2.02967 6.06788,2.71949 0.52823,0.37948 0.91634,0.52854 1.76453,0.67767 2.60732,0.45839 5.21021,1.2992 7.19613,2.32445 1.50927,0.77919 2.23507,1.42577 3.14968,2.80597 0.40481,0.61092 1.26255,1.83655 1.90607,2.72364 1.60434,2.21163 2.43064,3.89673 2.49836,5.09492 0.0469,0.83032 0.0184,0.94811 -0.318,1.34879 -0.32833,0.39018 -1.15173,0.94702 -1.15173,0.7789 0,-0.0356 0.0653,-0.36994 0.14558,-0.74304 0.62207,-2.9007 -3.27391,-6.53107 -7.00895,-6.53107 -1.18368,0 -2.08904,-0.49774 -4.3572,-2.39543 -2.25321,-1.88518 -2.86038,-2.31458 -3.84704,-2.72051 -0.96449,-0.39684 -2.18341,-0.40848 -3.53569,-0.0337 -1.9612,0.54347 -3.08526,1.44377 -3.45833,2.76996 -0.26752,0.95091 -0.52469,4.2377 -0.44329,5.6654 0.11247,1.9737 0.89828,3.17225 2.46266,3.75649 l 0.66323,0.24769 -0.64824,0.0888 c -0.35654,0.0489 -0.71609,0.0815 -0.79903,0.0725 -0.0828,-0.008 -0.51246,-0.0693 -0.95453,-0.13384 z m 57.48957,-27.25162 c -0.42238,-0.082 -0.48022,-0.14516 -0.52025,-0.56703 -0.0688,-0.72412 0.20129,-1.88142 1.02946,-4.41321 0.70387,-2.15156 0.75594,-2.40088 0.76787,-3.67479 0.0123,-1.26806 -0.0144,-1.40664 -0.35366,-1.92141 -0.72294,-1.09445 -2.81215,-1.7082 -3.38916,-0.99564 -0.47475,0.58628 -0.24461,2.09277 0.62693,4.10392 0.5358,1.23639 0.56813,1.21234 -1.0673,0.79407 -1.37611,-0.35195 -2.56471,-0.99209 -3.4276,-1.84604 -1.28615,-1.27278 -1.75731,-2.67421 -1.64976,-4.90718 0.0818,-1.69996 0.3648,-2.35015 1.80676,-4.15176 l 1.06417,-1.32957 0.62148,0.59288 c 1.20854,1.15285 2.22514,1.52613 3.86699,1.41969 1.64239,-0.1065 3.19115,-0.82555 4.62543,-2.14764 l 0.59913,-0.55223 0.14372,0.58699 c 0.52103,2.12892 2.28789,3.71901 4.87119,4.38385 1.87301,0.48205 4.91377,0.53023 7.71911,0.12213 l 0.56634,-0.0825 -0.071,0.59349 c -0.48159,4.02605 -3.22891,8.65082 -6.69199,11.26516 -1.23008,0.92858 -3.34679,1.94027 -4.96006,2.37063 -1.14635,0.30581 -1.69601,0.36892 -3.53013,0.40526 -1.19483,0.0236 -2.38626,0.002 -2.64762,-0.0494 z m -9.63397,-16.88683 c -1.96356,-2.70384 -5.11186,-5.22988 -7.89032,-6.33081 -2.1337,-0.84548 -4.89887,-1.12835 -7.02202,-0.71841 -1.68083,0.32457 -4.33302,1.39351 -5.495,2.21472 -0.32031,0.22638 -0.44166,0.24262 -0.83714,0.11206 -1.14504,-0.37789 -2.32173,-1.93021 -2.48071,-3.27254 -0.0437,-0.36755 -0.10959,-0.66829 -0.14702,-0.66829 -0.0374,0 -0.78221,0.12192 -1.65534,0.27086 -4.75464,0.81122 -10.64851,1.31731 -13.58152,1.16616 -2.00411,-0.10321 -3.99337,-0.35522 -3.84139,-0.48655 0.0592,-0.0512 0.99355,-0.4777 2.07634,-0.94792 1.55574,-0.67563 12.93688,-5.81827 17.50899,-7.91156 l 0.8766,-0.40134 -2.30225,-0.78278 c -5.31676,-1.8078 -9.61661,-3.65997 -12.89264,-5.55364 l -1.08621,-0.62784 0.611,-0.0322 c 11.18974,-0.58608 23.67385,-3.13223 29.53093,-6.02285 1.50693,-0.74373 3.46292,-2.02103 3.46174,-2.26064 0,-0.0564 -0.40757,-0.31303 -0.90514,-0.57031 -4.09078,-2.11543 -11.62037,-7.19718 -23.24116,-15.68556 -3.70901,-2.70923 -4.58931,-3.40995 -4.38078,-3.48712 0.1435,-0.0531 1.13739,-0.16942 2.20853,-0.25847 8.04827,-0.6692 19.70282,2.15737 31.75003,7.70035 9.77337,4.49675 18.78218,10.47632 22.21134,14.74267 2.11804,2.63511 3.30295,3.76943 3.93757,3.76943 0.42823,0 0.52258,-0.21101 0.49757,-1.11308 -0.0184,-0.70363 -0.59714,-3.34078 -0.80565,-3.67817 -0.0514,-0.0831 -0.0184,-0.0966 0.0841,-0.0337 0.31232,0.19307 1.79298,2.56717 2.58568,4.14601 1.66312,3.31239 3.01045,7.28593 3.68304,10.86195 0.27839,1.4802 0.31839,2.09641 0.31295,4.81997 -0.006,2.94753 -0.0267,3.19849 -0.36919,4.47088 -0.67796,2.51829 -1.90895,4.57439 -3.63809,6.07662 -0.70111,0.60909 -0.85371,0.67761 -1.96873,0.88358 -1.65517,0.30576 -4.93452,0.30603 -6.30027,0 -0.56006,-0.12521 -1.41544,-0.42691 -1.90083,-0.67028 -0.80983,-0.40601 -0.9141,-0.50956 -1.26582,-1.25711 -1.2154,-2.5832 -2.92637,-5.07788 -3.98296,-5.80749 -1.14036,-0.78741 -2.12828,-0.75056 -2.88166,0.10754 -0.67522,0.76903 -0.88278,1.74289 -0.78004,3.65979 0.0481,0.89811 0.12439,1.83151 0.16963,2.0742 l 0.082,0.44125 h -0.67303 c -0.84015,0 -2.01418,-0.39597 -2.82212,-0.95186 -0.56603,-0.38943 -1.59605,-1.53433 -1.72301,-1.9152 -0.19985,-0.59993 -2.9792,2.63037 -3.78536,4.3997 -0.0923,0.20252 -0.20376,0.36643 -0.2478,0.36425 -0.044,-0.002 -0.35229,-0.37883 -0.68503,-0.837 z m -12.97246,-31.48139 c -2.56306,-0.25217 -4.97672,-0.74481 -12.35546,-2.52192 -11.12764,-2.67997 -16.53715,-3.63544 -24.23575,-4.28075 -2.5959,-0.21762 -9.87252,-0.21709 -12.35545,0.002 -6.11216,0.53655 -11.66096,1.6069 -16.71332,3.22396 l -1.9818,0.6343 -2.42545,-1.38993 c -5.81989,-3.33516 -12.50589,-6.51611 -19.60652,-9.32814 -10.52503,-4.16815 -22.79446,-7.77629 -31.5035,-9.26434 -2.74817,-0.46955 -3.0253,-0.60433 -5.18978,-2.52366 -3.92801,-3.4835 -10.06608,-11.35715 -16.76909,-21.51104 -6.51861,-9.87503 -11.6772,-18.69379 -13.76242,-23.52774 -3.21186,-7.44581 -6.86214,-12.92575 -12.14057,-18.22596 -8.65645,-8.69238 -20.461679,-15.36918 -37.134291,-21.00259 -6.640471,-2.24353 -10.912183,-3.4834 -23.975691,-6.95878 -9.896294,-2.63281 -14.562633,-3.96157 -18.385913,-5.2356 -10.06249,-3.35309 -15.733563,-6.75389 -18.448067,-11.06283 -0.231817,-0.36799 -0.394931,-0.69564 -0.362465,-0.72813 0.03249,-0.0325 0.566386,0.1581 1.186497,0.42365 6.898545,2.95346 20.102259,5.50335 37.718643,7.28424 5.09124,0.51468 10.215237,0.92633 10.080006,0.80979 -0.05527,-0.0477 -1.628052,-0.77652 -3.494944,-1.61963 -3.837084,-1.73306 -10.944672,-5.25452 -14.151482,-7.01152 -6.78065,-3.71509 -11.691776,-7.10425 -14.069274,-9.70923 -0.807792,-0.88506 -1.717494,-2.30694 -1.717494,-2.684451 0,-0.08902 0.269608,-0.01645 0.645339,0.173944 1.735323,0.879357 7.931453,3.353357 13.475195,5.380367 14.080522,5.1484 28.696446,9.63635 39.57823,12.15279 2.73894,0.6334 7.177466,1.55611 7.230466,1.50309 0.02198,-0.022 -1.198625,-0.68234 -2.712655,-1.46732 C 78.41989,113.61504 69.688211,108.56816 63.311065,104.43773 56.25286,99.866133 51.08606,95.890886 47.418096,92.209924 44.355125,89.136059 42.822839,86.8963 42.254401,84.66203 c -0.208795,-0.82066 -0.210586,-2.337052 -0.0021,-2.544633 0.04236,-0.04235 0.534188,0.357201 1.092921,0.887954 2.789533,2.649781 9.140609,7.185204 14.807345,10.574204 12.826273,7.670805 26.676915,13.484655 40.183239,16.867055 1.490218,0.37322 2.724474,0.66359 2.742774,0.64531 0.0185,-0.0185 -0.49802,-0.48941 -1.147342,-1.04694 -1.923139,-1.65111 -9.874272,-9.6624 -11.940703,-12.030934 -5.332791,-6.112368 -8.83374,-11.096075 -11.240949,-16.001817 -1.835244,-3.740095 -2.600887,-6.361809 -2.736032,-9.368606 -0.0806,-1.794571 0.126862,-3.812234 0.37624,-3.658111 0.06782,0.04195 0.123365,0.185046 0.123365,0.318053 0,0.371162 1.224018,2.691375 2.242209,4.25028 5.14881,7.883157 15.572814,19.094516 25.864442,27.818055 10.36592,8.78653 20.95649,15.4783 30.75155,19.43069 2.02761,0.81817 2.80786,1.07412 2.69468,0.88393 -0.0536,-0.0901 -0.6873,-0.98876 -1.40815,-1.9969 -0.72083,-1.00811 -2.22912,-3.20766 -3.35176,-4.88789 -11.85155,-17.737795 -18.76924,-33.217143 -19.43293,-43.484223 -0.35223,-5.448627 0.79646,-9.421036 3.55243,-12.28508 0.30539,-0.317375 0.58836,-0.577098 0.62883,-0.577139 0.0406,-4.2e-5 0.0524,0.859273 0.0263,1.909617 -0.27844,11.274706 6.1239,25.484382 18.56261,41.198825 6.10895,7.71777 14.73103,16.66857 23.16731,24.05061 9.0135,7.88714 18.64634,14.96495 27.90164,20.50098 3.00403,1.79686 8.16842,4.66664 8.39794,4.66664 0.0574,0 -0.0373,-0.77236 -0.21045,-1.71634 -0.39945,-2.17738 -0.90958,-5.95279 -1.21736,-9.00985 -0.33989,-3.37602 -0.34525,-10.97375 -0.0103,-13.64531 0.58756,-4.67708 1.65846,-8.14992 3.29172,-10.67472 0.65112,-1.00647 1.87808,-2.38333 2.55258,-2.86434 l 0.38148,-0.27205 -0.22911,0.52414 c -0.45278,1.036 -1.12007,3.28254 -1.34813,4.53881 -0.35442,1.95241 -0.42392,6.1085 -0.1429,8.54449 1.45523,12.61304 8.36033,25.99147 16.55285,32.07069 1.90548,1.41398 5.20436,2.82332 6.6085,2.82332 0.20293,0 0.42651,0.0762 0.49684,0.16962 0.0703,0.0933 0.29521,1.30004 0.49974,2.68155 2.86621,19.3608 9.73937,35.51857 21.19629,49.82919 4.60069,5.74664 10.30317,11.52125 16.39145,16.5988 5.94405,4.95723 13.2617,10.04653 20.54034,14.28545 1.12011,0.65234 2.09465,1.24098 2.16558,1.30806 0.14949,0.14146 -0.58036,0.13407 -2.16558,-0.0218 z m 31.22811,-7.54615 c -0.96468,-0.85735 -3.26395,-2.4769 -5.25443,-3.70112 -10.74915,-6.61108 -24.46652,-11.24435 -37.19857,-12.56431 -3.09205,-0.32058 -7.61075,-0.52553 -9.46425,-0.4293 l -1.68074,0.0874 -0.76322,-0.42964 c -4.65051,-2.61796 -9.77982,-9.675 -14.09134,-19.38729 -0.47766,-1.07603 -0.85135,-2.00351 -0.83044,-2.06105 0.021,-0.0575 0.43546,0.0653 0.92117,0.27322 2.33881,1.0007 5.35556,1.8015 8.28166,2.19834 2.11849,0.28731 6.48695,0.22115 8.95511,-0.1357 5.7863,-0.83644 11.13004,-2.8564 15.62004,-5.90444 1.87823,-1.27503 4.71863,-4.079 5.63001,-5.55778 2.25665,-3.66153 1.89258,-6.99301 -1.10885,-10.147 -2.93825,-3.0876 -7.47285,-5.03087 -13.00705,-5.57409 -1.96125,-0.19244 -5.57405,-0.0872 -7.38747,0.21521 -0.70267,0.1172 -1.34085,0.19205 -1.41818,0.16613 -0.15111,-0.0504 1.68005,-1.18659 2.89019,-1.79345 3.06136,-1.53517 6.93886,-2.37687 10.94993,-2.37687 4.71638,0 9.72425,0.92693 17.16464,3.17705 1.60553,0.48557 4.04947,1.22519 5.43096,1.64363 4.58798,1.38962 7.43426,2.02575 9.82957,2.19681 1.07775,0.0769 1.2277,0.0592 1.39169,-0.16509 0.69428,-0.94949 -0.78161,-2.81155 -4.34673,-5.48415 -7.86431,-5.89545 -20.38874,-12.1099 -29.75251,-14.76277 l -0.81464,-0.23079 1.1541,-0.24163 c 3.35469,-0.70236 5.05584,-0.85999 9.30053,-0.86186 4.55991,-0.002 5.75354,0.12027 9.41879,0.96522 3.75874,0.86642 7.07289,2.09675 11.15103,4.13962 3.64271,1.82477 6.18248,3.37373 13.98476,8.529 7.75934,5.12688 8.13109,5.36459 8.23204,5.26362 0.14743,-0.14742 0.57283,-3.03925 0.66322,-4.50812 0.11349,-1.84419 -0.0995,-4.23891 -0.56039,-6.29764 -1.09764,-4.90426 -3.81528,-9.94254 -7.71861,-14.30983 -4.07779,-4.56243 -9.34638,-8.68832 -14.77971,-11.57402 -1.53142,-0.81337 -1.52899,-0.8183 0.51439,-1.04579 4.63143,-0.51558 10.89427,2.08975 18.33677,7.62804 4.66648,3.47253 8.1002,6.47917 17.03619,14.91723 7.29431,6.88786 9.54921,8.80999 11.6017,9.88952 1.57235,0.82697 2.40159,0.65537 3.05943,-0.63313 1.06568,-2.08732 0.70902,-7.78727 -0.87757,-14.02463 -2.64343,-10.39212 -7.36102,-19.52688 -12.85359,-24.88873 -1.76564,-1.72363 -3.27938,-2.84367 -5.02266,-3.71639 -1.54588,-0.7739 -1.46156,-0.81515 0.85456,-0.41812 4.43223,0.75978 8.76445,2.62183 12.43477,5.34465 1.94201,1.44071 5.47041,4.99329 7.03782,7.08611 5.9373,7.92751 10.29963,19.31804 12.76562,33.33259 0.12481,0.70941 0.27678,1.34463 0.33766,1.41155 0.32074,0.35259 3.01933,-1.28862 4.41724,-2.68642 4.01629,-4.01594 5.87369,-11.14046 5.8975,-22.62142 0.008,-3.87254 0.15173,-6.45797 0.37099,-6.67728 0.15606,-0.15585 0.41796,0.48231 1.33655,3.25553 2.01715,6.0898 2.91743,11.60894 2.9168,17.88172 -0.002,8.20391 -1.71356,15.41646 -5.34858,22.52295 -1.02268,1.99939 -2.84146,4.86544 -4.01636,6.32911 -2.31922,2.88924 -6.9501,6.06153 -22.89584,15.68437 -15.37132,9.27621 -21.29547,13.09976 -27.02839,17.44458 -3.95702,2.99893 -7.32704,6.12816 -8.99266,8.35014 -1.38252,1.84429 -2.15115,3.79233 -2.04128,5.1735 0.0261,0.32829 0.0164,0.59436 -0.0214,0.59127 -0.0378,-0.002 -0.31327,-0.22286 -0.61197,-0.48832 z"
     id="path21"
     inkscape:connector-curvature="0" />
</svg>
