<?xml version="1.0" encoding="UTF-8" standalone="no"?>
<!-- Created with Inkscape (http://www.inkscape.org/) -->

<svg
   xmlns:dc="http://purl.org/dc/elements/1.1/"
   xmlns:cc="http://creativecommons.org/ns#"
   xmlns:rdf="http://www.w3.org/1999/02/22-rdf-syntax-ns#"
   xmlns:svg="http://www.w3.org/2000/svg"
   xmlns="http://www.w3.org/2000/svg"
   xmlns:sodipodi="http://sodipodi.sourceforge.net/DTD/sodipodi-0.dtd"
   xmlns:inkscape="http://www.inkscape.org/namespaces/inkscape"
   width="210mm"
   height="297mm"
   viewBox="0 0 210 297"
   version="1.1"
   id="svg8"
   inkscape:version="0.92.1 r15371"
   sodipodi:docname="drawing.svg">
  <defs
     id="defs2" />
  <sodipodi:namedview
     id="base"
     pagecolor="#ffffff"
     bordercolor="#666666"
     borderopacity="1.0"
     inkscape:pageopacity="0.0"
     inkscape:pageshadow="2"
     inkscape:zoom="0.98994949"
     inkscape:cx="416.90905"
     inkscape:cy="456.79327"
     inkscape:document-units="mm"
     inkscape:current-layer="layer1"
     showgrid="false"
     inkscape:window-width="2560"
     inkscape:window-height="1025"
     inkscape:window-x="0"
     inkscape:window-y="0"
     inkscape:window-maximized="1" />
  <metadata
     id="metadata5">
    <rdf:RDF>
      <cc:Work
         rdf:about="">
        <dc:format>image/svg+xml</dc:format>
        <dc:type
           rdf:resource="http://purl.org/dc/dcmitype/StillImage" />
        <dc:title></dc:title>
      </cc:Work>
    </rdf:RDF>
  </metadata>
  <g
     inkscape:label="Layer 1"
     inkscape:groupmode="layer"
     id="layer1">
    <path
       style="fill:#000000;stroke-width:0.06603587"
       d="m 97.334326,207.6034 c -0.077,-0.12452 -0.31896,-1.17808 -0.41126,-1.79032 -0.12589,-0.8352 -0.12417,-2.46039 0.004,-3.37631 0.63824,-4.57597 4.168224,-9.49813 9.849514,-13.73403 0.5152,-0.38412 0.92714,-0.708 0.91541,-0.71972 -0.0117,-0.0117 -0.3441,0.0174 -0.73861,0.0648 -0.46323,0.0556 -1.51262,0.0853 -2.96252,0.0838 -1.99603,-0.002 -2.35149,-0.0189 -3.20274,-0.15135 -1.776774,-0.27651 -3.120954,-0.66585 -4.424414,-1.28153 l -0.62734,-0.29632 0.26415,-0.0442 c 0.99811,-0.16705 1.4881,-0.27193 2.02904,-0.43434 2.807184,-0.84281 5.934334,-2.72635 8.965924,-5.40034 0.97005,-0.85563 2.68265,-2.58723 3.3474,-3.38455 0.68147,-0.81737 1.34476,-1.7237 1.30662,-1.78541 -0.0182,-0.0294 -0.18037,-0.10242 -0.36042,-0.16223 l -0.32736,-0.10873 -0.21666,0.2508 c -1.23024,1.42403 -2.58178,2.80295 -3.67597,3.75043 l -0.68265,0.59112 -0.80159,-0.0174 c -1.85237,-0.0403 -3.63184,0.2946 -5.40022,1.01624 -0.951264,0.3882 -1.776094,0.80832 -3.689674,1.87932 -3.56495,1.99525 -5.12965,2.72154 -7.67968,3.56473 l -0.84578,0.27966 -1.03624,-0.69559 c -1.07475,-0.72144 -2.45208,-1.78683 -3.16455,-2.44787 -0.40165,-0.37264 -0.4092,-0.38589 -0.3193,-0.55974 0.11804,-0.22826 0.57206,-0.57915 2.08442,-1.6109 1.76899,-1.20685 2.07292,-1.55604 1.51882,-1.74499 -0.32784,-0.1118 -1.7761,-0.10445 -3.79319,0.0193 -1.74477,0.107 -2.74357,0.0949 -3.11335,-0.0378 -0.41261,-0.14807 -2.51643,-3.18814 -3.62359,-5.23619 -0.17214,-0.31844 -0.29675,-0.6213 -0.2769,-0.67302 0.1188,-0.30958 0.90503,-0.48453 3.25183,-0.72358 1.86184,-0.18964 2.57913,-0.30953 2.92623,-0.48908 0.51374,-0.26575 0.28403,-0.60462 -0.74388,-1.09741 -0.86419,-0.4143 -1.3673,-0.60485 -4.10329,-1.55413 -2.88503,-1.00098 -3.66741,-1.32456 -3.9708,-1.64227 -0.35348,-0.37016 -0.98984,-1.2517 -1.68824,-2.33869 -0.39959,-0.62191 -0.87216,-1.34658 -1.05015,-1.61036 -0.178,-0.26378 -0.32364,-0.51009 -0.32364,-0.54736 0,-0.14907 0.41384,-0.15111 1.54997,-0.008 2.3365,0.29499 2.7121,0.33262 2.92397,0.293 0.11803,-0.0221 0.21461,-0.0783 0.21461,-0.125 0,-0.19589 -0.87307,-0.80229 -3.89611,-2.70611 -1.5894,-1.00096 -2.93639,-1.89954 -3.24325,-2.1636 -0.35009,-0.30125 -1.79939,-3.15544 -2.16931,-4.27214 -0.36291,-1.09552 -0.3353,-1.98689 0.073,-2.3563 0.13508,-0.12222 0.13983,-0.12012 0.41036,0.18175 1.31069,1.46257 5.96897,4.17775 12.19399,7.10755 11.13317,5.23981 22.905224,9.29987 30.177564,10.40795 1.74127,0.26531 2.52228,0.33113 3.92913,0.33111 1.43575,-1e-5 2.08151,-0.0753 2.82614,-0.32969 0.6026,-0.20583 2.25578,-0.63697 3.11709,-0.81291 6.77088,-1.38315 14.30813,-0.96856 21.42864,1.17868 1.40641,0.42411 3.24683,1.07849 3.18489,1.13242 -0.12366,0.10765 -3.31487,0.61378 -5.76029,0.91358 -2.1212,0.26005 -3.11814,0.36938 -5.14152,0.56383 -0.92105,0.0885 -1.68756,0.17385 -1.70335,0.18964 -0.0158,0.0158 1.73329,1.01798 3.88684,2.22709 2.15355,1.20911 3.96967,2.2348 4.03581,2.27931 0.10462,0.0704 0.036,0.10878 -0.52829,0.29529 -1.35176,0.44681 -3.28441,1.34755 -4.73475,2.20672 -1.2664,0.75019 -3.39234,2.18795 -3.59335,2.43016 -0.0722,0.087 0.0128,0.11763 0.66166,0.2384 2.31122,0.43021 3.71642,0.5673 5.79624,0.56548 1.823,-0.002 2.62335,-0.073 4.07995,-0.36387 l 0.6791,-0.13563 0.47653,0.47687 c 0.59182,0.59227 1.07563,0.91899 1.43149,0.96673 0.23762,0.0319 0.35711,-0.007 0.91812,-0.30064 1.61378,-0.84394 3.30945,-1.07796 4.89559,-0.67566 0.54386,0.13794 1.85301,0.73015 2.16991,0.98159 l 0.15581,0.12362 -0.50212,0.23846 c -0.8889,0.42213 -1.47733,0.90433 -2.32997,1.90931 l -0.49622,0.58488 0.0434,0.64203 c 0.1821,2.69557 0.66257,8.00664 0.89428,9.88532 0.0357,0.2896 0.0649,0.60905 0.0649,0.70989 v 0.18332 h -1.77705 -1.77705 l 0.58593,2.29172 c 0.32226,1.26045 0.57395,2.30369 0.55932,2.31833 -0.0147,0.0147 -2.73814,-1.88264 -6.05223,-4.21619 -3.31408,-2.33353 -6.07203,-4.25372 -6.12876,-4.26706 -0.0567,-0.0133 -0.74204,0.0921 -1.52292,0.23438 l -1.41977,0.25866 -0.17701,-0.20046 c -0.0974,-0.11025 -0.73625,-1.30197 -1.41977,-2.64826 -1.17669,-2.31766 -1.70523,-3.26906 -1.77651,-3.19777 -0.0174,0.0174 0.34277,1.74573 0.80032,3.84078 0.45756,2.09505 0.82211,3.83866 0.8101,3.87469 -0.012,0.036 -1.03879,-0.43961 -2.28174,-1.05696 l -2.25991,-1.12245 -0.0175,2.02735 -0.0174,2.02735 -0.88399,-1.01145 c -0.72374,-0.82813 -0.90927,-1.00531 -1.02355,-0.9775 -0.0768,0.0187 -0.85276,0.1862 -1.72444,0.37229 -10.13818,2.16425 -16.81281,4.50428 -20.71878,7.26371 -0.741044,0.52352 -1.940034,1.66585 -2.347364,2.23645 -0.16508,0.23125 -0.3953,0.59852 -0.51159,0.81618 -0.11629,0.21765 -0.22775,0.36933 -0.24769,0.33707 z m 51.164284,-0.24654 c -0.68736,-0.21795 -1.30239,-0.74522 -1.55403,-1.33228 -0.23861,-0.55667 -0.23803,-0.91979 0.003,-1.71363 0.21126,-0.69658 0.21447,-0.72632 0.17679,-1.64152 -0.0394,-0.95809 -0.18973,-1.78886 -0.53266,-2.94415 -0.0913,-0.3076 -0.15624,-0.56905 -0.1443,-0.58099 0.012,-0.0119 0.41898,0.0127 0.90452,0.0547 0.77388,0.0669 1.04166,0.12576 2.1705,0.4768 l 1.2877,0.40046 2.41031,0.0102 c 2.93645,0.0124 4.00598,0.13289 4.76432,0.53688 0.14816,0.0789 0.33087,0.11172 0.55238,0.0992 0.76008,-0.0431 1.8002,0.36762 2.49166,0.9839 0.97446,0.86853 1.33914,2.06877 0.92235,3.03568 -0.14785,0.34298 -0.61249,0.9528 -0.80414,1.05536 -0.1277,0.0683 -0.12747,0.0625 0.01,-0.24503 0.10045,-0.22523 0.14912,-0.49632 0.17069,-0.95077 0.0278,-0.58649 0.0161,-0.66709 -0.15165,-1.04085 -0.52694,-1.17418 -2.02192,-1.62119 -4.32333,-1.29273 -1.47306,0.21024 -3.26192,0.36597 -4.65553,0.40529 l -1.45279,0.041 -1.03506,0.79584 -1.03506,0.79585 -0.0796,0.42195 c -0.16558,0.87753 0.039,1.6487 0.52408,1.97542 0.30823,0.20762 0.6167,0.28215 1.19642,0.2891 l 0.49527,0.006 -0.29717,0.13654 c -0.67405,0.30972 -1.46315,0.39669 -2.01409,0.22199 z m -18.41872,-0.44277 c -0.90412,-0.13186 -1.72141,-0.72515 -2.11973,-1.53879 -0.40256,-0.82232 -0.43375,-1.70923 -0.0832,-2.36562 0.1322,-0.24751 0.15019,-0.37417 0.14783,-1.0412 -0.002,-0.65466 -0.0279,-0.83229 -0.18581,-1.2877 -0.24736,-0.71363 -0.80779,-1.81627 -1.65534,-3.25692 -0.68227,-1.15968 -1.01685,-1.82872 -0.94864,-1.89693 0.0181,-0.0181 0.29726,0.1338 0.62028,0.33763 1.0837,0.68379 2.08388,1.13305 4.54948,2.04352 1.5994,0.59061 2.48421,0.98716 2.9512,1.32266 0.25692,0.18457 0.44568,0.25707 0.85821,0.3296 1.2681,0.22295 2.53406,0.63188 3.49994,1.13053 0.73406,0.37897 1.08706,0.69345 1.53189,1.36473 0.19689,0.29712 0.61407,0.89323 0.92705,1.32468 0.7803,1.07566 1.18218,1.89523 1.21511,2.47799 0.0228,0.40384 0.009,0.46113 -0.15466,0.656 -0.15969,0.18977 -0.56016,0.4606 -0.56016,0.37883 0,-0.0173 0.0318,-0.17993 0.0708,-0.36139 0.30256,-1.4108 -1.59231,-3.17648 -3.4089,-3.17648 -0.5757,0 -1.01604,-0.24208 -2.11919,-1.16505 -1.09588,-0.91689 -1.39119,-1.12573 -1.87106,-1.32316 -0.4691,-0.19301 -1.06194,-0.19867 -1.71964,-0.0164 -0.95386,0.26433 -1.50056,0.7022 -1.68201,1.34721 -0.13011,0.46249 -0.25519,2.06107 -0.2156,2.75546 0.0547,0.95994 0.43689,1.54287 1.19775,1.82702 l 0.32257,0.12047 -0.31528,0.0432 c -0.17341,0.0238 -0.34828,0.0396 -0.38862,0.0352 -0.0403,-0.004 -0.24924,-0.0337 -0.46425,-0.0651 z m 27.9609,-13.25423 c -0.20543,-0.0399 -0.23356,-0.0706 -0.25303,-0.27578 -0.0334,-0.35219 0.0979,-0.91506 0.5007,-2.14643 0.34233,-1.04645 0.36766,-1.16771 0.37346,-1.78729 0.006,-0.61674 -0.007,-0.68414 -0.17201,-0.93451 -0.35161,-0.5323 -1.36773,-0.83081 -1.64837,-0.48424 -0.2309,0.28515 -0.11897,1.01785 0.30492,1.996 0.26059,0.60134 0.27632,0.58964 -0.5191,0.38621 -0.66929,-0.17118 -1.24738,-0.48252 -1.66706,-0.89785 -0.62554,-0.61904 -0.85469,-1.30064 -0.80239,-2.38668 0.0398,-0.8268 0.17743,-1.14303 0.87875,-2.01927 l 0.51757,-0.64665 0.30227,0.28835 c 0.58779,0.56071 1.08223,0.74225 1.88077,0.69049 0.7988,-0.0518 1.55206,-0.40152 2.24964,-1.04454 l 0.2914,-0.26859 0.0699,0.2855 c 0.25341,1.03543 1.11275,1.80879 2.36917,2.13215 0.91097,0.23445 2.38989,0.25788 3.75431,0.0594 l 0.27544,-0.0401 -0.0345,0.28865 c -0.23423,1.95813 -1.57043,4.20746 -3.25475,5.47898 -0.59827,0.45163 -1.62776,0.94368 -2.4124,1.15299 -0.55754,0.14874 -0.82488,0.17943 -1.71693,0.19711 -0.58112,0.0115 -1.16059,7e-4 -1.28771,-0.024 z m -4.68562,-8.21316 c -0.95501,-1.31505 -2.48623,-2.54363 -3.83757,-3.07908 -1.03776,-0.41121 -2.38264,-0.54879 -3.41527,-0.34941 -0.81749,0.15786 -2.10743,0.67775 -2.67257,1.07716 -0.15579,0.1101 -0.21481,0.118 -0.40716,0.0545 -0.5569,-0.18379 -1.12921,-0.93878 -1.20653,-1.59165 -0.0212,-0.17876 -0.0533,-0.32503 -0.0715,-0.32503 -0.0182,0 -0.38044,0.0593 -0.8051,0.13174 -2.31249,0.39455 -5.17906,0.64069 -6.60557,0.56718 -0.97473,-0.0502 -1.94224,-0.17277 -1.86832,-0.23664 0.0288,-0.0249 0.48322,-0.23234 1.00986,-0.46104 0.75666,-0.3286 6.29204,-2.8298 8.51575,-3.8479 l 0.42635,-0.1952 -1.11973,-0.38072 c -2.58589,-0.87925 -4.67718,-1.78008 -6.27053,-2.70109 l -0.52829,-0.30536 0.29717,-0.0156 c 5.44229,-0.28505 11.51412,-1.5234 14.3628,-2.9293 0.73292,-0.36172 1.68424,-0.98296 1.68367,-1.0995 0,-0.0274 -0.19823,-0.15224 -0.44023,-0.27738 -1.98961,-1.02887 -5.65174,-3.50045 -11.30368,-7.6289 -1.80393,-1.31767 -2.23208,-1.65848 -2.13066,-1.69601 0.0698,-0.0258 0.55319,-0.0824 1.07415,-0.12571 3.9144,-0.32548 9.58276,1.04927 15.4421,3.74518 4.75342,2.18706 9.13499,5.09531 10.80281,7.17031 1.03014,1.28163 1.60644,1.83332 1.9151,1.83332 0.20828,0 0.25416,-0.10263 0.242,-0.54136 -0.009,-0.34223 -0.29043,-1.62484 -0.39184,-1.78894 -0.025,-0.0404 -0.009,-0.047 0.0409,-0.0164 0.1519,0.0939 0.87204,1.24858 1.25758,2.01647 0.80888,1.61103 1.46418,3.54362 1.7913,5.28287 0.1354,0.71992 0.15486,1.01962 0.15221,2.34427 -0.003,1.43357 -0.013,1.55563 -0.17956,2.17447 -0.32974,1.22481 -0.92845,2.22483 -1.76944,2.95546 -0.34099,0.29624 -0.41522,0.32956 -0.95752,0.42974 -0.80502,0.14871 -2.39998,0.14884 -3.06423,0 -0.27239,-0.0609 -0.68842,-0.20764 -0.9245,-0.326 -0.39387,-0.19747 -0.44458,-0.24783 -0.61565,-0.61141 -0.59113,-1.25638 -1.42328,-2.46971 -1.93717,-2.82456 -0.55463,-0.38297 -1.03512,-0.36505 -1.40154,0.0523 -0.3284,0.37403 -0.42935,0.84768 -0.37938,1.77999 0.0234,0.43681 0.0605,0.89078 0.0825,1.00882 l 0.0399,0.21461 h -0.32734 c -0.40862,0 -0.97963,-0.19259 -1.37258,-0.46295 -0.2753,-0.18941 -0.77626,-0.74625 -0.83801,-0.93149 -0.0972,-0.29178 -1.44898,1.27932 -1.84107,2.13986 -0.0449,0.0985 -0.0991,0.17822 -0.12052,0.17716 -0.0214,-10e-4 -0.17134,-0.18425 -0.33317,-0.40709 z m -6.30935,-15.31144 c -1.24658,-0.12264 -2.4205,-0.36225 -6.00926,-1.22657 -5.41209,-1.30344 -8.04309,-1.76815 -11.78741,-2.08201 -1.26256,-0.10584 -4.80165,-0.10558 -6.00926,7e-4 -2.97274,0.26096 -5.67148,0.78154 -8.12877,1.56802 l -0.96388,0.3085 -1.17965,-0.67601 c -2.83059,-1.6221 -6.08243,-3.16921 -9.53592,-4.53688 -5.119004,-2.02724 -11.086424,-3.78211 -15.322194,-4.50585 -1.33661,-0.22837 -1.4714,-0.29392 -2.52413,-1.22742 -1.91044,-1.69407 -4.89578,-5.52353 -8.15589,-10.46203 -3.17042,-4.80287 -5.67937,-9.092 -6.69355,-11.44306 -1.56214,-3.62138 -3.33751,-6.28663 -5.90475,-8.86447 -4.21019,-4.22756 -9.95184,-7.47492 -18.06081,-10.21481 -3.22969,-1.09126 -5.3073,-1.69429 -11.66093,-3.38459 -4.81321,-1.2805 -7.08275,-1.92677 -8.94226,-2.54641 -4.89404,-1.63083 -7.65225,-3.28485 -8.97249,-5.38057 -0.11275,-0.17898 -0.19208,-0.33834 -0.17629,-0.35414 0.0158,-0.0158 0.27547,0.0769 0.57707,0.20605 3.35521,1.43646 9.77703,2.67664 18.34502,3.5428 2.4762,0.25032 4.96833,0.45053 4.90256,0.39385 -0.0269,-0.0232 -0.79183,-0.37767 -1.69982,-0.78773 -1.86622,-0.84283 -5.3231,-2.55554 -6.88278,-3.41008 -3.29787,-1.80689 -5.68647,-3.45526 -6.8428,-4.72223 -0.39288,-0.430464 -0.83533,-1.122014 -0.83533,-1.305624 0,-0.0433 0.13113,-0.008 0.31387,0.0846 0.844,0.42769 3.85758,1.630954 6.55386,2.616824 6.84827,2.504 13.95694,4.68678 19.24946,5.91069 1.33212,0.30806 3.49086,0.75683 3.51664,0.73105 0.0107,-0.0107 -0.58297,-0.33187 -1.31934,-0.71365 -3.63168,-1.88289 -7.87846,-4.33751 -10.98008,-6.34641 -3.43286,-2.223464 -5.94581,-4.156884 -7.72978,-5.947174 -1.48972,-1.49502 -2.23497,-2.58436 -2.51144,-3.67103 -0.10155,-0.39914 -0.10242,-1.13666 -10e-4,-1.23762 0.0206,-0.0206 0.25981,0.17373 0.53156,0.43187 1.35673,1.28876 4.44567,3.49463 7.20177,5.14292 6.23825,3.73081 12.97471,6.558464 19.54371,8.203544 0.72479,0.18152 1.32509,0.32275 1.33399,0.31385 0.009,-0.009 -0.24221,-0.23803 -0.55802,-0.50919 -0.9353,-0.80304 -4.80245,-4.699454 -5.80749,-5.851424 -2.59368,-2.97284 -4.29642,-5.39674 -5.4672,-7.78272 -0.8926,-1.81905 -1.26498,-3.09416 -1.33071,-4.55656 -0.0392,-0.872816 0.0617,-1.854136 0.18299,-1.779176 0.033,0.0204 0.06,0.09 0.06,0.15469 0,0.18052 0.59532,1.30899 1.09053,2.067186 2.5042,3.83409 7.57407,9.2869 12.57955,13.52972 5.04162,4.273464 10.1925,7.528104 14.95647,9.450404 0.98616,0.39793 1.36565,0.52241 1.3106,0.42991 -0.0261,-0.0438 -0.33428,-0.4809 -0.68487,-0.97122 -0.35059,-0.49031 -1.08417,-1.56009 -1.63018,-2.37729 -5.76418,-8.627044 -9.1287,-16.155654 -9.4515,-21.1492 -0.17131,-2.65002 0.38737,-4.58206 1.72778,-5.97503 0.14853,-0.15436 0.28616,-0.28068 0.30584,-0.2807 0.0197,-2e-5 0.0255,0.41792 0.0128,0.92877 -0.13542,5.48362 2.97845,12.394706 9.0282,20.037656 2.97118,3.753654 7.16465,8.107004 11.26776,11.697374 4.38385,3.83602 9.06892,7.27842 13.570374,9.97095 1.46106,0.87393 3.97283,2.26969 4.08446,2.26969 0.0279,0 -0.0181,-0.37565 -0.10235,-0.83477 -0.19428,-1.059 -0.44239,-2.89523 -0.59208,-4.38207 -0.16531,-1.64198 -0.16792,-5.33724 -0.005,-6.6366 0.28577,-2.27477 0.80662,-3.96383 1.60098,-5.1918 0.31668,-0.48952 0.91343,-1.15917 1.24148,-1.39312 l 0.18554,-0.13232 -0.11143,0.25493 c -0.22022,0.50387 -0.54476,1.59651 -0.65568,2.20752 -0.17238,0.94958 -0.20618,2.97095 -0.0695,4.15573 0.70777,6.13454 4.06617,12.64134 8.05072,15.59806 0.92676,0.6877 2.53122,1.37316 3.21414,1.37316 0.0987,0 0.20744,0.0371 0.24165,0.0825 0.0342,0.0454 0.14358,0.63229 0.24305,1.30421 1.39403,9.41641 4.73689,17.27498 10.30913,24.23516 2.23762,2.79497 5.0111,5.60353 7.97223,8.07307 2.89097,2.41103 6.45002,4.88628 9.99009,6.94794 0.54479,0.31728 1.01877,0.60357 1.05327,0.6362 0.0727,0.0688 -0.28227,0.0652 -1.05327,-0.0106 z m 15.18825,-3.67018 c -0.46918,-0.41698 -1.58747,-1.20468 -2.55557,-1.80009 -5.228,-3.2154 -11.89965,-5.46886 -18.09207,-6.11084 -1.50386,-0.15592 -3.7016,-0.2556 -4.60308,-0.2088 l -0.81745,0.0425 -0.3712,-0.20896 c -2.26185,-1.27328 -4.75656,-4.70558 -6.85353,-9.4293 -0.23232,-0.52334 -0.41407,-0.97443 -0.4039,-1.00242 0.0102,-0.028 0.21179,0.0318 0.44802,0.13288 1.13752,0.48671 2.60476,0.87619 4.02791,1.0692 1.03036,0.13974 3.15502,0.10756 4.35545,-0.066 2.81425,-0.40681 5.41326,-1.38925 7.59704,-2.87171 0.9135,-0.62013 2.29497,-1.98388 2.73824,-2.70311 1.09755,-1.78084 0.92048,-3.40115 -0.53931,-4.93514 -1.42906,-1.5017 -3.63453,-2.44684 -6.32617,-2.71104 -0.95388,-0.0936 -2.71102,-0.0424 -3.593,0.10467 -0.34176,0.057 -0.65215,0.0934 -0.68975,0.0808 -0.0735,-0.0245 0.81711,-0.57712 1.40568,-0.87227 1.48894,-0.74666 3.37481,-1.15603 5.32566,-1.15603 2.29388,0 4.72953,0.45083 8.34828,1.54521 0.78087,0.23616 1.96951,0.59588 2.64143,0.7994 2.23143,0.67586 3.61575,0.98525 4.78075,1.06845 0.52418,0.0374 0.59711,0.0288 0.67687,-0.0803 0.33767,-0.46179 -0.38015,-1.36743 -2.1141,-2.66729 -3.82492,-2.86734 -9.91636,-5.88983 -14.47057,-7.18009 l -0.39621,-0.11225 0.56131,-0.11752 c 1.63161,-0.3416 2.45898,-0.41827 4.52345,-0.41918 2.21778,-9.6e-4 2.79832,0.0585 4.58097,0.46945 1.82812,0.4214 3.44,1.01979 5.42347,2.01337 1.77168,0.8875 3.00694,1.64086 6.80169,4.1482 3.77387,2.49353 3.95468,2.60915 4.00378,2.56004 0.0717,-0.0717 0.2786,-1.47818 0.32256,-2.19259 0.0552,-0.89695 -0.0484,-2.06166 -0.27255,-3.06295 -0.53386,-2.38526 -1.85562,-4.8357 -3.75406,-6.9598 -1.98329,-2.21901 -4.54575,-4.22569 -7.18833,-5.6292 -0.74483,-0.39559 -0.74365,-0.39799 0.25018,-0.50863 2.25256,-0.25076 5.29859,1.01638 8.91836,3.71001 2.26961,1.68892 3.93965,3.15124 8.2858,7.25522 3.5477,3.35001 4.6444,4.28486 5.64266,4.80991 0.76474,0.40221 1.16805,0.31875 1.488,-0.30793 0.51831,-1.0152 0.34484,-3.78746 -0.42682,-6.82109 -1.28567,-5.05436 -3.58014,-9.49719 -6.25153,-12.105 -0.85875,-0.83831 -1.59498,-1.38306 -2.44285,-1.80752 -0.75186,-0.3764 -0.71085,-0.39646 0.41563,-0.20336 2.15568,0.36953 4.26272,1.27517 6.04783,2.59945 0.94453,0.70071 2.66062,2.42856 3.42295,3.44643 2.8877,3.85566 5.00938,9.39562 6.20875,16.2118 0.0607,0.34504 0.13462,0.65398 0.16423,0.68653 0.15599,0.17149 1.46849,-0.62674 2.14839,-1.30658 1.95338,-1.95321 2.85675,-5.41833 2.86833,-11.00226 0.004,-1.88347 0.0738,-3.14093 0.18044,-3.2476 0.0759,-0.0758 0.20328,0.23458 0.65005,1.58338 0.98107,2.96186 1.41893,5.64618 1.41863,8.69704 -7e-4,3.99009 -0.83342,7.49802 -2.60136,10.95437 -0.4974,0.97243 -1.38199,2.36638 -1.95342,3.07825 -1.12799,1.40523 -3.38028,2.94812 -11.13573,7.62833 -7.47607,4.51162 -10.35737,6.37126 -13.14566,8.48443 -1.92455,1.45857 -3.56361,2.98052 -4.37371,4.06121 -0.67241,0.897 -1.04624,1.84446 -0.99281,2.51621 0.0127,0.15967 0.008,0.28908 -0.0104,0.28757 -0.0184,-0.001 -0.15236,-0.10839 -0.29764,-0.2375 z"
       id="path21"
       inkscape:connector-curvature="0" />
  </g>
</svg>
