<?xml version="1.0" encoding="UTF-8" standalone="no"?>
<svg
   xmlns:dc="http://purl.org/dc/elements/1.1/"
   xmlns:cc="http://creativecommons.org/ns#"
   xmlns:rdf="http://www.w3.org/1999/02/22-rdf-syntax-ns#"
   xmlns:svg="http://www.w3.org/2000/svg"
   xmlns="http://www.w3.org/2000/svg"
   xmlns:xlink="http://www.w3.org/1999/xlink"
   xmlns:sodipodi="http://sodipodi.sourceforge.net/DTD/sodipodi-0.dtd"
   xmlns:inkscape="http://www.inkscape.org/namespaces/inkscape"
   width="384pt"
   height="384pt"
   version="1.1"
   viewBox="0 0 384 384"
   id="svg69"
   sodipodi:docname="preferences-system-login.svg"
   inkscape:version="0.92.3 (2405546, 2018-03-11)">
  <metadata
     id="metadata73">
    <rdf:RDF>
      <cc:Work
         rdf:about="">
        <dc:format>image/svg+xml</dc:format>
        <dc:type
           rdf:resource="http://purl.org/dc/dcmitype/StillImage" />
      </cc:Work>
    </rdf:RDF>
  </metadata>
  <sodipodi:namedview
     pagecolor="#ffffff"
     bordercolor="#666666"
     borderopacity="1"
     objecttolerance="10"
     gridtolerance="10"
     guidetolerance="10"
     inkscape:pageopacity="0"
     inkscape:pageshadow="2"
     inkscape:window-width="2560"
     inkscape:window-height="1025"
     id="namedview71"
     showgrid="false"
     inkscape:zoom="0.65186406"
     inkscape:cx="-426.44588"
     inkscape:cy="117.317"
     inkscape:window-x="0"
     inkscape:window-y="0"
     inkscape:window-maximized="1"
     inkscape:current-layer="svg69" />
  <defs
     id="defs43">
    <linearGradient
       id="linear0"
       x1="32.987"
       x2="763.265"
       y1="976.668"
       y2="390.876"
       gradientTransform="matrix(0.714496,0,0,0.527311,9.089072,-260.118557)"
       gradientUnits="userSpaceOnUse">
      <stop
         offset="0"
         style="stop-color:rgb(16.078431%,50.196078%,72.54902%)"
         id="stop2" />
      <stop
         offset="1"
         style="stop-color:rgb(72.941176%,9.019608%,30.588235%);stop-opacity:0.996078"
         id="stop4" />
    </linearGradient>
    <filter
       id="alpha"
       width="100%"
       height="100%"
       x="0%"
       y="0%"
       filterUnits="objectBoundingBox">
      <feColorMatrix
         in="SourceGraphic"
         type="matrix"
         values="0 0 0 0 1 0 0 0 0 1 0 0 0 0 1 0 0 0 1 0"
         id="feColorMatrix7" />
    </filter>
    <mask
       id="mask0">
      <g
         filter="url(#alpha)"
         id="g12">
        <rect
           width="384"
           height="384"
           x="0"
           y="0"
           style="fill:rgb(0%,0%,0%);fill-opacity:0.301961"
           id="rect10" />
      </g>
    </mask>
    <clipPath
       id="clip1">
      <rect
         width="384"
         height="384"
         x="0"
         y="0"
         id="rect15" />
    </clipPath>
    <g
       id="surface5"
       clip-path="url(#clip1)">
      <path
         style="fill:rgb(0%,0%,0%)"
         d="M 192 115.625 C 169.808594 115.625 151.941406 133.488281 151.941406 155.679688 L 151.941406 174.96875 L 145.273438 174.96875 C 143.214844 174.96875 141.558594 176.625 141.558594 178.679688 L 141.558594 230.597656 C 141.558594 232.652344 143.214844 234.3125 145.273438 234.3125 L 238.726562 234.3125 C 239.757812 234.3125 240.683594 233.898438 241.355469 233.226562 C 241.859375 232.722656 242.21875 232.074219 242.367188 231.347656 C 242.414062 231.105469 242.441406 230.855469 242.441406 230.597656 L 242.441406 178.679688 C 242.441406 177.910156 242.210938 177.195312 241.808594 176.601562 C 241.675781 176.40625 241.523438 176.222656 241.355469 176.054688 C 240.683594 175.382812 239.757812 174.96875 238.726562 174.96875 L 232.058594 174.96875 L 232.058594 155.679688 C 232.058594 133.488281 214.191406 115.625 192 115.625 Z M 192 124.527344 C 209.257812 124.527344 223.15625 138.421875 223.15625 155.679688 L 223.15625 174.96875 L 160.84375 174.96875 L 160.84375 155.679688 C 160.84375 138.421875 174.738281 124.527344 192 124.527344 Z M 192 124.527344"
         id="path18" />
    </g>
    <mask
       id="mask1">
      <g
         filter="url(#alpha)"
         id="g23">
        <rect
           width="384"
           height="384"
           x="0"
           y="0"
           style="fill:rgb(0%,0%,0%);fill-opacity:0.301961"
           id="rect21" />
      </g>
    </mask>
    <clipPath
       id="clip2">
      <rect
         width="384"
         height="384"
         x="0"
         y="0"
         id="rect26" />
    </clipPath>
    <g
       id="surface8"
       clip-path="url(#clip2)">
      <path
         style="fill:rgb(0%,0%,0%)"
         d="M 141.558594 223.460938 L 141.558594 226.097656 C 141.558594 228.15625 143.214844 229.8125 145.273438 229.8125 L 238.726562 229.8125 C 240.785156 229.8125 242.441406 228.15625 242.441406 226.097656 L 242.441406 223.460938 C 242.441406 225.515625 240.785156 227.171875 238.726562 227.171875 L 145.273438 227.171875 C 143.214844 227.171875 141.558594 225.515625 141.558594 223.460938 Z M 141.558594 223.460938"
         id="path29" />
    </g>
    <mask
       id="mask2">
      <g
         filter="url(#alpha)"
         id="g34">
        <rect
           width="384"
           height="384"
           x="0"
           y="0"
           style="fill:rgb(0%,0%,0%);fill-opacity:0.301961"
           id="rect32" />
      </g>
    </mask>
    <clipPath
       id="clip3">
      <rect
         width="384"
         height="384"
         x="0"
         y="0"
         id="rect37" />
    </clipPath>
    <g
       id="surface11"
       clip-path="url(#clip3)">
      <path
         style="fill:rgb(100%,100%,100%)"
         d="M 145.273438 170.46875 C 143.214844 170.46875 141.558594 172.125 141.558594 174.179688 L 141.558594 176.820312 C 141.558594 174.761719 143.214844 173.105469 145.273438 173.105469 L 238.726562 173.105469 C 240.785156 173.105469 242.441406 174.761719 242.441406 176.820312 L 242.441406 174.179688 C 242.441406 172.125 240.785156 170.46875 238.726562 170.46875 Z M 145.273438 170.46875"
         id="path40" />
    </g>
  </defs>
  <g
     id="g67">
    <path
       style="fill:rgb(15.294118%,15.294118%,15.294118%)"
       d="M 158.175781 263.765625 L 225.828125 263.765625 L 225.828125 318.488281 L 158.175781 318.488281 Z M 158.175781 263.765625"
       id="path45" />
    <path
       style="fill:rgb(9.411765%,9.411765%,9.411765%)"
       d="M 158.074219 264.171875 L 225.925781 264.171875 L 225.925781 318.339844 Z M 158.074219 264.171875"
       id="path47" />
    <path
       style="fill:rgb(0%,0%,0%)"
       d="M 23.996094 55.277344 L 360.007812 55.277344 C 364.546875 55.277344 368.226562 58.746094 368.226562 63.023438 L 368.226562 256.601562 C 368.226562 260.878906 364.546875 264.347656 360.007812 264.347656 L 23.996094 264.347656 C 19.460938 264.347656 15.78125 260.878906 15.78125 256.601562 L 15.78125 63.023438 C 15.78125 58.746094 19.460938 55.277344 23.996094 55.277344 Z M 23.996094 55.277344"
       id="path49" />
    <path
       style="fill:url(#linear0)"
       d="M 31.472656 64.058594 L 352.539062 64.058594 C 356.609375 64.058594 359.910156 67.375 359.910156 71.464844 L 359.910156 248.164062 C 359.910156 252.253906 356.609375 255.570312 352.539062 255.570312 L 31.472656 255.570312 C 27.398438 255.570312 24.097656 252.253906 24.097656 248.164062 L 24.097656 71.464844 C 24.097656 67.375 27.398438 64.058594 31.472656 64.058594 Z M 31.472656 64.058594"
       id="path51" />
    <path
       style="fill:rgb(11.372549%,11.372549%,11.372549%)"
       d="M 132.195312 317.359375 L 251.796875 317.359375 C 254.375 317.359375 256.460938 319.328125 256.460938 321.757812 L 256.460938 324.324219 C 256.460938 326.75 254.375 328.71875 251.796875 328.71875 L 132.195312 328.71875 C 129.617188 328.71875 127.53125 326.75 127.53125 324.324219 L 127.53125 321.757812 C 127.53125 319.328125 129.617188 317.359375 132.195312 317.359375 Z M 132.195312 317.359375"
       id="path53" />
    <use
       mask="url(#mask0)"
       xlink:href="#surface5"
       id="use55" />
    <path
       style="fill:rgb(100%,100%,100%);stroke-width:11.249999;stroke:rgb(13.333333%,21.176471%,33.72549%)"
       d="M 113.727439 300.597046 C 29.589134 300.597046 -38.153976 368.325346 -38.153976 452.463651 L -38.153976 750.598501 L -4.400905 750.598501 L -4.400905 452.463651 C -4.400905 387.030975 48.279952 334.350118 113.727439 334.350118 C 179.174925 334.350118 231.855783 387.030975 231.855783 452.463651 L 231.855783 750.598501 L 265.608854 750.598501 L 265.608854 452.463651 C 265.608854 368.325346 197.865744 300.597046 113.727439 300.597046 Z M 113.727439 300.597046"
       transform="matrix(0.263749,0,0,0.263749,162.004485,31.842785)"
       id="path57" />
    <path
       style="fill:rgb(97.647059%,87.058824%,41.176471%)"
       d="M 145.273438 229.808594 L 238.730469 229.808594 C 240.78125 229.808594 242.441406 228.148438 242.441406 226.097656 L 242.441406 174.179688 C 242.441406 172.128906 240.78125 170.464844 238.730469 170.464844 L 145.273438 170.464844 C 143.222656 170.464844 141.558594 172.128906 141.558594 174.179688 L 141.558594 226.097656 C 141.558594 228.148438 143.222656 229.808594 145.273438 229.808594 Z M 145.273438 229.808594"
       id="path59" />
    <path
       style="fill:rgb(13.333333%,21.176471%,33.72549%)"
       d="M 192 182.335938 C 187.902344 182.335938 184.582031 185.65625 184.582031 189.753906 C 184.585938 192.703125 186.332031 195.367188 189.03125 196.546875 L 189.03125 217.941406 L 194.96875 217.941406 L 194.96875 196.546875 C 197.667969 195.367188 199.414062 192.703125 199.417969 189.753906 C 199.417969 185.65625 196.097656 182.335938 192 182.335938 Z M 192 182.335938"
       id="path61" />
    <use
       mask="url(#mask1)"
       xlink:href="#surface8"
       id="use63" />
    <use
       mask="url(#mask2)"
       xlink:href="#surface11"
       id="use65" />
  </g>
  <path
     style="fill:#000000;stroke-width:1.08474576"
     d="M 125.99983,254.50588 32.553564,168.54117 V 130.36298 92.184797 l 2.61717,-3.043541 2.61717,-3.04354 46.467575,-0.282182 46.467581,-0.282183 39.59322,36.416139 c 21.77627,20.02888 40.76578,37.57003 42.19892,38.98033 l 2.60569,2.56419 -2.93697,3.49039 c -3.79826,4.51398 -7.54909,11.97123 -9.74667,19.378 -1.28564,4.33315 -1.74809,10.43112 -1.74809,23.05084 v 17.15905 h -3.86792 c -2.12736,0 -4.81211,0.50531 -5.96611,1.12291 -2.01678,1.07935 -2.09818,2.69107 -2.09818,41.54576 0,29.99368 0.33584,40.7587 1.3017,41.72455 2.00248,2.00249 130.30198,1.86761 131.9671,-0.13874 0.76625,-0.92328 1.30075,-9.72207 1.48875,-24.50781 l 0.2933,-23.06738 37.42373,34.3629 c 20.58305,18.89959 39.36909,36.27387 41.74676,38.60951 l 4.32303,4.24661 H 313.37371 219.4461 Z"
     id="path75"
     inkscape:connector-curvature="0"
     transform="scale(0.75)" />
  <path
     style="fill:#000000;stroke-width:0.54237288"
     d="m 40.298069,333.33889 -7.712535,-7.15495 -0.01628,-78.61855 -0.01628,-78.61855 2.033898,1.92799 c 1.118644,1.06039 42.976272,39.56698 93.016948,85.57021 50.04068,46.00322 90.98306,83.74787 90.98306,83.877 0,0.12913 -38.37967,0.22061 -85.28814,0.20329 l -85.288139,-0.0315 z"
     id="path77"
     inkscape:connector-curvature="0"
     transform="scale(0.75)" />
  <path
     style="fill:#000000;stroke-width:0.54237288"
     d="m 119.60382,351.95024 c -68.296428,-0.20473 -91.937516,-0.43569 -92.745758,-0.90607 -1.809121,-1.05286 -3.962201,-3.59266 -4.852584,-5.72417 -0.753989,-1.80499 -0.838004,-15.68451 -0.801069,-132.33898 0.03125,-98.68534 0.196625,-130.750813 0.681243,-132.086824 0.83334,-2.297376 3.36279,-4.946293 5.769417,-6.041909 1.747426,-0.795516 21.572101,-0.88418 226.728421,-1.014021 161.3661,-0.102126 225.62638,0.02544 227.69365,0.452009 3.4247,0.706665 6.32806,3.021343 7.76941,6.194096 0.94657,2.083638 0.98769,7.604137 0.98769,132.614819 0,125.01069 -0.0411,130.53119 -0.98769,132.61483 -1.2604,2.77442 -4.42278,5.55961 -6.70571,5.90587 -2.69271,0.40842 -259.61166,0.64188 -363.53702,0.33035 z m 355.01701,-12.35019 c 2.14644,-1.12132 3.18726,-2.09968 4.12973,-3.88192 l 1.26004,-2.38277 V 213.18513 c 0,-118.984534 -0.0105,-120.171946 -1.0832,-122.387828 -1.19205,-2.462452 -3.09261,-4.08957 -5.91298,-5.062269 -2.34579,-0.80902 -431.972383,-0.855075 -433.681782,-0.04649 -0.686775,0.32486 15.853682,0.420271 45.084144,0.260061 l 46.168888,-0.253048 11.86501,10.912398 c 6.52575,6.001816 25.48078,23.469416 42.12228,38.816886 l 30.25727,27.9045 -1.40087,1.69848 c -2.89993,3.51604 -6.83995,9.97549 -8.47962,13.90188 -3.83786,9.19028 -3.86458,9.3787 -4.12318,29.0792 l -0.23577,17.96056 -3.65218,0.33944 c -5.09482,0.47351 -7.0182,1.23699 -7.50755,2.98008 -0.52538,1.87144 -0.5278,78.55423 -0.003,80.42384 0.26159,0.93108 0.92145,1.56561 1.89831,1.82541 2.50236,0.66553 104.99385,0.9657 118.3497,0.34662 6.64732,-0.30812 12.21832,-0.6925 12.38,-0.85418 0.85349,-0.85349 1.24338,-7.45403 1.56,-26.40984 l 0.34999,-20.95293 20.12374,18.49281 c 30.31347,27.85674 54.38523,50.09859 58.63221,54.17508 l 3.79661,3.64419 -93.61425,0.0172 -93.61408,0.0172 -93.23321,-85.76109 -93.233207,-85.76109 -0.276685,-38.03552 c -0.179644,-24.69544 -0.276574,-10.2627 -0.276369,41.15092 2.18e-4,54.79468 0.08544,66.67368 0.276685,38.5645 l 0.276369,-40.62194 41.762712,38.39286 c 22.969492,21.11607 42.983055,39.53291 44.474575,40.92632 1.49153,1.3934 19.91865,18.35132 40.94915,37.68427 36.08192,33.16943 45.79775,42.1372 54.17514,50.00396 l 3.53853,3.32286 -56.92463,0.41041 c -58.80633,0.42397 -112.397931,0.0163 -113.30429,-0.86194 -0.934326,-0.90533 -1.405049,-0.51978 -0.714808,0.58548 0.675559,1.08174 1.264828,1.08474 212.824018,1.08474 H 471.75114 Z M 36.314827,338.54604 c -0.959809,-0.80763 -2.197961,-2.21102 -2.751451,-3.11865 -0.553489,-0.90763 -1.007256,-1.37806 -1.008372,-1.04541 -0.004,1.17712 3.952421,5.56999 5.056536,5.61442 0.246616,0.01 -0.336904,-0.64274 -1.296713,-1.45036 z m -3.906394,-11.12743 c -0.114574,-1.27568 -0.209928,-0.36688 -0.211898,2.01957 -0.002,2.38644 0.09177,3.43017 0.208316,2.31942 0.116544,-1.11076 0.118156,-3.06331 0.0036,-4.33899 z m 7.48888,5.0387 c -0.196629,-0.31815 -0.617055,-0.57846 -0.934281,-0.57846 -0.359644,0 -0.318499,0.31121 0.109297,0.82667 0.743887,0.89633 1.408723,0.6963 0.824984,-0.24821 z M 37.696781,86.276194 c -0.405283,-0.430801 -3.051054,1.802183 -4.049507,3.417713 -1.841525,2.979651 -1.215826,2.877587 1.567754,-0.255732 1.457547,-1.640678 2.574335,-3.063569 2.481753,-3.161981 z"
     id="path79"
     inkscape:connector-curvature="0"
     transform="scale(0.75)" />
  <path
     style="fill:#000000;stroke-width:0.54237288"
     d="m 119.60382,351.95024 c -70.373037,-0.21096 -91.927157,-0.42742 -92.806968,-0.93202 -1.921291,-1.10192 -4.466683,-4.36201 -5.090803,-6.5202 -0.420825,-1.45521 -0.544883,-39.6568 -0.431246,-132.79454 l 0.15953,-130.751643 1.307023,-1.907435 c 1.713115,-2.500076 4.391891,-4.29166 7.24115,-4.842934 3.68994,-0.713928 448.877154,-0.61117 452.213654,0.10438 3.32049,0.712119 6.23714,3.067624 7.65039,6.178523 0.94657,2.083638 0.98769,7.604137 0.98769,132.614819 0,125.01069 -0.0411,130.53119 -0.98769,132.61483 -1.2604,2.77442 -4.42278,5.55961 -6.70571,5.90587 -2.69271,0.40842 -259.61166,0.64188 -363.53702,0.33035 z m 354.42991,-12.07139 c 1.31372,-0.67118 3.13492,-2.15823 4.04713,-3.30455 l 1.65856,-2.08421 0.14248,-119.40732 c 0.0977,-81.85423 -0.0367,-120.275604 -0.42727,-122.168227 -0.58308,-2.825513 -2.45922,-5.184027 -5.41013,-6.801117 -1.14027,-0.624864 -34.87013,-0.765261 -212.06779,-0.882711 -129.69179,-0.08596 -213.005873,0.05832 -216.67797,0.37525 -4.036797,0.348402 8.78722,0.432898 39.656455,0.261292 l 45.622565,-0.253621 37.90286,34.904144 c 20.84658,19.19728 39.79365,36.71542 42.10461,38.92921 l 4.20175,4.02508 -2.45621,3.18902 c -4.69489,6.0956 -8.24974,13.22875 -10.33434,20.73687 -0.70433,2.53677 -0.94344,6.82662 -1.16377,20.8792 l -0.27731,17.68644 -4.60369,0.55825 c -3.4849,0.42258 -4.88564,0.84023 -5.7639,1.7186 l -1.16021,1.16036 v 39.44241 c 0,21.69333 0.18066,40.08555 0.40147,40.8716 0.29496,1.05003 0.87052,1.52237 2.16949,1.78044 0.97241,0.19319 24.22226,0.49129 51.66633,0.66244 51.66203,0.32217 78.14497,-0.18505 78.96533,-1.5124 0.68553,-1.10923 1.14561,-9.92666 1.50453,-28.83472 l 0.3437,-18.10613 16.81356,15.45031 c 29.03057,26.67676 55.67508,51.30461 60.74576,56.14808 l 4.88136,4.66262 -93.64237,0.0245 -93.64236,0.0245 -61.9124,-56.94916 c -34.05183,-31.32203 -62.021236,-56.94915 -62.154248,-56.94915 -0.133016,0 -0.241844,0.10425 -0.241844,0.23166 0,0.12741 15.193222,14.21604 33.762712,31.30806 18.56949,17.09202 46.19844,42.55387 61.39767,56.5819 l 27.63496,25.5055 -32.24513,0.43109 c -45.34078,0.60617 -137.058107,0.19322 -137.87208,-0.62076 -0.870175,-0.87017 -1.517142,-0.77893 -1.155695,0.16299 0.194462,0.50675 1.298588,0.85719 3.101621,0.98441 1.539819,0.10865 97.141174,0.24269 212.447464,0.29787 l 209.64778,0.10033 z M 35.511698,337.16699 c -1.437397,-1.5661 -2.691134,-2.94915 -2.786084,-3.07345 -0.09495,-0.12429 -0.172637,0.0909 -0.172637,0.47815 0,0.7467 4.448116,5.44276 5.155397,5.44276 0.229223,0 -0.759281,-1.28136 -2.196676,-2.84746 z m 4.634499,-4.14536 c 0,-0.26639 -0.366101,-0.62483 -0.813559,-0.79654 -0.826726,-0.31725 -1.110776,0.2605 -0.451977,0.9193 0.518344,0.51834 1.265536,0.44586 1.265536,-0.12276 z m -7.746396,-4.79634 c -0.124667,-0.82444 -0.229999,-0.27864 -0.234071,1.21289 -0.0041,1.49152 0.09793,2.16606 0.226667,1.49898 0.128739,-0.66709 0.132071,-1.88743 0.0074,-2.71187 z m 0.429231,-158.51593 c 0.146312,0 12.540183,11.30303 27.541935,25.11784 26.259152,24.18151 28.58879,26.27133 28.58879,25.64576 0,-0.15591 -12.630509,-11.90453 -28.067797,-26.10805 L 32.824163,168.54034 32.544669,144.0401 c -0.177387,-15.54967 -0.278333,-5.37946 -0.276316,27.83875 0.0017,28.78644 0.06876,40.07458 0.148917,25.08475 0.08016,-14.98983 0.26545,-27.25424 0.411762,-27.25424 z m 2.667631,-80.677964 c 1.135141,-1.267797 1.819826,-2.305085 1.521521,-2.305085 -0.551651,0 -4.465207,4.081593 -4.465207,4.656929 0,0.639366 0.932575,-0.105711 2.943686,-2.351844 z"
     id="path81"
     inkscape:connector-curvature="0"
     transform="scale(0.75)" />
  <path
     style="fill:#000000;stroke-width:0.54237288"
     d="m 119.33264,351.95115 c -70.15923,-0.21164 -91.656048,-0.42837 -92.535788,-0.93293 -1.921291,-1.10192 -4.466683,-4.36201 -5.090803,-6.5202 -0.420825,-1.45521 -0.544883,-39.65865 -0.431246,-132.80117 l 0.15953,-130.758278 1.49898,-2.16299 c 0.824439,-1.189644 2.532914,-2.755199 3.79661,-3.479012 l 2.29763,-1.316022 H 256.0106 c 213.3638,0 227.08497,0.0558 228.68164,0.929919 2.31691,1.268429 4.672,3.857337 5.44332,5.983729 0.48475,1.336376 0.6471,33.403194 0.66933,132.204994 0.0281,125.04564 -0.0115,130.53061 -0.95834,132.61483 -1.2604,2.77442 -4.42278,5.5596 -6.70571,5.90588 -2.69646,0.40899 -260.28473,0.64353 -363.8082,0.33125 z m 354.71948,-12.09347 c 1.29125,-0.68282 3.09913,-2.16992 4.01752,-3.30465 l 1.66978,-2.06314 V 213.99793 c 0,-66.27058 -0.18298,-121.144334 -0.40662,-121.941682 -0.54308,-1.936219 -2.85465,-4.616209 -4.94612,-5.734431 -1.57738,-0.843355 -16.00455,-0.920475 -202.91845,-1.084695 -117.50759,-0.103241 -206.522897,0.03233 -213.9661,0.325879 -9.160177,0.36126 -0.681589,0.42096 30.139021,0.212218 l 42.884779,-0.290452 37.90339,34.925853 c 20.84685,19.20922 39.81798,36.75637 42.15804,38.99366 l 4.25467,4.06779 -3.0449,4.01578 c -3.40577,4.49172 -6.4484,10.23925 -8.64116,16.32321 -1.75266,4.86287 -2.42947,13.42057 -2.45263,31.01181 l -0.0148,11.21522 -3.11864,0.32951 c -4.30572,0.45494 -6.92332,1.21857 -7.80007,2.27552 -1.02476,1.23536 -1.10547,79.54062 -0.0838,81.32849 0.45579,0.79763 1.41227,1.2476 3.16158,1.48738 1.37945,0.18907 23.05036,0.49444 48.15758,0.67859 52.04944,0.38177 79.88597,-0.19888 80.97564,-1.68909 0.86568,-1.18388 1.30349,-8.59353 1.73515,-29.36606 l 0.36242,-17.4405 16.27119,14.95556 c 30.77315,28.28492 56.71033,52.27367 61.43573,56.8206 l 4.73376,4.55495 -93.68515,0.0207 -93.68516,0.0207 -41.0945,-37.80942 C 126.0518,254.35964 97.743209,228.40715 96.010604,226.9898 c -4.55859,-3.72914 9.074436,8.97192 51.796606,48.25576 60.74589,55.85697 69.80906,64.29317 69.45343,64.6488 -0.15778,0.15778 -34.15444,0.45026 -75.54812,0.64995 -57.291052,0.2764 -26.87994,0.38599 127.36532,0.45899 l 202.62656,0.0959 z m -417.36355,0.18193 c -5.071186,-0.16299 -9.58644,-0.52625 -10.033898,-0.80724 -0.702493,-0.44115 -0.711938,-0.38561 -0.06918,0.40678 0.653481,0.80562 1.878707,0.90419 10.033898,0.80724 l 9.289521,-0.11043 z M 35.241465,336.8958 c -1.282061,-1.41695 -2.411451,-2.67796 -2.509754,-2.80226 -0.0983,-0.12429 -0.178734,0.0148 -0.178734,0.30915 0,0.77067 3.773773,5.06938 4.450323,5.06938 0.313052,0 -0.479773,-1.15932 -1.761835,-2.57627 z m 4.904732,-3.59461 c 0,-0.11262 -0.427118,-0.53974 -0.949152,-0.94915 -0.860234,-0.67464 -0.879418,-0.65546 -0.204776,0.20478 0.708539,0.90346 1.153928,1.19077 1.153928,0.74437 z m -7.759733,-4.53066 c -0.137516,-0.52771 -0.259072,-0.22727 -0.270125,0.66765 -0.01105,0.89491 0.101459,1.32667 0.250028,0.95947 0.148568,-0.3672 0.157611,-1.09941 0.02009,-1.62712 z m 52.23431,-112.43927 c -2.535594,-2.36993 -4.796963,-4.31073 -5.02527,-4.31289 -0.228306,-0.002 1.711963,1.94862 4.311702,4.33506 2.59974,2.38644 4.861109,4.32724 5.025269,4.31289 0.164155,-0.0144 -1.776108,-1.96512 -4.311701,-4.33506 z M 75.62009,208.1596 c -0.568271,-0.62864 -10.486957,-9.83513 -22.041531,-20.45886 l -21.008316,-19.31587 -0.153468,-14.3886 c -0.08441,-7.91373 -0.153856,-1.69708 -0.15433,13.81479 -4.74e-4,15.51186 0.06904,22.28474 0.154478,15.05084 0.08544,-7.23389 0.2793,-13.15254 0.430808,-13.15254 0.151508,0 9.961885,8.90848 21.800837,19.79661 11.838953,10.88814 21.633228,19.79661 21.765052,19.79661 0.131823,0 -0.225264,-0.51434 -0.79353,-1.14298 z M 36.89196,87.074549 c 0,-0.711351 -2.048627,1.202593 -3.40076,3.177185 -0.964858,1.409033 -0.811622,1.339759 1.143282,-0.516853 1.241613,-1.179184 2.257478,-2.376333 2.257478,-2.660332 z"
     id="path83"
     inkscape:connector-curvature="0"
     transform="scale(0.75)" />
  <path
     style="fill:#000000;stroke-width:0.54237288"
     d="M 106.31569,351.99089 C 48.192039,351.75696 27.662541,351.51236 26.858062,351.04417 25.048941,349.99131 22.895861,347.45151 22.005478,345.32 21.251864,343.51591 21.163146,329.54366 21.163146,212.65954 V 82.015567 l 1.262449,-2.39039 c 0.829136,-1.569934 2.164187,-2.94887 3.88965,-4.01751 L 28.942447,73.980548 252.985,73.819135 c 123.2234,-0.08878 225.54534,-0.01076 227.38209,0.173377 3.89007,0.389981 6.87035,2.071234 8.886,5.012834 l 1.33379,1.946491 0.15952,130.751643 c 0.11364,93.13774 -0.0104,131.33933 -0.43124,132.79454 -0.72546,2.50863 -3.48946,5.74897 -5.68591,6.66582 -1.94686,0.81266 -248.15216,1.3509 -378.31356,0.82705 z m 368.29518,-12.65441 c 2.14723,-1.2791 3.30353,-2.43232 4.21466,-4.20339 l 1.25559,-2.44068 -0.18735,-120.13559 c -0.17098,-109.6291 -0.26442,-120.277894 -1.06848,-121.762713 -1.24637,-2.301626 -3.21981,-4.004911 -5.3719,-4.636522 -2.8568,-0.838432 -343.02701,-1.433894 -342.51137,-0.599561 0.21638,0.350098 13.97813,13.142625 30.58169,28.427836 53.43496,49.19218 53.42829,49.1858 52.61963,50.28123 -5.8215,7.88589 -8.86086,13.34941 -11.04371,19.85199 -1.61522,4.81167 -2.35804,14.68335 -2.39134,31.7799 l -0.0197,10.12181 -2.0339,0.29013 c -1.11864,0.15957 -3.21081,0.44268 -4.64926,0.62915 -4.703,0.60962 -4.52341,-0.11562 -4.98455,20.12893 -0.4521,19.84726 0.1237,61.80428 0.86731,63.19929 0.8075,1.51486 8.10822,1.70355 66.39362,1.71604 51.02953,0.0109 64.56475,-0.28604 65.72067,-1.44197 0.67244,-0.67243 1.29867,-11.45057 1.68166,-28.94309 l 0.39428,-18.0084 9.22034,8.47442 c 30.88077,28.38256 64.12445,59.1233 68.32782,63.18336 l 4.89252,4.72573 -93.70673,0.02 -93.70673,0.02 -50.56446,-46.48427 c -27.81045,-25.56634 -54.95767,-50.52013 -60.32717,-55.45286 -5.36949,-4.93274 -9.396606,-8.50343 -8.949149,-7.93488 0.447458,0.56854 20.705089,19.3504 45.016949,41.73747 58.98184,54.31216 73.32455,67.66875 73.00641,67.98689 -0.14689,0.14689 -20.72157,0.44281 -45.72149,0.6576 -31.29458,0.26887 8.36632,0.41923 127.31535,0.48266 l 172.76975,0.0921 z m -426.871452,0.67797 c 0,-0.29831 -0.258472,-0.54238 -0.574382,-0.54238 -0.31591,0 -0.42354,0.24407 -0.239178,0.54238 0.184363,0.2983 0.442835,0.54237 0.574382,0.54237 0.131548,0 0.239178,-0.24407 0.239178,-0.54237 z m 8.287551,0.14604 c -1.258796,-0.11375 -3.455406,-0.1151 -4.881356,-0.003 -1.42595,0.11234 -0.396026,0.20541 2.28872,0.20706 2.684746,0.002 3.851432,-0.0901 2.592636,-0.20381 z M 35.10213,336.88676 c -1.103729,-1.10373 -2.00678,-1.83628 -2.00678,-1.62791 0,0.66204 3.385274,4.26298 3.706078,3.94217 0.169114,-0.16911 -0.59557,-1.21053 -1.699298,-2.31426 z M 98.180096,229.19373 c 0,-0.0971 -0.671187,-0.76833 -1.491526,-1.49152 l -1.491525,-1.31488 1.31488,1.49152 c 1.228957,1.39406 1.668171,1.74026 1.668171,1.31488 z m -9.762712,-9.23759 c 0,-0.10666 -2.013559,-1.95819 -4.474576,-4.11453 l -4.474577,-3.92061 4.329454,4.11452 c 4.171721,3.96462 4.619699,4.34481 4.619699,3.92062 z M 72.68857,205.42693 C 70.451282,203.32359 60.517407,194.14624 50.613292,185.03282 L 32.60581,168.46297 32.405968,165.96752 c -0.109912,-1.3725 -0.195338,0.67743 -0.189834,4.5554 0.0055,3.87797 0.09424,5.28136 0.197186,3.11865 0.102948,-2.16272 0.31284,-3.93221 0.466426,-3.93221 0.153586,0 9.966622,8.90429 21.806747,19.7873 11.840126,10.88302 21.649535,19.77994 21.798687,19.77092 0.149153,-0.009 -1.559322,-1.7373 -3.79661,-3.84065 z M 36.89196,87.067745 c 0,-0.705442 -2.660037,1.806229 -3.372069,3.183989 -0.338364,0.654724 0.218906,0.343782 1.405734,-0.784361 1.081484,-1.028009 1.966335,-2.107842 1.966335,-2.399628 z m 23.738527,-1.271347 c -0.814997,-0.123755 -2.279403,-0.126246 -3.254237,-0.0055 -0.974834,0.120708 -0.308019,0.221963 1.481812,0.225007 1.78983,0.003 2.587422,-0.09572 1.772425,-0.219475 z m 58.260653,-0.56089 c -5.16486,-0.08923 -13.46317,-0.08907 -18.44068,3.55e-4 -4.977515,0.08942 -0.75172,0.162424 9.39065,0.162229 10.14238,-1.96e-4 14.21489,-0.07336 9.05003,-0.162584 z"
     id="path85"
     inkscape:connector-curvature="0"
     transform="scale(0.75)" />
  <path
     style="fill:#000000;stroke-width:0.54237288"
     d="M 89.230943,351.99649 C 44.113326,351.76017 27.656604,351.5089 26.858062,351.04417 25.048941,349.99131 22.895861,347.45151 22.005478,345.32 21.251864,343.51591 21.163146,329.54366 21.163146,212.65954 V 82.015567 l 1.262449,-2.39039 c 0.829147,-1.569954 2.164174,-2.948856 3.889678,-4.01751 l 2.627231,-1.627119 H 255.96808 482.99366 l 2.29763,1.316022 c 1.26369,0.723813 2.97217,2.289368 3.79661,3.479012 l 1.49898,2.16299 0.15952,130.758278 c 0.11364,93.14252 -0.0104,131.34596 -0.43124,132.80117 -0.73344,2.5362 -3.49609,5.75152 -5.75152,6.6939 -1.38662,0.57936 -32.4303,0.74916 -167.87289,0.9182 -91.39442,0.11407 -193.75133,0.0629 -227.459807,-0.11363 z m 384.230127,-11.9611 c 2.87224,-1.4653 5.25366,-3.97511 6.04399,-6.36982 0.51861,-1.5714 0.60322,-28.10317 0.38711,-121.39036 -0.26158,-112.922698 -0.32866,-119.48926 -1.24013,-121.410036 -0.52997,-1.116831 -1.82532,-2.688011 -2.87856,-3.491512 L 473.85851,85.912751 392.1888,85.574322 C 284.02011,85.126085 141.35664,85.118009 135.6746,85.559802 l -4.53939,0.352949 40.336,37.227299 c 22.1848,20.47501 40.99877,37.93042 41.80882,38.7898 l 1.47281,1.56251 -3.09993,4.34264 c -4.10225,5.74677 -6.22064,9.825 -8.25025,15.88295 -1.49946,4.4756 -1.7301,6.05071 -2.18004,14.8881 -0.27675,5.43563 -0.51013,13.82061 -0.51861,18.63328 -0.0173,9.81465 0.17914,9.38989 -4.35442,9.4148 -3.72087,0.0204 -5.84382,0.96568 -6.43943,2.86712 -1.50949,4.81896 -1.15166,80.20104 0.38522,81.15069 1.57169,0.97118 12.18918,1.15404 65.17285,1.12247 50.28054,-0.0299 65.58792,-0.30573 66.47989,-1.1977 0.65198,-0.65199 1.34926,-12.53448 1.73455,-29.55922 l 0.39573,-17.48542 8.94915,8.22199 c 30.81477,28.31092 63.91573,58.9283 68.33095,63.20404 l 5.16058,4.99756 -93.83051,-0.0119 -93.83051,-0.0119 -37.69491,-34.72772 c -63.15399,-58.18274 -68.88136,-63.43351 -68.88136,-63.14951 0,0.15076 18.61017,17.41759 41.35593,38.37074 22.74577,20.95315 46.46651,42.86691 52.71277,48.69724 l 11.35684,10.60061 -20.57718,0.58462 c -16.66752,0.47355 7.4309,0.60236 126.83427,0.67797 145.4686,0.0921 147.43892,0.0793 149.49665,-0.97046 z M 34.728453,336.60723 c -1.010182,-0.95993 -1.496688,-1.25719 -1.081125,-0.66058 1.441828,2.06999 2.335552,2.98818 2.625922,2.69781 0.160543,-0.16055 -0.534617,-1.0773 -1.544797,-2.03723 z m 77.010967,-94.9164 c 0,-0.0848 -1.40339,-1.48815 -3.11865,-3.11864 l -3.11864,-2.96452 2.96452,3.11864 c 2.75414,2.89732 3.27277,3.3671 3.27277,2.96452 z m -7.05085,-6.51546 c 0,-0.0886 -1.03729,-1.1259 -2.30508,-2.30509 l -2.30509,-2.14397 2.14397,2.30509 c 1.99387,2.1437 2.4662,2.55432 2.4662,2.14397 z m -7.050847,-6.55214 c 0,-0.11263 -0.427119,-0.53974 -0.949153,-0.94916 -0.860236,-0.67464 -0.879419,-0.65545 -0.204778,0.20478 0.70854,0.90346 1.153931,1.19077 1.153931,0.74438 z m -9.220339,-8.64984 c 0,-0.0971 -0.671187,-0.76833 -1.491526,-1.49152 l -1.491525,-1.31488 1.31488,1.49152 c 1.228957,1.39406 1.668171,1.74026 1.668171,1.31488 z m -3.79661,-3.24238 c 0,-0.0906 -0.915255,-1.00589 -2.033899,-2.0339 l -2.033898,-1.8691 1.869109,2.03389 c 1.739721,1.89311 2.198688,2.28328 2.198688,1.86911 z m -8.677966,-8.13191 c 0,-0.0886 -1.037289,-1.1259 -2.305085,-2.30509 l -2.305085,-2.14397 2.143972,2.30508 c 1.993872,2.14371 2.466198,2.55433 2.466198,2.14398 z m -6.787638,-6.32949 c -4.21211,-4.19281 -36.333852,-33.54637 -36.514832,-33.36806 -0.101104,0.0996 0.753133,1.03332 1.898305,2.0749 1.145172,1.04159 9.770266,8.9777 19.166876,17.63581 15.830415,14.58627 20.765402,18.94875 15.449651,13.65735 z M 36.349587,87.62197 c 0,-0.298305 -0.610169,0.03085 -1.355932,0.731459 -0.745763,0.700608 -1.355932,1.5179 -1.355932,1.816205 0,0.298306 0.610169,-0.03085 1.355932,-0.731459 0.745763,-0.700607 1.355932,-1.5179 1.355932,-1.816205 z"
     id="path87"
     inkscape:connector-curvature="0"
     transform="scale(0.75)" />
  <path
     style="fill:#000000;stroke-width:0.54237288"
     d="M 79.197045,351.99824 C 41.716394,351.76221 27.651303,351.50581 26.858062,351.04417 25.048941,349.99131 22.895861,347.45151 22.005478,345.32 21.251849,343.51587 21.163146,329.51964 21.163146,212.40924 V 81.514954 L 22.736268,79.0344 c 1.139799,-1.797278 2.375654,-2.873198 4.486617,-3.905996 l 2.913496,-1.425441 226.428639,0.138793 226.42864,0.138792 2.52906,1.486727 c 1.391,0.817699 3.09947,2.40414 3.79661,3.525423 l 1.26755,2.038698 0.15952,130.711864 c 0.11364,93.10905 -0.0104,131.29956 -0.43124,132.75476 -0.74265,2.56805 -3.50421,5.75491 -5.82842,6.72603 -1.49003,0.62257 -30.31214,0.77161 -177.90677,0.91995 -96.87078,0.0974 -199.19309,0.0318 -227.382925,-0.14576 z M 473.81408,339.91397 c 0.91733,-0.50273 2.54071,-1.88018 3.60752,-3.061 1.81393,-2.0078 1.96603,-2.45831 2.34665,-6.95037 0.48006,-5.66567 -0.16242,-234.328474 -0.66712,-237.430493 -0.23368,-1.436288 -0.99745,-2.771371 -2.37152,-4.145434 l -2.02682,-2.026823 -6.70202,-0.317222 C 457.91562,85.505275 167.15966,85.097801 147.90093,85.53403 l -16.71985,0.378721 39.77069,36.699139 c 21.87389,20.18453 40.70067,37.66074 41.8373,38.83602 l 2.0666,2.13688 -2.9765,3.95662 c -3.11569,4.14162 -7.20118,11.92147 -8.68623,16.54083 -1.40319,4.36474 -1.8861,9.94496 -2.29222,26.48725 -0.43549,17.73909 0.29167,15.72705 -5.90706,16.34471 -5.64376,0.56236 -5.36793,-0.41782 -5.77004,20.50479 -0.46998,24.45445 0.17467,61.99655 1.08013,62.9026 1.20159,1.20237 9.7136,1.38728 64.62211,1.40378 48.73311,0.0147 66.17524,-0.28165 67.0323,-1.1387 0.55029,-0.5503 1.3449,-14.73402 1.73307,-30.93515 l 0.38717,-16.15953 25.76271,23.70214 c 30.6121,28.16366 52.81368,48.79769 55.01673,51.13224 l 1.593,1.68808 -93.79639,-0.0184 -93.79639,-0.0184 -20.06779,-18.50091 c -43.84945,-40.42569 -52.33899,-48.20471 -52.33899,-47.95857 0,0.14093 15.43729,14.51774 34.30509,31.94848 18.86779,17.43073 34.89678,32.33474 35.61996,33.12001 l 1.31489,1.42778 -7.28099,0.12177 c -4.85484,0.0812 -2.58207,0.22309 6.82071,0.42583 7.75594,0.16722 68.28475,0.29548 134.50848,0.285 111.86814,-0.0177 120.52505,-0.0839 122.07466,-0.93308 z M 35.264841,337.30258 c -0.637236,-0.89491 -1.278429,-1.62712 -1.424873,-1.62712 -0.344641,0 0.285503,1.10021 1.320245,2.30509 1.303459,1.51779 1.368419,1.09686 0.104628,-0.67797 z M 145.90891,273.15001 c 0,-0.0839 -1.52542,-1.60934 -3.38983,-3.38983 l -3.38983,-3.23726 3.23726,3.38983 c 3.00714,3.14887 3.5424,3.63802 3.5424,3.23726 z m -7.05085,-6.51002 c 0,-0.0848 -1.40339,-1.48816 -3.11864,-3.11865 l -3.11865,-2.96452 2.96453,3.11864 c 2.75413,2.89732 3.27276,3.3671 3.27276,2.96453 z m -7.05085,-6.51034 c 0,-0.0858 -1.28135,-1.36715 -2.84745,-2.84746 l -2.84746,-2.69147 2.69148,2.84746 c 2.50096,2.6459 3.00343,3.09619 3.00343,2.69147 z m -7.05084,-6.50847 c 0,-0.0858 -1.28136,-1.36715 -2.84746,-2.84746 l -2.84746,-2.69148 2.69148,2.84746 c 2.50097,2.64591 3.00344,3.09619 3.00344,2.69148 z m -7.05085,-6.51361 c 0,-0.0886 -1.03729,-1.1259 -2.30509,-2.30508 l -2.30508,-2.14398 2.14397,2.30509 c 1.99387,2.14371 2.4662,2.55432 2.4662,2.14397 z m -6.50848,-5.96978 c 0,-0.0906 -0.91525,-1.00589 -2.03389,-2.0339 l -2.0339,-1.8691 1.86911,2.03389 c 1.73972,1.89311 2.19868,2.28328 2.19868,1.86911 z m -7.05084,-6.53081 c 0,-0.10292 -0.54916,-0.65207 -1.22034,-1.22034 l -1.22034,-1.03321 1.03321,1.22034 c 0.97097,1.14681 1.40747,1.46725 1.40747,1.03321 z M 84.078401,216.14865 c 0,-0.11262 -0.427119,-0.53974 -0.949153,-0.94915 -0.860236,-0.67464 -0.879419,-0.65546 -0.204778,0.20478 0.70854,0.90345 1.153931,1.19077 1.153931,0.74437 z m -8.677966,-8.11794 c 0,-0.10292 -0.549153,-0.65207 -1.220339,-1.22034 l -1.220339,-1.03321 1.033214,1.22034 c 0.970967,1.14681 1.407464,1.46725 1.407464,1.03321 z m -4.881356,-4.30784 c 0,-0.0858 -1.281356,-1.36715 -2.847458,-2.84746 l -2.847458,-2.69147 2.691476,2.84746 c 2.500967,2.6459 3.00344,3.09619 3.00344,2.69147 z m -5.966102,-5.50619 c 0,-0.13115 -6.040678,-5.78695 -13.423729,-12.56846 C 33.939569,169.8591 32.542863,168.60088 34.180096,170.3796 c 1.247516,1.35533 29.929608,27.95059 30.237288,28.03731 0.07458,0.021 0.135593,-0.0691 0.135593,-0.20023 z M 36.349587,87.650102 c 0,-0.727935 -1.572473,0.665988 -2.272713,2.014653 -0.523239,1.007761 -0.432458,0.987785 0.843172,-0.18553 0.786247,-0.723185 1.429541,-1.54629 1.429541,-1.829123 z"
     id="path89"
     inkscape:connector-curvature="0"
     transform="scale(0.75)" />
  <path
     style="fill:#000000;stroke-width:0.54237288"
     d="m 69.163147,351.99837 c -29.930451,-0.23447 -41.517442,-0.4964 -42.305085,-0.95635 -1.871759,-1.09304 -4.439394,-4.17207 -5.079806,-6.09156 -0.451767,-1.35406 -0.61511,-36.5766 -0.61511,-132.63957 V 81.514954 l 1.530926,-2.411271 c 0.998232,-1.572256 2.487999,-2.931145 4.281489,-3.905355 l 2.750564,-1.494084 226.676315,0.138152 226.67631,0.138152 2.62721,1.627119 c 1.72547,1.068642 3.06052,2.447573 3.88965,4.01751 l 1.26245,2.39039 -0.0413,130.762153 c -0.0312,99.02315 -0.1966,131.19039 -0.68124,132.52647 -0.84044,2.31693 -3.39523,4.97824 -5.70572,5.94363 -1.58822,0.6636 -28.28415,0.79477 -187.94875,0.92345 -102.35369,0.0825 -204.646757,0.005 -227.317943,-0.1729 z m 357.699123,-11.30588 -19.25003,-0.14984 -4.61388,-4.46749 -4.61389,-4.46749 4.05373,4.20339 4.05373,4.20339 h -93.73724 -93.73725 l -2.60128,-2.33878 c -1.4307,-1.28632 -8.54453,-7.79843 -15.8085,-14.47133 -7.26397,-6.67291 -12.54311,-11.41708 -11.73141,-10.54259 0.81169,0.87449 7.56806,7.20354 15.01415,14.06456 7.44609,6.86102 13.55486,12.65763 13.57504,12.88136 0.0202,0.22373 -1.7328,0.46548 -3.89551,0.53722 -8.62159,0.286 82.35865,0.69353 155.25423,0.69543 42.50848,10e-4 68.62563,-0.0654 58.03811,-0.14783 z m 44.34449,-0.52321 c -0.815,-0.12376 -2.2794,-0.12624 -3.25424,-0.006 -0.97483,0.12071 -0.30802,0.22196 1.48181,0.225 1.78983,0.003 2.58743,-0.0957 1.77243,-0.21947 z m 5.85491,-3.00229 1.593,-1.76271 -1.76271,1.593 c -0.96949,0.87614 -1.76271,1.66936 -1.76271,1.76271 0,0.41901 0.44753,0.0501 1.93242,-1.593 z m -80.57649,-7.06938 c 0,-0.0848 -1.40339,-1.48815 -3.11864,-3.11864 l -3.11865,-2.96452 2.96453,3.11864 c 2.75413,2.89732 3.27276,3.3671 3.27276,2.96452 z m 83.38973,-94.62554 c -0.0797,-16.3322 -0.14495,-2.96949 -0.14495,29.69492 0,32.66441 0.0652,46.02712 0.14495,29.69491 0.0797,-16.3322 0.0797,-43.05762 0,-59.38983 z m -93.69481,84.74577 c -1.31744,-1.34238 -2.51738,-2.44068 -2.66654,-2.44068 -0.14915,0 0.80672,1.0983 2.12416,2.44068 1.31744,1.34237 2.51738,2.44067 2.66654,2.44067 0.14915,0 -0.80672,-1.0983 -2.12416,-2.44067 z m -4.88136,-4.22891 c 0,-0.0886 -1.03729,-1.1259 -2.30508,-2.30509 l -2.30509,-2.14397 2.14397,2.30509 c 1.99387,2.1437 2.4662,2.55432 2.4662,2.14397 z m -61.03203,-5.07861 c 1.23074,-0.40095 1.70697,-0.96591 2.01336,-2.38849 0.83196,-3.86281 1.40797,-32.01297 1.12304,-54.88499 l -0.29565,-23.73355 -1.3512,-1.3512 c -1.22273,-1.22273 -1.77878,-1.3512 -5.848,-1.3512 h -4.4968 l -0.21006,-17.76271 c -0.24358,-20.59763 -0.49902,-22.09003 -5.54669,-32.40678 -7.578,-15.48838 -21.19825,-26.07527 -38.50683,-29.93097 -5.1081,-1.13789 -17.16645,-1.13789 -22.27456,0 -9.59667,2.13778 -17.87442,6.29015 -25.65957,12.8716 l -3.9833,3.36743 -3.60992,-3.45912 -3.60993,-3.45911 3.42648,3.57698 3.42647,3.57699 -3.0991,4.28742 c -3.73592,5.16842 -7.99786,13.83462 -9.17694,18.6603 -0.61001,2.49663 -1.04112,8.74852 -1.47732,21.42373 -0.39352,11.43513 -0.82568,18.0422 -1.19675,18.29678 -0.31944,0.21916 -1.55707,0.40357 -2.75029,0.4098 -3.25613,0.017 -6.14113,0.99168 -6.90887,2.3341 -1.01739,1.77894 -0.99797,80.28665 0.0201,81.30531 0.44019,0.44043 2.8818,0.83134 6.50847,1.04202 9.48974,0.55127 121.67251,0.16576 123.48385,-0.42434 z m -133.13746,0.20579 c 0,-0.0839 -1.52543,-1.60934 -3.38983,-3.38983 l -3.38983,-3.23726 3.23726,3.38983 c 3.00714,3.14887 3.5424,3.63802 3.5424,3.23726 z m 187.11864,-1.63566 c 0,-0.0886 -1.03729,-1.1259 -2.30508,-2.30508 l -2.30509,-2.14397 2.14398,2.30508 c 1.99387,2.14371 2.46619,2.55432 2.46619,2.14397 z M 180.0784,304.60609 c 0,-0.0848 -1.40339,-1.48816 -3.11864,-3.11865 l -3.11865,-2.96452 2.96453,3.11865 c 2.75413,2.89731 3.27276,3.36709 3.27276,2.96452 z m 187.11865,-1.63411 c 0,-0.0886 -1.03729,-1.1259 -2.30509,-2.30509 l -2.30508,-2.14397 2.14397,2.30509 c 1.99387,2.1437 2.4662,2.55432 2.4662,2.14397 z m -194.1695,-4.87437 c 0,-0.0848 -1.40339,-1.48815 -3.11864,-3.11864 l -3.11864,-2.96452 2.96452,3.11864 c 2.75414,2.89732 3.27276,3.3671 3.27276,2.96452 z m 185.49153,-3.3713 c -1.31744,-1.34237 -2.51738,-2.44068 -2.66653,-2.44068 -0.14916,0 0.80672,1.09831 2.12416,2.44068 1.31744,1.34237 2.51738,2.44068 2.66653,2.44068 0.14915,0 -0.80672,-1.09831 -2.12416,-2.44068 z m -192.54237,-3.13903 c 0,-0.0858 -1.28136,-1.36715 -2.84746,-2.84746 l -2.84746,-2.69148 2.69148,2.84746 c 2.50097,2.64591 3.00344,3.09619 3.00344,2.69148 z m 187.66101,-1.08988 c 0,-0.0886 -1.03729,-1.1259 -2.30508,-2.30508 l -2.30509,-2.14398 2.14398,2.30509 c 1.99387,2.14371 2.46619,2.55432 2.46619,2.14397 z m -194.71186,-5.4186 c 0,-0.0858 -1.28136,-1.36714 -2.84746,-2.84745 l -2.84746,-2.69148 2.69148,2.84746 c 2.50097,2.6459 3.00344,3.09619 3.00344,2.69147 z m 187.66102,-1.08987 c 0,-0.0886 -1.03729,-1.1259 -2.30509,-2.30509 l -2.30508,-2.14397 2.14397,2.30509 c 1.99387,2.1437 2.4662,2.55432 2.4662,2.14397 z m -195.25424,-5.97471 c 0,-0.0933 -0.79322,-0.88656 -1.76271,-1.76271 l -1.76272,-1.593 1.593,1.76272 c 1.4849,1.64309 1.93243,2.01201 1.93243,1.59299 z m 188.20339,-0.53744 c 0,-0.0906 -0.91526,-1.00589 -2.0339,-2.0339 l -2.0339,-1.86911 1.86911,2.0339 c 1.73972,1.89311 2.19869,2.28327 2.19869,1.86911 z M 145.36654,272.5991 c 0,-0.0886 -1.03729,-1.1259 -2.30509,-2.30509 l -2.30508,-2.14397 2.14397,2.30508 c 1.99387,2.14371 2.4662,2.55433 2.4662,2.14398 z m 187.66101,-1.08475 c 0,-0.0886 -1.03728,-1.1259 -2.30508,-2.30508 l -2.30509,-2.14398 2.14398,2.30509 c 1.99387,2.14371 2.46619,2.55432 2.46619,2.14397 z m -194.71186,-5.4274 c 0,-0.0906 -0.91526,-1.00589 -2.0339,-2.0339 l -2.0339,-1.86911 1.86911,2.0339 c 1.73972,1.89311 2.19869,2.28327 2.19869,1.86911 z m 188.20339,-0.55423 c 0,-0.0971 -0.67119,-0.76834 -1.49153,-1.49153 l -1.49152,-1.31488 1.31488,1.49153 c 1.22896,1.39405 1.66817,1.74025 1.66817,1.31488 z m -195.25424,-5.95425 c 0,-0.0906 -0.91525,-1.00589 -2.0339,-2.0339 l -2.0339,-1.86911 1.86911,2.0339 c 1.73972,1.89311 2.19869,2.28328 2.19869,1.86911 z m -7.05085,-6.5134 c 0,-0.0933 -0.79322,-0.88656 -1.76271,-1.76271 l -1.76271,-1.593 1.593,1.76271 c 1.4849,1.6431 1.93242,2.01202 1.93242,1.593 z m -7.05084,-6.52588 c 0,-0.10292 -0.54916,-0.65208 -1.22034,-1.22034 l -1.22034,-1.03322 1.03321,1.22034 c 0.97097,1.14682 1.40747,1.46725 1.40747,1.03322 z m -6.50848,-5.9661 c 0,-0.10293 -0.54915,-0.65208 -1.22034,-1.22034 l -1.22034,-1.03322 1.03322,1.22034 c 0.97097,1.14682 1.40746,1.46725 1.40746,1.03322 z m 313.4792,-4.94211 c -0.73898,-0.73294 -29.0453,-26.83612 -62.90293,-58.00705 l -61.55932,-56.67443 -15.9096,-0.0268 c -12.08769,-0.0204 -15.85781,0.12853 -15.69401,0.61996 0.11858,0.35574 28.26774,26.4655 62.55368,58.0217 l 62.33807,57.3749 16.25886,0.0122 16.25886,0.0122 -1.34361,-1.33262 z M 69.976706,203.16677 c 0,-0.0934 -0.79322,-0.88657 -1.762712,-1.76272 l -1.762712,-1.59299 1.592999,1.76271 c 1.484898,1.6431 1.932425,2.01201 1.932425,1.593 z m -8.135593,-7.6947 c -1.31744,-1.34237 -2.517379,-2.44067 -2.666531,-2.44067 -0.149153,0 0.806718,1.0983 2.124158,2.44067 1.317439,1.34238 2.517378,2.44068 2.66653,2.44068 0.149153,0 -0.806718,-1.0983 -2.124157,-2.44068 z m -4.338983,-3.6814 c 0,-0.0858 -1.281356,-1.36715 -2.847458,-2.84746 l -2.847458,-2.69148 2.691476,2.84746 c 2.500967,2.64591 3.00344,3.09619 3.00344,2.69148 z m -6.508475,-5.9661 c 0,-0.0858 -1.281356,-1.36715 -2.847458,-2.84746 l -2.847457,-2.69148 2.691475,2.84746 c 2.500967,2.64591 3.00344,3.09619 3.00344,2.69148 z m -6.508475,-5.9661 c 0,-0.0858 -1.281356,-1.36715 -2.847457,-2.84746 l -2.847458,-2.69148 2.691476,2.84746 c 2.500967,2.64591 3.003439,3.09619 3.003439,2.69148 z m -7.050847,-6.52221 c 0,-0.0933 -0.79322,-0.88656 -1.762712,-1.76271 l -1.762712,-1.593 1.592999,1.76271 c 1.484898,1.6431 1.932425,2.01201 1.932425,1.593 z M 206.1123,154.90931 c 0,-0.0858 -1.28136,-1.36715 -2.84746,-2.84745 l -2.84746,-2.69148 2.69148,2.84746 c 2.50097,2.6459 3.00344,3.09619 3.00344,2.69147 z m -8.13559,-7.59835 c 0,-0.0886 -1.03729,-1.1259 -2.30509,-2.30508 l -2.30508,-2.14398 2.14397,2.30509 c 1.99387,2.14371 2.4662,2.55432 2.4662,2.14397 z m -7.05085,-6.50847 c 0,-0.0886 -1.03729,-1.1259 -2.30509,-2.30509 l -2.30508,-2.14397 2.14397,2.30508 c 1.99387,2.14371 2.4662,2.55433 2.4662,2.14398 z m -7.05085,-6.51215 c 0,-0.0906 -0.91525,-1.00589 -2.0339,-2.0339 l -2.0339,-1.86911 1.86911,2.0339 c 1.73972,1.89311 2.19869,2.28327 2.19869,1.86911 z m -7.05085,-6.5048 c 0,-0.0886 -1.03728,-1.1259 -2.30508,-2.30509 l -2.30509,-2.14397 2.14398,2.30509 c 1.99387,2.1437 2.46619,2.55432 2.46619,2.14397 z M 479.37284,105.98055 C 479.1786,90.399142 479.06683,89.864632 475.44271,87.185202 l -1.65475,-1.223409 -30.65139,-0.08551 c -16.85827,-0.04703 -28.82088,0.01533 -26.58359,0.13858 l 4.06779,0.224089 17.0822,15.701308 17.0822,15.70131 h 12.07034 12.07035 l 0.0978,3.9322 c 0.0814,3.27229 0.13362,3.47709 0.31139,1.22034 0.11749,-1.49153 0.13452,-9.05763 0.0378,-16.81356 z m -309.59952,15.29651 c 0,-0.0886 -1.03729,-1.1259 -2.30509,-2.30508 l -2.30508,-2.14397 2.14397,2.30508 c 1.99387,2.14371 2.4662,2.55432 2.4662,2.14397 z m -8.67797,-8.24566 c -1.31744,-1.34238 -2.51738,-2.44068 -2.66653,-2.44068 -0.14916,0 0.80672,1.0983 2.12416,2.44068 1.31744,1.34237 2.51738,2.44067 2.66653,2.44067 0.14915,0 -0.80672,-1.0983 -2.12416,-2.44067 z m -4.88136,-4.22891 c 0,-0.0886 -1.03728,-1.1259 -2.30508,-2.30509 l -2.30509,-2.14397 2.14398,2.30508 c 1.99387,2.14371 2.46619,2.55432 2.46619,2.14398 z m -7.05084,-6.50848 c 0,-0.0886 -1.03729,-1.1259 -2.30509,-2.305083 l -2.30508,-2.143972 2.14397,2.305085 c 1.99387,2.14371 2.4662,2.55432 2.4662,2.14397 z m -7.05085,-6.508473 c 0,-0.08861 -1.03729,-1.125901 -2.30509,-2.305085 l -2.30508,-2.143972 2.14397,2.305085 c 1.99387,2.143706 2.4662,2.554319 2.4662,2.143972 z M 35.807214,88.220608 c 0,-0.30255 -0.359734,-0.24382 -0.813559,0.132821 -0.447458,0.371357 -0.813559,0.919262 -0.813559,1.217567 0,0.302551 0.359734,0.243821 0.813559,-0.132821 0.447458,-0.371357 0.813559,-0.919262 0.813559,-1.217567 z m 97.921516,-0.385328 -1.53567,-1.602895 4.28165,-0.186261 4.28166,-0.18626 -4.85216,-0.10915 -4.85216,-0.109149 1.83991,1.898305 c 1.01195,1.044068 1.95973,1.898305 2.10618,1.898305 0.14644,0 -0.42479,-0.721303 -1.26941,-1.602895 z"
     id="path91"
     inkscape:connector-curvature="0"
     transform="scale(0.75)" />
  <path
     style="fill:#000000;stroke-width:0.54237288"
     d="m 59.321358,351.9997 c -31.057962,-0.31392 -32.118747,-0.35876 -33.325339,-1.40898 -2.480566,-2.15909 -3.73744,-3.83267 -4.276908,-5.69492 -0.364825,-1.25937 -0.550933,-45.8771 -0.55294,-132.56251 l -0.003,-130.664219 1.380634,-2.355872 c 0.916116,-1.563235 2.330355,-2.900552 4.203389,-3.974765 l 2.822757,-1.618893 226.198599,-0.0051 226.19858,-0.0051 2.8808,1.435564 c 2.05231,1.022707 3.33081,2.145123 4.44548,3.902797 l 1.56467,2.467231 -0.003,130.741277 c -0.002,84.32938 -0.19304,131.42524 -0.53828,132.66802 -0.65202,2.34707 -3.40167,5.27496 -5.96717,6.354 -1.65767,0.69721 -26.68375,0.81409 -197.42373,0.92206 -107.53898,0.068 -209.961003,-0.0223 -227.604494,-0.20061 z M 217.3681,338.52927 c -1.26866,-1.11515 -5.3575,-4.81431 -9.08631,-8.22036 -6.42472,-5.86859 -4.21769,-3.55037 5.01695,5.2697 2.31186,2.20808 4.20339,4.09324 4.20339,4.18924 0,0.096 -0.67119,0.27622 -1.49153,0.40049 -0.92066,0.13947 -0.50489,0.25705 1.08631,0.30722 l 2.57784,0.0813 z m 189.94517,1.31286 c -0.43681,-0.39307 -2.50267,-2.27659 -4.5908,-4.1856 l -3.79661,-3.47092 3.7805,3.91284 3.7805,3.91285 -91.91609,0.13875 -91.9161,0.13874 92.7264,0.13401 c 76.75465,0.11094 92.58959,0.0109 91.9322,-0.58067 z m 63.34773,0.34204 c -0.51856,-0.13575 -1.49483,-0.14068 -2.1695,-0.011 -0.67466,0.12973 -0.25039,0.2408 0.94283,0.24682 1.19322,0.006 1.74522,-0.10012 1.22667,-0.23587 z m 6.13642,-2.70244 1.31488,-1.44797 -1.47448,1.04119 c -0.81097,0.57266 -1.48215,1.22424 -1.49153,1.44797 -0.028,0.66792 0.26941,0.48038 1.65113,-1.04119 z m -80.85461,-7.92835 c 0,-0.0858 -1.28136,-1.36715 -2.84746,-2.84746 l -2.84746,-2.69147 2.69148,2.84745 c 2.50097,2.64591 3.00344,3.09619 3.00344,2.69148 z m -195.25424,-5.9661 c 0,-0.0858 -1.28136,-1.36715 -2.84746,-2.84746 l -2.84745,-2.69148 2.69147,2.84746 c 2.50097,2.64591 3.00344,3.09619 3.00344,2.69148 z m 186.64559,-2.42636 c -0.55619,-1.03925 -2.03608,-2.42395 -3.32356,-3.10977 -0.44745,-0.23835 0.15123,0.57877 1.33042,1.81581 2.3534,2.46889 2.76493,2.73605 1.99314,1.29396 z M 193.09535,316.5227 c 0,-0.0933 -0.79322,-0.88656 -1.76271,-1.76271 l -1.76271,-1.593 1.59299,1.76271 c 1.4849,1.6431 1.93243,2.01201 1.93243,1.593 z m 187.66102,-1.07982 c 0,-0.0906 -0.91526,-1.00589 -2.0339,-2.0339 l -2.0339,-1.86911 1.86911,2.0339 c 1.73972,1.89311 2.19869,2.28327 2.19869,1.86911 z m -79.61988,-4.09563 c 13.34316,-0.23445 20.10262,-0.54697 20.5033,-0.94797 0.75493,-0.75551 1.5285,-13.53842 1.95944,-32.37866 0.31294,-13.68187 0.38712,-14.48675 1.2621,-13.69492 0.51128,0.46271 1.12635,0.84129 1.36682,0.84129 0.24047,0 -0.17875,-0.48452 -0.9316,-1.07671 l -1.36882,-1.07672 -0.40054,-16.83658 -0.40054,-16.83658 -1.35998,-1.06975 c -1.08975,-0.8572 -2.20101,-1.06976 -5.59259,-1.06976 h -4.2326 l -0.28934,-2.30509 c -0.15913,-1.26779 -0.39145,-9.50508 -0.51627,-18.30508 -0.25913,-18.27011 -0.42327,-19.25676 -4.66771,-28.05908 -3.54984,-7.36182 -6.4056,-11.49683 -11.36549,-16.45672 -8.96993,-8.96994 -20.39457,-14.45468 -32.7883,-15.74103 -15.85949,-1.64606 -29.73567,2.59056 -42.64275,13.01952 -2.23729,1.80774 -4.23118,3.29092 -4.43087,3.29595 -0.19969,0.005 -1.78613,-1.25692 -3.52542,-2.80435 l -3.16235,-2.8135 3.15479,3.27254 3.15479,3.27253 -2.8836,4.01985 c -3.50363,4.88418 -6.35834,10.27273 -8.24927,15.57127 -1.70958,4.79043 -2.27425,10.74783 -2.79912,29.53111 -0.42672,15.27066 0.25325,13.58472 -5.74067,14.23382 -4.6656,0.50525 -5.0159,0.94809 -5.43282,6.86816 -0.47347,6.72296 -0.55356,59.03975 -0.10471,68.39878 0.1945,4.05547 0.55163,7.69406 0.79363,8.08576 0.31429,0.50871 2.65367,0.80121 8.18874,1.02384 10.80918,0.43477 78.4939,0.45991 102.50175,0.0381 z M 186.58688,310.5652 c 0,-0.0886 -1.03729,-1.1259 -2.30509,-2.30509 l -2.30508,-2.14397 2.14397,2.30509 c 1.99387,2.1437 2.4662,2.55432 2.4662,2.14397 z m 187.11864,-1.6308 c 0,-0.0906 -0.91525,-1.00589 -2.0339,-2.0339 l -2.0339,-1.8691 1.86911,2.03389 c 1.73972,1.89311 2.19869,2.28328 2.19869,1.86911 z m -194.16949,-4.88135 c 0,-0.0906 -0.91526,-1.00589 -2.0339,-2.0339 l -2.0339,-1.86911 1.86911,2.0339 c 1.73972,1.89311 2.19869,2.28327 2.19869,1.86911 z m 187.11864,-1.62712 c 0,-0.0906 -0.91525,-1.00589 -2.0339,-2.0339 l -2.03389,-1.86911 1.8691,2.0339 c 1.73973,1.89311 2.19869,2.28328 2.19869,1.86911 z m -194.16949,-4.88136 c 0,-0.0906 -0.91525,-1.00589 -2.0339,-2.0339 l -2.0339,-1.8691 1.86911,2.03389 c 1.73972,1.89311 2.19869,2.28328 2.19869,1.86911 z m 186.57549,-2.54817 c -0.63767,-0.89553 -1.69158,-1.90167 -2.34202,-2.23588 -0.75132,-0.38604 -0.40072,0.20777 0.96135,1.62822 2.5405,2.6494 2.96872,2.83786 1.38067,0.60766 z m -193.62634,-3.9603 c 0,-0.0906 -0.91525,-1.00589 -2.0339,-2.0339 l -2.03389,-1.86911 1.86911,2.0339 c 1.73972,1.89311 2.19868,2.28327 2.19868,1.86911 z m 187.66102,-1.08475 c 0,-0.0906 -0.91525,-1.00589 -2.0339,-2.0339 l -2.0339,-1.86911 1.86911,2.0339 c 1.73972,1.89311 2.19869,2.28328 2.19869,1.86911 z M 158.38349,284.5227 c 0,-0.0933 -0.79322,-0.88656 -1.76272,-1.76271 l -1.76271,-1.593 1.593,1.76271 c 1.4849,1.6431 1.93243,2.01201 1.93243,1.593 z m 187.66101,-1.07982 c 0,-0.0906 -0.91525,-1.00589 -2.0339,-2.0339 l -2.03389,-1.86911 1.86911,2.0339 c 1.73972,1.89311 2.19868,2.28327 2.19868,1.86911 z m -7.05084,-6.5134 c 0,-0.0933 -0.79323,-0.88656 -1.76272,-1.76271 l -1.76271,-1.593 1.593,1.76271 c 1.4849,1.6431 1.93243,2.01201 1.93243,1.593 z m -194.1695,-4.89877 c 0,-0.10292 -0.54915,-0.65207 -1.22034,-1.22034 l -1.22033,-1.03321 1.03321,1.22034 c 0.97097,1.14681 1.40746,1.46725 1.40746,1.03321 z m 187.66102,-1.06241 c 0,-0.0906 -0.91525,-1.00589 -2.0339,-2.0339 l -2.0339,-1.86911 1.86911,2.0339 c 1.73972,1.89311 2.19869,2.28328 2.19869,1.86911 z m -194.71186,-5.44606 c 0,-0.10292 -0.54916,-0.65208 -1.22034,-1.22034 l -1.22034,-1.03322 1.03321,1.22034 c 0.97097,1.14682 1.40747,1.46725 1.40747,1.03322 z m -7.05085,-6.52613 c 0,-0.11262 -0.42712,-0.53974 -0.94915,-0.94915 -0.86024,-0.67464 -0.87942,-0.65546 -0.20478,0.20477 0.70854,0.90346 1.15393,1.19077 1.15393,0.74438 z M 425.21158,236.2334 c -6.18176,-5.6837 -58.22387,-53.60257 -87.42904,-80.50213 l -37.8213,-34.83547 h -16.00921 c -9.44697,0 -16.00922,0.20567 -16.00922,0.50174 0,0.49994 23.83848,22.66863 89.76271,83.47518 l 34.71186,32.0172 16.7942,0.0368 c 14.10625,0.031 16.66707,-0.08 16,-0.69336 z M 69.434333,202.58933 c 0,-0.11262 -0.427119,-0.53974 -0.949153,-0.94915 -0.860233,-0.67464 -0.879417,-0.65546 -0.204775,0.20477 0.708539,0.90346 1.153928,1.19077 1.153928,0.74438 z m -5.966102,-5.38374 c 0,-0.0906 -0.915254,-1.00589 -2.033898,-2.0339 l -2.033898,-1.86911 1.869107,2.0339 c 1.739725,1.89311 2.198689,2.28328 2.198689,1.86911 z m -6.508474,-5.9661 c 0,-0.0906 -0.915255,-1.00589 -2.033899,-2.0339 l -2.033898,-1.86911 1.869108,2.0339 c 1.739724,1.89311 2.198689,2.28327 2.198689,1.86911 z m -6.508475,-5.9661 c 0,-0.0906 -0.915254,-1.00589 -2.033898,-2.0339 l -2.033899,-1.86911 1.869108,2.0339 c 1.739724,1.89311 2.198689,2.28327 2.198689,1.86911 z m -6.508474,-5.97103 c 0,-0.0933 -0.793221,-0.88656 -1.762712,-1.76271 l -1.762712,-1.593 1.592998,1.76271 c 1.484898,1.6431 1.932426,2.01202 1.932426,1.593 z m -7.050848,-6.54354 c 0,-0.11262 -0.427119,-0.53974 -0.949152,-0.94915 -0.860234,-0.67464 -0.879418,-0.65546 -0.204776,0.20478 0.708539,0.90345 1.153928,1.19077 1.153928,0.74437 z m 166.50847,-20.67658 c -1.31744,-1.34237 -2.51738,-2.44067 -2.66653,-2.44067 -0.14915,0 0.80672,1.0983 2.12416,2.44067 1.31744,1.34238 2.51738,2.44068 2.66653,2.44068 0.14916,0 -0.80672,-1.0983 -2.12416,-2.44068 z m -5.9661,-5.31733 c 0,-0.0906 -0.91525,-1.00589 -2.0339,-2.0339 l -2.03389,-1.86911 1.86911,2.0339 c 1.73972,1.89311 2.19868,2.28328 2.19868,1.86911 z m -7.05084,-6.50847 c 0,-0.0906 -0.91526,-1.00589 -2.0339,-2.0339 l -2.0339,-1.86911 1.86911,2.0339 c 1.73972,1.89311 2.19869,2.28327 2.19869,1.86911 z m -7.05085,-6.5134 c 0,-0.0933 -0.79322,-0.88657 -1.76271,-1.76271 l -1.76272,-1.593 1.593,1.76271 c 1.4849,1.6431 1.93243,2.01201 1.93243,1.593 z m -7.05085,-6.50355 c 0,-0.0906 -0.91525,-1.00589 -2.0339,-2.0339 l -2.0339,-1.86911 1.86911,2.0339 c 1.73972,1.89311 2.19869,2.28327 2.19869,1.86911 z m 303.04966,-23.8032 c -0.0928,-3.970149 -0.16897,-0.87269 -0.16928,6.88324 -3.1e-4,7.75593 0.0756,11.00424 0.16872,7.21846 0.0931,-3.78579 0.0933,-10.13155 5.4e-4,-14.1017 z m -310.10051,17.29472 c 0,-0.0906 -0.91525,-1.00589 -2.0339,-2.0339 l -2.03389,-1.8691 1.86911,2.03389 c 1.73972,1.89311 2.19868,2.28328 2.19868,1.86911 z m 285.77933,-3.22504 c -0.12758,-0.0746 -1.20555,-0.98983 -2.39548,-2.0339 l -2.16351,-1.8983 1.86911,2.0339 c 1.02801,1.11864 2.10598,2.0339 2.39548,2.0339 0.28951,0 0.42199,-0.061 0.2944,-0.1356 z m -292.76085,-3.53149 c -0.5562,-1.03925 -2.03608,-2.42395 -3.32356,-3.10977 -0.44746,-0.23835 0.15123,0.57876 1.33041,1.81581 2.3534,2.46889 2.76493,2.73605 1.99315,1.29396 z m 287.10205,-1.67749 c -0.58832,-0.55307 -7.22762,-6.65161 -14.754,-13.552304 L 420.91315,86.19797 439.75001,86.0481 458.58688,85.89823 437.43433,85.86107 c -11.63389,-0.02044 -20.2439,0.05818 -19.13335,0.174717 1.77302,0.186044 3.81233,1.861075 16.72732,13.739333 8.08947,7.44011 14.86219,13.52746 15.05049,13.52746 0.1883,0 -0.139,-0.45251 -0.72732,-1.00559 z m -293.67985,-4.04055 c 0,-0.0906 -0.91525,-1.00589 -2.0339,-2.0339 l -2.0339,-1.86911 1.86911,2.0339 c 1.73972,1.89311 2.19869,2.28327 2.19869,1.86911 z m -7.05085,-6.50848 c 0,-0.0906 -0.91525,-1.00589 -2.03389,-2.033898 l -2.0339,-1.869107 1.86911,2.033898 c 1.73972,1.893107 2.19868,2.283277 2.19868,1.869107 z m -7.05084,-6.508474 c 0,-0.09064 -0.91526,-1.005889 -2.0339,-2.033898 l -2.0339,-1.869108 1.86911,2.033899 c 1.73972,1.893108 2.19869,2.283274 2.19869,1.869107 z m 337.17276,-3.767413 c -0.15046,-0.372881 -0.27357,-0.0678 -0.27357,0.677967 0,0.745762 0.12311,1.050847 0.27357,0.677966 0.15046,-0.372882 0.15046,-0.983051 0,-1.355933 z M 35.807214,88.220608 c 0,-0.30255 -0.359734,-0.24382 -0.813559,0.132821 -0.447458,0.371357 -0.813559,0.919262 -0.813559,1.217567 0,0.302551 0.359734,0.243821 0.813559,-0.132821 0.447458,-0.371357 0.813559,-0.919262 0.813559,-1.217567 z m 97.964366,-0.656041 -0.87226,-1.331235 3.65733,-0.189654 c 3.59801,-0.186578 3.58311,-0.191377 -0.9187,-0.295884 l -4.57605,-0.106229 1.55887,1.627119 c 1.8909,1.973672 2.32292,2.084747 1.15081,0.295883 z"
     id="path93"
     inkscape:connector-curvature="0"
     transform="scale(0.75)" />
  <path
     style="fill:#000000;stroke-width:0.54237288"
     d="m 53.962782,351.99919 -26.590194,-0.32373 -1.593323,-1.25383 c -0.876328,-0.6896 -2.212435,-2.12395 -2.969128,-3.18743 L 21.434333,345.3006 21.294394,213.27003 21.154455,81.239473 22.816271,78.824106 c 1.055625,-1.534299 2.633391,-2.907702 4.325298,-3.765056 l 2.663483,-1.349688 226.323118,0.0051 226.32311,0.0051 2.82276,1.618893 c 1.87304,1.074213 3.28727,2.41153 4.20339,3.974765 l 1.38063,2.355872 -0.003,130.664218 c -0.002,84.27869 -0.19304,131.3482 -0.53828,132.59096 -0.65028,2.3408 -3.39395,5.26762 -5.96717,6.3655 -1.67058,0.71276 -26.0045,0.82331 -202.84746,0.92155 -110.52203,0.0614 -212.914738,-0.0341 -227.539346,-0.21211 z M 218.03217,339.29943 c -0.73898,-0.69157 -3.0703,-2.82717 -5.18071,-4.74577 l -3.83711,-3.48837 4.29877,4.27306 c 3.2148,3.19555 4.11399,4.39015 3.56593,4.73746 -0.50232,0.31831 -0.22489,0.46701 0.88194,0.47271 l 1.61479,0.008 -1.34361,-1.25739 z m 152.28352,0.85164 c -4.69831,-0.0903 -12.38644,-0.0903 -17.08475,0 -4.6983,0.0903 -0.85423,0.16417 8.54238,0.16417 9.39661,0 13.24067,-0.0739 8.54237,-0.16417 z m 99.78531,0.0781 c -0.18022,-0.18022 -0.64803,-0.19949 -1.03955,-0.0428 -0.43267,0.17314 -0.30415,0.30166 0.32769,0.32768 0.57175,0.0235 0.89209,-0.10464 0.71186,-0.28486 z m -63.31073,-0.37066 c 0,-0.0858 -1.28136,-1.36715 -2.84746,-2.84746 l -2.84746,-2.69148 2.69148,2.84746 c 2.50097,2.64591 3.00344,3.09619 3.00344,2.69148 z m 69.69491,-2.01351 c 0.53993,-0.59662 0.85965,-1.08475 0.7105,-1.08475 -0.14915,0 -0.71295,0.48813 -1.25287,1.08475 -0.53993,0.59661 -0.85965,1.08474 -0.7105,1.08474 0.14915,0 0.71294,-0.48813 1.25287,-1.08474 z m -269.28814,-8.32272 c 0,-0.10292 -0.54915,-0.65208 -1.22033,-1.22034 l -1.22034,-1.03322 1.03321,1.22034 c 0.97097,1.14682 1.40746,1.46725 1.40746,1.03322 z m 187.66102,-1.07427 c 0,-0.0971 -0.67118,-0.76834 -1.49152,-1.49152 l -1.49153,-1.31488 1.31488,1.49152 c 1.22896,1.39406 1.66817,1.74025 1.66817,1.31488 z M 200.1462,323.0361 c 0,-0.0906 -0.91526,-1.00589 -2.0339,-2.0339 l -2.0339,-1.86911 1.86911,2.0339 c 1.73972,1.89311 2.19869,2.28327 2.19869,1.86911 z m 186.78489,-2.24335 c -0.16484,-0.42956 -0.9504,-1.19536 -1.74569,-1.70177 -1.43982,-0.91682 -1.4392,-0.91349 0.14702,0.78102 1.78422,1.90605 2.03139,2.0484 1.59867,0.92075 z m -194.37811,-4.84749 c 0,-0.11262 -0.42712,-0.53974 -0.94916,-0.94915 -0.86023,-0.67464 -0.87942,-0.65546 -0.20477,0.20478 0.70854,0.90345 1.15393,1.19077 1.15393,0.74437 z m 187.66101,-1.06709 c 0,-0.10292 -0.54915,-0.65207 -1.22033,-1.22034 l -1.22034,-1.03321 1.03321,1.22034 c 0.97097,1.14681 1.40746,1.46724 1.40746,1.03321 z m -61.99658,-3.96211 c 2.3675,-0.23489 3.45816,-0.59081 3.69403,-1.20547 0.49138,-1.28053 1.32387,-17.374 1.69475,-32.76242 0.29726,-12.3337 0.39692,-13.38288 1.21161,-12.7551 0.78037,0.60133 0.77743,0.55379 -0.0243,-0.3931 -0.79123,-0.93442 -0.96391,-3.28975 -1.30325,-17.77547 l -0.39118,-16.69834 -1.49234,-1.06263 c -1.16627,-0.83046 -2.39022,-1.06264 -5.60167,-1.06264 -3.82639,0 -4.12642,-0.084 -4.3576,-1.22034 -0.13655,-0.67119 -0.38005,-8.78644 -0.5411,-18.0339 -0.34419,-19.76131 -0.56307,-21.04503 -5.18036,-30.38125 -7.5294,-15.22459 -20.24604,-25.75438 -36.08484,-29.87946 -7.35755,-1.9162 -19.25265,-2.06609 -26.30508,-0.33145 -8.7605,2.15475 -16.21861,5.94782 -24.16168,12.28822 -2.07379,1.65537 -3.95287,3.01112 -4.17574,3.01278 -0.22287,0.002 -1.44321,-0.90028 -2.71187,-2.00431 l -2.30664,-2.00734 2.36334,2.49401 2.36334,2.49401 -2.13311,2.90316 c -5.35729,7.29126 -9.39042,15.86133 -10.43233,22.16783 -0.31939,1.93324 -0.85666,11.08109 -1.19394,20.32855 -0.33727,9.24745 -0.84413,16.96333 -1.12634,17.14638 -0.28222,0.18306 -2.01998,0.47354 -3.86169,0.64552 -4.32976,0.40432 -5.19076,0.76651 -5.90851,2.48545 -0.39568,0.94762 -0.66484,11.93609 -0.81191,33.14637 -0.20374,29.38252 0.23453,47.19857 1.18447,48.15026 0.21526,0.21567 5.67985,0.54874 12.14352,0.74017 13.91518,0.41212 110.5929,0.0525 115.45047,-0.42949 z M 186.0445,309.99681 c 0,-0.10292 -0.54915,-0.65207 -1.22034,-1.22033 l -1.22034,-1.03322 1.03322,1.22034 c 0.97097,1.14681 1.40746,1.46725 1.40746,1.03321 z m 187.11865,-1.62711 c 0,-0.10293 -0.54916,-0.65208 -1.22034,-1.22034 l -1.22034,-1.03322 1.03321,1.22034 c 0.97097,1.14682 1.40747,1.46725 1.40747,1.03322 z m -194.16949,-4.88136 c 0,-0.10292 -0.54916,-0.65207 -1.22034,-1.22034 l -1.22034,-1.03321 1.03321,1.22033 c 0.97097,1.14682 1.40747,1.46725 1.40747,1.03322 z m 187.11864,-1.62712 c 0,-0.10292 -0.54915,-0.65207 -1.22034,-1.22034 l -1.22034,-1.03321 1.03322,1.22034 c 0.97096,1.14681 1.40746,1.46724 1.40746,1.03321 z m -194.16949,-4.88136 c 0,-0.10292 -0.54915,-0.65207 -1.22034,-1.22033 l -1.22034,-1.03322 1.03321,1.22034 c 0.97097,1.14681 1.40747,1.46725 1.40747,1.03321 z m 187.04293,-1.90205 c -0.34501,-0.55244 -1.14029,-1.31517 -1.76731,-1.69496 -0.79823,-0.48349 -0.66242,-0.18234 0.45297,1.00443 1.81348,1.92956 2.22224,2.14431 1.31434,0.69053 z m -194.09378,-4.62407 c 0,-0.11263 -0.42712,-0.53975 -0.94915,-0.94916 -0.86024,-0.67464 -0.87942,-0.65545 -0.20478,0.20478 0.70854,0.90346 1.15393,1.19077 1.15393,0.74438 z m 187.66102,-1.0671 c 0,-0.10292 -0.54916,-0.65207 -1.22034,-1.22033 l -1.22034,-1.03322 1.03321,1.22034 c 0.97097,1.14681 1.40747,1.46725 1.40747,1.03321 z m -194.71187,-5.44138 c 0,-0.11262 -0.42712,-0.53974 -0.94915,-0.94915 -0.86024,-0.67464 -0.87942,-0.65546 -0.20478,0.20478 0.70854,0.90345 1.15393,1.19077 1.15393,0.74437 z m 187.66102,-1.06709 c 0,-0.10292 -0.54915,-0.65207 -1.22034,-1.22034 l -1.22034,-1.03321 1.03322,1.22034 c 0.97096,1.14681 1.40746,1.46724 1.40746,1.03321 z m -6.50847,-5.9661 c 0,-0.10292 -0.54916,-0.65207 -1.22034,-1.22034 l -1.22034,-1.03322 1.03321,1.22034 c 0.97097,1.14682 1.40747,1.46725 1.40747,1.03322 z m -7.05085,-6.50848 c 0,-0.10292 -0.54915,-0.65207 -1.22034,-1.22034 l -1.22034,-1.03321 1.03321,1.22034 c 0.97097,1.14681 1.40747,1.46725 1.40747,1.03321 z m 65.06728,-33.94031 -4.62763,-0.31324 -27.37237,-25.21141 c -15.0548,-13.86628 -36.89101,-33.99457 -48.52491,-44.72953 -11.6339,-10.73495 -20.78644,-19.0597 -20.33898,-18.49943 0.44746,0.56027 16.05974,15.07499 34.69396,32.25494 18.63422,17.17996 40.11219,37.01723 47.72882,44.08285 l 13.8484,12.84656 4.61017,-0.0588 4.61017,-0.0587 z m 27.92847,-0.0763 c -0.32599,-0.52746 -39.75608,-36.9774 -44.20486,-40.86382 -5.04927,-4.41101 4.04001,4.13149 23.03805,21.65218 l 20.57472,18.97475 -3.21878,0.3156 -3.21878,0.3156 3.69303,0.0912 c 2.49035,0.0615 3.57696,-0.0966 3.33662,-0.48549 z M 62.925858,196.64088 c 0,-0.10292 -0.549152,-0.65207 -1.220339,-1.22034 l -1.220339,-1.03321 1.033214,1.22034 c 0.970966,1.14681 1.407464,1.46725 1.407464,1.03321 z M 377.48276,192.2927 c -0.4368,-0.40629 -10.31283,-9.48549 -21.94673,-20.17601 -11.6339,-10.69053 -25.60678,-23.55861 -31.05085,-28.59575 -5.44407,-5.03713 -9.8983,-9.02607 -9.8983,-8.86429 0,0.3953 62.92404,58.37475 63.35304,58.37475 0.18537,0 -0.0203,-0.33242 -0.45716,-0.7387 z M 56.417384,190.67478 c 0,-0.10292 -0.549153,-0.65207 -1.220339,-1.22034 l -1.220339,-1.03321 1.033214,1.22034 c 0.970965,1.14681 1.407464,1.46724 1.407464,1.03321 z m -6.508475,-5.9661 c 0,-0.10292 -0.549152,-0.65207 -1.220339,-1.22034 l -1.220339,-1.03322 1.033214,1.22034 c 0.970966,1.14682 1.407464,1.46725 1.407464,1.03322 z m -6.508474,-5.98376 c 0,-0.11262 -0.427119,-0.53974 -0.949153,-0.94915 -0.860234,-0.67464 -0.879417,-0.65546 -0.204776,0.20478 0.70854,0.90346 1.153929,1.19077 1.153929,0.74437 z M 204.48518,153.26846 c 0,-0.0933 -0.79322,-0.88656 -1.76271,-1.76271 l -1.76271,-1.593 1.59299,1.76271 c 1.4849,1.6431 1.93243,2.01202 1.93243,1.593 z m 90.57627,-6.49133 c 0,-0.0839 -1.52542,-1.60934 -3.38983,-3.38983 l -3.38983,-3.23726 3.23726,3.38983 c 3.00714,3.14887 3.5424,3.63802 3.5424,3.23726 z m -98.16949,-0.57693 c 0,-0.10292 -0.54915,-0.65207 -1.22034,-1.22034 l -1.22034,-1.03321 1.03322,1.22034 c 0.97096,1.14681 1.40746,1.46725 1.40746,1.03321 z m 91.11864,-5.93024 c 0,-0.0832 -1.64745,-1.73065 -3.66101,-3.66101 l -3.66102,-3.50976 3.50976,3.66102 c 3.26001,3.40051 3.81227,3.90895 3.81227,3.50975 z m -98.16949,-0.57823 c 0,-0.10292 -0.54915,-0.65207 -1.22034,-1.22034 l -1.22034,-1.03321 1.03322,1.22033 c 0.97097,1.14682 1.40746,1.46725 1.40746,1.03322 z m 117.9661,-11.5065 c -3.57966,-3.42437 -6.9672,-6.49088 -7.52787,-6.81446 -0.56067,-0.32358 0.78141,1.08464 2.98241,3.12937 2.201,2.04473 5.46651,5.11648 7.25669,6.82609 1.79018,1.70962 3.37691,3.10316 3.52606,3.09676 0.14916,-0.006 -2.65762,-2.81339 -6.23729,-6.23776 z m -125.01694,4.98037 c 0,-0.11262 -0.42712,-0.53974 -0.94916,-0.94915 -0.86023,-0.67464 -0.87942,-0.65546 -0.20478,0.20478 0.70854,0.90345 1.15394,1.19076 1.15394,0.74437 z m 97.62711,0.0546 c 0,-0.0826 -1.76949,-1.85207 -3.9322,-3.9322 l -3.9322,-3.78207 3.78206,3.93221 c 3.51278,3.65223 4.08234,4.17989 4.08234,3.78206 z m -104.67796,-6.54546 c 0,-0.10292 -0.54915,-0.65207 -1.22034,-1.22034 l -1.22034,-1.03321 1.03321,1.22034 c 0.97097,1.14681 1.40747,1.46724 1.40747,1.03321 z m 94.10169,-3.60949 -1.55887,-1.62711 6.47435,-0.1152 6.47435,-0.11518 -5.93124,-0.17537 c -7.50872,-0.22201 -8.00011,-0.0538 -5.98561,2.04889 0.84894,0.8861 1.66556,1.61109 1.81471,1.61109 0.14916,0 -0.4303,-0.7322 -1.28769,-1.62712 z M 168.68857,120.1663 c 0,-0.10291 -0.54915,-0.65207 -1.22034,-1.22033 l -1.22034,-1.03322 1.03322,1.22034 c 0.97096,1.14682 1.40746,1.46725 1.40746,1.03321 z m 310.64001,-12.96541 c -0.10296,-2.16271 -0.18719,-0.39322 -0.18719,3.9322 0,4.32542 0.0842,6.09492 0.18719,3.9322 0.10294,-2.16271 0.10294,-5.70169 0,-7.8644 z m -24.83051,9.6018 c -0.38292,-0.46138 -1.45009,-1.3402 -2.3715,-1.95292 -1.52362,-1.01318 -1.49187,-0.93724 0.35064,0.83888 2.04264,1.96902 3.31048,2.66795 2.02086,1.11404 z m -292.65172,-3.19638 c -0.16484,-0.42957 -0.9504,-1.19536 -1.7457,-1.70177 -1.43982,-0.91682 -1.43919,-0.91349 0.14702,0.78102 1.78422,1.90604 2.0314,2.04841 1.59868,0.92075 z m 286.97556,-1.9332 c -0.85862,-0.8962 -7.35515,-6.93688 -14.43673,-13.423725 l -12.8756,-11.794261 9.04712,-0.291128 9.04712,-0.291128 -10.57627,-0.08127 c -6.44201,-0.0495 -10.11935,0.103031 -9.40737,0.390214 0.64289,0.259317 7.7171,6.467575 15.72046,13.796129 13.62628,12.477359 17.20523,15.582149 13.48127,11.695169 z m -293.69266,-3.98138 c 0,-0.10292 -0.54915,-0.65207 -1.22034,-1.22034 l -1.22034,-1.03321 1.03322,1.22033 c 0.97096,1.14682 1.40746,1.46725 1.40746,1.03322 z m -7.05085,-6.50848 c 0,-0.10292 -0.54915,-0.65207 -1.22034,-1.220336 l -1.22034,-1.033213 1.03322,1.220339 c 0.97096,1.14682 1.40746,1.46725 1.40746,1.03321 z m -7.05085,-6.508471 c 0,-0.102919 -0.54915,-0.652072 -1.22034,-1.220339 l -1.22033,-1.033214 1.03321,1.220339 c 0.97097,1.146818 1.40746,1.467249 1.40746,1.033214 z m 337.72644,-2.626434 c -0.17314,-0.432669 -0.30166,-0.30415 -0.32768,0.327683 -0.0235,0.571752 0.10464,0.89209 0.28486,0.711865 0.18023,-0.180226 0.19949,-0.648023 0.0428,-1.039548 z M 35.536028,88.895802 c 0.184363,-0.298305 0.09114,-0.542373 -0.207168,-0.542373 -0.298305,0 -0.693215,0.244068 -0.877578,0.542373 -0.184363,0.298305 -0.09114,0.542373 0.207168,0.542373 0.298305,0 0.693215,-0.244068 0.877578,-0.542373 z m 97.914282,-1.597274 c -0.51715,-0.96629 -0.3479,-1.071976 2.01481,-1.25817 2.26803,-0.178733 2.15879,-0.21507 -0.90499,-0.301031 l -3.48438,-0.09776 1.27384,1.355932 c 1.53039,1.629026 1.85963,1.719068 1.10072,0.301031 z"
     id="path95"
     inkscape:connector-curvature="0"
     transform="scale(0.75)" />
  <path
     style="fill:#000000;stroke-width:0.54237288"
     d="m 49.081212,351.99745 c -21.633241,-0.32086 -21.714615,-0.32636 -23.302161,-1.57582 -0.87621,-0.6896 -2.212221,-2.12395 -2.968914,-3.18743 l -1.375804,-1.9336 -0.12014,-132.1346 -0.12014,-132.134604 1.479255,-2.135607 c 0.81359,-1.174584 2.576127,-2.802857 3.91675,-3.618385 l 2.437495,-1.482778 226.711867,-0.03754 226.71186,-0.03754 2.82276,1.618893 c 1.87304,1.074214 3.28727,2.411531 4.20339,3.974765 l 1.38063,2.355873 -0.003,130.664213 c -0.002,84.27869 -0.19304,131.3482 -0.53828,132.59096 -0.64786,2.33209 -3.38307,5.2572 -5.96717,6.38148 -1.68772,0.73428 -24.73128,0.83631 -207.72881,0.9198 -113.20678,0.0516 -215.599587,-0.051 -227.539565,-0.22808 z M 219.12925,340.38017 c 0,-0.0971 -0.6638,-0.76833 -1.47511,-1.49152 -0.81132,-0.72319 -1.15641,-0.89845 -0.76687,-0.38948 0.38954,0.50896 0.55079,1.18014 0.35836,1.49152 -0.19978,0.32324 0.12923,0.56613 0.76686,0.56613 0.61422,0 1.11676,-0.0795 1.11676,-0.17665 z m 257.6963,-2.94199 c 0.67464,-0.86024 0.65546,-0.87942 -0.20478,-0.20478 -0.52203,0.40941 -0.94915,0.83653 -0.94915,0.94915 0,0.44639 0.44539,0.15908 1.15393,-0.74437 z m -263.12003,-2.0339 c -1.31744,-1.34238 -2.51738,-2.44068 -2.66653,-2.44068 -0.14916,0 0.80672,1.0983 2.12416,2.44068 1.31744,1.34237 2.51738,2.44068 2.66653,2.44068 0.14915,0 -0.80672,-1.09831 -2.12416,-2.44068 z m -14.1017,-12.95054 c 0,-0.11263 -0.42711,-0.53975 -0.94915,-0.94916 -0.86023,-0.67464 -0.87942,-0.65545 -0.20478,0.20478 0.70854,0.90346 1.15393,1.19077 1.15393,0.74438 z m 187.11865,-1.60947 c 0,-0.10292 -0.54915,-0.65207 -1.22034,-1.22034 l -1.22034,-1.03321 1.03322,1.22034 c 0.97096,1.14681 1.40746,1.46725 1.40746,1.03321 z m -65.38479,-10.67003 c 0.92865,-0.92886 1.70223,-12.62521 2.26791,-34.29019 0.23522,-9.00879 0.48858,-12.23401 0.9398,-11.96368 0.38841,0.2327 0.36817,0.0616 -0.0546,-0.46073 -0.48316,-0.59708 -0.77515,-5.52671 -1.03784,-17.52196 l -0.36555,-16.69112 -1.67401,-1.02081 c -1.23048,-0.75034 -2.71315,-1.02134 -5.59589,-1.02283 -3.63104,-0.002 -3.94033,-0.0925 -4.17073,-1.22237 -0.13687,-0.67119 -0.39797,-8.56016 -0.58022,-17.53106 -0.361,-17.76946 -0.76618,-20.94061 -3.49492,-27.35303 -5.84289,-13.73058 -17.08939,-25.30764 -29.73151,-30.60536 -8.1018,-3.39508 -10.68702,-3.83514 -22.37194,-3.8082 -10.10182,0.0233 -10.78308,0.0927 -15.18644,1.54776 -6.25789,2.06785 -13.39937,5.82384 -18.60121,9.78311 -6.74756,5.13578 -6.59748,5.06482 -8.07359,3.81708 l -1.2574,-1.06288 1.26772,1.43745 1.26772,1.43744 -3.00534,4.28894 c -3.46002,4.93782 -7.61099,13.22608 -8.77936,17.52978 -0.81502,3.00216 -1.58485,13.46653 -2.29254,31.16304 l -0.39041,9.76271 -3.52542,0.38547 c -5.18188,0.56658 -5.9393,0.84918 -6.63918,2.47713 -0.82299,1.91434 -0.88465,77.11542 -0.0652,79.57808 0.42035,1.26334 0.9575,1.70447 2.40257,1.97314 1.02365,0.19032 30.22543,0.31235 64.89285,0.27118 55.56847,-0.066 63.12912,-0.17231 63.85473,-0.89809 z m 37.72377,-14.82149 c 0,-0.10292 -0.54915,-0.65208 -1.22034,-1.22034 l -1.22034,-1.03322 1.03322,1.22034 c 0.97097,1.14682 1.40746,1.46725 1.40746,1.03322 z m 37.64896,-59.05249 -4.38493,-0.51217 -19.52725,-17.98852 c -50.29781,-46.33438 -71.6949,-65.97163 -73.94017,-67.85882 l -2.44068,-2.05143 2.4714,2.36765 c 3.99443,3.82673 28.33773,26.35738 62.21327,57.58073 l 31.59991,29.1259 4.1967,-0.0756 4.19669,-0.0756 z m 27.97816,0.18813 c 0,-0.38345 -19.84404,-18.94832 -29.01623,-27.14581 l -2.16878,-1.9383 1.77551,1.93806 c 0.97652,1.06593 7.72413,7.4117 14.99468,14.1017 7.27055,6.68999 13.1558,12.23162 13.07834,12.31472 -0.0775,0.0831 -1.21183,0.36144 -2.52082,0.61854 l -2.37999,0.46745 3.11865,0.0594 c 1.71525,0.0327 3.11864,-0.15442 3.11864,-0.41578 z m -34.7185,-32.34635 c -0.37502,-0.45186 -2.9066,-2.79489 -5.62574,-5.20672 l -4.9439,-4.38516 5.42373,5.20337 c 5.12317,4.91502 6.69629,6.2566 5.14591,4.38851 z M 377.7462,192.56986 c -1.87824,-1.6824 -56.96171,-52.30854 -59.33323,-54.532 -1.62446,-1.52305 -2.60073,-2.30278 -2.16949,-1.73276 0.83703,1.10642 20.48606,19.39241 42.2756,39.34297 7.30847,6.69165 14.55488,13.3404 16.10313,14.77499 1.54824,1.43458 3.00045,2.60834 3.22711,2.60834 0.22667,0 0.18027,-0.2077 -0.10312,-0.46154 z M 203.94281,152.69102 c 0,-0.11262 -0.42712,-0.53974 -0.94915,-0.94915 -0.86024,-0.67464 -0.87942,-0.65546 -0.20478,0.20478 0.70854,0.90346 1.15393,1.19077 1.15393,0.74437 z m 90.57627,-6.45781 c 0,-0.0848 -1.40339,-1.48816 -3.11865,-3.11865 l -3.11864,-2.96452 2.96452,3.11864 c 2.75414,2.89732 3.27277,3.3671 3.27277,2.96453 z m -7.05085,-6.50848 c 0,-0.0848 -1.40339,-1.48815 -3.11864,-3.11864 l -3.11865,-2.96452 2.96453,3.11864 c 2.75413,2.89732 3.27276,3.3671 3.27276,2.96452 z m 21.15254,-10.73116 c -3.1322,-2.97799 -6.42711,-5.93286 -7.32203,-6.56638 l -1.62712,-1.15186 1.35593,1.37233 c 3.47499,3.517 12.54462,11.80495 12.89537,11.78395 0.21602,-0.0129 -2.16994,-2.46005 -5.30215,-5.43804 z m -29.28813,3.13794 c 0,-0.0848 -1.40339,-1.48816 -3.11865,-3.11864 l -3.11864,-2.96453 2.96452,3.11865 c 2.75414,2.89732 3.27277,3.3671 3.27277,2.96452 z m -9.75183,-9.86667 c -0.6063,-0.73053 -0.0318,-0.83987 4.93966,-0.94018 l 5.62573,-0.11351 -5.37592,-0.17837 c -5.62089,-0.1865 -7.00855,0.23611 -5.75093,1.75145 0.38784,0.46731 0.82719,0.72762 0.97634,0.57846 0.14915,-0.14915 -0.0375,-0.64318 -0.41488,-1.09785 z m 184.91369,-5.46645 c -0.38487,-0.46374 -1.20797,-1.09559 -1.82912,-1.40411 -0.6769,-0.33621 -0.47748,-0.006 0.49777,0.82367 1.86696,1.58871 2.33889,1.79446 1.33135,0.58044 z m -292.85678,-3.14056 c 0,-0.10292 -0.54915,-0.65207 -1.22034,-1.22034 l -1.22034,-1.03321 1.03322,1.22034 c 0.97097,1.14681 1.40746,1.46725 1.40746,1.03321 z m 317.67091,-3.74508 c -0.12928,-0.67118 -0.23505,-0.12203 -0.23505,1.22034 0,1.34237 0.10577,1.89153 0.23505,1.22034 0.12928,-0.67119 0.12928,-1.76949 0,-2.44068 z m -30.16482,2.09228 c -0.34471,-0.41535 -6.73093,-6.33399 -14.1916,-13.15254 l -13.56486,-12.397366 4.76926,-0.304287 4.76925,-0.304287 -5.33333,-0.102492 c -2.93334,-0.05637 -5.25198,0.09888 -5.15255,0.345005 0.19254,0.476562 28.78661,26.650967 29.12856,26.663647 0.1111,0.004 -0.08,-0.33233 -0.42473,-0.74768 z M 133.25054,87.029671 c -0.21406,-0.557844 0.19604,-0.84334 1.4335,-0.997946 1.24982,-0.156151 0.99124,-0.240774 -0.92699,-0.30336 -2.62776,-0.08574 -2.64831,-0.07352 -1.67865,0.997946 1.15696,1.278424 1.58924,1.390302 1.17214,0.30336 z"
     id="path97"
     inkscape:connector-curvature="0"
     transform="scale(0.75)" />
  <path
     style="fill:#000000;stroke-width:0.54237288"
     d="m 46.383485,351.99623 c -21.27013,-0.35941 -20.415887,-0.19502 -23.401694,-4.50349 L 21.434333,345.25979 21.295465,213.17722 21.156597,81.094657 22.542686,79.000134 c 0.76235,-1.151987 2.520082,-2.813679 3.906071,-3.692647 l 2.519982,-1.598125 H 255.88462 482.80049 l 2.41743,1.416702 c 1.32957,0.779187 3.14448,2.473462 4.03312,3.765056 l 1.61572,2.348353 -0.13995,132.010167 -0.13993,132.01017 -1.55207,2.2396 c -0.93396,1.34768 -2.55396,2.72942 -4.0678,3.46953 l -2.51573,1.22992 -208.54237,0.0591 C 159.2106,352.29043 56.824163,352.17266 46.383485,351.99623 Z M 219.12925,340.3697 c 0,-0.10293 -0.47116,-0.61353 -1.04703,-1.13468 -1.00469,-0.90923 -1.03502,-0.90166 -0.7503,0.18713 0.1632,0.62407 0.63436,1.13467 1.04703,1.13467 0.41266,0 0.7503,-0.0842 0.7503,-0.18712 z m -4.33898,-3.7792 c 0,-0.0934 -0.79323,-0.88657 -1.76272,-1.76272 l -1.76271,-1.59299 1.593,1.76271 c 1.4849,1.64309 1.93243,2.01201 1.93243,1.593 z m 171.9322,-15.76388 c 0,-0.11263 -0.42712,-0.53974 -0.94915,-0.94916 -0.86024,-0.67464 -0.87942,-0.65545 -0.20478,0.20478 0.70854,0.90346 1.15393,1.19077 1.15393,0.74438 z m -73.93187,-9.91395 c 4.23239,-0.19362 7.99681,-0.53841 8.36538,-0.7662 0.36857,-0.2278 0.85984,-1.96001 1.09169,-3.84937 0.32913,-2.68201 1.79432,-40.65587 1.66022,-43.02842 -0.0169,-0.2983 -0.20739,-8.0449 -0.42339,-17.21466 l -0.39272,-16.67228 -1.40499,-0.95484 c -0.9321,-0.63344 -2.86544,-1.0461 -5.74398,-1.22601 l -4.33899,-0.27119 -0.13173,-5.15254 c -0.49499,-19.36087 -1.24056,-32.5583 -1.99896,-35.38384 -0.99324,-3.70053 -5.02524,-11.90041 -8.02347,-16.31736 -8.37965,-12.34477 -22.57385,-21.32307 -36.68399,-23.20383 -6.64979,-0.88636 -18.25084,-0.33151 -23.39913,1.11913 -5.98185,1.68551 -14.17863,5.95025 -20.33899,10.58227 -2.98305,2.24298 -5.74322,4.07969 -6.1337,4.08157 -0.39049,0.002 -0.56904,0.23145 -0.39679,0.51016 0.17225,0.27871 -1.07385,2.53634 -2.76912,5.01695 -3.64265,5.33013 -7.39649,12.99907 -8.57203,17.5123 -0.79571,3.05492 -1.48489,12.42219 -2.35403,31.99588 l -0.3845,8.659 -4.20162,0.57894 c -2.6546,0.36579 -4.55175,0.92902 -5.15255,1.5297 -0.83458,0.83444 -1.00503,2.7233 -1.39326,15.44002 -0.48077,15.74745 -0.0443,61.58756 0.61565,64.65877 0.38631,1.79777 0.5505,1.91534 3.10036,2.21988 3.74315,0.44706 109.96064,0.56802 119.40464,0.13597 z m 46.27085,-15.57758 c 0,-0.11262 -0.42712,-0.53974 -0.94915,-0.94915 -0.86024,-0.67464 -0.87942,-0.65546 -0.20478,0.20478 0.70854,0.90346 1.15393,1.19077 1.15393,0.74437 z m 37.17714,-58.9922 c -2.32287,-0.29775 -4.1982,-0.86437 -4.88136,-1.47488 -1.70548,-1.52414 -76.7711,-70.58828 -83.68561,-76.99498 -3.35593,-3.10946 -6.10169,-5.51689 -6.10169,-5.34984 0,0.25918 17.69923,16.65607 80.16999,74.27092 l 11.02659,10.16949 3.62205,-0.0686 3.62204,-0.0686 z m 28.44998,0.19042 c 0,-0.23666 -5.67146,-5.66716 -12.60325,-12.06779 -15.28077,-14.10987 -18.31608,-16.84487 -17.12819,-15.43361 0.50195,0.59632 7.13212,6.81982 14.73372,13.82999 7.60159,7.01017 13.72242,12.84477 13.60183,12.96576 -0.12058,0.12101 -1.1372,0.39802 -2.25914,0.6156 -1.97528,0.38306 -1.9497,0.39757 0.80757,0.45797 1.5661,0.0343 2.84746,-0.13126 2.84746,-0.36792 z m -36.33898,-34.01039 c -1.31744,-1.34237 -2.51738,-2.44068 -2.66654,-2.44068 -0.14915,0 0.80672,1.09831 2.12416,2.44068 1.31744,1.34237 2.51738,2.44068 2.66654,2.44068 0.14915,0 -0.80672,-1.09831 -2.12416,-2.44068 z m -4.33899,-3.7302 c 0,-0.11262 -0.42711,-0.53974 -0.94915,-0.94915 -0.86023,-0.67464 -0.87942,-0.65546 -0.20478,0.20477 0.70854,0.90346 1.15393,1.19077 1.15393,0.74438 z m -7.59322,-7.07236 c 0,-0.20201 -8.43393,-8.01442 -43.66101,-40.44352 -5.6678,-5.21763 -9.93963,-9.02569 -9.49297,-8.46236 0.44667,0.56333 9.72125,9.23752 20.61017,19.27597 10.88893,10.03845 22.60483,20.851 26.03534,24.02788 6.28618,5.82144 6.50847,6.01277 6.50847,5.60203 z m -82.98305,-46.58749 c 0,-0.0933 -0.79322,-0.88656 -1.76271,-1.76271 l -1.76271,-1.593 1.593,1.76271 c 1.4849,1.6431 1.93242,2.01201 1.93242,1.593 z m 28.20339,-3.78801 c 0,-0.0886 -1.03729,-1.1259 -2.30508,-2.30508 l -2.30509,-2.14398 2.14398,2.30509 c 1.99387,2.1437 2.46619,2.55432 2.46619,2.14397 z m -35.25423,-2.7274 c 0,-0.0971 -0.67119,-0.76833 -1.49153,-1.49152 l -1.49153,-1.31488 1.31488,1.49152 c 1.22896,1.39406 1.66818,1.74025 1.66818,1.31488 z m 22.77966,-9.07016 c -3.92796,-3.68698 -10.06138,-8.93147 -8.40678,-7.18839 1.9663,2.07147 12.36992,11.55028 12.66016,11.53478 0.19623,-0.0105 -1.71779,-1.96636 -4.25338,-4.34639 z m -30.91526,1.47694 c 0,-0.0971 -0.67118,-0.76833 -1.49152,-1.49152 l -1.49153,-1.31488 1.31488,1.49152 c 1.22896,1.39406 1.66817,1.74025 1.66817,1.31488 z m -9.15303,-9.18832 c -0.53566,-0.53168 -0.59796,-0.46938 -0.30362,0.30361 0.20367,0.5349 0.50695,0.83592 0.67394,0.66893 0.16699,-0.16699 3.5e-4,-0.60463 -0.37032,-0.97254 z m 6.30557,-0.79285 c -1.11864,-0.11701 -2.94915,-0.11701 -4.06779,0 -1.11865,0.11702 -0.20339,0.21276 2.0339,0.21276 2.23728,0 3.15254,-0.0957 2.03389,-0.21276 z m 179.66102,-3.60628 c 0,-0.11263 -0.42712,-0.53975 -0.94915,-0.94915 -0.86024,-0.67465 -0.87942,-0.65546 -0.20478,0.20477 0.70854,0.90346 1.15393,1.19077 1.15393,0.74438 z m -293.42373,-3.79661 c 0,-0.11263 -0.42712,-0.53975 -0.94915,-0.94915 -0.86024,-0.67465 -0.87942,-0.65546 -0.20478,0.20477 0.70854,0.90346 1.15393,1.19077 1.15393,0.74438 z m 285.82147,-3.2345 C 445.40782,108.43802 426.3187,90.988746 422.79027,87.855923 l -2.1695,-1.926247 1.89831,1.999427 c 2.32835,2.452384 26.20233,24.272897 26.56723,24.282117 0.14418,0.004 -0.58802,-0.80886 -1.62712,-1.80554 z M 133.10466,87.040654 c -0.19159,-0.49927 0.14844,-0.855037 0.96617,-1.010885 0.9631,-0.183552 0.84452,-0.257966 -0.5009,-0.314343 -1.85476,-0.07772 -2.1938,0.362846 -1.11187,1.444783 0.85044,0.850435 1.00766,0.821364 0.6466,-0.119555 z m 292.81171,-1.238509 c -0.66709,-0.128739 -1.88743,-0.132071 -2.71187,-0.0074 -0.82444,0.124667 -0.27864,0.229999 1.21288,0.234071 1.49153,0.0041 2.16607,-0.09793 1.49899,-0.226667 z"
     id="path99"
     inkscape:connector-curvature="0"
     transform="scale(0.75)" />
  <path
     style="fill:#000000;stroke-width:0.54237288"
     d="m 216.41738,213.952 c 0,-7.28689 0.25274,-15.15808 0.56164,-17.49153 1.37994,-10.42402 9.34952,-20.34079 20.86209,-25.95926 6.30566,-3.07734 11.02351,-4.16267 18.16949,-4.17986 15.74544,-0.0379 30.56825,9.04873 36.93589,22.64225 2.08803,4.4575 2.65733,9.88664 2.65733,25.3417 v 12.89559 H 256.0106 216.41738 Z"
     id="path101"
     inkscape:connector-curvature="0"
     transform="scale(0.75)" />
</svg>
