<?xml version="1.0" encoding="UTF-8" standalone="no"?>
<svg
   xmlns:dc="http://purl.org/dc/elements/1.1/"
   xmlns:cc="http://creativecommons.org/ns#"
   xmlns:rdf="http://www.w3.org/1999/02/22-rdf-syntax-ns#"
   xmlns:svg="http://www.w3.org/2000/svg"
   xmlns="http://www.w3.org/2000/svg"
   xmlns:sodipodi="http://sodipodi.sourceforge.net/DTD/sodipodi-0.dtd"
   xmlns:inkscape="http://www.inkscape.org/namespaces/inkscape"
   width="384pt"
   height="384pt"
   version="1.1"
   viewBox="0 0 384 384"
   id="svg10"
   sodipodi:docname="roxterm.svg"
   inkscape:version="0.92.1 r15371">
  <metadata
     id="metadata16">
    <rdf:RDF>
      <cc:Work
         rdf:about="">
        <dc:format>image/svg+xml</dc:format>
        <dc:type
           rdf:resource="http://purl.org/dc/dcmitype/StillImage" />
      </cc:Work>
    </rdf:RDF>
  </metadata>
  <defs
     id="defs14" />
  <sodipodi:namedview
     pagecolor="#ffffff"
     bordercolor="#666666"
     borderopacity="1"
     objecttolerance="10"
     gridtolerance="10"
     guidetolerance="10"
     inkscape:pageopacity="0"
     inkscape:pageshadow="2"
     inkscape:window-width="640"
     inkscape:window-height="480"
     id="namedview12"
     showgrid="false"
     inkscape:zoom="0.4609375"
     inkscape:cx="256"
     inkscape:cy="256"
     inkscape:window-x="0"
     inkscape:window-y="0"
     inkscape:window-maximized="0"
     inkscape:current-layer="layer1" />
  <g
     id="g8">
    <path
       style="fill-rule:evenodd;fill:rgb(1.960784%,11.372549%,13.72549%);stroke-width:19.392349;stroke-linejoin:round;stroke:rgb(100%,100%,100%)"
       d="M 50.65625 -368.828125 L 461.354167 -368.828125 C 472.375 -368.828125 481.307292 -359.895833 481.307292 -348.875 L 481.307292 -35.119792 C 481.307292 -24.098958 472.375 -15.161458 461.354167 -15.161458 L 50.65625 -15.161458 C 39.635417 -15.161458 30.697917 -24.098958 30.697917 -35.119792 L 30.697917 -348.875 C 30.697917 -359.895833 39.635417 -368.828125 50.65625 -368.828125 Z M 50.65625 -368.828125"
       transform="matrix(0.75,0,0,0.75,0,336)"
       id="path2" />
    <path
       style="fill:rgb(100%,100%,100%)"
       d="M 145.316406 174.066406 L 145.316406 179.480469 L 105.019531 179.480469 L 105.019531 174.066406 Z M 145.316406 174.066406"
       id="path4" />
    <path
       style="fill:rgb(100%,100%,100%)"
       d="M 77.359375 102.617188 L 77.359375 111.660156 C 72.941406 112.160156 69.484375 113.46875 67.003906 115.605469 C 64.253906 117.980469 62.875 121.226562 62.875 125.339844 C 62.875 129.128906 64.140625 132.109375 66.664062 134.28125 C 68.976562 136.25 72.554688 137.695312 77.359375 138.625 L 77.359375 156.105469 C 75.082031 155.96875 72.855469 155.582031 70.679688 154.921875 C 68.054688 154.085938 65.453125 152.863281 62.875 151.246094 L 62.875 158.066406 C 65.554688 159.203125 68.21875 160.058594 70.867188 160.640625 C 73.03125 161.09375 75.195312 161.371094 77.359375 161.488281 L 77.359375 172.949219 L 84.148438 172.949219 L 84.148438 161.328125 C 88.816406 160.808594 92.453125 159.449219 95.035156 157.234375 C 97.914062 154.757812 99.351562 151.386719 99.351562 147.121094 C 99.351562 143.179688 98 140.074219 95.300781 137.800781 C 92.839844 135.734375 89.113281 134.25 84.148438 133.332031 L 84.148438 117 C 85.945312 117.160156 87.707031 117.460938 89.429688 117.917969 C 91.648438 118.5 93.808594 119.316406 95.902344 120.378906 L 95.902344 113.75 C 93.808594 113.066406 91.664062 112.539062 89.464844 112.160156 C 87.742188 111.84375 85.96875 111.621094 84.148438 111.492188 L 84.148438 102.617188 Z M 77.359375 117.085938 L 77.359375 132.089844 C 74.96875 131.550781 73.167969 130.78125 71.96875 129.773438 C 70.554688 128.558594 69.847656 126.867188 69.847656 124.695312 C 69.847656 122.476562 70.617188 120.695312 72.15625 119.355469 C 73.421875 118.257812 75.160156 117.503906 77.359375 117.085938 Z M 84.148438 139.972656 C 86.742188 140.574219 88.695312 141.429688 89.996094 142.535156 C 91.5625 143.847656 92.34375 145.617188 92.34375 147.839844 C 92.34375 150.109375 91.523438 151.941406 89.882812 153.332031 C 88.53125 154.492188 86.613281 155.3125 84.148438 155.804688 Z M 84.148438 139.972656"
       id="path6" />
  </g>
  <g
     id="layer1"
     inkscape:label="Layer 1"
     transform="matrix(1.2383278,0,0,1.2383278,77.279679,-0.25187714)">
    <path
       inkscape:connector-curvature="0"
       id="path21"
       d="m 170.62159,240.18722 c -0.13965,-0.0329 -1.03737,-0.59532 -1.52557,-0.95562 -0.66599,-0.49151 -1.79097,-1.61887 -2.33683,-2.34237 -2.72864,-3.61317 -3.69335,-9.47005 -2.69176,-16.34213 0.0908,-0.62318 0.15184,-1.13306 0.13559,-1.13305 -0.0162,0 -0.22638,0.2505 -0.4669,0.55671 -0.28247,0.35952 -0.98906,1.10727 -1.99481,2.11094 -1.38453,1.38175 -1.64255,1.61636 -2.3242,2.11445 -1.42282,1.0396 -2.62405,1.70126 -3.95391,2.17785 l -0.64005,0.22938 0.15241,-0.21367 c 0.57588,-0.8074 0.84275,-1.21961 1.10505,-1.70699 1.3612,-2.52926 2.22295,-6.00139 2.47076,-9.95505 0.0793,-1.2651 0.0661,-3.65174 -0.0258,-4.66488 -0.0942,-1.03862 -0.26258,-2.12628 -0.33178,-2.14261 -0.033,-0.008 -0.19595,0.054 -0.36216,0.13733 l -0.30219,0.1515 0.0236,0.32392 c 0.13428,1.83928 0.15326,3.73133 0.0515,5.1461 l -0.0634,0.88265 -0.56751,0.54341 c -1.31152,1.25567 -2.31254,2.72081 -3.03787,4.44626 -0.39017,0.92818 -0.67061,1.79086 -1.25448,3.85901 -1.08771,3.85292 -1.66869,5.44045 -2.85144,7.79177 l -0.39229,0.77988 -1.20006,0.23605 c -1.24466,0.24482 -2.93734,0.46098 -3.8891,0.49661 -0.53655,0.0201 -0.55096,0.0162 -0.60913,-0.1666 -0.0763,-0.23997 -0.005,-0.79773 0.32812,-2.56066 0.38953,-2.06209 0.35817,-2.51468 -0.15673,-2.26165 -0.30464,0.1497 -1.30312,1.15836 -2.6151,2.64186 -1.13489,1.28317 -1.83538,1.9669 -2.18358,2.13118 -0.38852,0.18332 -3.95296,-0.46545 -6.13934,-1.11744 -0.33995,-0.10138 -0.63616,-0.22489 -0.65824,-0.27449 -0.13221,-0.29684 0.29137,-0.96289 1.75193,-2.75475 1.15874,-1.42156 1.57272,-2.00168 1.68881,-2.36662 0.17185,-0.54015 -0.22215,-0.61579 -1.27591,-0.24498 -0.88592,0.31175 -1.36659,0.52834 -3.92029,1.76643 -2.69279,1.30555 -3.45916,1.62347 -3.88955,1.61355 -0.50145,-0.0116 -1.55327,-0.18146 -2.79045,-0.45073 -0.70784,-0.15406 -1.53746,-0.32875 -1.84359,-0.3882 -0.30613,-0.0595 -0.57773,-0.12919 -0.60355,-0.15502 -0.1033,-0.1033 0.18206,-0.39148 1.0685,-1.0796 1.82348,-1.41465 2.10983,-1.64884 2.22919,-1.82311 0.0665,-0.0971 0.0945,-0.20297 0.0621,-0.23533 -0.13574,-0.13575 -1.16094,0.049 -4.57499,0.8246 -1.79498,0.40776 -3.35104,0.71849 -3.74665,0.74814 -0.45135,0.0338 -3.43343,-0.93967 -4.46358,-1.45714 -1.01062,-0.50767 -1.60915,-1.14447 -1.58221,-1.68338 0.009,-0.1783 0.0137,-0.18013 0.4103,-0.15842 1.92172,0.10525 7.03114,-1.24121 13.37493,-3.52463 11.3456,-4.08378 22.3164,-9.42777 28.12359,-13.69927 1.39045,-1.02276 1.97726,-1.51835 2.95211,-2.49324 0.99489,-0.9949 1.39019,-1.49455 1.72991,-2.18682 0.27494,-0.56019 1.12175,-2.00452 1.59667,-2.72328 3.73341,-5.65031 9.24361,-10.58593 15.66566,-14.03213 1.26845,-0.68068 2.99721,-1.50255 2.99167,-1.42226 -0.0111,0.1603 -1.87171,2.72235 -3.35852,4.62464 -1.28968,1.65008 -1.90474,2.41666 -3.17209,3.9535 -0.57691,0.69956 -1.04892,1.28986 -1.04892,1.31174 0,0.0219 1.90649,-0.49567 4.23663,-1.15012 2.33014,-0.65444 4.29936,-1.20217 4.37603,-1.21715 0.12129,-0.0237 0.10033,0.0505 -0.16146,0.57069 -0.62707,1.24632 -1.34213,3.2097 -1.75178,4.81007 -0.35771,1.39738 -0.83458,3.86684 -0.80603,4.17396 0.0103,0.11032 0.0904,0.0726 0.6237,-0.29329 1.89966,-1.30344 2.96838,-2.18217 4.40832,-3.62463 1.26186,-1.26463 1.76726,-1.86843 2.57505,-3.07934 l 0.3766,-0.56456 0.66065,2.4e-4 c 0.82051,3.1e-4 1.38216,-0.10855 1.66183,-0.32206 0.18677,-0.14255 0.24262,-0.25231 0.42789,-0.84453 0.53345,-1.70307 1.5463,-3.04025 2.92418,-3.86058 0.47245,-0.28128 1.79,-0.77808 2.18382,-0.82345 l 0.19363,-0.0223 -0.18271,0.51318 c -0.32344,0.90848 -0.39705,1.65037 -0.29149,2.93759 l 0.0615,0.74916 0.47496,0.41481 c 1.99407,1.7417 6.00729,5.08904 7.46968,6.23031 0.22542,0.17593 0.46701,0.37706 0.53689,0.44695 l 0.12703,0.12702 -1.2314,1.23141 -1.2314,1.23139 1.99406,1.18203 c 1.09672,0.65011 1.99405,1.19861 1.99406,1.21889 0,0.0204 -3.20196,0.59282 -7.11547,1.27228 -3.91349,0.67947 -7.15519,1.25999 -7.20375,1.29006 -0.0485,0.0301 -0.45037,0.57802 -0.89288,1.21771 l -0.80459,1.16307 -0.26156,-0.0163 c -0.1439,-0.009 -1.41238,-0.39202 -2.81894,-0.85129 -2.42139,-0.79062 -3.44691,-1.08364 -3.4469,-0.98485 0,0.0241 1.44722,0.97217 3.21603,2.10688 1.76882,1.13469 3.22966,2.0903 3.24631,2.12359 0.0167,0.0332 -1.02445,0.4152 -2.31354,0.84871 l -2.34379,0.7882 1.39271,1.41697 1.39279,1.4169 -1.31344,-0.0883 c -1.07536,-0.0723 -1.3267,-0.0665 -1.38662,0.0319 -0.0403,0.0662 -0.46189,0.71994 -0.93696,1.45292 -5.52551,8.52492 -8.52916,14.7716 -9.32364,19.39036 -0.15074,0.87628 -0.19,2.49868 -0.0768,3.17633 0.0459,0.27464 0.14082,0.68867 0.21106,0.92008 0.0703,0.2314 0.0981,0.41375 0.0619,0.40521 z m 35.28326,-35.62495 c -0.62733,0.32529 -1.41889,0.38609 -2.00006,0.15366 -0.55108,-0.22039 -0.80231,-0.47241 -1.18537,-1.18953 -0.3363,-0.62908 -0.35469,-0.65191 -1.01498,-1.25999 -0.69121,-0.6366 -1.37106,-1.1081 -2.40924,-1.67103 -0.27642,-0.14988 -0.50259,-0.28606 -0.50259,-0.3026 7e-5,-0.0166 0.29914,-0.28153 0.66468,-0.58888 0.58262,-0.4899 0.80896,-0.63467 1.83445,-1.17364 l 1.1698,-0.61482 1.67728,-1.66314 c 2.0434,-2.02621 2.86802,-2.68384 3.67345,-2.92939 0.15733,-0.048 0.30669,-0.15185 0.45151,-0.31403 0.49683,-0.55656 1.50218,-0.9927 2.40838,-1.0448 1.27709,-0.0734 2.36149,0.5056 2.7427,1.46443 0.13522,0.34012 0.23581,1.08466 0.17408,1.28853 -0.0412,0.13582 -0.045,0.13164 -0.16286,-0.17671 -0.0864,-0.22568 -0.24059,-0.44726 -0.54055,-0.77712 -0.38715,-0.42567 -0.45111,-0.47341 -0.82635,-0.61617 -1.17878,-0.4485 -2.52448,0.27768 -3.89162,2.10004 -0.87507,1.16644 -2.00674,2.51394 -2.9452,3.50688 l -0.97828,1.03512 -0.16578,1.26871 -0.16575,1.26872 0.23722,0.34755 c 0.49335,0.72282 1.16949,1.11544 1.73203,1.0057 0.35745,-0.0697 0.62285,-0.23182 1.02938,-0.62872 l 0.34735,-0.33903 -0.1113,0.30052 c -0.25246,0.68171 -0.739,1.28878 -1.24183,1.54949 z m -13.06999,12.45638 c -0.71788,0.53513 -1.69534,0.69035 -2.53517,0.40256 -0.84877,-0.29088 -1.48496,-0.88384 -1.6969,-1.5816 -0.0799,-0.26311 -0.1552,-0.36336 -0.61905,-0.82393 -0.45503,-0.45226 -0.59607,-0.5574 -1.02106,-0.76355 -0.66593,-0.32311 -1.81834,-0.69883 -3.40394,-1.10981 -1.27637,-0.33082 -1.97183,-0.56258 -1.97183,-0.65711 0,-0.0251 0.29871,-0.11328 0.66379,-0.19587 1.22477,-0.27712 2.22915,-0.65888 4.56859,-1.73649 1.51755,-0.69904 2.40547,-1.03738 2.96156,-1.12849 0.30592,-0.0502 0.48696,-0.1307 0.82309,-0.3663 1.03321,-0.72424 2.19381,-1.31811 3.20866,-1.64188 0.77126,-0.24606 1.23379,-0.27274 2.0072,-0.11583 0.34232,0.0695 1.04447,0.19345 1.56033,0.27554 1.28608,0.20467 2.13247,0.4941 2.55912,0.87511 0.29563,0.26403 0.32577,0.3133 0.3474,0.56174 0.0209,0.24216 -0.069,0.70733 -0.12566,0.65067 -0.012,-0.012 -0.10264,-0.14672 -0.20135,-0.29949 -0.76796,-1.18727 -3.30452,-1.09774 -4.56332,0.16106 -0.39893,0.39893 -0.87181,0.53631 -2.2758,0.66117 -1.39474,0.12402 -1.74409,0.18395 -2.21342,0.37966 -0.45881,0.19132 -0.87354,0.59821 -1.20299,1.18025 -0.4778,0.84414 -0.55322,1.5264 -0.232,2.0991 0.23033,0.41064 1.25138,1.60504 1.75999,2.05877 0.70309,0.62729 1.37186,0.76639 2.09601,0.43605 l 0.30699,-0.14003 -0.18852,0.2484 c -0.10368,0.13666 -0.2139,0.26878 -0.24491,0.29369 -0.0307,0.0252 -0.19606,0.14936 -0.36681,0.27659 z m 10.19092,-28.55988 c -0.16999,0.11471 -0.21076,0.11293 -0.36643,-0.0158 -0.2672,-0.22091 -0.56625,-0.70194 -1.14041,-1.83433 -0.48791,-0.96234 -0.55439,-1.06393 -0.9797,-1.49728 -0.42322,-0.43152 -0.47893,-0.46922 -0.76677,-0.52837 -0.6125,-0.12522 -1.52346,0.37205 -1.47778,0.80668 0.0376,0.35759 0.62287,0.78775 1.59442,1.17182 0.59727,0.23613 0.60006,0.21712 -0.0921,0.62733 -0.5824,0.34517 -1.19873,0.53001 -1.77735,0.53302 -0.86242,0.005 -1.49352,-0.30901 -2.20985,-1.09782 -0.54534,-0.60051 -0.6691,-0.915 -0.79032,-2.00818 l -0.0895,-0.80674 0.40927,-0.01 c 0.79584,-0.0187 1.26426,-0.23559 1.78174,-0.82479 0.51763,-0.58943 0.79727,-1.35373 0.83507,-2.2827 l 0.0158,-0.38804 0.24627,0.1494 c 0.8931,0.5419 2.02447,0.48231 3.11918,-0.16424 0.79371,-0.46879 1.83475,-1.47737 2.64269,-2.56037 l 0.16308,-0.21866 0.17611,0.22393 c 1.19457,1.51919 1.82732,4.00376 1.54127,6.05201 -0.10161,0.72752 -0.47403,1.78186 -0.8727,2.47062 -0.28327,0.48941 -0.44726,0.69593 -1.05315,1.32632 -0.39472,0.41065 -0.80375,0.80471 -0.90895,0.87569 z m -8.93815,-2.44439 c -1.57304,-0.24949 -3.48543,-0.0398 -4.79287,0.52559 -1.00406,0.43417 -2.03133,1.27077 -2.60872,2.12448 -0.45709,0.67586 -0.9907,1.92998 -1.10554,2.59836 -0.0317,0.18425 -0.0671,0.23062 -0.24438,0.31991 -0.51325,0.25854 -1.433,0.13196 -1.93898,-0.26687 -0.13856,-0.10918 -0.26216,-0.18829 -0.27478,-0.17568 -0.0126,0.0126 -0.22253,0.30471 -0.4666,0.64917 -1.32902,1.87584 -3.14485,4.03278 -4.18427,4.97033 -0.71023,0.64065 -1.4656,1.22616 -1.45863,1.13068 0.003,-0.0372 0.17384,-0.49585 0.3803,-1.01926 0.29662,-0.75203 2.39914,-6.32094 3.23457,-8.56735 l 0.16018,-0.4307 -1.03973,0.5121 c -2.40117,1.1826 -4.47454,2.00753 -6.21686,2.47342 l -0.57767,0.15449 0.19512,-0.21673 c 3.57368,-3.96874 6.92302,-9.03431 7.92279,-11.9825 0.25723,-0.75853 0.48595,-1.84823 0.4048,-1.92859 -0.019,-0.019 -0.24286,0.0318 -0.49727,0.11285 -2.09164,0.66574 -6.34197,1.49072 -13.11925,2.54642 -2.16311,0.33695 -2.69595,0.39748 -2.65169,0.30119 0.0305,-0.0662 0.32624,-0.44043 0.65722,-0.83144 2.48693,-2.93801 7.36743,-5.91325 13.29576,-8.10534 4.80938,-1.77835 9.86083,-2.79928 12.4544,-2.51712 1.60194,0.17427 2.38357,0.15721 2.59746,-0.0566 0.14432,-0.14433 0.105,-0.24724 -0.20744,-0.54283 -0.24338,-0.23091 -1.32718,-0.92468 -1.51117,-0.96812 -0.0453,-0.0107 -0.0388,-0.0264 0.017,-0.0397 0.17032,-0.0402 1.46947,0.26092 2.26874,0.52587 1.67686,0.55585 3.47013,1.44094 4.90201,2.41947 0.5927,0.40504 0.81386,0.59923 1.72993,1.51898 0.99131,0.99546 1.06897,1.08698 1.38237,1.63122 0.62024,1.07722 0.89831,2.18505 0.82185,3.2741 -0.031,0.44157 -0.0594,0.51609 -0.36573,0.9613 -0.45479,0.66088 -1.55991,1.76618 -2.12335,2.12334 -0.23095,0.14655 -0.62092,0.33316 -0.86652,0.41473 -0.40977,0.13609 -0.47981,0.13634 -0.8503,0.003 -1.28021,-0.46099 -2.69763,-0.72512 -3.29962,-0.61491 -0.6497,0.11895 -0.97024,0.46432 -0.93494,1.00743 0.0317,0.48674 0.28988,0.88491 0.97055,1.49632 0.31889,0.28648 0.65917,0.57534 0.75622,0.64189 l 0.17636,0.12107 -0.22683,0.22683 c -0.28315,0.28315 -0.81229,0.54537 -1.27192,0.63032 -0.32202,0.0595 -1.05502,0.0208 -1.22617,-0.0648 -0.26954,-0.13484 -0.11757,1.89056 0.20704,2.75857 0.0371,0.0994 0.0548,0.19216 0.0393,0.20627 -0.0155,0.0141 -0.24641,-0.009 -0.51296,-0.0513 z m -14.98205,-6.23796 c -0.9488,0.77882 -1.9283,1.42625 -5.01404,3.31414 -4.6535,2.84707 -6.79867,4.3482 -9.61077,6.72532 -0.94822,0.80155 -3.40044,3.25413 -4.16361,4.16459 -1.87912,2.24078 -3.38846,4.47159 -4.54624,6.71934 l -0.45414,0.8817 -1.28588,0.349 c -3.08547,0.83741 -6.41089,2.0187 -9.7517,3.46406 -4.95195,2.14243 -10.30309,5.06149 -13.73976,7.49514 -1.08445,0.76796 -1.22327,0.81594 -2.59963,0.89856 -2.49772,0.14993 -7.22001,-0.435 -12.90121,-1.59803 -5.52506,-1.13121 -10.23577,-2.36478 -12.5677,-3.29116 -3.591896,-1.42695 -6.669007,-2.04359 -10.234271,-2.05093 -5.846907,-0.0121 -12.075808,1.71638 -19.593484,5.43686 -2.994186,1.48182 -4.851726,2.50362 -10.425738,5.73506 -4.222613,2.44798 -6.243112,3.57281 -7.96103,4.43197 -4.521384,2.26123 -7.578823,3.02638 -9.9459,2.48902 -0.202153,-0.0459 -0.367553,-0.10136 -0.36756,-0.12324 0,-0.0219 0.244175,-0.1376 0.542661,-0.2571 3.32037,-1.3296 8.629724,-4.92019 15.167083,-10.25714 1.889332,-1.54242 3.754979,-3.1306 3.670128,-3.1243 -0.03472,0.003 -0.810401,0.28699 -1.723738,0.63203 -1.877227,0.70916 -5.459475,1.91777 -7.132399,2.40639 -3.537325,1.03317 -6.334728,1.54611 -8.013945,1.46945 -0.570533,-0.0261 -1.356335,-0.19867 -1.483567,-0.3259 -0.03001,-0.03 0.08533,-0.0964 0.276119,-0.15887 0.881214,-0.28847 3.80326,-1.54293 6.354792,-2.72815 6.48062,-3.01034 12.919096,-6.42372 17.434632,-9.24305 1.136556,-0.70962 2.94342,-1.89454 2.94342,-1.93027 0,-0.0148 -0.633934,0.17401 -1.408753,0.41971 -3.821301,1.21182 -8.46501,2.45369 -12.006326,3.21089 -3.919529,0.83804 -7.000624,1.23963 -9.477394,1.23525 -2.068264,-0.004 -3.339536,-0.24211 -4.28412,-0.80353 -0.346951,-0.20622 -0.858616,-0.71668 -0.858297,-0.85691 0,-0.0285 0.30042,-0.0597 0.667605,-0.0691 1.833183,-0.0471 5.502201,-0.65902 8.554207,-1.42668 6.908023,-1.73752 13.53544,-4.44611 19.227356,-7.85812 0.628024,-0.37646 1.141865,-0.69457 1.141865,-0.70691 0,-0.0124 -0.332781,0.003 -0.73952,0.0338 -1.204576,0.0916 -6.584308,0.0713 -8.079001,-0.0305 -3.857299,-0.26274 -6.716838,-0.76246 -9.181482,-1.60453 -1.879027,-0.64198 -3.02065,-1.26752 -4.079562,-2.23535 -0.631977,-0.57764 -1.242061,-1.32757 -1.106071,-1.35967 0.037,-0.009 0.103942,0.0208 0.148769,0.0657 0.125091,0.12509 1.319585,0.49453 2.188128,0.67677 4.392093,0.92154 11.683746,1.18689 18.09232,0.65841 6.454852,-0.53229 12.279427,-1.84628 16.912653,-3.8154 0.959099,-0.40762 1.308324,-0.58433 1.206079,-0.61028 -0.04844,-0.0122 -0.564875,-0.10159 -1.147582,-0.19842 -0.582698,-0.0968 -1.83233,-0.32978 -2.776961,-0.5177 -9.972345,-1.98381 -17.520698,-4.86931 -21.20464,-8.10589 -1.95503,-1.71761 -2.906695,-3.44354 -2.943116,-5.33763 -0.004,-0.20988 0.0038,-0.39279 0.01742,-0.40644 0.01364,-0.0136 0.307265,0.27193 0.652457,0.63472 3.706015,3.89369 10.652771,6.52496 20.141076,7.62896 4.659948,0.54221 10.582436,0.653 15.913604,0.2977 5.695923,-0.37961 11.327823,-1.24072 16.312873,-2.49421 1.61802,-0.40685 4.32573,-1.18018 4.40308,-1.25753 0.0193,-0.0193 -0.27284,-0.24777 -0.64937,-0.50753 -0.86846,-0.59921 -2.31279,-1.69969 -3.44682,-2.62626 -1.25235,-1.02325 -3.81478,-3.58206 -4.60227,-4.59535 -1.37827,-1.77431 -2.18778,-3.30566 -2.48825,-4.70703 -0.11977,-0.55865 -0.17028,-1.4362 -0.10507,-1.82563 l 0.0369,-0.22026 0.0994,0.25386 c 0.19655,0.50176 0.7288,1.48379 1.07534,1.98405 0.53856,0.77746 1.91583,2.20158 2.83153,2.92786 4.74136,3.76045 11.57741,5.94213 16.38734,5.22989 1.11874,-0.16565 2.70552,-0.80247 3.17875,-1.2757 0.0684,-0.0684 0.16946,-0.11802 0.22462,-0.11027 0.0552,0.008 0.53763,0.33865 1.07217,0.73532 7.49104,5.55908 15.25303,8.68822 23.93733,9.64999 3.48731,0.38622 7.35537,0.41052 11.11853,0.0699 3.674,-0.33257 7.85545,-1.08358 11.73715,-2.10805 0.59736,-0.15765 1.12418,-0.28771 1.1707,-0.289 0.0981,-0.003 -0.15041,0.24078 -0.7372,0.72251 z m 7.98141,-13.06788 c -0.61407,0.0362 -1.93482,0.26525 -3.01825,0.52351 -5.85082,1.39462 -12.03544,4.45618 -16.77131,8.30235 -1.15015,0.93404 -2.74213,2.38789 -3.33438,3.04499 l -0.537,0.5959 -0.40201,0.11243 c -2.44966,0.68502 -6.55676,0.0354 -11.28313,-1.78488 -0.52364,-0.20166 -0.96216,-0.38829 -0.9745,-0.41473 -0.0124,-0.0265 0.16879,-0.12473 0.40253,-0.21838 1.1255,-0.45098 2.41211,-1.1978 3.53202,-2.05022 0.81081,-0.61716 2.26079,-2.11173 2.97236,-3.06383 1.66822,-2.23203 2.78842,-4.71378 3.2744,-7.25429 0.20328,-1.06272 0.21556,-2.96501 0.0243,-3.77056 -0.47348,-1.99457 -1.71897,-2.99466 -3.7935,-3.04607 -2.03086,-0.0504 -4.21406,0.823 -6.2623,2.50509 -0.72584,0.59612 -1.90797,1.84921 -2.41722,2.56229 -0.19733,0.27631 -0.38719,0.51662 -0.42198,0.53394 -0.0679,0.0339 0.16631,-0.96612 0.36963,-1.5785 0.51436,-1.54914 1.53749,-3.13962 2.88933,-4.49145 1.58953,-1.58954 3.58971,-2.96492 6.85566,-4.71417 0.70475,-0.37746 1.77767,-0.95185 2.38431,-1.27643 2.0146,-1.07793 3.18824,-1.8228 4.05318,-2.57242 0.38914,-0.33731 0.43372,-0.39381 0.41339,-0.52468 -0.086,-0.55398 -1.21098,-0.68414 -3.31324,-0.38333 -4.63739,0.66355 -10.95285,2.79017 -15.00275,5.05191 l -0.35234,0.19677 0.30753,-0.4704 c 0.8939,-1.36733 1.4141,-1.99377 2.84404,-3.42497 1.53614,-1.53747 1.97961,-1.89855 3.49966,-2.84906 1.5588,-0.97479 3.0904,-1.67707 5.15333,-2.36302 1.84268,-0.61269 3.22068,-0.94661 7.58769,-1.83872 4.34298,-0.88721 4.54838,-0.93238 4.54838,-1.00044 0,-0.0994 -0.83125,-1.21735 -1.29583,-1.74286 -0.58329,-0.65979 -1.46216,-1.39508 -2.31133,-1.9336 -2.02279,-1.28292 -4.63673,-2.06503 -7.42412,-2.2214 -2.91198,-0.16335 -6.07815,0.22178 -8.88187,1.08039 -0.79024,0.242 -0.79109,0.23952 -0.17909,-0.52582 1.38714,-1.73466 4.37594,-2.96734 8.75078,-3.6091 2.74305,-0.40239 4.91361,-0.54633 10.7691,-0.71414 4.77974,-0.13699 6.18749,-0.24914 7.24306,-0.57705 0.80864,-0.25121 1.03028,-0.58852 0.81773,-1.24449 -0.34432,-1.06263 -2.38555,-2.86345 -5.02241,-4.43088 -4.39331,-2.61149 -9.06189,-4.10019 -12.72009,-4.05614 -1.17598,0.0141 -2.06363,0.14685 -2.94528,0.44025 -0.78182,0.26017 -0.76731,0.21786 0.14709,-0.42892 1.74984,-1.23771 3.83747,-2.07022 5.9921,-2.38954 1.14007,-0.16896 3.52653,-0.16082 4.76011,0.0163 4.67279,0.67075 9.9819,3.03943 15.53624,6.93158 0.28116,0.19703 0.54646,0.35988 0.58953,0.36192 0.22693,0.0108 0.58329,-1.45188 0.58333,-2.39411 1.1e-4,-2.70706 -1.77504,-5.73418 -5.63637,-9.61157 -1.30238,-1.30792 -2.12536,-2.22764 -2.12538,-2.37545 7e-5,-0.10512 0.30341,0.0217 1.54764,0.64675 2.73224,1.37258 4.89575,2.92926 7.00962,5.04355 2.76443,2.7654 4.61821,5.77324 5.78819,9.39339 0.32917,1.01851 0.68213,2.59742 0.77944,3.48668 0.19211,1.75538 -0.29946,4.38524 -2.43043,13.00248 -2.05421,8.30683 -2.76217,11.59205 -3.22999,14.98849 -0.3229,2.34432 -0.40405,4.53473 -0.21654,5.84495 0.15563,1.08751 0.55312,2.0031 1.05563,2.43156 0.11944,0.10185 0.20586,0.19478 0.19206,0.20648 -0.0134,0.012 -0.18068,0.0305 -0.37082,0.0417 z"
       style="fill:#ffffff;fill-opacity:1;stroke-width:0.06471343" />
  </g>
</svg>
