<?xml version="1.0" encoding="UTF-8" standalone="no"?>
<svg
   xmlns:dc="http://purl.org/dc/elements/1.1/"
   xmlns:cc="http://creativecommons.org/ns#"
   xmlns:rdf="http://www.w3.org/1999/02/22-rdf-syntax-ns#"
   xmlns:svg="http://www.w3.org/2000/svg"
   xmlns="http://www.w3.org/2000/svg"
   xmlns:xlink="http://www.w3.org/1999/xlink"
   xmlns:sodipodi="http://sodipodi.sourceforge.net/DTD/sodipodi-0.dtd"
   xmlns:inkscape="http://www.inkscape.org/namespaces/inkscape"
   width="384pt"
   height="384pt"
   version="1.1"
   viewBox="0 0 384 384"
   id="svg65"
   sodipodi:docname="variety.svg"
   inkscape:version="0.92.3 (2405546, 2018-03-11)">
  <metadata
     id="metadata69">
    <rdf:RDF>
      <cc:Work
         rdf:about="">
        <dc:format>image/svg+xml</dc:format>
        <dc:type
           rdf:resource="http://purl.org/dc/dcmitype/StillImage" />
      </cc:Work>
    </rdf:RDF>
  </metadata>
  <sodipodi:namedview
     pagecolor="#ffffff"
     bordercolor="#666666"
     borderopacity="1"
     objecttolerance="10"
     gridtolerance="10"
     guidetolerance="10"
     inkscape:pageopacity="0"
     inkscape:pageshadow="2"
     inkscape:window-width="2560"
     inkscape:window-height="1025"
     id="namedview67"
     showgrid="false"
     inkscape:zoom="0.4609375"
     inkscape:cx="256"
     inkscape:cy="256"
     inkscape:window-x="0"
     inkscape:window-y="0"
     inkscape:window-maximized="1"
     inkscape:current-layer="svg65" />
  <defs
     id="defs43">
    <linearGradient
       id="linear0"
       x1="32.987"
       x2="763.265"
       y1="976.668"
       y2="390.876"
       gradientTransform="matrix(0.694428,0,0,0.510287,14.221777,-250.803814)"
       gradientUnits="userSpaceOnUse">
      <stop
         offset="0"
         style="stop-color:rgb(16.078431%,50.196078%,72.54902%)"
         id="stop2" />
      <stop
         offset="1"
         style="stop-color:rgb(72.941176%,9.019608%,30.588235%);stop-opacity:0.996078"
         id="stop4" />
    </linearGradient>
    <filter
       id="alpha"
       width="100%"
       height="100%"
       x="0%"
       y="0%"
       filterUnits="objectBoundingBox">
      <feColorMatrix
         in="SourceGraphic"
         type="matrix"
         values="0 0 0 0 1 0 0 0 0 1 0 0 0 0 1 0 0 0 1 0"
         id="feColorMatrix7" />
    </filter>
    <mask
       id="mask0">
      <g
         filter="url(#alpha)"
         id="g12">
        <rect
           width="384"
           height="384"
           x="0"
           y="0"
           style="fill:rgb(0%,0%,0%);fill-opacity:0.301961"
           id="rect10" />
      </g>
    </mask>
    <clipPath
       id="clip1">
      <rect
         width="384"
         height="384"
         x="0"
         y="0"
         id="rect15" />
    </clipPath>
    <g
       id="surface5"
       clip-path="url(#clip1)">
      <path
         style="fill:rgb(100%,100%,100%)"
         d="M 32.828125 46.945312 C 28.359375 46.945312 24.300781 48.652344 21.265625 51.445312 L 362.722656 51.445312 C 359.6875 48.652344 355.632812 46.945312 351.160156 46.945312 Z M 32.828125 46.945312"
         id="path18" />
    </g>
    <mask
       id="mask1">
      <g
         filter="url(#alpha)"
         id="g23">
        <rect
           width="384"
           height="384"
           x="0"
           y="0"
           style="fill:rgb(0%,0%,0%);fill-opacity:0.301961"
           id="rect21" />
      </g>
    </mask>
    <clipPath
       id="clip2">
      <rect
         width="384"
         height="384"
         x="0"
         y="0"
         id="rect26" />
    </clipPath>
    <g
       id="surface8"
       clip-path="url(#clip2)">
      <path
         style="fill:rgb(100%,100%,100%)"
         d="M 21.265625 264.25 C 24.300781 267.042969 28.359375 268.746094 32.828125 268.746094 L 351.160156 268.746094 C 355.632812 268.746094 359.6875 267.042969 362.722656 264.25 Z M 21.265625 264.25"
         id="path29" />
    </g>
    <mask
       id="mask2">
      <g
         filter="url(#alpha)"
         id="g34">
        <rect
           width="384"
           height="384"
           x="0"
           y="0"
           style="fill:rgb(0%,0%,0%);fill-opacity:0.301961"
           id="rect32" />
      </g>
    </mask>
    <clipPath
       id="clip3">
      <rect
         width="384"
         height="384"
         x="0"
         y="0"
         id="rect37" />
    </clipPath>
    <g
       id="surface11"
       clip-path="url(#clip3)">
      <path
         style="fill-rule:evenodd;fill:rgb(0%,0%,0%)"
         d="M 198.453125 126.515625 C 198.453125 126.515625 217.417969 196.9375 148.398438 194.203125 C 125.242188 193.28125 119.476562 170.472656 69.59375 163.378906 L 69.59375 214.328125 C 69.59375 220.214844 74.132812 224.949219 79.769531 224.949219 L 313.726562 224.949219 C 319.363281 224.949219 323.898438 220.214844 323.898438 214.328125 L 323.898438 198.046875 C 277.332031 173.21875 285.699219 116.300781 198.453125 126.515625 Z M 198.453125 126.515625"
         id="path40" />
    </g>
  </defs>
  <g
     id="g63">
    <path
       style="fill:rgb(15.294118%,15.294118%,15.294118%)"
       d="M 158.171875 268.132812 L 225.820312 268.132812 L 225.820312 326.1875 L 158.171875 326.1875 Z M 158.171875 268.132812"
       id="path45" />
    <path
       style="fill:rgb(9.411765%,9.411765%,9.411765%)"
       d="M 158.070312 268.5625 L 225.917969 268.5625 L 225.917969 326.027344 Z M 158.070312 268.5625"
       id="path47" />
    <path
       style="fill:rgb(0%,0%,0%)"
       d="M 32.832031 46.949219 L 351.164062 46.949219 C 360.582031 46.949219 368.21875 54.582031 368.21875 64 L 368.21875 251.699219 C 368.21875 261.113281 360.582031 268.75 351.164062 268.75 L 32.832031 268.75 C 23.414062 268.75 15.78125 261.113281 15.78125 251.699219 L 15.78125 64 C 15.78125 54.582031 23.414062 46.949219 32.832031 46.949219 Z M 32.832031 46.949219"
       id="path49" />
    <path
       style="fill:url(#linear0)"
       d="M 41.863281 62.90625 L 342.132812 62.90625 C 349.34375 62.90625 355.1875 68.753906 355.1875 75.964844 L 355.1875 235.179688 C 355.1875 242.390625 349.34375 248.234375 342.132812 248.234375 L 41.863281 248.234375 C 34.652344 248.234375 28.808594 242.390625 28.808594 235.179688 L 28.808594 75.964844 C 28.808594 68.753906 34.652344 62.90625 41.863281 62.90625 Z M 41.863281 62.90625"
       id="path51" />
    <path
       style="fill:rgb(11.372549%,11.372549%,11.372549%)"
       d="M 132.191406 324.988281 L 251.792969 324.988281 C 254.367188 324.988281 256.457031 327.078125 256.457031 329.652344 L 256.457031 332.378906 C 256.457031 334.953125 254.367188 337.042969 251.792969 337.042969 L 132.191406 337.042969 C 129.613281 337.042969 127.527344 334.953125 127.527344 332.378906 L 127.527344 329.652344 C 127.527344 327.078125 129.613281 324.988281 132.191406 324.988281 Z M 132.191406 324.988281"
       id="path53" />
    <use
       mask="url(#mask0)"
       xlink:href="#surface5"
       id="use55" />
    <use
       mask="url(#mask1)"
       xlink:href="#surface8"
       id="use57" />
    <use
       mask="url(#mask2)"
       xlink:href="#surface11"
       id="use59" />
    <path
       style="fill-rule:evenodd;fill:rgb(100%,100%,100%)"
       d="M 193.9375 121.753906 C 193.9375 121.753906 212.710938 190.382812 144.382812 187.714844 C 121.457031 186.820312 94.316406 150.28125 66.371094 157.679688 L 66.371094 207.328125 C 66.371094 213.0625 70.863281 217.679688 76.441406 217.679688 L 308.054688 217.679688 C 313.632812 217.679688 318.125 213.0625 318.125 207.328125 L 318.125 191.460938 C 290.992188 181.234375 280.308594 111.804688 193.9375 121.753906 Z M 193.9375 121.753906"
       id="path61" />
  </g>
  <path
     style="fill:#000000;stroke-width:2.16949153"
     d="m 355.63192,316.09541 c -10.02068,-9.20376 -17.35087,-14.18368 -21.69491,-14.73883 -3.60841,-0.46114 15.1613,-0.99469 41.71045,-1.18565 57.70856,-0.41508 56.94915,-0.10869 56.94915,-22.98066 0,-12.08366 -0.58622,-14.14156 -4.37048,-15.34264 -2.40378,-0.76293 -3.89715,-2.15301 -3.31863,-3.08908 0.57851,-0.93607 -2.87527,-4.85788 -7.67512,-8.71514 -4.79985,-3.85725 -15.87061,-15.98638 -24.60171,-26.95362 -37.46766,-47.0635 -64.88201,-62.11352 -113.14285,-62.11352 h -22.02769 l 2.09823,11.38983 c 2.39616,13.00705 0.88949,32.91259 -3.26111,43.08457 l -2.82519,6.92377 -68.26824,-62.39841 C 147.6563,125.6569 114.02555,94.757571 110.46884,91.310844 l -6.46675,-6.266776 91.07692,0.109214 91.07692,0.109213 92.20339,84.722485 92.20339,84.72248 0.59644,33.2056 0.59646,33.20559 -5.77037,4.53897 c -5.44185,4.28056 -8.31673,4.53328 -50.49477,4.43859 l -44.72437,-0.10045 -15.13418,-13.90039 z"
     id="path71"
     inkscape:connector-curvature="0"
     transform="scale(0.75)" />
  <path
     style="fill:#000000;stroke-width:2.16949153"
     d="m 360.63586,319.75127 c -6.36058,-5.74495 -13.76677,-11.9424 -16.4582,-13.77211 -4.50779,-3.06453 -1.60043,-3.44745 36.88136,-4.85773 51.44753,-1.88544 51.53759,-1.92432 51.53759,-22.25628 V 264.51508 L 416.56578,247.99991 C 407.74882,238.91657 395.68284,225.62712 389.75252,218.4678 353.66183,174.89783 327.24968,160.97627 280.67889,160.97627 H 257.752 l 0.8751,20.0678 c 0.8721,19.99923 -2.27727,39.43469 -6.17487,38.10642 -1.1018,-0.37548 -34.47431,-30.45896 -74.16114,-66.85218 L 106.1332,86.128814 193.51783,85.561756 c 67.14425,-0.435714 88.53146,0.06679 92.33591,2.169491 2.7232,1.505102 45.01114,39.598513 93.97322,84.652023 l 89.02192,81.91547 1.2293,33.06758 c 1.17547,31.61962 1.0327,33.22107 -3.26025,36.57293 -5.45634,4.26023 -26.46747,6.25736 -65.83144,6.25736 H 372.2005 Z"
     id="path73"
     inkscape:connector-curvature="0"
     transform="scale(0.75)" />
  <path
     style="fill:#000000;stroke-width:2.16949153"
     d="m 361.45282,320.84487 c -5.61668,-5.14346 -13.02855,-11.48922 -16.47082,-14.1017 l -6.25868,-4.74995 14.93664,-0.19894 c 38.15442,-0.50823 71.96842,-3.22719 75.38365,-6.06158 2.62572,-2.17915 3.553,-6.63766 3.553,-17.08318 v -14.13444 l -16.03302,-16.51517 c -8.81818,-9.08334 -21.47374,-22.99054 -28.12349,-30.90488 -35.4056,-42.13882 -62.51075,-56.11876 -108.80635,-56.11876 h -21.88176 l 0.87511,20.0678 c 0.91184,20.91026 -2.15422,38.48393 -6.72428,38.54169 -1.92893,0.0244 -1.88548,0.50449 0.16328,1.80439 2.04397,1.29686 0.15585,4.40681 -7.05085,11.61352 -5.4133,5.4133 -9.85731,9.23861 -9.87559,8.5007 -0.0182,-0.73791 -0.86701,-0.026 -1.88609,1.58207 -1.01908,1.60804 -4.42039,3.07245 -7.55846,3.25423 -3.13808,0.18178 -5.70629,1.01985 -5.70713,1.86238 -0.003,2.70386 -33.36078,1.15966 -40.63866,-1.88123 -3.8645,-1.61469 -17.43056,-9.36683 -30.14681,-17.22698 -26.74848,-16.53373 -36.37307,-20.38976 -50.892618,-20.38976 H 87.822937 l -0.630114,17.21455 -0.630111,17.21455 -23.261579,-21.01116 -23.261579,-21.01116 -0.06046,-14.58607 -0.06045,-14.58607 31.092044,-0.60037 31.092042,-0.60037 -31.014741,-28.20339 -31.014745,-28.20339 -0.0773,-9.92691 c -0.05909,-7.588798 1.086412,-11.020161 4.863465,-14.568518 4.91786,-4.62009 5.476563,-4.642034 120.518711,-4.733585 82.62911,-0.06576 116.89737,0.614166 120.20628,2.385034 2.54557,1.362356 44.80796,39.383609 93.91638,84.491659 l 89.28805,82.01465 1.4372,33.2044 c 1.39943,32.33183 1.31391,33.29741 -3.25437,36.74327 -6.06492,4.57477 -22.98092,6.25441 -62.98962,6.25441 H 371.66497 Z M 239.51186,208.70508 c 0,-1.19322 -1.03388,-2.16949 -2.29752,-2.16949 -1.26364,0 -1.69416,0.97627 -0.95671,2.16949 0.73745,1.19323 1.77133,2.1695 2.29753,2.1695 0.52619,0 0.9567,-0.97627 0.9567,-2.1695 z m -71.59322,-65.90384 c 0,-0.45051 -1.70847,-2.15899 -3.79661,-3.79661 -3.44093,-2.69857 -3.51767,-2.62184 -0.8191,0.8191 2.83416,3.61382 4.61571,4.76307 4.61571,2.97751 z"
     id="path75"
     inkscape:connector-curvature="0"
     transform="scale(0.75)" />
  <path
     style="fill:#000000;stroke-width:2.16949153"
     d="m 367.23512,326.58595 c -1.63761,-1.98585 -8.50449,-8.21741 -15.25972,-13.84787 l -12.28221,-10.23724 33.97712,-1.4412 c 58.48782,-2.48088 58.9263,-2.65488 58.9263,-23.38419 v -13.16037 l -15.97718,-16.51517 c -8.78744,-9.08334 -23.05468,-24.63469 -31.70497,-34.55855 -34.38993,-39.45305 -60.56817,-52.35973 -106.35175,-52.4347 l -20.61017,-0.0337 0.73767,20.19715 c 0.74182,20.31107 -2.25876,38.38247 -6.37305,38.38247 -1.21765,0 -1.6181,0.96404 -0.88989,2.14231 2.13912,3.46119 -17.95214,21.3867 -26.69103,23.81384 -4.40222,1.22268 -14.83793,2.21895 -23.19048,2.21395 -16.89977,-0.0101 -25.82336,-3.35076 -52.06779,-19.49213 -24.7611,-15.22906 -35.48579,-19.48064 -49.19983,-19.50423 l -12.318464,-0.0212 -1.374362,12.47458 c -0.755899,6.86102 -1.565731,13.90789 -1.799628,15.65971 -0.259623,1.94449 -9.080526,-4.68535 -22.646155,-17.02097 L 39.918644,199.6123 v -13.83629 -13.83629 l 31.735183,-0.60037 31.735183,-0.60037 -31.956781,-29.09396 -31.956783,-29.09396 1.40105,-8.87214 C 43.741425,85.536788 36.087082,86.675056 163.17395,85.492211 c 61.98481,-0.576917 115.2999,-0.396321 118.47797,0.401323 3.37028,0.845886 43.59109,36.140756 96.51393,84.693616 l 90.73562,83.24336 1.59726,33.12319 c 1.57935,32.7517 1.54223,33.16471 -3.31068,36.82527 -6.3062,4.75676 -22.85167,6.41764 -63.93219,6.41764 -28.18238,0 -33.48122,-0.53113 -36.02074,-3.61066 z M 239.51186,209.91787 c 0,-0.52619 -0.97627,-1.56008 -2.16949,-2.29753 -1.19322,-0.73745 -2.16949,-0.30693 -2.16949,0.95671 0,1.26364 0.97627,2.29753 2.16949,2.29753 1.19322,0 2.16949,-0.43052 2.16949,-0.95671 z m -71.59322,-67.25424 c 0,-0.52619 -0.97627,-1.56008 -2.16949,-2.29753 -1.19322,-0.73745 -2.16949,-0.30693 -2.16949,0.95671 0,1.26364 0.97627,2.29753 2.16949,2.29753 1.19322,0 2.16949,-0.43052 2.16949,-0.95671 z"
     id="path77"
     inkscape:connector-curvature="0"
     transform="scale(0.75)" />
  <path
     style="fill:#000000;stroke-width:2.16949153"
     d="m 367.41127,326.79817 c -1.73451,-2.10257 -8.81788,-8.54383 -15.74086,-14.31392 l -12.58719,-10.49103 8.24821,-0.0824 c 4.53653,-0.0453 23.69961,-0.93833 42.58462,-1.98428 41.48951,-2.29804 42.68056,-2.92433 42.68056,-22.44266 v -12.98943 l -17.06264,-17.58958 c -9.38444,-9.67427 -24.10593,-25.67065 -32.71443,-35.54751 -32.80738,-37.64121 -59.18341,-50.24769 -105.34157,-50.34824 l -19.52543,-0.0426 0.68602,20.39215 c 0.69135,20.5512 -2.22866,38.19386 -6.3214,38.19386 -1.21765,0 -1.56701,1.04671 -0.77636,2.32601 2.23729,3.62003 -17.37602,21.01224 -26.57701,23.56731 -4.52737,1.25723 -15.06548,2.26988 -23.41803,2.25033 -17.31244,-0.0405 -22.86265,-2.14106 -53.85939,-20.38361 -24.7813,-14.58457 -35.43097,-18.6075 -49.258594,-18.6075 H 88.058702 L 86.225961,224.43324 84.39322,240.1614 62.155932,219.94802 39.918644,199.73464 v -13.89746 -13.89746 l 31.627611,-0.60037 31.627615,-0.60037 -31.870678,-29.06331 -31.870674,-29.06331 1.16407,-8.67879 c 0.640238,-4.77333 3.182312,-10.697028 5.649053,-13.163768 4.397177,-4.397177 6.729285,-4.502247 119.119119,-5.366758 94.21928,-0.724742 115.61596,-0.352275 120.14735,2.091489 4.97957,2.685464 171.28663,153.991357 180.03621,163.796657 2.92641,3.2795 3.971,10.7072 5.19131,36.91344 l 1.52774,32.80781 -6.17817,4.04972 c -5.41592,3.55005 -11.68992,4.1428 -50.85123,4.8043 -40.57336,0.68534 -44.9625,0.40376 -47.8267,-3.06829 z M 239.51186,209.91787 c 0,-0.52619 -0.97627,-1.56008 -2.16949,-2.29753 -1.19322,-0.73745 -2.16949,-0.30693 -2.16949,0.95671 0,1.26364 0.97627,2.29753 2.16949,2.29753 1.19322,0 2.16949,-0.43052 2.16949,-0.95671 z"
     id="path79"
     inkscape:connector-curvature="0"
     transform="scale(0.75)" />
  <path
     style="fill:#000000;stroke-width:2.16949153"
     d="m 39.918644,143.1989 v -27.95893 l 29.266057,26.66476 c 16.09633,14.66562 28.543787,26.83456 27.661017,27.0421 -0.882773,0.20753 -14.052498,0.7899 -29.266057,1.29416 l -27.661017,0.91683 z"
     id="path81"
     inkscape:connector-curvature="0"
     transform="scale(0.75)" />
  <path
     style="fill:#000000;stroke-width:2.16949153"
     d="m 39.918644,143.42748 v -26.22675 l 6.657524,5.60194 c 3.661639,3.08107 15.918276,14.1509 27.236974,24.59963 23.999138,22.15455 24.246734,21.68652 -11.65721,22.03568 l -22.237288,0.21626 z"
     id="path83"
     inkscape:connector-curvature="0"
     transform="scale(0.75)" />
  <path
     style="fill:#000000;stroke-width:2.16949153"
     d="m 39.918644,143.28409 v -26.37014 l 4.846223,4.13286 c 2.665423,2.27307 14.932411,13.37234 27.259974,24.66506 26.130855,23.93727 26.269902,23.5607 -8.784163,23.78988 l -23.322034,0.15249 z"
     id="path85"
     inkscape:connector-curvature="0"
     transform="scale(0.75)" />
  <path
     style="fill:#000000;stroke-width:2.16949153"
     d="m 39.918644,143.28409 v -26.37014 l 4.86639,4.13286 c 2.676515,2.27307 14.966744,13.36419 27.311619,24.64694 26.18665,23.93361 26.318917,23.57803 -8.855975,23.808 l -23.322034,0.15249 z"
     id="path87"
     inkscape:connector-curvature="0"
     transform="scale(0.75)" />
  <path
     style="fill:#000000;stroke-width:2.16949153"
     d="m 39.918644,143.3547 c 0,-30.68376 -3.707554,-30.81655 31.026784,1.11125 16.755121,15.4013 22.628909,22.05051 20.610169,23.33098 -1.552868,0.98498 -13.806444,1.80581 -27.230173,1.82409 l -24.40678,0.0332 z"
     id="path89"
     inkscape:connector-curvature="0"
     transform="scale(0.75)" />
  <path
     style="fill:#000000;stroke-width:2.16949153"
     d="m 39.918644,143.49732 c 0,-30.872 -3.095959,-30.98723 31.588029,1.17571 16.630682,15.42187 22.163462,21.78378 20.088791,23.09926 -1.574793,0.99853 -13.846311,1.83045 -27.27004,1.84873 l -24.40678,0.0332 z"
     id="path91"
     inkscape:connector-curvature="0"
     transform="scale(0.75)" />
  <path
     style="fill:#000000;stroke-width:2.16949153"
     d="m 39.918644,143.54401 c 0,-24.64109 0.223663,-25.99053 3.975039,-23.98285 2.186271,1.17005 5.255184,3.66985 6.819807,5.55511 1.564623,1.88525 8.806365,8.43922 16.092758,14.56438 7.328924,6.1609 4.177814,2.56824 -7.052778,-8.04106 -20.065888,-18.95581 -20.287418,-19.27724 -19.146791,-27.78125 0.634689,-4.731957 3.20719,-10.656899 5.716669,-13.166541 4.504299,-4.50459 6.05574,-4.572821 121.228882,-5.331496 l 116.66619,-0.768511 35.54591,32.226138 35.5459,32.22614 -137.08562,0.55855 c -75.3971,0.3072 -137.085627,1.34489 -137.085627,2.30597 0,0.96108 2.931224,4.55571 6.513831,7.98807 4.754788,4.55537 5.780053,6.70654 3.79661,7.96589 -1.494471,0.94889 -13.700271,1.74019 -27.124,1.75847 l -24.40678,0.0332 z"
     id="path93"
     inkscape:connector-curvature="0"
     transform="scale(0.75)" />
  <path
     style="fill:#000000;stroke-width:2.16949153"
     d="m 355.39161,316.38519 -15.37447,-13.8035 17.54396,-1.36597 c 9.64921,-0.7513 24.86602,-1.41435 33.81517,-1.47347 21.20676,-0.14008 34.84809,-2.88072 38.37991,-7.71076 1.56223,-2.13649 2.84043,-9.11037 2.84043,-15.49751 0,-11.54299 -0.10279,-11.7203 -17.05437,-29.41586 -9.37991,-9.79158 -23.97473,-25.70038 -32.43292,-35.3529 -32.88333,-37.52654 -60.34825,-50.65483 -106.17373,-50.75128 l -17.8983,-0.0377 v 22.45592 c 0,21.97176 -2.68271,36.12035 -6.84874,36.12035 -1.14692,0 -1.4384,1.04671 -0.64775,2.32601 2.23729,3.62003 -17.37602,21.01224 -26.57701,23.56731 -4.52737,1.25723 -15.06548,2.28178 -23.41803,2.27678 -17.00348,-0.0102 -25.06387,-3.0606 -55.73976,-21.09445 -23.58247,-13.86374 -34.25792,-17.92311 -47.134803,-17.92311 H 88.087828 l -1.535551,15.29036 c -0.844555,8.4097 -2.327359,14.99953 -3.295122,14.64407 -0.967764,-0.35546 -11.114832,-9.26635 -22.549042,-19.80199 L 39.918644,199.68179 V 185.75275 171.8237 h 30.553672 c 22.30894,0 30.326084,-0.68277 29.710264,-2.53023 -0.463876,-1.39163 -5.18252,-5.9899 -10.485877,-10.2184 l -9.642466,-7.68816 7.197074,7.76068 c 9.152831,9.8696 7.719178,10.50662 -23.645696,10.50662 H 39.918644 v -26.0339 c 0,-14.31865 0.52996,-26.0339 1.177689,-26.0339 0.647729,0 6.261288,4.59582 12.474576,10.21294 11.264803,10.18392 11.260575,10.17515 -1.488403,-3.08877 -12.060024,-12.54714 -12.710069,-13.76523 -11.459258,-21.47307 0.729317,-4.494258 3.336398,-10.18228 5.793514,-12.640051 4.426463,-4.427644 6.075497,-4.474327 179.594848,-5.084144 l 175.12737,-0.615469 34.71187,31.956484 34.71186,31.95649 1.35765,14.2183 c 1.87934,19.68187 2.20355,114.44772 0.47486,138.80158 -1.98348,27.94339 -0.32395,27.13424 -57.05665,27.81956 l -44.57247,0.53842 z m 115.65865,-56.11583 c -0.48284,-3.89933 -0.88786,-1.23207 -0.90003,5.92725 -0.013,7.15932 0.38287,10.34969 0.8779,7.0897 0.49502,-3.25999 0.50497,-9.11761 0.0221,-13.01695 z m -231.5384,-50.35149 c 0,-0.52619 -0.97627,-1.56008 -2.16949,-2.29753 -1.19322,-0.73745 -2.16949,-0.30693 -2.16949,0.95671 0,1.26364 0.97627,2.29753 2.16949,2.29753 1.19322,0 2.16949,-0.43052 2.16949,-0.95671 z"
     id="path95"
     inkscape:connector-curvature="0"
     transform="scale(0.75)" />
  <path
     style="fill:#000000;stroke-width:2.16949153"
     d="m 355.26567,316.61978 -15.50041,-13.54181 11.16143,-1.41256 c 6.13879,-0.77692 20.54684,-1.50912 32.01787,-1.62712 22.09005,-0.22725 42.68299,-3.22516 46.18082,-6.72299 1.15771,-1.15772 2.51136,-7.73304 3.00811,-14.61182 l 0.90318,-12.50687 -21.07427,-22.77966 C 367.29045,195.13 359.5482,187.41794 347.98644,179.69044 330.92612,168.28786 312.31985,163.06848 283.44407,161.5852 l -24.40678,-1.25372 -0.0217,23.64443 c -0.0173,20.23059 -0.75646,25.22341 -5.11371,34.58054 -10.17444,21.85057 -25.59428,29.99433 -54.38223,28.72147 l -19.6688,-0.86965 -29.28814,-16.703 C 119.33529,211.8963 111.29318,208.73633 97.148117,208.71718 l -8.940017,-0.0121 -1.509504,15.31909 c -0.830228,8.4255 -2.335772,15.01533 -3.345653,14.64407 -1.009881,-0.37126 -11.12163,-8.97332 -22.47055,-19.1157 l -20.634399,-18.44068 -0.164675,-14.64406 -0.164675,-14.64407 27.661017,-0.0332 c 15.213559,-0.0182 28.867404,-0.79947 30.341875,-1.736 1.859504,-1.18107 -0.466885,-4.27299 -7.59322,-10.09183 l -10.274079,-8.38907 7.088996,7.55584 c 3.898947,4.15571 6.420981,8.22385 5.604519,9.04031 -0.816462,0.81646 -13.037017,1.48448 -27.156792,1.48448 H 39.918644 v -26.0339 c 0,-14.31865 0.454165,-26.0339 1.009256,-26.0339 0.55509,0 4.704243,3.11692 9.220339,6.9265 8.116508,6.84671 8.104884,6.81453 -1.009256,-2.79399 C 38.168119,110.153 37.022326,101.67067 45.153707,92.215894 l 5.235062,-6.08708 174.867941,-0.575842 174.86795,-0.575842 34.47248,31.77231 c 31.66607,29.1857 34.57864,32.50004 35.77618,40.71143 0.71701,4.91652 1.21519,43.87193 1.10709,86.56757 l -0.19656,77.62844 -5.68641,3.72749 c -4.8341,3.16881 -12.36708,3.80616 -50.25885,4.25236 l -44.57247,0.52486 -15.50043,-13.54181 z"
     id="path97"
     inkscape:connector-curvature="0"
     transform="scale(0.75)" />
  <path
     style="fill:#000000;stroke-width:2.16949153"
     d="m 355.22762,316.69376 c -8.54615,-7.48867 -15.27526,-13.88329 -14.95357,-14.21023 0.32169,-0.32695 18.16917,-1.50995 39.66106,-2.62889 21.49189,-1.11895 41.56199,-3.16707 44.60021,-4.55138 6.1581,-2.80582 7.98796,-7.51285 8.03168,-20.66036 0.0276,-8.27158 -1.46738,-10.52442 -20.87357,-31.45763 -53.08917,-57.26663 -63.37154,-66.20597 -85.4019,-74.24718 -12.78438,-4.66637 -34.36124,-7.92501 -52.61017,-7.94543 l -14.64407,-0.0164 -0.0217,23.32204 c -0.0247,27.14618 -4.52734,40.12168 -18.03973,51.98572 -10.65928,9.35897 -21.16634,12.09459 -42.87268,11.16235 -18.16586,-0.7802 -18.38081,-0.85806 -45.37098,-16.4351 -30.82684,-17.79132 -42.07948,-22.3062 -55.594794,-22.3062 -9.255383,0 -9.490538,0.17428 -9.513826,7.05085 -0.03582,10.57733 -2.521029,23.56916 -4.373168,22.86141 -0.898312,-0.34327 -11.002888,-8.92242 -22.45461,-19.0648 l -20.821314,-18.44068 -0.02792,-14.64406 -0.02792,-14.64407 24.40678,-0.0296 c 23.879606,-0.029 34.327042,-1.26377 34.01286,-4.02001 -0.08615,-0.75575 -3.747165,-4.25595 -8.135593,-7.77823 l -7.978962,-6.40414 5.996477,6.55456 c 3.298061,3.605 5.331959,7.21907 4.519773,8.03126 -0.812186,0.81218 -13.029244,1.4767 -27.149019,1.4767 h -25.67232 v -26.0339 c 0,-14.31865 0.669282,-26.0339 1.487292,-26.0339 0.818011,0 3.990892,2.18734 7.050848,4.86077 3.312636,2.89418 2.710904,1.75522 -1.487292,-2.81515 -7.483776,-8.14722 -8.820108,-15.31429 -4.587499,-24.603852 1.354842,-2.973554 4.039588,-6.192372 5.966102,-7.152928 1.926514,-0.960557 81.886035,-2.028862 177.687815,-2.374013 l 174.18507,-0.627546 34.38521,31.682329 c 26.07774,24.02787 34.70607,33.28659 35.71324,38.32246 0.73042,3.65208 1.32803,42.61763 1.32803,86.59012 v 79.94998 l -5.86516,3.84664 c -5.04801,3.31071 -12.07537,3.93005 -50.44068,4.44546 l -44.57552,0.59887 z"
     id="path99"
     inkscape:connector-curvature="0"
     transform="scale(0.75)" />
  <path
     style="fill:#000000;stroke-width:2.16949153"
     d="m 354.98529,316.72977 -15.7808,-13.6518 9.27232,-1.46632 c 5.09978,-0.80646 17.57065,-1.5706 27.71302,-1.6981 25.60811,-0.32188 47.69829,-3.46849 51.57656,-7.34677 1.7966,-1.79659 3.72159,-8.00251 4.27778,-13.79093 0.93345,-9.71455 0.34436,-11.35469 -7.65564,-21.31453 -4.76678,-5.93457 -23.17511,-25.5993 -40.90736,-43.6994 -42.3352,-43.21338 -54.00691,-49.22097 -101.12185,-52.04881 l -23.32203,-1.39979 -0.0217,23.65351 c -0.0173,20.19527 -0.76079,25.24176 -5.07995,34.51676 -6.01322,12.91287 -17.67172,23.78216 -29.22022,27.24217 -4.59767,1.3775 -16.60292,2.15374 -26.67832,1.72498 -18.28765,-0.77825 -18.36494,-0.80638 -46.0316,-16.75628 -29.03543,-16.739 -42.3415,-21.98938 -55.727851,-21.98938 H 88.24151 l -1.141704,14.22321 c -0.627935,7.82277 -1.692082,14.77359 -2.364769,15.44628 -0.672688,0.67269 -11.031567,-7.41372 -23.019731,-17.96978 L 39.918644,201.21194 v -14.62305 -14.62306 l 24.40678,-0.69205 24.406779,-0.69206 -24.406779,-0.46374 -24.40678,-0.46374 v -26.26601 c 0,-23.79274 0.346044,-26.13322 3.674974,-24.85579 3.453636,1.32528 3.453636,1.16564 0,-2.65058 -6.282841,-6.94246 -3.396896,-23.94232 4.754477,-28.00658 1.926514,-0.960557 82.092585,-1.974137 178.146825,-2.2524 l 174.64406,-0.505933 33.60862,31.214743 c 18.48474,17.16811 34.25182,33.50426 35.03798,36.30255 0.78616,2.79828 1.52669,41.91952 1.64562,86.93609 l 0.21626,81.84828 -5.86516,3.84664 c -5.0427,3.30721 -12.11572,3.93563 -50.44068,4.48147 l -44.57552,0.63484 z M 98.494915,168.97538 c 0,-0.37337 -3.169334,-3.54625 -7.042963,-7.05084 -5.720921,-5.1759 -6.124436,-5.32369 -2.14965,-0.78732 2.691324,3.07157 4.23354,6.24445 3.427146,7.05085 -0.806393,0.80639 0.160948,1.46617 2.149647,1.46617 1.988702,0 3.61582,-0.30549 3.61582,-0.67886 z"
     id="path101"
     inkscape:connector-curvature="0"
     transform="scale(0.75)" />
  <path
     style="fill:#000000;stroke-width:2.16949153"
     d="m 25.939968,347.06981 c -2.96901,-4.23884 -3.368916,-20.82619 -3.308259,-137.22033 0.05558,-106.65409 0.629401,-133.136873 2.951035,-136.195243 2.71264,-3.573457 16.284546,-3.79661 230.905526,-3.79661 223.21974,0 228.07079,0.0884 230.26931,4.196358 1.47816,2.761979 2.24581,49.736395 2.24581,137.426465 0,126.31593 -0.20588,133.41644 -3.96744,136.82059 -3.63826,3.29259 -22.70791,3.59049 -229.84309,3.59049 H 29.317224 Z M 463.65449,329.84225 c 10.08355,-5.37056 10.02079,-4.76902 10.09347,-96.73039 0.038,-48.04188 -0.77395,-87.07805 -1.80491,-86.77966 -1.03066,0.29831 -16.79946,-13.12542 -35.04178,-29.83051 L 403.73339,86.128814 432.80907,84.947606 C 448.80069,84.297941 369.80701,83.565738 257.26755,83.320487 105.11542,82.98891 51.435303,83.52171 47.911613,85.398439 37.708643,90.832571 37.890936,88.63196 37.81815,207.24485 l -0.069,112.43808 6.34159,6.34157 6.341591,6.3416 H 254.67405 c 151.11736,0 205.47428,-0.65646 208.98044,-2.52385 z m 7.06217,-239.44397 c -1.92953,-2.944817 -4.46197,-5.354212 -5.62768,-5.354212 -1.16571,0 -0.16695,1.952542 2.21949,4.338983 2.38645,2.386441 4.41607,6.047457 4.51027,8.135593 0.10739,2.381141 0.58787,2.759646 1.2887,1.015229 0.61459,-1.529761 -0.46126,-5.190778 -2.39078,-8.135593 z"
     id="path103"
     inkscape:connector-curvature="0"
     transform="scale(0.75)" />
  <path
     style="fill:#000000;stroke-width:2.16949153"
     d="m 25.939968,347.06981 c -2.96901,-4.23884 -3.368916,-20.82619 -3.308259,-137.22033 0.05558,-106.65409 0.629401,-133.136873 2.951035,-136.195243 2.71264,-3.573457 16.284546,-3.79661 230.905526,-3.79661 223.21974,0 228.07079,0.0884 230.26931,4.196358 1.47816,2.761979 2.24581,49.736395 2.24581,137.426465 0,126.31593 -0.20588,133.41644 -3.96744,136.82059 -3.63826,3.29259 -22.70791,3.59049 -229.84309,3.59049 H 29.317224 Z M 466.4658,327.63077 c 3.42044,-3.42107 3.11838,-3.46116 -4.80456,-0.63759 -6.04665,2.15489 -20.24157,3.04009 -49.84211,3.10821 l -41.38765,0.0952 -15.54332,-13.55932 -15.54332,-13.55932 8.11741,-1.50209 c 4.46457,-0.82615 16.41572,-1.58851 26.55809,-1.69412 24.49495,-0.25504 50.14571,-3.71464 53.66966,-7.23857 1.56425,-1.56427 3.43055,-7.79574 4.14731,-13.84775 l 1.30324,-11.00363 -20.33977,-22.46596 C 347.26686,172.94139 334.79253,164.92499 282.77244,161.76551 l -23.73515,-1.44157 -0.0217,23.6482 c -0.0173,20.1897 -0.76101,25.23692 -5.07995,34.51145 -6.01322,12.91287 -17.67172,23.78216 -29.22022,27.24217 -4.59767,1.3775 -16.59785,2.15374 -26.66706,1.72498 -18.18024,-0.77415 -18.49573,-0.88705 -45.51198,-16.28607 -30.08042,-17.14557 -43.39806,-22.45959 -56.286773,-22.45959 -8.543265,0 -8.602149,0.0575 -8.602149,8.40678 0,11.04977 -2.314377,22.2966 -4.426023,21.50848 -0.924145,-0.34492 -11.045331,-8.82809 -22.491527,-18.85151 L 39.918644,201.54445 v -14.86036 -14.86036 l 17.898305,-0.44159 17.898305,-0.44159 -17.898305,-0.7309 -17.898305,-0.73089 V 143.5326 c 0,-17.73805 0.770358,-25.94616 2.435135,-25.94616 1.698135,0 1.756234,-0.82075 0.191967,-2.71186 -1.233742,-1.49153 -2.67141,-5.64068 -3.19482,-9.22034 -0.52341,-3.57966 -1.097931,43.11238 -1.276714,103.7601 l -0.325059,110.26859 6.394793,6.39479 6.394795,6.3948 206.138579,-0.5956 c 189.80716,-0.54838 206.42774,-0.88478 209.78848,-4.24615 z m 3.58387,-183.5194 c -2.10428,-1.51976 -17.13414,-14.69942 -33.39973,-29.28813 l -29.57377,-26.524935 11.75931,-1.349372 c 6.46763,-0.742155 12.3881,-1.978162 13.15662,-2.746682 0.76852,-0.76852 -85.07884,-1.137574 -190.77189,-0.820119 -185.493338,0.557139 -192.327835,0.720764 -196.735387,4.710044 -2.511399,2.273071 -4.500105,5.69002 -4.419348,7.593222 0.103962,2.450252 0.817558,2.072396 2.444549,-1.29443 1.263744,-2.615135 3.882413,-5.543949 5.819268,-6.508473 1.936857,-0.964525 82.111388,-2.005807 178.165628,-2.31396 l 174.64406,-0.560279 33.45862,31.076084 c 18.40223,17.09185 34.19802,32.96431 35.10174,35.27214 0.90375,2.30784 1.94417,40.80623 2.31209,85.55199 l 0.66894,81.35594 0.59761,-85.69492 c 0.55633,-79.77312 0.33324,-85.88586 -3.22831,-88.45812 z M 98.494915,168.90574 c 0,-0.41168 -2.179786,-2.60829 -4.843969,-4.88136 -2.967981,-2.53227 -3.815478,-2.79524 -2.188314,-0.679 1.46061,1.89961 2.013277,4.09622 1.228149,4.88135 -0.785128,0.78513 0.199615,1.42751 2.188314,1.42751 1.988702,0 3.61582,-0.33683 3.61582,-0.7485 z M 471.71183,91.672817 c -1.31259,-2.452592 -3.28305,-4.459258 -4.37878,-4.459258 -1.09574,0 -0.32919,2.906668 1.70345,6.45926 4.04738,7.073901 6.53589,5.213542 2.67533,-2.000002 z"
     id="path105"
     inkscape:connector-curvature="0"
     transform="scale(0.75)" />
  <path
     style="fill:#000000;stroke-width:2.16949153"
     d="m 25.939968,347.06981 c -2.966843,-4.23576 -3.377256,-20.86255 -3.377256,-136.82059 0,-86.84135 0.768308,-133.434474 2.245822,-136.195235 2.198578,-4.10808 7.05754,-4.196358 230.974516,-4.196358 223.91697,0 228.77594,0.08828 230.97453,4.196358 1.47816,2.761979 2.24581,49.736395 2.24581,137.426465 0,126.31593 -0.20588,133.41644 -3.96744,136.82059 -3.63826,3.29259 -22.70791,3.59049 -229.84309,3.59049 H 29.317224 Z m 365.820602,-16.7555 -22.39535,-1.20245 -15.03204,-12.83249 c -8.26761,-7.05788 -14.58911,-13.27543 -14.04776,-13.81676 0.54135,-0.54135 16.68573,-1.8163 35.8764,-2.8332 33.28276,-1.76365 50.67661,-4.43219 52.95881,-8.12486 0.57541,-0.93106 1.70392,-6.65086 2.50778,-12.71071 L 433.09,267.77593 401.47011,233.15202 C 346.54453,173.00821 333.32272,165.13989 281.5603,161.79336 l -22.52301,-1.45615 -0.0217,23.64157 c -0.0252,28.12994 -4.59134,40.74624 -19.30517,53.34075 -10.46495,8.95803 -16.05042,10.4364 -39.42943,10.4364 -16.05567,0 -17.98648,-0.5416 -34.98305,-9.81298 -40.53952,-22.11369 -53.20685,-27.53442 -65.08009,-27.84972 l -11.425296,-0.3034 -1.554102,13.81771 c -0.854758,7.59975 -2.056237,14.31985 -2.669954,14.93357 -0.613717,0.61371 -10.911,-7.41475 -22.882851,-17.84104 L 39.918644,201.74318 v -14.95972 -14.95973 l 12.474576,-0.41022 12.474577,-0.41022 -12.543562,-0.78485 -12.543564,-0.78485 0.267427,-30.4257 c 0.147085,-16.73413 -0.310008,-31.00313 -1.01576,-31.70889 -0.705752,-0.70575 -1.283185,46.79192 -1.283185,105.55037 v 106.83356 l 6.34159,6.34157 6.341591,6.3416 181.861796,-0.42468 c 100.02398,-0.23356 171.78388,-0.96577 159.46644,-1.62711 z m 75.82464,-3.78839 c 2.35375,-2.90174 2.3738,-3.30739 0.0957,-1.9364 -1.58501,0.95383 -5.49009,2.52175 -8.67797,3.4842 l -5.79614,1.74993 5.70047,0.18658 c 3.13524,0.10262 7.04032,-1.46534 8.67796,-3.48423 z m 5.09148,-175.31236 c -0.97022,-4.72519 -6.49557,-10.85862 -20.16586,-22.38522 -10.35622,-8.7322 -25.06446,-21.66779 -32.68502,-28.74576 L 405.97027,87.213559 h 7.7614 c 4.26877,0 8.36477,-0.976271 9.10223,-2.169491 0.89062,-1.44106 -56.79458,-1.994345 -171.80416,-1.647852 l -173.144994,0.52164 162.247024,1.105479 162.24706,1.105479 32.6541,30.187136 c 17.95976,16.60293 33.54522,32.53089 34.63432,35.39547 1.08911,2.86458 2.19763,21.00919 2.46338,40.32134 l 0.48314,35.113 0.69966,-34.71186 c 0.3848,-19.09153 0.0983,-37.64068 -0.63674,-41.22034 z M 98.494915,168.83513 c 0,-0.4505 -1.486754,-2.053 -3.303901,-3.56109 -2.762516,-2.29269 -3.079979,-2.15847 -1.93738,0.8191 1.166961,3.04105 5.241281,5.17255 5.241281,2.74199 z M 471.24853,92.62812 c -1.36146,-2.988093 -2.88403,-5.02425 -3.38349,-4.524793 -1.01327,1.013257 3.38542,9.95769 4.89697,9.95769 0.52905,0 -0.15208,-2.444804 -1.51348,-5.432897 z M 55.770476,86.848861 64.867797,86.484163 56.519389,85.620466 c -8.329253,-0.861715 -16.600745,3.583035 -16.600745,8.920538 0,1.273784 1.519766,0.146202 3.377256,-2.505737 2.479523,-3.540013 5.795484,-4.918651 12.474576,-5.186406 z"
     id="path107"
     inkscape:connector-curvature="0"
     transform="scale(0.75)" />
  <path
     style="fill:#000000;stroke-width:2.16949153"
     d="m 25.939968,347.06981 c -2.966843,-4.23576 -3.377256,-20.86255 -3.377256,-136.82059 0,-86.84135 0.768308,-133.434474 2.245822,-136.195235 2.198578,-4.10808 7.05754,-4.196358 230.974516,-4.196358 223.91697,0 228.77594,0.08828 230.97453,4.196358 1.47816,2.761979 2.24581,49.736395 2.24581,137.426465 0,126.31593 -0.20588,133.41644 -3.96744,136.82059 -3.63826,3.29259 -22.70791,3.59049 -229.84309,3.59049 H 29.317224 Z m 336.829822,-16.03326 6.64776,-1.32955 -15.15202,-13.31452 c -15.0697,-13.24218 -15.11905,-13.32196 -9.08843,-14.68496 3.33497,-0.75372 13.38561,-1.49335 22.33476,-1.64356 17.25265,-0.28963 49.86355,-3.58721 56.59104,-5.72243 3.99241,-1.26715 8.45791,-12.82707 8.4816,-21.95653 0.0152,-6.15341 -57.77208,-69.82235 -78.00218,-85.94016 -8.3626,-6.66271 -20.60207,-14.13341 -27.19878,-16.60156 -11.76862,-4.4032 -41.12842,-8.81404 -58.90282,-8.84921 l -8.99728,-0.0178 -0.76544,26.57627 c -0.73046,25.36139 -1.06298,27.01342 -7.27393,36.13909 -3.57966,5.25955 -10.23252,12.55925 -14.78413,16.22156 -7.80764,6.28217 -9.52619,6.70505 -30.38732,7.47727 l -22.11166,0.81851 -20.59573,-11.15095 c -40.71695,-22.04498 -50.53907,-26.21645 -62.99931,-26.75588 l -11.833717,-0.51231 -1.300182,13.59397 c -0.7151,7.47668 -1.939289,14.23307 -2.720419,15.0142 -0.78113,0.78113 -3.612998,-0.52293 -6.293038,-2.89792 -2.68004,-2.37498 -12.438903,-11.0045 -21.686361,-19.17671 L 39.918644,201.46482 v -14.82055 -14.82054 l 8.135593,-0.3647 8.135594,-0.3647 -8.073509,-0.84731 -8.073511,-0.8473 -0.673075,-28.61851 c -0.370191,-15.74017 -0.886264,18.07355 -1.146829,75.14161 l -0.473754,103.76011 6.34159,6.34157 6.341591,6.3416 H 203.27718 c 84.06466,0 155.83634,-0.5983 159.49261,-1.32955 z m 102.36919,-3.00943 c 3.96577,-2.56287 0.5404,-2.56287 -5.42373,0 -2.86099,1.22941 -3.2305,1.90514 -1.08474,1.98378 1.78983,0.0655 4.71864,-0.8271 6.50847,-1.98378 z m 7.68094,-174.81127 c -0.94809,-5.15268 -7.53254,-12.24858 -28.8614,-31.10313 l -27.6331,-24.427457 27.11865,25.946277 27.11864,25.94627 1.08475,24.68228 1.08474,24.68228 0.65801,-19.52542 c 0.36189,-10.73898 0.10522,-22.52948 -0.57029,-26.2011 z M 98.494915,168.83513 c 0,-0.4505 -1.486754,-2.053 -3.303901,-3.56109 -2.762516,-2.29269 -3.079979,-2.15847 -1.93738,0.8191 1.166961,3.04105 5.241281,5.17255 5.241281,2.74199 z M 471.64746,93.722034 c -1.27718,-2.386441 -2.8103,-4.338983 -3.40691,-4.338983 -0.59661,0 -0.0397,1.952542 1.23742,4.338983 1.27718,2.386441 2.81029,4.338983 3.4069,4.338983 0.59661,0 0.0397,-1.952542 -1.23741,-4.338983 z M 44.329151,90.467797 c 2.944019,-4.013573 2.897978,-4.115679 -0.613897,-1.361476 -2.088135,1.637628 -3.79661,3.99695 -3.79661,5.242937 0,1.245986 0.276252,1.858651 0.613897,1.361477 0.337642,-0.497176 2.046117,-2.856498 3.79661,-5.242938 z m 364.525979,0.148111 c -2.13405,-2.571354 -1.33934,-3.258631 4.6157,-3.991795 6.17834,-0.760655 5.84485,-0.934648 -2.36301,-1.232846 -9.42586,-0.34245 -9.50287,-0.287848 -5.62985,3.991784 4.4642,4.932903 7.31014,5.971829 3.37716,1.232846 z M 57.858239,85.79051 c -1.468817,-0.594274 -4.397631,-0.630448 -6.508475,-0.08039 -2.110845,0.55006 -0.909086,1.036284 2.670575,1.080498 3.579661,0.04421 5.306715,-0.405836 3.8379,-1.00011 z M 337.83493,83.418708 c -32.43077,-0.33732 -86.12569,-0.33759 -119.32202,-6e-4 -33.19634,0.33699 -6.66206,0.612979 58.96506,0.613309 65.62711,3.29e-4 92.78776,-0.27539 60.35696,-0.612709 z"
     id="path109"
     inkscape:connector-curvature="0"
     transform="scale(0.75)" />
  <path
     style="fill:#000000;stroke-width:2.16949153"
     d="m 25.939968,347.06981 c -2.966843,-4.23576 -3.377256,-20.86255 -3.377256,-136.82059 0,-86.84135 0.768308,-133.434474 2.245822,-136.195235 2.198578,-4.10808 7.05754,-4.196358 230.974516,-4.196358 223.91697,0 228.77594,0.08828 230.97453,4.196358 1.47816,2.761979 2.24581,49.736395 2.24581,137.426465 0,126.31593 -0.20588,133.41644 -3.96744,136.82059 -3.63826,3.29259 -22.70791,3.59049 -229.84309,3.59049 H 29.317224 Z m 319.807122,-16.59668 22.70983,-1.36127 -14.74157,-13.00766 c -13.71732,-12.10392 -14.39078,-13.10635 -9.69287,-14.42781 2.77679,-0.78108 12.16516,-1.51747 20.86302,-1.63641 25.47773,-0.34839 57.58295,-4.56751 61.48367,-8.0799 4.44846,-4.00553 7.0054,-19.17137 4.13618,-24.53255 -3.66529,-6.84864 -55.955,-63.47339 -69.72394,-75.50432 -24.49627,-21.40422 -40.14325,-27.26227 -80.36014,-30.08594 l -20.92108,-1.46889 -0.77383,27.2377 c -0.7442,26.19525 -1.02292,27.58976 -7.28229,36.43642 -3.57966,5.05929 -10.2441,12.20751 -14.80988,15.88492 -7.93661,6.39238 -9.31901,6.71735 -31.45763,7.39487 l -23.15622,0.70866 -23.86441,-13.45027 c -33.07983,-18.64419 -44.61453,-23.45779 -57.92509,-24.173 l -11.498637,-0.61785 -1.300182,13.59397 c -0.7151,7.47668 -1.939289,14.23307 -2.720419,15.0142 -0.78113,0.78113 -3.612998,-0.51347 -6.293038,-2.8769 -2.68004,-2.36342 -12.438903,-10.94795 -21.686361,-19.07672 L 39.918644,201.66479 v -14.92053 c 0,-13.93928 0.321024,-14.93996 4.881356,-15.21598 l 4.881356,-0.29544 -4.78141,-0.9271 c -4.207095,-0.81573 -4.873498,-2.5392 -5.548085,-14.34862 -0.421671,-7.38184 -0.954782,26.28643 -1.184691,74.81837 l -0.418017,88.23989 6.675358,6.67537 6.675358,6.67535 135.968711,-0.26585 c 74.7828,-0.14622 146.18812,-0.8784 158.67851,-1.62712 z m 119.39189,-2.44601 c 1.78983,-1.15669 2.27797,-2.10304 1.08475,-2.10304 -1.19322,0 -3.6339,0.94635 -5.42373,2.10304 -1.78983,1.15668 -2.27797,2.10304 -1.08475,2.10304 1.19322,0 3.6339,-0.94636 5.42373,-2.10304 z m 8.08889,-166.50848 c -0.46807,-4.47457 -0.85101,-0.81356 -0.85101,8.1356 0,8.94915 0.38294,12.61017 0.85101,8.13559 0.46804,-4.47458 0.46804,-11.79661 0,-16.27119 z m -3.00868,-14.16538 c -1.00427,-1.70555 -8.17173,-8.82171 -15.92766,-15.8137 l -14.1017,-12.7127 15.18644,16.23876 c 14.47537,15.47842 18.85835,19.10684 14.84292,12.28764 z M 434.7661,114.66845 c 0,-0.41168 -2.19661,-2.60829 -4.88135,-4.88136 l -4.88136,-4.13285 4.13286,4.88135 c 3.88387,4.58727 5.62985,5.869 5.62985,4.13286 z m 34.98108,-23.694439 c -2.14263,-2.126681 -2.39182,-1.877486 -1.21448,1.21447 0.81471,2.139598 2.0278,3.343666 2.69576,2.675706 0.66797,-0.667959 0.001,-2.418537 -1.48128,-3.890176 z m -62.00385,-1.435855 c -0.68474,-1.10791 0.96612,-2.439366 3.66856,-2.95879 3.45527,-0.66412 2.74209,-1.032091 -2.40295,-1.239852 -6.27215,-0.253275 -6.931,0.16906 -4.61572,2.958791 2.9642,3.571643 5.33304,4.448343 3.35011,1.239851 z M 294.33281,83.621019 c -1.46881,-0.594274 -4.39762,-0.630449 -6.50847,-0.08039 -2.11085,0.550061 -0.90909,1.036285 2.67058,1.080498 3.57966,0.04421 5.3067,-0.405835 3.83789,-1.000108 z"
     id="path111"
     inkscape:connector-curvature="0"
     transform="scale(0.75)" />
  <path
     style="fill:#000000;stroke-width:2.16949153"
     d="M 25.080439,346.36572 C 21.732555,339.01791 21.474208,80.284231 24.808534,74.053985 c 2.198578,-4.10808 7.05754,-4.196358 230.974516,-4.196358 223.91697,0 228.77594,0.08828 230.97453,4.196358 1.47816,2.761979 2.24581,49.736395 2.24581,137.426465 0,126.31593 -0.20588,133.41644 -3.96744,136.82059 -3.63847,3.29277 -22.76764,3.59049 -230.70262,3.59049 H 27.598167 Z m 276.130531,-15.44706 67.12285,-1.43983 -15.00722,-13.53571 -15.00722,-13.53572 9.7149,-1.20047 c 5.34317,-0.66026 20.45386,-1.79109 33.57928,-2.51296 42.04989,-2.31266 46.89614,-4.24047 49.8184,-19.81744 2.02301,-10.78361 -3.4102,-17.91557 -47.64891,-62.54674 -46.77682,-47.19181 -53.60421,-50.77778 -103.59322,-54.41073 l -21.15254,-1.53726 -0.013,22.53452 c -0.0174,30.34348 -2.26302,37.46928 -16.0571,50.92692 -12.77354,12.46201 -17.29669,13.9143 -43.32062,13.90932 l -17.62712,-0.003 -26.0339,-14.33153 C 124.08222,215.85454 113.46384,211.55508 99.53764,210.56108 l -10.805437,-0.77125 -1.300182,13.59397 c -0.7151,7.47668 -1.929453,14.22324 -2.698564,14.99235 -1.571822,1.57182 -2.103385,1.15924 -26.916508,-20.89182 L 39.918644,201.57837 v -14.87732 c 0,-12.62668 0.574351,-14.91539 3.79661,-15.12898 3.44568,-0.22841 3.458011,-0.341 0.133402,-1.21813 -2.01475,-0.53156 -4.07841,-3.10306 -4.585901,-5.71444 -0.507491,-2.61139 -1.055661,30.83945 -1.218157,74.33518 l -0.295445,79.08317 6.934057,7.15411 6.934057,7.15414 91.235433,-0.004 c 50.17949,-0.002 121.4407,-0.65171 158.35827,-1.44362 z m 171.8733,-163.97629 c -0.60184,-1.49152 -1.09427,-0.27118 -1.09427,2.71187 0,2.98305 0.49243,4.20339 1.09427,2.71186 0.60184,-1.49152 0.60184,-3.9322 0,-5.42373 z m -1.43681,-17.42384 c 0,-0.33566 -6.1017,-6.43735 -13.55932,-13.55932 l -13.55933,-12.94904 12.94905,13.55932 c 12.02855,12.59546 14.1696,14.55208 14.1696,12.94904 z M 410.90169,85.896702 c 0,-0.468949 -1.4644,-0.852634 -3.25423,-0.852634 -1.78983,0 -3.25424,0.945631 -3.25424,2.101402 0,1.155772 1.46441,1.539457 3.25424,0.852635 1.78983,-0.686823 3.25423,-1.632454 3.25423,-2.101403 z"
     id="path113"
     inkscape:connector-curvature="0"
     transform="scale(0.75)" />
  <path
     style="fill:#000000;stroke-width:2.16949153"
     d="M 25.080439,346.36572 C 21.732555,339.01791 21.474208,80.284231 24.808534,74.053985 c 2.198578,-4.10808 7.05754,-4.196358 230.974516,-4.196358 223.91697,0 228.77594,0.08828 230.97453,4.196358 1.47816,2.761979 2.24581,49.736395 2.24581,137.426465 0,126.31593 -0.20588,133.41644 -3.96744,136.82059 -3.63847,3.29277 -22.76764,3.59049 -230.70262,3.59049 H 27.598167 Z m 256.604471,-15.44678 86.64763,-1.44123 -15.02128,-13.54841 -15.02125,-13.54839 7.56007,-1.1732 c 4.15804,-0.64527 18.75818,-1.77482 32.44474,-2.51012 26.56677,-1.42729 45.37973,-4.27045 48.42811,-7.31882 1.0296,-1.0296 2.70839,-5.5805 3.73068,-10.11313 2.57019,-11.39599 -0.004,-15.57075 -29.00187,-47.04118 -55.64162,-60.38522 -68.75303,-68.12913 -122.34666,-72.26078 l -20.06779,-1.54707 -0.013,22.51712 c -0.0152,28.07565 -2.39236,36.78654 -13.25566,48.57183 -12.50478,13.56708 -19.63764,16.25037 -43.19666,16.25037 h -20.013 L 157.3405,234.19661 C 120.84189,214.57224 112.0314,211.0611 99.037288,210.9617 l -11.38983,-0.0871 -0.03321,11.38983 c -0.01822,6.2644 -0.93494,12.81542 -2.037044,14.5578 -2.321306,3.6699 -0.411555,4.99156 -27.664389,-19.14541 L 40.110353,201.90973 39.35467,187.4091 c -0.415626,-7.97534 -0.946895,18.15798 -1.1806,58.07406 l -0.424917,72.57469 6.934057,7.15411 6.934057,7.15414 71.710013,-0.002 c 39.4405,-0.002 110.70144,-0.65152 158.35763,-1.44418 z M 469.47797,147.31487 c 0,-0.35445 -4.14916,-4.5036 -9.22034,-9.22034 l -9.22034,-8.57589 8.57589,9.22034 c 7.97548,8.57483 9.86479,10.21728 9.86479,8.57589 z M 410.31413,85.902825 c -0.72092,-0.720904 -2.59211,-0.797978 -4.1582,-0.171275 -1.73067,0.692559 -1.21661,1.206634 1.31074,1.310734 2.287,0.0942 3.56836,-0.418555 2.84746,-1.139459 z"
     id="path115"
     inkscape:connector-curvature="0"
     transform="scale(0.75)" />
  <path
     style="fill:#000000;stroke-width:2.16949153"
     d="M 25.080439,346.36572 C 21.732555,339.01791 21.474208,80.284231 24.808534,74.053985 c 2.198578,-4.10808 7.05754,-4.196358 230.974516,-4.196358 223.91697,0 228.77594,0.08828 230.97453,4.196358 1.47816,2.761979 2.24581,49.736395 2.24581,137.426465 0,126.31593 -0.20588,133.41644 -3.96744,136.82059 -3.63847,3.29277 -22.76764,3.59049 -230.70262,3.59049 H 27.598167 Z m 235.011331,-15.44311 108.07289,-1.44349 -14.97046,-13.52826 -14.97047,-13.52823 7.59322,-1.15474 c 4.17627,-0.63511 21.95007,-2.19741 39.49735,-3.47177 17.54728,-1.27438 34.30521,-3.41105 37.23986,-4.74815 9.91074,-4.51564 10.58584,-19.95706 1.45287,-33.23137 -11.43244,-16.61647 -74.01468,-77.92325 -85.99214,-84.23956 -13.70962,-7.22977 -32.79273,-11.62505 -58.90981,-13.56827 l -20.06779,-1.49313 -0.013,22.4676 c -0.0152,28.02512 -2.3962,36.74121 -13.25566,48.52232 -12.55796,13.62478 -19.60188,16.25037 -43.59541,16.25037 H 181.76147 L 155.857,233.6599 C 124.14251,216.4023 109.94354,210.87458 97.328785,210.87458 h -9.681327 l -0.03321,11.38983 c -0.04274,14.65328 -2.467159,19.04412 -7.969925,14.43426 -20.393422,-17.08431 -38.381082,-34.10813 -39.839724,-37.70499 -0.993067,-2.44879 -1.841222,22.90707 -1.917925,57.33694 l -0.137516,61.72723 6.934057,7.15411 6.934057,7.15414 h 50.200818 c 27.61044,0 98.83361,-0.64957 158.27368,-1.44349 z m 207.2167,-185.83935 c 0,-0.38862 -2.68474,-3.07336 -5.9661,-5.9661 l -5.9661,-5.25953 5.25952,5.9661 c 4.91583,5.57622 6.67268,6.961 6.67268,5.25953 z"
     id="path117"
     inkscape:connector-curvature="0"
     transform="scale(0.75)" />
  <path
     style="fill:#000000;stroke-width:2.16949153"
     d="M 25.080439,346.36572 C 21.732555,339.01791 21.474208,80.284231 24.808534,74.053985 c 2.198578,-4.10808 7.05754,-4.196358 230.974516,-4.196358 223.91697,0 228.77594,0.08828 230.97453,4.196358 1.47816,2.761979 2.24581,49.736395 2.24581,137.426465 0,126.31593 -0.20588,133.41644 -3.96744,136.82059 -3.63847,3.29277 -22.76764,3.59049 -230.70262,3.59049 H 27.598167 Z m 300.126341,-16.18586 43.38983,-0.0217 -15.17915,-13.79283 -15.17915,-13.79282 6.50118,-1.2495 c 3.57565,-0.68673 17.24017,-1.89431 30.36559,-2.68301 46.98568,-2.82333 55.32204,-6.06818 55.32204,-21.53354 0,-9.26 -6.56471,-18.59892 -33.30319,-47.37691 -25.03988,-26.94981 -50.63635,-49.76423 -62.93756,-56.09697 -10.39275,-5.35024 -31.31019,-9.69444 -56.16603,-11.66475 l -18.98305,-1.50477 -0.0477,24.66338 c -0.056,28.97593 -2.95977,37.51799 -17.08262,50.25172 -12.24604,11.04162 -16.60269,12.37776 -40.35912,12.37776 H 181.22217 L 155.58735,233.63277 C 124.4935,216.50203 110.08783,210.87458 97.328785,210.87458 h -9.681327 l -0.03321,11.38983 c -0.01822,6.2644 -0.920136,12.79146 -2.004142,14.50456 -2.370438,3.74611 -2.304855,3.79077 -27.529118,-18.7456 l -17.634276,-15.75518 -1.348774,6.74387 c -0.741832,3.70913 -1.34878,29.7618 -1.34878,57.89483 v 51.15096 l 7.050847,7.42797 7.050847,7.42799 114.983058,-1.35639 c 63.24068,-0.746 134.50846,-1.36589 158.37288,-1.37756 z"
     id="path119"
     inkscape:connector-curvature="0"
     transform="scale(0.75)" />
  <path
     style="fill:#000000;stroke-width:2.16949153"
     d="m 24.678507,346.32656 c -2.972569,-7.81845 -2.848933,-266.706337 0.130027,-272.272575 2.198578,-4.10808 7.05754,-4.196358 230.974516,-4.196358 223.91697,0 228.77594,0.08828 230.97453,4.196358 1.47816,2.761979 2.24581,49.736395 2.24581,137.426465 0,126.31593 -0.20588,133.41644 -3.96744,136.82059 -3.63856,3.29285 -22.79556,3.59049 -231.10454,3.59049 H 26.794301 Z M 125.47336,330.28866 84.112814,329.11186 62.069148,308.71524 40.025485,288.31859 39.370479,254.47794 c -0.559078,-28.88461 -0.725765,-26.70692 -1.138166,14.86962 l -0.48316,48.71029 6.934057,7.15411 6.934057,7.15414 57.608313,-0.45032 57.60832,-0.45032 z M 353.41017,316.2924 c -17.98059,-16.41751 -19.9705,-15.0698 27.30691,-18.49426 17.40523,-1.26071 34.75465,-3.37595 38.55425,-4.70049 14.36427,-5.00742 14.99804,-17.97401 1.75384,-35.88272 -13.21409,-17.868 -63.69942,-68.28087 -77.66484,-77.55339 -13.98285,-9.28409 -36.33398,-15.36698 -64.25525,-17.48717 l -20.06779,-1.52384 -0.0477,24.56965 c -0.056,28.87342 -2.97194,37.43523 -17.08262,50.15799 -12.26428,11.05807 -16.59362,12.37776 -40.60593,12.37776 H 180.72855 L 155.14746,233.6128 C 125.92631,217.45717 108.91333,210.87458 96.379624,210.87458 h -8.732166 v 11.77724 c 0,7.82304 -1.146729,12.92396 -3.415433,15.19267 -3.107584,3.10758 -3.107584,3.53356 0,4.72606 2.750425,1.05543 3.415433,5.03699 3.415433,20.44897 0,12.30783 0.967871,20.17996 2.711864,22.05683 1.491525,1.60516 3.025666,4.35964 3.409202,6.12107 0.383533,1.76141 1.650239,4.17885 2.8149,5.37207 1.277935,1.30927 29.444806,2.59959 71.037466,3.25424 l 68.9199,1.08474 16.04419,14.64407 16.04419,14.64407 49.98372,-0.0195 49.98372,-0.0195 -15.18644,-13.86626 z"
     id="path121"
     inkscape:connector-curvature="0"
     transform="scale(0.75)" />
  <path
     style="fill:#000000;stroke-width:2.16949153"
     d="m 24.678507,346.32656 c -2.972569,-7.81845 -2.848933,-266.706337 0.130027,-272.272575 2.198578,-4.10808 7.05754,-4.196358 230.974516,-4.196358 223.91697,0 228.77594,0.08828 230.97453,4.196358 1.47816,2.761979 2.24581,49.736395 2.24581,137.426465 0,126.31593 -0.20588,133.41644 -3.96744,136.82059 -3.63856,3.29285 -22.79556,3.59049 -231.10454,3.59049 H 26.794301 Z m 99.850303,-16.22085 c -6.56271,-0.90722 -18.30472,-1.74603 -26.093352,-1.86403 L 84.274306,328.02712 62.179482,307.31696 40.084656,286.6068 39.363028,267.72373 c -0.434255,-11.36328 -0.899287,-5.10093 -1.167752,15.72553 l -0.446123,34.60859 6.934057,7.15411 6.934057,7.15414 42.421875,-0.30546 c 29.522218,-0.21257 38.793528,-0.80703 30.489668,-1.95493 z m 228.78087,-13.79107 c -17.81489,-16.39313 -19.74166,-15.02049 26.13439,-18.6181 35.18672,-2.75933 45.71192,-5.09429 48.77665,-10.82081 6.04113,-11.28793 -0.0451,-23.1121 -26.376,-51.24202 -29.75423,-31.78723 -56.81931,-56.17596 -68.3614,-61.60137 -12.19447,-5.73209 -32.23638,-9.99103 -56.54773,-12.0165 l -17.8983,-1.49117 -0.0477,24.63258 c -0.0551,28.4366 -2.88224,36.99931 -16.50729,49.99494 -11.35493,10.83044 -17.15078,12.60374 -41.1939,12.60374 H 180.7033 L 154.72596,233.4691 C 125.01445,217.12855 108.86467,210.87458 96.379624,210.87458 h -8.732166 v 11.77724 c 0,8.08671 -1.130004,12.90724 -3.606084,15.38332 -2.800258,2.80026 -2.992867,3.98507 -0.861926,5.30207 1.712048,1.0581 3.193702,8.90161 3.939398,20.8542 0.820922,13.15839 2.479494,21.33487 5.296032,26.10855 5.091942,8.6302 6.962159,8.86275 86.714952,10.78253 l 57.85527,1.39266 14.8227,13.75757 14.82271,13.75755 50.88256,0.10327 50.88258,0.10327 -15.08597,-13.88197 z"
     id="path123"
     inkscape:connector-curvature="0"
     transform="scale(0.75)" />
  <path
     style="fill:#000000;stroke-width:2.16949153"
     d="m 24.678507,346.32656 c -2.972569,-7.81845 -2.848933,-266.706337 0.130027,-272.272575 2.198578,-4.10808 7.05754,-4.196358 230.974516,-4.196358 223.91697,0 228.77594,0.08828 230.97453,4.196358 1.47824,2.762157 2.24581,49.792715 2.24581,137.607745 0,118.39044 -0.38385,133.79524 -3.4092,136.82059 -3.05597,3.05597 -27.00143,3.40921 -231.10455,3.40921 H 26.794301 Z m 92.257083,-16.25441 c -4.77288,-0.98723 -14.13491,-1.85123 -20.804518,-1.92 L 84.004519,328.02712 62.503953,308.01677 c -20.678233,-19.245 -21.54927,-20.42741 -22.774062,-30.91525 -0.857475,-7.34252 -1.389019,-2.29645 -1.627119,15.44662 l -0.353619,26.35154 7.66871,6.73321 7.668709,6.73321 36.263494,-0.24949 c 25.245064,-0.17369 33.626754,-0.79488 27.585524,-2.04446 z m 248.40678,-1.29486 c 0,-0.78061 -5.94184,-6.79637 -13.20411,-13.36835 -9.35725,-8.46783 -12.3595,-12.40081 -10.30508,-13.49974 1.59446,-0.8529 12.1736,-2.19915 23.50919,-2.99165 30.25226,-2.11501 54.18331,-5.53183 58.75916,-8.38948 6.37037,-3.97835 7.17523,-13.10702 2.15602,-24.45373 -6.155,-13.91442 -74.83633,-82.81533 -90.20331,-90.49172 -12.59125,-6.2898 -36.25939,-11.63583 -60.20339,-13.59842 l -16.81356,-1.37813 -0.0477,24.59188 c -0.0551,28.39212 -2.88744,36.96357 -16.50729,49.95424 -11.36727,10.84221 -17.14712,12.60374 -41.3548,12.60374 h -20.746 l -25.34885,-13.9412 c -27.6391,-15.20077 -47.78818,-22.94015 -59.723505,-22.94015 h -7.661657 v 11.77724 c 0,7.34163 -1.173103,12.95034 -3.11477,14.89201 -2.234743,2.23474 -2.451256,3.77828 -0.766329,5.46321 1.291643,1.29164 2.754434,9.96651 3.250647,19.27748 0.966727,18.13977 5.498274,32.04647 11.207402,34.39399 3.443322,1.41583 85.875902,4.95544 120.972392,5.1945 l 17.65104,0.12019 14.89132,14.00797 14.89135,14.00795 49.35593,0.0937 c 27.14576,0.0516 49.35593,-0.54497 49.35593,-1.3256 z"
     id="path125"
     inkscape:connector-curvature="0"
     transform="scale(0.75)" />
  <path
     style="fill:#000000;stroke-width:2.16949153"
     d="m 24.678507,346.32656 c -2.972569,-7.81845 -2.848933,-266.706337 0.130027,-272.272575 2.198578,-4.10808 7.05754,-4.196358 230.974516,-4.196358 223.91697,0 228.77594,0.08828 230.97453,4.196358 1.47824,2.762157 2.24581,49.792715 2.24581,137.607745 0,118.39044 -0.38385,133.79524 -3.4092,136.82059 -3.05597,3.05597 -27.00143,3.40921 -231.10455,3.40921 H 26.794301 Z m 85.748613,-16.12995 c -2.38644,-1.0255 -9.3821,-1.93315 -15.545916,-2.017 C 83.800322,328.02883 83.434307,327.80171 62.338831,307.9852 47.3982,293.95042 40.601298,285.98478 39.661866,281.40894 c -0.737839,-3.5939 -1.470042,3.37127 -1.627119,15.47819 l -0.285594,22.01255 7.66871,6.73321 7.668709,6.73321 30.839765,-0.15249 c 19.249833,-0.0952 29.209123,-0.85318 26.500783,-2.017 z m 253.20524,-1.18263 c 0.65045,-0.65046 -4.59377,-6.69241 -11.65379,-13.42653 -8.86446,-8.45527 -11.97158,-12.70934 -10.04141,-13.74807 1.53728,-0.82727 11.58148,-2.15515 22.32047,-2.95081 32.3456,-2.39653 53.96065,-5.69006 59.08419,-9.0028 7.45212,-4.81832 8.2363,-12.34625 2.51837,-24.17486 -7.53226,-15.58184 -75.09819,-82.68014 -90.94196,-90.31253 -13.47261,-6.49013 -34.12936,-11.15031 -59.06738,-13.32566 l -16.81356,-1.46665 -0.0477,24.59188 c -0.0551,28.39212 -2.88744,36.96357 -16.50729,49.95424 -11.29454,10.77276 -17.15258,12.59854 -40.53546,12.63374 l -19.92647,0.03 -34.71187,-17.55948 C 119.99299,216.43851 109.98263,212.44267 100.32896,211.5036 l -12.267659,-1.19335 -1.227865,13.84149 c -0.675326,7.61281 -1.322248,15.30589 -1.437609,17.09572 -0.115352,1.78983 0.68795,12.34685 1.785131,23.46004 2.933648,29.7145 4.642793,31.43562 33.226662,33.45945 12.40903,0.8786 43.90485,2.21072 69.99071,2.96027 l 47.42884,1.36284 14.40167,13.78113 14.40167,13.78113 47.9096,0.072 c 26.35029,0.0397 48.44179,-0.46004 49.09225,-1.11047 z"
     id="path127"
     inkscape:connector-curvature="0"
     transform="scale(0.75)" />
  <path
     style="fill:#000000;stroke-width:2.16949153"
     d="m 24.678507,346.32656 c -2.972569,-7.81845 -2.848933,-266.706337 0.130027,-272.272575 2.198578,-4.10808 7.05754,-4.196358 230.974516,-4.196358 223.91697,0 228.77594,0.08828 230.97453,4.196358 1.47824,2.762157 2.24581,49.792715 2.24581,137.607745 0,118.39044 -0.38385,133.79524 -3.4092,136.82059 -3.05597,3.05597 -27.00143,3.40921 -231.10455,3.40921 H 26.794301 Z m 80.324883,-16.12995 c 0,-1.19322 -4.84381,-2.16949 -10.76403,-2.16949 -10.579582,0 -11.127914,-0.34094 -32,-19.8968 -11.679783,-10.94324 -21.899557,-21.43815 -22.710605,-23.32203 -0.81105,-1.88388 -1.543253,5.01599 -1.627119,15.33307 l -0.152483,18.75832 7.66871,6.73321 c 7.66375,6.72885 7.685504,6.73321 33.627118,6.73321 15.859278,0 25.958409,-0.84404 25.958409,-2.16949 z m 256.7818,-1.50495 c 0.82772,-0.82773 -4.00386,-7.07187 -10.73684,-13.87586 -14.52539,-14.67854 -15.87937,-13.73201 24.61356,-17.20677 37.57021,-3.22396 48.28904,-5.93152 52.37332,-13.22946 2.93836,-5.25036 2.70712,-6.64956 -3.0477,-18.44068 -8.66664,-17.75725 -72.53092,-81.90706 -90.05672,-90.45937 -12.62564,-6.1611 -34.01511,-10.89357 -60.16471,-13.31157 l -15.72881,-1.45441 -0.0477,24.53814 c -0.0551,28.3334 -2.89432,36.91639 -16.50729,49.90051 -11.29064,10.76904 -17.14661,12.59615 -40.53546,12.64742 l -19.92647,0.0437 -34.71187,-17.52857 c -26.93033,-13.5991 -37.43163,-17.80295 -46.8442,-18.75255 l -12.132336,-1.22399 -1.313082,17.08176 c -1.517314,19.73859 1.272875,54.65269 4.910852,61.45031 1.369524,2.55898 5.014828,5.61262 8.100676,6.78586 3.08584,1.17324 35.4875,3.14444 72.00368,4.38045 l 66.39306,2.24729 14.0816,13.95638 14.08161,13.95638 h 46.84494 c 25.76473,0 47.52219,-0.67723 48.34992,-1.50495 z"
     id="path129"
     inkscape:connector-curvature="0"
     transform="scale(0.75)" />
  <path
     style="fill:#000000;stroke-width:2.16949153"
     d="m 24.678507,346.32656 c -2.972569,-7.81845 -2.848933,-266.706337 0.130027,-272.272575 2.198578,-4.10808 7.05754,-4.196358 230.974516,-4.196358 223.91697,0 228.77594,0.08828 230.97453,4.196358 1.47824,2.762157 2.24581,49.792715 2.24581,137.607745 0,118.39044 -0.38385,133.79524 -3.4092,136.82059 -3.05597,3.05597 -27.00143,3.40921 -231.10455,3.40921 H 26.794301 Z m 75.985903,-16.12995 c 2.3647,-1.52819 0.55598,-2.11213 -6.616952,-2.13628 -5.429153,-0.0174 -11.239696,-1.25355 -12.912319,-2.74508 -2.576109,-2.29718 -2.61437,-2.14643 -0.250212,0.98599 2.557329,3.38836 1.459102,3.76084 -13.121579,4.45028 -13.355037,0.6315 -12.251343,0.81638 6.86716,1.15029 12.528814,0.21881 24.244068,-0.54851 26.033902,-1.7052 z m 257.80512,-1.41394 c 4.81009,-1.28797 4.45035,-1.97014 -7.30181,-13.84622 -14.07827,-14.22672 -14.24336,-13.98237 10.92042,-16.16395 63.96129,-5.54515 71.62203,-8.83577 65.05322,-27.94314 -6.57883,-19.13655 -73.67064,-87.32076 -95.42611,-96.97984 -10.39095,-4.61342 -35.31151,-9.73522 -56.94915,-11.70449 l -15.72881,-1.43149 -0.0477,24.53814 c -0.0551,28.3334 -2.89432,36.91639 -16.50729,49.90051 -11.32928,10.80598 -17.15818,12.60374 -40.86512,12.60374 h -20.25632 l -31.3808,-16.05082 C 120.0687,216.4059 98.207425,208.85565 91.39264,211.47073 c -6.75743,2.59307 -5.705708,63.22597 1.33279,76.83693 2.283522,4.41584 5.595292,7.03377 10.01656,7.91803 3.63281,0.72656 35.64812,2.37937 71.14512,3.67289 l 64.54001,2.35188 14.0816,13.97308 14.08161,13.97307 43.40992,-0.0295 c 23.87545,-0.0174 45.68663,-0.63925 48.46928,-1.38434 z M 44.524893,322.88788 c -4.109553,-4.37442 -4.730842,-7.14013 -4.174783,-18.58435 l 0.65328,-13.44509 9.762712,7.92402 c 9.220523,7.48399 9.160281,7.36792 -1.084746,-2.08989 l -10.847458,-10.01394 -0.643372,15.54555 c -0.562145,13.58289 -0.03507,16.19307 4.174784,20.67424 2.649984,2.82079 5.30629,5.1287 5.9029,5.1287 0.59661,0 -1.087883,-2.31266 -3.743317,-5.13924 z m 30.105615,-2.04809 c 0,-0.37337 -3.172881,-3.54625 -7.050847,-7.05085 l -7.050847,-6.37199 6.371994,7.05085 c 5.939592,6.57238 7.7297,8.04805 7.7297,6.37199 z"
     id="path131"
     inkscape:connector-curvature="0"
     transform="scale(0.75)" />
  <path
     style="fill:#000000;stroke-width:2.16949153"
     d="m 24.678507,346.32656 c -2.972569,-7.81845 -2.848933,-266.706337 0.130027,-272.272575 2.198578,-4.10808 7.05754,-4.196358 230.974516,-4.196358 223.91697,0 228.77594,0.08828 230.97453,4.196358 1.47824,2.762157 2.24581,49.792715 2.24581,137.607745 0,118.39044 -0.38385,133.79524 -3.4092,136.82059 -3.05597,3.05597 -27.00143,3.40921 -231.10455,3.40921 H 26.794301 Z m 71.646917,-16.12995 c 4.600276,-1.47326 3.941526,-1.80881 -4.338983,-2.21015 -5.369492,-0.26025 -10.738983,-0.22879 -11.932204,0.0699 -14.966944,3.74649 -15.033741,3.86569 -2.169491,3.87144 7.159322,0.002 15.457627,-0.77584 18.440678,-1.73117 z m 237.016946,-1.61818 c -12.23051,-0.38671 -32.24406,-0.38671 -44.47457,0 -12.23051,0.38671 -2.22373,0.70311 22.23728,0.70311 24.46102,0 34.4678,-0.3164 22.23729,-0.70311 z m 16.98222,-14.48222 c -13.05795,-13.22219 -13.18166,-13.04513 10.6788,-15.28262 46.67926,-4.37725 62.17385,-7.37571 65.54975,-12.68491 3.56624,-5.60857 1.48524,-16.26494 -5.12514,-26.2448 -8.79438,-13.27708 -60.09877,-65.26526 -75.61105,-76.61879 -16.52207,-12.0926 -34.25215,-17.21107 -73.22034,-21.1379 l -13.55932,-1.36638 -0.0477,24.51451 c -0.0551,28.30757 -2.89733,36.89564 -16.50729,49.87687 -11.3315,10.80809 -17.15755,12.60374 -40.89326,12.60374 H 181.30459 L 149.12011,231.45811 C 118.7209,216.06433 94.29776,207.84012 90.439714,211.69817 c -2.684756,2.68476 -4.085291,30.52288 -2.537224,50.43189 1.890026,24.3068 4.664504,30.60214 14.64633,33.23278 11.23813,2.96175 115.41967,6.11964 163.65652,4.96067 22.43734,-0.53909 46.85058,-0.33169 54.25165,0.46091 12.63219,1.35279 14.25297,2.19811 26.45908,13.79951 7.15144,6.79715 13.43353,12.09023 13.96024,11.7624 0.52669,-0.32784 -4.22157,-5.84038 -10.55169,-12.25012 z m -305.669223,6.95237 c -1.411977,-1.41197 -2.567231,-8.3809 -2.567231,-15.48652 v -12.9193 l 4.881356,4.11734 c 4.39627,3.70816 4.358688,3.52599 -0.378173,-1.83324 -2.892742,-3.27283 -6.065623,-5.95059 -7.050848,-5.95059 -3.393185,0 -1.982816,26.96455 1.684205,32.19994 1.911537,2.72911 4.043062,4.39446 4.736722,3.70081 0.69366,-0.69365 0.105958,-2.41645 -1.306031,-3.82844 z m 29.975141,-0.20879 c 0,-0.37337 -3.172881,-3.54625 -7.050847,-7.05085 l -7.050847,-6.37199 6.371994,7.05085 c 5.939592,6.57238 7.7297,8.04805 7.7297,6.37199 z m 175.728812,-9.08386 c -5.26976,-5.36949 -10.06952,-9.76271 -10.66613,-9.76271 -0.59661,0 3.22688,4.39322 8.49664,9.76271 5.26976,5.36949 10.06952,9.76271 10.66613,9.76271 0.59661,0 -3.22688,-4.39322 -8.49664,-9.76271 z"
     id="path133"
     inkscape:connector-curvature="0"
     transform="scale(0.75)" />
  <path
     style="fill:#000000;stroke-width:2.16949153"
     d="m 24.678507,346.32656 c -2.972569,-7.81845 -2.848933,-266.706337 0.130027,-272.272575 2.198578,-4.10808 7.05754,-4.196358 230.974516,-4.196358 223.91697,0 228.77594,0.08828 230.97453,4.196358 1.47824,2.762157 2.24581,49.792715 2.24581,137.607745 0,118.39044 -0.38385,133.79524 -3.4092,136.82059 -3.05597,3.05597 -27.00143,3.40921 -231.10455,3.40921 H 26.794301 Z m 66.223188,-16.00549 8.677966,-1.79497 -9.762712,-0.0332 c -5.369491,-0.0174 -12.20339,0.7484 -15.186441,1.70374 -5.295125,1.6958 -5.269406,1.73915 1.084746,1.82821 3.579661,0.0501 10.41356,-0.71652 15.186441,-1.70375 z m 232.762985,-1.72515 c -6.81426,-0.42915 -18.52952,-0.43264 -26.03389,-0.009 -7.50441,0.42485 -1.9291,0.77596 12.38955,0.78026 14.31864,0.004 20.45859,-0.34333 13.64434,-0.77247 z m 26.71293,-14.44604 c -13.66749,-13.83938 -14.56848,-13.14664 21.47324,-16.50992 55.52796,-5.18163 63.51687,-10.08605 52.28672,-32.09895 -10.67047,-20.91587 -72.39262,-81.44593 -92.42232,-90.63731 -11.35047,-5.2086 -36.08806,-10.57298 -59.11864,-12.81997 l -13.55932,-1.32292 -0.0477,24.51451 c -0.0551,28.30757 -2.89733,36.89564 -16.50729,49.87687 -11.345,10.82097 -17.15367,12.60374 -41.06577,12.60374 H 180.95954 L 150.92981,232.6029 c -34.41656,-17.36662 -57.759515,-24.80942 -61.295302,-19.54374 -1.290155,1.92137 -1.916128,16.63434 -1.53866,36.16499 0.568754,29.42804 1.11762,33.57043 5.166644,38.99349 2.726786,3.65213 7.577108,6.70067 12.183718,7.65779 4.20938,0.87456 35.65475,2.44751 69.8786,3.4954 l 62.22516,1.90524 11.07454,10.66366 c 10.18913,9.81111 10.59,10.00817 5.01413,2.46474 -3.33323,-4.50942 -7.63127,-9.14929 -9.55121,-10.31083 -2.31804,-1.40239 11.92144,-1.92777 42.38425,-1.5638 l 45.87505,0.54813 12.70122,11.28302 c 16.66517,14.8044 20.02712,14.67123 5.32966,-0.21109 z M 42.428813,308.00981 c -0.851493,-15.06931 -0.727834,-15.55534 3.183319,-12.51196 3.95167,3.07488 3.951169,3.02789 -0.01736,-1.62645 -2.247583,-2.63604 -4.932328,-4.27008 -5.966078,-3.63118 -3.785951,2.33984 -0.978116,33.44792 3.019032,33.44792 0.366844,0 0.268329,-7.05526 -0.218917,-15.67833 z m 32.201695,12.76034 c 0,-0.41168 -2.19661,-2.6083 -4.881355,-4.88136 l -4.881356,-4.13286 4.132855,4.88136 c 3.883863,4.58726 5.629856,5.86899 5.629856,4.13286 z"
     id="path135"
     inkscape:connector-curvature="0"
     transform="scale(0.75)" />
  <path
     style="fill:#000000;stroke-width:2.16949153"
     d="m 24.808534,347.69516 c -3.10121,-5.79466 -3.10121,-267.846511 0,-273.641175 2.198578,-4.10808 7.05754,-4.196358 230.974516,-4.196358 223.91697,0 228.77594,0.08828 230.97453,4.196358 1.47824,2.762157 2.24581,49.792715 2.24581,137.607745 0,118.39044 -0.38385,133.79524 -3.4092,136.82059 -3.05595,3.05595 -26.98961,3.40921 -230.97451,3.40921 -222.766786,0 -227.61268,-0.0885 -229.811146,-4.19637 z m 71.336099,-18.8772 c 1.921055,-1.68068 -16.322531,-0.38209 -20.429379,1.45419 -2.833625,1.26698 -0.199246,1.48845 7.593221,0.63837 6.562711,-0.71595 12.338983,-1.6576 12.836158,-2.09256 z m 219.871637,-0.14861 c -2.66834,-0.51495 -7.5497,-0.52829 -10.84746,-0.0295 -3.29775,0.49866 -1.11457,0.91999 4.85153,0.93629 5.9661,0.0173 8.66428,-0.39173 5.99593,-0.90668 z m 33.22513,-15.65596 c -12.32331,-12.51143 -13.12451,-11.93914 21.5247,-15.37534 30.3388,-3.00873 46.43552,-6.06692 52.61017,-9.9953 5.90579,-3.75734 6.27296,-11.98922 0.97734,-21.91271 -9.96114,-18.66627 -67.78351,-76.57427 -88.7019,-88.83326 -9.28636,-5.44217 -38.00413,-12.15431 -63.0551,-14.73773 l -13.55932,-1.39832 -0.0477,24.51451 c -0.0551,28.30756 -2.89733,36.89564 -16.50729,49.87686 -11.33042,10.80715 -17.15786,12.60383 -40.87957,12.60383 H 181.33197 L 148.28314,231.57134 C 116.7644,216.13606 93.836448,208.30676 90.34599,211.78731 c -2.302013,2.29548 -3.407167,42.74927 -1.623005,59.40953 2.018642,18.84979 6.546731,23.39293 25.196945,25.28071 7.62473,0.77177 38.50486,2.11629 68.62251,2.98782 l 54.75937,1.5846 10.32346,9.69196 10.32346,9.69197 -8.57396,-9.22034 -8.57398,-9.22034 h 44.72005 44.72006 l 10.4999,8.31757 c 5.77495,4.57466 11.85938,9.96773 13.52092,11.98462 1.66158,2.01689 3.55526,3.13285 4.20819,2.4799 0.65295,-0.65293 -3.49987,-5.94575 -9.22848,-11.76183 z m -274.610892,7.68614 c 0,-0.45049 -1.708474,-2.15897 -3.79661,-3.79661 -3.440935,-2.69856 -3.51767,-2.62183 -0.819102,0.81911 2.834156,3.61383 4.615712,4.76308 4.615712,2.9775 z M 44.90516,294.75341 c 1.484008,0.89053 1.287599,-0.061 -0.45603,-2.20915 -4.137359,-5.09735 -6.62292,-1.03402 -6.666756,10.89864 -0.0571,15.54278 3.156827,18.34138 3.868548,3.36863 0.470721,-9.90273 1.359302,-13.19524 3.254238,-12.05812 z"
     id="path137"
     inkscape:connector-curvature="0"
     transform="scale(0.75)" />
  <path
     style="fill:#000000;stroke-width:2.16949153"
     d="m 24.808534,347.69516 c -3.10121,-5.79466 -3.10121,-267.846511 0,-273.641175 2.198578,-4.10808 7.05754,-4.196358 230.974516,-4.196358 223.91697,0 228.77594,0.08828 230.97453,4.196358 1.47824,2.762157 2.24581,49.792715 2.24581,137.607745 0,118.39044 -0.38385,133.79524 -3.4092,136.82059 -3.05595,3.05595 -26.98961,3.40921 -230.97451,3.40921 -222.766786,0 -227.61268,-0.0885 -229.811146,-4.19637 z m 66.635534,-18.99405 c -2.088136,-0.54567 -5.505085,-0.54567 -7.593221,0 -2.088135,0.5457 -0.379661,0.99218 3.796611,0.99218 4.176271,0 5.884745,-0.44648 3.79661,-0.99218 z M 348.15848,311.93123 c -11.26975,-11.48303 -12.65846,-10.75975 29.53997,-15.3853 32.69411,-3.58374 45.70563,-6.86867 49.20964,-12.42367 3.57858,-5.67322 -2.22654,-20.04252 -13.59117,-33.64198 -12.79479,-15.31089 -54.19728,-56.16907 -67.49997,-66.61259 -14.44547,-11.34067 -34.88714,-17.24306 -75.38983,-21.76831 l -11.38983,-1.27256 -0.0477,24.48151 c -0.0551,28.2715 -2.90159,36.86668 -16.50729,49.84386 -11.32471,10.80162 -17.15947,12.60374 -40.80725,12.60374 h -20.19844 l -33.35524,-16.21677 c -31.96842,-15.54253 -54.338181,-23.18737 -57.77538,-19.74469 -0.887565,0.88898 -1.613757,15.93381 -1.613757,33.43296 0,33.67164 2.183557,44.03159 10.182819,48.31265 4.887528,2.61573 66.186718,6.15292 107.962998,6.22987 l 29.19665,0.0538 8.75566,8.13559 c 7.26758,6.75291 7.67503,6.93728 2.39744,1.08475 l -6.35819,-7.05085 h 44.55495 44.55496 l 8.4611,6.19086 c 4.6536,3.40497 10.3263,8.29232 12.60601,10.86076 2.27968,2.56844 4.65948,4.15531 5.28841,3.52638 0.62894,-0.62896 -3.0505,-5.41694 -8.17653,-10.63999 z M 42.522691,291.20859 c -1.627993,-2.48131 -4.710079,6.05881 -4.740317,13.13491 -0.05348,12.51555 3.12105,12.13394 4.315906,-0.51882 0.60219,-6.37678 0.793175,-12.05404 0.424411,-12.61609 z"
     id="path139"
     inkscape:connector-curvature="0"
     transform="scale(0.75)" />
  <path
     style="fill:#000000;stroke-width:2.16949153"
     d="m 24.808534,347.69516 c -3.10121,-5.79466 -3.10121,-267.846511 0,-273.641175 2.198578,-4.10808 7.05754,-4.196358 230.974516,-4.196358 223.91697,0 228.77594,0.08828 230.97453,4.196358 1.47824,2.762157 2.24581,49.792715 2.24581,137.607745 0,118.39044 -0.38385,133.79524 -3.4092,136.82059 -3.05595,3.05595 -26.98961,3.40921 -230.97451,3.40921 -222.766786,0 -227.61268,-0.0885 -229.811146,-4.19637 z M 90.359322,328.7598 c -1.491525,-0.60184 -3.932203,-0.60184 -5.423729,0 -1.491525,0.60184 -0.271186,1.09427 2.711865,1.09427 2.98305,0 4.203389,-0.49243 2.711864,-1.09427 z M 347.07597,310.84965 c -9.96057,-10.20054 -11.15594,-9.61334 28.96154,-14.2267 33.05105,-3.80076 44.05916,-6.30411 48.86825,-11.1132 4.4989,-4.49891 4.22858,-8.50905 -1.36535,-20.2553 -6.59777,-13.85409 -75.10545,-82.23198 -89.04048,-88.87179 -10.46843,-4.98802 -40.68888,-11.76456 -62.98807,-14.12424 l -12.47457,-1.32005 -0.0477,24.42573 c -0.054,27.69777 -2.88037,36.73469 -15.35351,49.09114 -10.97486,10.87228 -18.60893,13.30069 -41.81265,13.30069 h -20.4719 l -30.63058,-14.95899 c -30.0997,-14.69973 -57.248399,-24.13341 -60.39275,-20.9854 -0.877782,0.87881 -1.595967,15.91564 -1.595967,33.41518 0,34.96965 2.045247,43.68323 11.236242,47.87093 6.341915,2.88957 66.654055,6.62372 107.967075,6.68466 27.56699,0.0406 28.20621,0.15143 34.67796,6.00752 4.37541,3.95921 5.21446,4.3241 2.49433,1.08475 l -4.09895,-4.88136 h 45.4126 45.4126 l 10.78805,9.53481 c 13.01159,11.50002 15.91407,11.05794 4.45386,-0.67838 z M 41.902431,298.73898 c -0.0937,-6.81799 -0.51889,-7.74797 -1.983787,-4.33898 -2.720887,6.33186 -2.720887,20.48145 0,16.27119 1.156677,-1.78983 2.049382,-7.15933 1.983787,-11.93221 z"
     id="path141"
     inkscape:connector-curvature="0"
     transform="scale(0.75)" />
  <path
     style="fill:#000000;stroke-width:2.16949153"
     d="m 24.808534,347.69516 c -3.10121,-5.79466 -3.10121,-267.846511 0,-273.641175 2.198578,-4.10808 7.05754,-4.196358 230.974516,-4.196358 223.91697,0 228.77594,0.08828 230.97453,4.196358 1.47824,2.762157 2.24581,49.792715 2.24581,137.607745 0,118.39044 -0.38385,133.79524 -3.4092,136.82059 -3.05595,3.05595 -26.98961,3.40921 -230.97451,3.40921 -222.766786,0 -227.61268,-0.0885 -229.811146,-4.19637 z M 347.14537,310.92074 c -4.52656,-4.63564 -7.38497,-8.95075 -6.35201,-9.58915 1.03296,-0.63842 11.61635,-2.21529 23.51866,-3.50418 39.87061,-4.31753 53.32031,-7.08086 59.23757,-12.17068 5.40325,-4.64768 5.48769,-5.10041 2.58912,-13.88314 -6.27476,-19.01274 -70.30248,-83.98523 -94.12795,-95.51687 -12.34117,-5.97319 -33.74718,-10.87699 -61.58364,-14.1079 l -11.38983,-1.322 -0.0477,24.48151 c -0.054,27.72583 -2.88408,36.84217 -15.28826,49.24635 -10.70867,10.70875 -18.5931,13.20125 -41.75898,13.20125 h -20.35298 l -31.24213,-14.9776 c -31.10339,-14.91109 -54.346574,-23.29992 -58.111215,-20.97324 -3.233126,1.99818 -5.153833,30.2895 -3.486531,51.35536 2.089839,26.40451 4.997495,29.87301 27.159776,32.39856 8.91704,1.01614 39.6433,2.51938 68.28059,3.34049 43.31558,1.24202 52.76867,2.08334 56.23732,5.00522 2.29326,1.93171 3.45598,2.29189 2.58384,0.80036 -1.24758,-2.13363 8.09657,-2.71186 43.82263,-2.71186 h 45.40834 l 9.49936,8.589 c 12.24685,11.07317 16.12327,11.316 5.40405,0.33852 z M 41.902431,298.73898 c -0.1024,-5.588 -0.382958,-5.89481 -1.983787,-2.16949 -1.025489,2.38644 -1.918193,6.77966 -1.983787,9.76271 -0.094,4.2747 0.326274,4.73431 1.983787,2.16949 1.156677,-1.78983 2.049382,-6.18305 1.983787,-9.76271 z"
     id="path143"
     inkscape:connector-curvature="0"
     transform="scale(0.75)" />
  <path
     style="fill:#000000;stroke-width:2.16949153"
     d="m 24.808534,347.69516 c -3.10121,-5.79466 -3.10121,-267.846511 0,-273.641175 2.198578,-4.10808 7.05754,-4.196358 230.974516,-4.196358 223.91697,0 228.77594,0.08828 230.97453,4.196358 1.47824,2.762157 2.24581,49.792715 2.24581,137.607745 0,118.39044 -0.38385,133.79524 -3.4092,136.82059 -3.05595,3.05595 -26.98961,3.40921 -230.97451,3.40921 -222.766786,0 -227.61268,-0.0885 -229.811146,-4.19637 z M 345.85272,309.62334 c -5.32753,-5.4966 -6.44339,-7.77571 -4.19069,-8.55944 1.6886,-0.58748 18.39616,-2.98201 37.12791,-5.3212 49.08603,-6.12975 54.0106,-9.36923 44.32801,-29.15975 -6.86666,-14.03493 -47.18722,-57.26154 -72.1237,-77.3219 -20.54418,-16.52695 -31.95418,-20.26364 -82.73662,-27.0956 l -9.22034,-1.24045 v 24.72705 c 0,22.77982 -0.46983,25.61997 -5.9661,36.06592 -3.58747,6.81818 -9.72401,14.05281 -15.39174,18.14604 -8.95049,6.46401 -10.59102,6.84176 -32.54238,7.49322 l -23.11673,0.68604 -29.39197,-14.07457 c -31.60851,-15.13599 -55.229766,-23.97016 -59.604203,-22.29154 -3.870609,1.4853 -5.97432,35.51617 -3.487753,56.41994 1.411285,11.86419 3.289034,18.3434 6.143328,21.19772 5.495558,5.49554 25.886878,7.67251 88.510088,9.4493 27.44407,0.77866 51.36271,1.89545 53.15254,2.48175 1.78983,0.58633 23.8369,0.96549 48.99348,0.84263 l 45.73921,-0.22339 9.58282,8.53573 c 11.52291,10.26385 14.37753,9.74837 4.19484,-0.7575 z M 41.902431,298.73898 41.783168,294.4 l -1.864524,4.33898 c -1.025489,2.38644 -1.918193,5.80339 -1.983787,7.59322 -0.10601,2.89265 0.11441,2.89265 1.983787,0 1.156677,-1.78983 2.049382,-5.20678 1.983787,-7.59322 z"
     id="path145"
     inkscape:connector-curvature="0"
     transform="scale(0.75)" />
  <path
     style="fill:#000000;stroke-width:2.16949153"
     d="m 24.808534,347.69516 c -3.10121,-5.79466 -3.10121,-267.846511 0,-273.641175 2.198578,-4.10808 7.05754,-4.196358 230.974516,-4.196358 223.91697,0 228.77594,0.08828 230.97453,4.196358 1.47824,2.762157 2.24581,49.792715 2.24581,137.607745 0,118.39044 -0.38385,133.79524 -3.4092,136.82059 -3.05595,3.05595 -26.98961,3.40921 -230.97451,3.40921 -222.766786,0 -227.61268,-0.0885 -229.811146,-4.19637 z M 344.77193,308.54318 c -4.60833,-4.81007 -5.38535,-6.69015 -3.09606,-7.49117 1.68098,-0.58817 18.53396,-3.08504 37.45106,-5.54858 46.87718,-6.10478 52.8041,-9.62545 45.11731,-26.80027 -7.35661,-16.4371 -57.84365,-69.46962 -82.20008,-86.34448 -14.23262,-9.8608 -35.27144,-15.67304 -72.70179,-20.08479 l -10.30508,-1.21461 v 24.65991 c 0,22.70658 -0.47258,25.55807 -5.9661,35.99878 -3.58747,6.81818 -9.72401,14.05281 -15.39174,18.14604 -8.95045,6.46398 -10.59112,6.84177 -32.54238,7.49335 l -23.11673,0.68616 -27.67527,-13.18086 c -33.37699,-15.89641 -59.840069,-25.20495 -62.91449,-22.13053 -1.229101,1.2291 -2.156004,15.61305 -2.156004,33.45752 0,36.82574 1.742319,42.46842 14.392944,46.61308 9.74791,3.19367 132.75675,9.1164 190.26255,9.16094 l 38.14701,0.0295 8.49705,7.37651 c 10.13359,8.79722 12.89672,8.25315 4.1978,-0.82656 z M 41.783168,297.65424 c 0,-2.05121 -0.689278,-1.6502 -1.864524,1.08474 -1.025489,2.38644 -1.864525,5.80339 -1.864525,7.59322 0,2.05121 0.689279,1.65021 1.864525,-1.08474 1.025488,-2.38644 1.864524,-5.80339 1.864524,-7.59322 z"
     id="path147"
     inkscape:connector-curvature="0"
     transform="scale(0.75)" />
  <path
     style="fill:#000000;stroke-width:2.16949153"
     d="m 24.808534,347.69516 c -3.10121,-5.79466 -3.10121,-267.846511 0,-273.641175 2.198578,-4.10808 7.05754,-4.196358 230.974516,-4.196358 223.91697,0 228.77594,0.08828 230.97453,4.196358 1.47824,2.762157 2.24581,49.792715 2.24581,137.607745 0,118.39044 -0.38385,133.79524 -3.4092,136.82059 -3.05595,3.05595 -26.98961,3.40921 -230.97451,3.40921 -222.766786,0 -227.61268,-0.0885 -229.811146,-4.19637 z M 344.9602,308.73967 c -3.30414,-3.44876 -5.1607,-6.79385 -4.12571,-7.43351 1.035,-0.63967 14.53879,-2.77261 30.00841,-4.73986 49.38635,-6.28046 55.24524,-8.3336 55.24524,-19.3599 0,-5.17101 -2.71569,-10.96722 -9.37982,-20.01982 -13.67832,-18.58066 -45.3112,-51.14223 -64.9431,-66.84969 -18.82793,-15.0642 -33.51967,-20.95818 -62.35505,-25.01539 -8.94915,-1.25917 -19.44407,-2.7962 -23.32203,-3.41562 l -7.05085,-1.12622 v 24.79972 c 0,22.8591 -0.46685,25.68701 -5.9661,36.13859 -3.58747,6.81818 -9.72401,14.05281 -15.39174,18.14604 -8.95105,6.46441 -10.59847,6.84366 -32.71732,7.53174 l -23.29167,0.72457 -27.55283,-13.23688 c -29.62466,-14.23223 -58.822467,-24.96902 -62.209174,-22.87592 -3.439353,2.12564 -2.619275,62.82804 0.96468,71.40565 3.025217,7.24036 4.901282,8.39765 17.553984,10.82863 10.76545,2.06835 147.04095,7.74545 185.99966,7.74853 l 36.30477,0.002 7.08506,6.44489 c 9.11031,8.28711 13.01348,8.51595 5.14359,0.30156 z"
     id="path149"
     inkscape:connector-curvature="0"
     transform="scale(0.75)" />
  <path
     style="fill:#000000;stroke-width:2.16949153"
     d="m 24.808534,347.69516 c -3.10121,-5.79466 -3.10121,-267.846511 0,-273.641175 2.198578,-4.10808 7.05754,-4.196358 230.974516,-4.196358 223.91697,0 228.77594,0.08828 230.97453,4.196358 1.47824,2.762157 2.24581,49.792715 2.24581,137.607745 0,118.39044 -0.38385,133.79524 -3.4092,136.82059 -3.05595,3.05595 -26.98961,3.40921 -230.97451,3.40921 -222.766786,0 -227.61268,-0.0885 -229.811146,-4.19637 z M 339.08554,302.11254 c 2.10692,-1.12759 15.82811,-3.61585 30.49153,-5.52945 37.64493,-4.9127 48.05317,-7.13348 52.56363,-11.2154 8.73435,-7.90447 3.58563,-19.0558 -22.23091,-48.14872 -24.7061,-27.84159 -54.10614,-53.68667 -68.79262,-60.47444 -10.87145,-5.02456 -39.36321,-11.67654 -61.7748,-14.42259 l -10.30508,-1.26266 v 24.65991 c 0,22.77962 -0.46208,25.54444 -6.06019,36.26043 -3.77798,7.2319 -9.56421,14.06549 -15.36484,18.14605 -8.75982,6.16222 -10.70147,6.58878 -33.15764,7.28427 l -23.85295,0.73875 -23.13678,-11.27446 C 125.32388,221.21205 103.16755,212.70382 96.530499,213.47489 l -5.628804,0.65392 -0.601312,29.47968 c -0.400288,19.6244 0.326967,32.31675 2.175404,37.9661 2.509238,7.66894 3.790286,8.73672 13.298753,11.08474 11.35106,2.80305 83.3312,6.64565 172.46618,9.20698 30.60421,0.87942 55.95227,1.75589 56.32902,1.94768 0.37675,0.19178 2.40885,-0.57385 4.5158,-1.70145 z"
     id="path151"
     inkscape:connector-curvature="0"
     transform="scale(0.75)" />
  <path
     style="fill:#000000;stroke-width:2.16949153"
     d="m 24.808534,347.69516 c -3.10121,-5.79466 -3.10121,-267.846511 0,-273.641175 2.198578,-4.10808 7.05754,-4.196358 230.974516,-4.196358 223.91697,0 228.77594,0.08828 230.97453,4.196358 1.47824,2.762157 2.24581,49.792715 2.24581,137.607745 0,118.39044 -0.38385,133.79524 -3.4092,136.82059 -3.05595,3.05595 -26.98961,3.40921 -230.97451,3.40921 -222.766786,0 -227.61268,-0.0885 -229.811146,-4.19637 z M 376.19159,295.58333 c 48.16809,-6.68457 55.36147,-11.35109 45.87865,-29.76253 -5.50376,-10.68584 -38.93018,-48.17162 -56.9024,-63.81271 -29.58805,-25.75028 -41.89937,-31.59534 -76.88958,-36.50491 -9.51982,-1.33575 -19.99351,-2.87634 -23.27487,-3.42354 l -5.9661,-0.99489 v 24.64717 c 0,22.76568 -0.46262,25.53273 -6.06019,36.2477 -3.77772,7.23139 -9.56447,14.06578 -15.36441,18.14605 -8.79454,6.18696 -10.63145,6.58434 -33.53303,7.2542 l -24.22881,0.70869 -28.57547,-13.91746 c -30.1034,-14.66163 -50.02656,-21.97359 -56.492593,-20.73322 -3.458757,0.66349 -3.947021,3.8778 -4.486955,29.53824 -0.708467,33.66996 1.382372,44.17474 9.531401,47.8877 9.521397,4.33824 50.705927,6.52726 221.040567,11.74862 8.35254,0.25604 16.65165,-0.17074 18.44243,-0.94859 1.79081,-0.77776 18.38742,-3.51401 36.88136,-6.08052 z"
     id="path153"
     inkscape:connector-curvature="0"
     transform="scale(0.75)" />
  <path
     style="fill:#000000;stroke-width:2.16949153"
     d="m 24.808534,347.69516 c -3.10121,-5.79466 -3.10121,-267.846511 0,-273.641175 2.198578,-4.10808 7.05754,-4.196358 230.974516,-4.196358 223.91697,0 228.77594,0.08828 230.97453,4.196358 1.47824,2.762157 2.24581,49.792715 2.24581,137.607745 0,118.39044 -0.38385,133.79524 -3.4092,136.82059 -3.05595,3.05595 -26.98961,3.40921 -230.97451,3.40921 -222.766786,0 -227.61268,-0.0885 -229.811146,-4.19637 z M 375.10339,295.88693 c 41.17198,-6.59526 46.31303,-8.14571 49.38798,-14.89449 2.18186,-4.78864 1.77705,-6.95363 -2.80832,-15.01968 -13.93569,-24.51407 -68.57776,-78.40844 -89.9678,-88.7367 -10.00903,-4.83291 -41.4464,-12.14166 -63.45762,-14.75302 l -9.22034,-1.09389 v 24.49498 c 0,22.56972 -0.47519,25.40966 -6.04581,36.13254 -4.1754,8.03721 -9.28514,13.81892 -16.51638,18.68841 -10.20225,6.87018 -11.06925,7.05085 -33.83493,7.05085 H 179.2758 l -26.83112,-12.95819 c -27.58683,-13.32318 -49.4511,-21.75367 -56.417557,-21.75367 -5.775373,0 -6.82015,7.1723 -5.855154,40.19504 0.752792,25.76099 1.374308,29.75274 5.23336,33.6118 6.179441,6.17945 20.321091,7.96967 84.738231,10.7272 116.02963,4.96694 155.53462,4.62425 194.95983,-1.69118 z"
     id="path155"
     inkscape:connector-curvature="0"
     transform="scale(0.75)" />
  <path
     style="fill:#000000;stroke-width:2.16949153"
     d="m 24.808534,347.69516 c -3.10121,-5.79466 -3.10121,-267.846511 0,-273.641175 2.198578,-4.10808 7.05754,-4.196358 230.974516,-4.196358 223.91697,0 228.77594,0.08828 230.97453,4.196358 1.47824,2.762157 2.24581,49.792715 2.24581,137.607745 0,118.39044 -0.38385,133.79524 -3.4092,136.82059 -3.05595,3.05595 -26.98961,3.40921 -230.97451,3.40921 -222.766786,0 -227.61268,-0.0885 -229.811146,-4.19637 z M 366.90031,296.48885 c 21.21771,-3.02739 42.28206,-6.49368 46.80968,-7.7028 22.24903,-5.94182 12.258,-26.43466 -36.20367,-74.2583 -34.16511,-33.7153 -51.33663,-43.03913 -90.26564,-49.01257 -8.94915,-1.37319 -18.95593,-2.93181 -22.23729,-3.46358 l -5.9661,-0.96685 v 24.64717 c 0,22.73625 -0.46874,25.54946 -6.04581,36.28475 -4.1754,8.03721 -9.28514,13.81892 -16.51638,18.68841 -10.22255,6.88385 -11.03102,7.05085 -34.13313,7.05085 -23.59913,0 -23.71335,-0.0254 -42.60227,-9.47276 -23.80765,-11.90749 -57.10755,-25.2391 -63.042579,-25.2391 -6.188857,0 -7.631237,9.12062 -6.492655,41.05506 1.016608,28.51335 3.652467,35.56411 14.124284,37.78163 12.86669,2.72463 73.65254,6.15963 137.25044,7.75598 36.44941,0.91492 70.87781,1.8194 76.50756,2.00997 5.62974,0.19048 27.59584,-2.13046 48.81356,-5.15786 z"
     id="path157"
     inkscape:connector-curvature="0"
     transform="scale(0.75)" />
</svg>
