<?xml version="1.0" encoding="UTF-8" standalone="no"?>
<svg
   xmlns:dc="http://purl.org/dc/elements/1.1/"
   xmlns:cc="http://creativecommons.org/ns#"
   xmlns:rdf="http://www.w3.org/1999/02/22-rdf-syntax-ns#"
   xmlns:svg="http://www.w3.org/2000/svg"
   xmlns="http://www.w3.org/2000/svg"
   xmlns:xlink="http://www.w3.org/1999/xlink"
   xmlns:sodipodi="http://sodipodi.sourceforge.net/DTD/sodipodi-0.dtd"
   xmlns:inkscape="http://www.inkscape.org/namespaces/inkscape"
   width="384pt"
   height="384pt"
   version="1.1"
   viewBox="0 0 384 384"
   id="svg65"
   sodipodi:docname="preferences-desktop-desktop-wallpaper.svg"
   inkscape:version="0.92.3 (2405546, 2018-03-11)">
  <metadata
     id="metadata69">
    <rdf:RDF>
      <cc:Work
         rdf:about="">
        <dc:format>image/svg+xml</dc:format>
        <dc:type
           rdf:resource="http://purl.org/dc/dcmitype/StillImage" />
      </cc:Work>
    </rdf:RDF>
  </metadata>
  <sodipodi:namedview
     pagecolor="#ffffff"
     bordercolor="#666666"
     borderopacity="1"
     objecttolerance="10"
     gridtolerance="10"
     guidetolerance="10"
     inkscape:pageopacity="0"
     inkscape:pageshadow="2"
     inkscape:window-width="2560"
     inkscape:window-height="1025"
     id="namedview67"
     showgrid="false"
     inkscape:zoom="1.3037281"
     inkscape:cx="121.02887"
     inkscape:cy="169.10846"
     inkscape:window-x="0"
     inkscape:window-y="0"
     inkscape:window-maximized="1"
     inkscape:current-layer="svg65" />
  <defs
     id="defs43">
    <linearGradient
       id="linear0"
       x1="32.987"
       x2="763.265"
       y1="976.668"
       y2="390.876"
       gradientTransform="matrix(0.694445,0,0,0.5103,14.222148,-250.80969)"
       gradientUnits="userSpaceOnUse">
      <stop
         offset="0"
         style="stop-color:rgb(16.078431%,50.196078%,72.54902%)"
         id="stop2" />
      <stop
         offset="1"
         style="stop-color:rgb(72.941176%,9.019608%,30.588235%);stop-opacity:0.996078"
         id="stop4" />
    </linearGradient>
    <filter
       id="alpha"
       width="100%"
       height="100%"
       x="0%"
       y="0%"
       filterUnits="objectBoundingBox">
      <feColorMatrix
         in="SourceGraphic"
         type="matrix"
         values="0 0 0 0 1 0 0 0 0 1 0 0 0 0 1 0 0 0 1 0"
         id="feColorMatrix7" />
    </filter>
    <mask
       id="mask0">
      <g
         filter="url(#alpha)"
         id="g12">
        <rect
           width="384"
           height="384"
           x="0"
           y="0"
           style="fill:rgb(0%,0%,0%);fill-opacity:0.301961"
           id="rect10" />
      </g>
    </mask>
    <clipPath
       id="clip1">
      <rect
         width="384"
         height="384"
         x="0"
         y="0"
         id="rect15" />
    </clipPath>
    <g
       id="surface5"
       clip-path="url(#clip1)">
      <path
         style="fill:rgb(100%,100%,100%)"
         d="M 32.832031 46.949219 C 28.359375 46.949219 24.300781 48.652344 21.265625 51.449219 L 362.734375 51.449219 C 359.699219 48.652344 355.640625 46.949219 351.167969 46.949219 Z M 32.832031 46.949219"
         id="path18" />
    </g>
    <mask
       id="mask1">
      <g
         filter="url(#alpha)"
         id="g23">
        <rect
           width="384"
           height="384"
           x="0"
           y="0"
           style="fill:rgb(0%,0%,0%);fill-opacity:0.301961"
           id="rect21" />
      </g>
    </mask>
    <clipPath
       id="clip2">
      <rect
         width="384"
         height="384"
         x="0"
         y="0"
         id="rect26" />
    </clipPath>
    <g
       id="surface8"
       clip-path="url(#clip2)">
      <path
         style="fill:rgb(100%,100%,100%)"
         d="M 21.265625 264.253906 C 24.300781 267.050781 28.359375 268.753906 32.832031 268.753906 L 351.167969 268.753906 C 355.640625 268.753906 359.699219 267.050781 362.734375 264.253906 Z M 21.265625 264.253906"
         id="path29" />
    </g>
    <mask
       id="mask2">
      <g
         filter="url(#alpha)"
         id="g34">
        <rect
           width="384"
           height="384"
           x="0"
           y="0"
           style="fill:rgb(0%,0%,0%);fill-opacity:0.4"
           id="rect32" />
      </g>
    </mask>
    <clipPath
       id="clip3">
      <rect
         width="384"
         height="384"
         x="0"
         y="0"
         id="rect37" />
    </clipPath>
    <g
       id="surface11"
       clip-path="url(#clip3)">
      <path
         style="fill:rgb(0%,0%,0%)"
         d="M 267.527344 208.90625 L 267.527344 131.417969 C 267.527344 124.285156 261.75 118.503906 254.613281 118.503906 L 138.386719 118.503906 C 131.25 118.503906 125.472656 124.285156 125.472656 131.417969 L 125.472656 208.90625 C 125.472656 216.042969 131.25 221.820312 138.386719 221.820312 L 254.613281 221.820312 C 261.75 221.820312 267.527344 216.042969 267.527344 208.90625 Z M 173.898438 173.390625 L 190.042969 192.796875 L 212.644531 163.703125 L 241.699219 202.449219 L 151.300781 202.449219 Z M 173.898438 173.390625"
         id="path40" />
    </g>
  </defs>
  <g
     id="g63">
    <path
       style="fill:rgb(15.294118%,15.294118%,15.294118%)"
       d="M 158.175781 268.140625 L 225.828125 268.140625 L 225.828125 326.195312 L 158.175781 326.195312 Z M 158.175781 268.140625"
       id="path45" />
    <path
       style="fill:rgb(9.411765%,9.411765%,9.411765%)"
       d="M 158.074219 268.570312 L 225.925781 268.570312 L 225.925781 326.039062 Z M 158.074219 268.570312"
       id="path47" />
    <path
       style="fill:rgb(0%,0%,0%)"
       d="M 32.832031 46.949219 L 351.175781 46.949219 C 360.59375 46.949219 368.226562 54.585938 368.226562 64.003906 L 368.226562 251.703125 C 368.226562 261.121094 360.59375 268.757812 351.175781 268.757812 L 32.832031 268.757812 C 23.414062 268.757812 15.78125 261.121094 15.78125 251.703125 L 15.78125 64.003906 C 15.78125 54.585938 23.414062 46.949219 32.832031 46.949219 Z M 32.832031 46.949219"
       id="path49" />
    <path
       style="fill:url(#linear0)"
       d="M 41.863281 62.910156 L 342.140625 62.910156 C 349.351562 62.910156 355.195312 68.753906 355.195312 75.964844 L 355.195312 235.183594 C 355.195312 242.394531 349.351562 248.242188 342.140625 248.242188 L 41.863281 248.242188 C 34.652344 248.242188 28.808594 242.394531 28.808594 235.183594 L 28.808594 75.964844 C 28.808594 68.753906 34.652344 62.910156 41.863281 62.910156 Z M 41.863281 62.910156"
       id="path51" />
    <path
       style="fill:rgb(11.372549%,11.372549%,11.372549%)"
       d="M 132.195312 324.996094 L 251.796875 324.996094 C 254.375 324.996094 256.460938 327.085938 256.460938 329.660156 L 256.460938 332.386719 C 256.460938 334.960938 254.375 337.050781 251.796875 337.050781 L 132.195312 337.050781 C 129.617188 337.050781 127.53125 334.960938 127.53125 332.386719 L 127.53125 329.660156 C 127.53125 327.085938 129.617188 324.996094 132.195312 324.996094 Z M 132.195312 324.996094"
       id="path53" />
    <use
       mask="url(#mask0)"
       xlink:href="#surface5"
       id="use55" />
    <use
       mask="url(#mask1)"
       xlink:href="#surface8"
       id="use57" />
    <use
       mask="url(#mask2)"
       xlink:href="#surface11"
       id="use59" />
    <path
       style="fill:rgb(100%,100%,100%)"
       d="M 263.027344 204.40625 L 263.027344 126.917969 C 263.027344 119.785156 257.25 114.003906 250.113281 114.003906 L 133.886719 114.003906 C 126.75 114.003906 120.972656 119.785156 120.972656 126.917969 L 120.972656 204.40625 C 120.972656 211.542969 126.75 217.320312 133.886719 217.320312 L 250.113281 217.320312 C 257.25 217.320312 263.027344 211.542969 263.027344 204.40625 Z M 169.398438 168.890625 L 185.542969 188.296875 L 208.144531 159.203125 L 237.199219 197.949219 L 146.800781 197.949219 Z M 169.398438 168.890625"
       id="path61" />
  </g>
  <path
     style="fill:#000000;stroke-width:0.54237288"
     d="M 68.259222,303.84581 38.668251,276.72153 v -84.64785 -84.64786 l 3.219095,2.89078 c 1.770503,1.58993 29.340359,26.80943 61.266354,56.04333 l 58.04725,53.15254 0.0218,28.00552 c 0.0267,34.28417 -0.52529,31.40669 7.59286,39.58305 3.14438,3.16694 6.81537,6.33963 8.15774,7.05043 l 2.44068,1.29236 25.49153,0.34161 c 14.02033,0.18789 28.78644,0.38355 32.81355,0.43479 l 7.32204,0.0932 16.81356,15.45044 c 9.24746,8.49773 17.66373,16.29549 18.70282,17.32834 l 1.88925,1.87791 h -92.29829 -92.2983 z"
     id="path71"
     inkscape:connector-curvature="0"
     transform="scale(0.75)" />
  <path
     style="fill:#000000;stroke-width:0.54237288"
     d="M 131.93269,192.41598 C 115.96034,177.78685 88.502706,152.65354 70.91574,136.56418 L 38.939437,107.31079 v -5.18729 c 0,-4.574465 0.17812,-5.550009 1.507679,-8.257425 1.655747,-3.371643 4.504531,-6.243519 8.095001,-8.160621 l 2.329524,-1.24383 48.542373,-0.112115 48.542376,-0.112115 36.75433,33.739236 36.75433,33.73923 -24.00857,0.27119 c -21.59413,0.24391 -24.21679,0.36891 -26.07908,1.24291 -3.00082,1.40834 -6.75707,5.07899 -8.41871,8.22684 l -1.44298,2.73364 -0.27119,27.41198 -0.27118,27.41198 z"
     id="path73"
     inkscape:connector-curvature="0"
     transform="scale(0.75)" />
  <path
     style="fill:#000000;stroke-width:0.54237288"
     d="m 52.414012,330.40526 c -4.964979,-0.98228 -9.39441,-4.44254 -11.991109,-9.3674 l -1.483466,-2.81352 -0.160479,-20.6051 -0.16048,-20.60509 1.787598,1.67349 c 0.983179,0.92043 13.624887,12.48587 28.092684,25.70098 14.467796,13.21512 26.909705,24.60214 27.648688,25.30448 l 1.34361,1.277 -21.411405,-0.0594 c -11.776271,-0.0327 -22.42581,-0.26012 -23.665641,-0.50541 z"
     id="path75"
     inkscape:connector-curvature="0"
     transform="scale(0.75)" />
  <path
     style="fill:#000000;stroke-width:0.54237288"
     d="m 264.18379,313.63708 -18.75108,-17.33303 -4.53477,-0.1837 c -2.49413,-0.10103 19.44227,-0.23337 48.74754,-0.29409 51.13047,-0.10594 53.39329,-0.15256 56.0301,-1.15447 4.20135,-1.59639 7.24671,-4.40584 9.30465,-8.58388 l 1.78972,-3.63349 0.27118,-11.52399 0.27119,-11.52398 38.23729,35.0069 c 21.03051,19.2538 38.59467,35.35562 39.03148,35.78183 0.68844,0.67174 -9.35477,0.77492 -75.42603,0.77492 h -76.2202 z"
     id="path77"
     inkscape:connector-curvature="0"
     transform="scale(0.75)" />
  <path
     style="fill:#000000;stroke-width:0.54237288"
     d="m 433.97421,330.52057 c 0.53859,-0.36314 -9.42478,-9.77891 -38.04438,-35.95343 l -38.77407,-35.46145 -0.1929,-43.9322 -0.19291,-43.9322 -1.50206,-3.05865 c -0.82613,-1.68225 -2.50297,-4.00089 -3.7263,-5.15254 -1.22334,-1.15165 -2.62199,-2.58081 -3.10812,-3.17594 -2.55697,-3.13028 -5.89401,-5.76933 -8.55335,-6.76432 -2.89571,-1.08342 -3.96077,-1.10279 -60.64464,-1.10279 -31.73344,0 -57.77853,-0.19077 -57.87797,-0.42393 -0.0994,-0.23315 -16.47231,-15.37975 -36.38417,-33.65911 -19.91187,-18.279348 -36.20339,-33.34282 -36.20339,-33.474377 0,-0.131558 39.6,-0.226042 88,-0.209965 l 88,0.02923 74.13207,67.902972 74.13208,67.90297 0.0321,48.81356 0.0321,48.81356 -1.29793,2.78756 c -1.87766,4.03266 -4.6811,6.85959 -8.58338,8.65532 l -3.39623,1.56287 -13.28813,0.16242 c -8.07055,0.0987 -13.00162,-0.0307 -12.55845,-0.32956 z"
     id="path79"
     inkscape:connector-curvature="0"
     transform="scale(0.75)" />
  <path
     style="fill:#000000;stroke-width:0.54237288"
     d="M 400.74508,153.54145 C 361.09412,117.22398 327.90185,86.759109 326.98449,85.841747 l -1.66793,-1.66793 67.79449,0.143903 67.79449,0.143904 2.23595,1.196091 c 3.32781,1.780173 8.1696,7.039428 9.14546,9.933993 0.72452,2.149075 0.80964,9.961672 0.68874,63.216822 l -0.13795,60.7647 z"
     id="path81"
     inkscape:connector-curvature="0"
     transform="scale(0.75)" />
  <path
     style="fill:#000000;stroke-width:0.54237288"
     d="m 26.712307,350.11444 c -0.969776,-1.10452 -2.520483,-3.60622 -3.446016,-5.55933 L 21.583505,341.004 21.440029,212.19044 C 21.339048,121.52983 21.470067,82.537608 21.88238,80.5433 c 0.714671,-3.456776 2.740472,-7.414509 5.004236,-9.776591 l 1.689342,-1.762712 h 227.642002 227.642 l 1.49073,1.762712 c 0.81991,0.969491 2.24499,3.349152 3.16686,5.288135 l 1.67613,3.525424 V 210.56332 341.54637 l -1.2283,2.6632 c -0.67556,1.46477 -2.12911,3.84443 -3.2301,5.28814 l -2.00179,2.62493 H 256.10451 28.475537 Z m 38.261029,-19.66436 c -12.265062,-0.26552 -13.792289,-0.40205 -16,-1.4304 -2.921797,-1.36095 -6.728609,-5.05438 -8.217383,-7.97261 -0.593246,-1.16286 -1.207838,-1.98508 -1.365759,-1.82717 -0.61485,0.61486 2.890985,6.0054 5.063519,7.78562 4.470328,3.6631 5.890804,3.9245 20.790809,3.82598 l 13.288136,-0.0879 z m 32.813559,0.33205 c 0,-0.10338 -13.299422,-12.36779 -29.554275,-27.25423 l -29.554275,-27.06628 -0.005,-84.24275 -0.005,-84.24276 1.256549,0.98852 c 0.691102,0.54369 28.260726,25.70572 61.265826,55.91562 l 60.00928,54.9271 0.1579,28.86951 c 0.15317,28.00569 0.19194,28.94254 1.29546,31.31019 1.33924,2.87339 11.54925,12.9538 14.80012,14.61227 2.0268,1.034 3.61285,1.10055 34.78842,1.45984 l 32.66481,0.37645 14.71132,13.54381 c 8.09123,7.4491 16.47368,15.26717 18.62767,17.3735 2.15398,2.10633 4.05842,3.68762 4.23207,3.51396 0.17366,-0.17366 -7.95936,-7.97063 -18.07337,-17.3266 l -18.38911,-17.01086 43.98754,-0.3613 c 54.79795,-0.45008 54.05412,-0.42139 57.58129,-2.22102 3.37836,-1.72371 6.14932,-4.71596 7.94889,-8.58367 1.2646,-2.71791 1.39233,-3.7381 1.72174,-13.75145 0.1957,-5.94866 0.45877,-10.9187 0.58459,-11.04452 0.12583,-0.12582 10.43162,9.12753 22.90177,20.563 33.7334,30.93447 48.79346,44.57333 43.01198,38.95301 -2.8339,-2.75491 -17.84407,-16.62544 -33.35594,-30.82341 -15.51186,-14.19796 -29.2927,-26.82712 -30.62409,-28.06478 l -2.42071,-2.2503 -0.21977,-43.85184 -0.21977,-43.85185 -1.54953,-3.07666 c -2.00911,-3.98919 -9.83305,-12.218 -13.6018,-14.30565 l -2.88975,-1.60075 -58.52024,-0.41799 -58.52023,-0.418 -1.76326,-1.48031 C 218.29737,148.4555 159.69484,94.392778 153.1551,88.212698 l -3.49181,-3.299773 41.99401,-0.360858 c 50.2395,-0.431712 112.29601,-0.38035 124.70587,0.103215 l 8.94915,0.348715 73.62712,67.456463 73.62712,67.45646 0.0783,15.79778 c 0.0431,8.68877 0.23904,30.68591 0.43552,48.88252 0.2431,22.51419 0.39138,-2.01848 0.4641,-76.78474 C 473.6631,85.842881 473.962,95.694372 469.9846,90.481303 c -1.89181,-2.479553 -7.37719,-6.275188 -8.069,-5.583384 -0.1635,0.163504 0.45968,0.688714 1.38484,1.167135 2.62959,1.359812 7.47743,6.612306 8.428,9.131472 0.77109,2.043558 0.84571,8.621304 0.71402,62.941004 L 472.2954,218.7965 402.3293,154.70217 C 363.84791,119.4503 330.9267,89.189431 329.17102,87.455809 l -3.19215,-3.152039 67.73452,0.203386 c 39.37186,0.118222 67.16675,0.0036 66.37859,-0.273789 -1.71826,-0.604684 -406.555668,-0.63885 -408.40678,-0.03447 -0.745763,0.243489 20.61017,0.437615 47.457627,0.431391 l 48.813563,-0.01132 36.29493,33.277262 36.29494,33.27726 -10.53222,0.33466 c -5.79273,0.18406 -15.82869,0.36711 -22.30214,0.40678 -6.47346,0.0396 -13.00548,0.3371 -14.51562,0.66097 -3.34434,0.71723 -7.95001,4.65542 -10.36162,8.85996 l -1.57996,2.75458 -0.0763,14.64407 c -0.042,8.05423 -0.22731,20.20653 -0.41187,27.0051 L 160.43095,218.20066 99.956377,162.85102 39.4818,107.50137 39.324146,102.83194 c -0.107953,-3.197346 0.115011,-5.490359 0.707236,-7.273381 1.048031,-3.155323 4.394259,-7.085631 7.664152,-9.001915 1.326346,-0.77729 2.289504,-1.535289 2.140351,-1.684442 -0.521907,-0.521908 -5.03954,2.532866 -7.07073,4.781151 -1.127304,1.24779 -2.571296,3.396889 -3.208872,4.775776 L 38.397065,96.9362 38.254963,206.12347 c -0.09384,72.10375 0.04318,109.77416 0.403435,110.91526 0.378084,1.19758 0.47306,-4.56111 0.309419,-18.76094 l -0.236118,-20.48892 1.459801,1.09332 c 0.802891,0.60133 13.907259,12.55088 29.120819,26.55456 24.589852,22.63431 28.474576,26.09213 28.474576,25.34538 z M 446.4351,330.56381 c -7.66043,-0.0848 -20.35196,-0.0849 -28.20339,-1.7e-4 -7.85143,0.0847 -1.5838,0.15415 13.92807,0.15424 15.51186,1e-4 21.93576,-0.0692 14.27532,-0.15407 z m 18.30927,-1.72594 c 3.10031,-1.77825 5.66525,-4.46568 7.27648,-7.62396 1.72612,-3.38347 1.24292,-3.84989 -0.56865,-0.5489 -2.0718,3.77519 -4.3308,6.03419 -8.10598,8.10599 -1.64068,0.90039 -2.61695,1.63921 -2.16949,1.64181 0.44745,0.003 2.05289,-0.70611 3.56764,-1.57494 z"
     id="path83"
     inkscape:connector-curvature="0"
     transform="scale(0.75)" />
  <path
     style="fill:#000000;stroke-width:0.54237288"
     d="m 26.712307,350.11444 c -0.969776,-1.10452 -2.520483,-3.60622 -3.446016,-5.55933 L 21.583505,341.004 V 210.56332 80.122641 l 1.212609,-2.983051 c 0.666935,-1.640678 2.131342,-4.130668 3.254238,-5.533312 l 2.041628,-2.550261 227.89272,-0.02601 227.89271,-0.02601 1.6549,2.007671 c 0.91018,1.10422 2.33135,3.361846 3.15812,5.016949 l 1.50325,3.009278 0.13997,130.544215 c 0.13945,130.05234 0.13583,130.5553 -0.96158,133.48838 -0.60586,1.61929 -2.08567,4.31847 -3.28847,5.99816 l -2.18691,3.05399 H 256.18611 28.475537 Z m 39.210181,-19.54786 c -2.461017,-0.1005 -6.488135,-0.1005 -8.949152,0 -2.461017,0.1005 -0.447458,0.18272 4.474576,0.18272 4.922034,0 6.935593,-0.0822 4.474576,-0.18272 z m 29.323439,-2.19623 C 93.699242,326.96631 80.33653,314.71415 65.55101,301.14333 L 38.668251,276.4691 v -84.23913 c 0,-64.94194 0.147707,-84.14786 0.644795,-83.84064 0.611422,0.37788 39.917651,36.2686 96.273904,87.90819 l 25.59666,23.45439 0.16605,28.89723 c 0.15182,26.42125 0.24953,29.08312 1.14029,31.06672 1.25697,2.79912 11.98216,13.31428 15.10868,14.81282 2.27804,1.09186 3.4569,1.14308 34.86625,1.51475 l 32.50849,0.38468 17.59444,16.32185 c 9.67695,8.977 18.23456,16.77179 19.01694,17.32174 1.75757,1.23546 -2.89371,-3.18532 -21.31022,-20.25414 l -14.33731,-13.28814 36.43331,-0.36431 c 20.03833,-0.20038 42.29094,-0.45143 49.45026,-0.5579 l 13.01695,-0.19359 2.8848,-1.58252 c 3.5946,-1.97189 5.79569,-4.44387 7.71621,-8.66582 1.41278,-3.10577 1.50959,-3.83936 1.82318,-13.8158 0.18215,-5.79474 0.43705,-10.64174 0.56644,-10.77113 0.20427,-0.20428 14.69148,12.92502 53.13485,48.15446 5.37107,4.92203 9.57994,8.64822 9.35306,8.2804 -0.22689,-0.36781 -14.39935,-13.48716 -31.49436,-29.15411 l -31.08185,-28.48535 -0.34561,-3.65946 c -0.19009,-2.01269 -0.34735,-21.80833 -0.34947,-43.9903 l -0.004,-40.33087 -1.6501,-3.0959 c -2.05964,-3.86429 -10.81447,-13.04035 -14.07871,-14.75611 l -2.44068,-1.28288 -50.44068,-0.33739 c -27.74237,-0.18557 -54.13573,-0.36862 -58.65189,-0.40678 l -8.21122,-0.0694 -35.99217,-33.22033 -35.99217,-33.220343 31.45762,-0.420372 c 17.3017,-0.231205 56.71993,-0.353239 87.59606,-0.271187 l 56.13844,0.149186 73.89546,67.702716 73.89547,67.70272 0.0767,6.33118 c 0.0422,3.48215 0.2421,19.75491 0.44422,36.16169 0.22624,18.36474 0.34737,-7.69382 0.31514,-67.79661 -0.0444,-82.69933 -0.1696,-97.944459 -0.81914,-99.702503 -0.98429,-2.664059 -4.48285,-6.634185 -7.57331,-8.594098 -3.56329,-2.259768 -3.92965,-1.865386 -0.53194,0.572611 3.29374,2.363387 6.13174,5.650517 7.30705,8.463416 0.67332,1.611495 0.76616,10.597344 0.64799,62.717574 l -0.13793,60.83659 -62.64407,-57.39503 c -66.76469,-61.17037 -82.73962,-75.896397 -83.2779,-76.767362 -0.22624,-0.366056 21.63428,-0.464046 66.28373,-0.297116 36.64171,0.136991 64.79078,0.05633 62.55349,-0.179242 -5.50804,-0.579965 -397.802197,-0.628157 -400.542369,-0.04921 -1.244206,0.26288 18.232758,0.464063 45.667089,0.471709 l 47.83657,0.01333 36.22128,33.259741 c 33.19714,30.48288 36.08625,33.27175 34.6041,33.40353 -0.88945,0.0791 -11.64206,0.33582 -23.8947,0.57054 l -22.27751,0.42677 -2.43165,1.42503 c -2.93912,1.72245 -6.49676,5.48016 -8.02563,8.477 -1.05613,2.07018 -1.12767,3.16766 -1.19674,18.359 -0.0404,8.88646 -0.22345,21.00059 -0.40678,26.92029 l -0.33332,10.76308 -60.658807,-55.50885 -60.658807,-55.50885 0.188469,-5.69491 c 0.165394,-4.997627 0.364922,-5.993748 1.629595,-8.135589 1.605681,-2.719369 3.978556,-5.101747 7.218677,-7.24759 1.18789,-0.786707 1.900921,-1.430377 1.584512,-1.430377 -1.068764,0 -5.643121,3.350655 -7.271739,5.326451 -0.889612,1.079253 -2.168347,3.068077 -2.841635,4.419609 l -1.22416,2.45733 -0.142099,108.816526 c -0.0961,73.58795 0.0383,109.23258 0.415111,110.10169 0.387111,0.89285 0.457338,-4.71669 0.230048,-18.37585 -0.179938,-10.81356 -0.182693,-19.66101 -0.0061,-19.66101 0.176571,0 7.459027,6.5345 16.183236,14.52112 37.89479,34.69098 42.241431,38.63019 42.601203,38.60794 0.208803,-0.0129 -0.88583,-1.17224 -2.432515,-2.57627 z m 338.967553,2.20057 c -1.55521,-0.10918 -4.23996,-0.11018 -5.9661,-0.002 -1.72615,0.10796 -0.4537,0.1973 2.82765,0.19852 3.28136,10e-4 4.69366,-0.0871 3.13845,-0.19629 z M 50.794895,329.83618 c -3.066387,-0.88852 -6.899325,-4.01276 -9.279186,-7.56349 -1.267797,-1.89154 -2.305085,-3.17373 -2.305085,-2.84932 0,1.12623 4.078334,6.63536 5.966102,8.05918 2.358684,1.77901 4.815217,2.91133 6.237288,2.87503 0.678664,-0.0173 0.446893,-0.21251 -0.619119,-0.5214 z m 413.100225,-0.49653 c 3.99349,-2.03733 7.13507,-5.44725 8.62218,-9.35864 0.87436,-2.29974 0.3116,-1.76685 -1.47242,1.39426 -1.81333,3.21303 -4.4814,5.78401 -7.71374,7.43303 -1.18493,0.60451 -2.15441,1.21617 -2.15441,1.35926 0,0.45097 0.52498,0.29109 2.71839,-0.82791 z"
     id="path85"
     inkscape:connector-curvature="0"
     transform="scale(0.75)" />
  <path
     style="fill:#000000;stroke-width:0.54237288"
     d="m 26.712307,350.11444 c -0.969776,-1.10452 -2.520483,-3.60622 -3.446016,-5.55933 L 21.583505,341.004 V 210.29213 79.580268 l 1.251206,-2.693246 c 0.688163,-1.481285 2.141705,-3.860946 3.230094,-5.288135 l 1.978888,-2.59489 H 255.96055 483.87741 l 1.68511,2.033898 c 0.9268,1.118644 2.34796,3.376271 3.15812,5.016949 l 1.47304,2.983051 V 210.29213 341.54637 l -1.48285,3.16523 c -0.81557,1.74088 -2.23947,4.12054 -3.16422,5.28813 l -1.68137,2.12291 H 256.17039 28.475537 Z m 35.130288,-19.54016 c -1.125298,-0.11741 -2.833773,-0.11544 -3.796611,0.004 -0.962838,0.11982 -0.04214,0.21588 2.045996,0.21348 2.088135,-0.002 2.875912,-0.10044 1.750615,-0.21785 z m 371.543845,0.0231 c -0.51856,-0.13575 -1.49483,-0.14067 -2.16949,-0.0109 -0.67466,0.12973 -0.25039,0.2408 0.94283,0.24682 1.19322,0.006 1.74522,-0.10013 1.22666,-0.23588 z M 49.64786,329.35605 c -3.458127,-1.56967 -5.780388,-3.53995 -8.040968,-6.82221 -2.284613,-3.31716 -2.850953,-3.77897 -1.550634,-1.26443 2.0183,3.90297 8.305461,9.07554 11.086569,9.12115 0.447458,0.007 -0.225278,-0.45819 -1.494967,-1.03451 z m 46.181611,-0.44189 C 94.902041,328.10594 81.661363,315.9896 66.405742,301.98896 L 38.668251,276.53325 v -84.26996 c 0,-82.12994 0.02569,-84.25196 1.011578,-83.56123 0.556368,0.38979 22.086583,19.99007 47.844926,43.55617 25.758345,23.56611 52.864605,48.33899 60.236155,55.05085 l 13.40281,12.20339 0.0571,26.0339 c 0.0677,30.82863 0.25278,32.93767 3.23797,36.89153 2.16451,2.86686 8.7278,9.05685 12.29182,11.59269 l 1.94235,1.382 18.52999,0.37633 c 10.1915,0.20699 25.11983,0.40954 33.17406,0.45011 l 14.64407,0.0738 17.35593,16.06229 c 9.54577,8.83427 16.37967,15.03193 15.18645,13.77259 -1.19322,-1.25934 -8.81847,-8.43863 -16.945,-15.95398 l -14.7755,-13.66428 14.50432,-0.13891 c 7.97737,-0.0764 30.12465,-0.33504 49.21618,-0.57475 33.5462,-0.42122 34.79654,-0.47391 37.23344,-1.56912 3.37822,-1.51826 6.77209,-5.01988 8.48619,-8.75561 1.29639,-2.82536 1.44008,-3.90291 1.84995,-13.87255 0.24441,-5.94509 0.55451,-10.91937 0.68909,-11.05396 0.13459,-0.13459 5.62298,4.68143 12.19641,10.70226 6.57343,6.02083 11.9517,10.82828 11.9517,10.68322 0,-0.14506 -5.46011,-5.27879 -12.13357,-11.40828 -9.59922,-8.81678 -12.20479,-11.50068 -12.47458,-12.84961 -0.18755,-0.93778 -0.34101,-20.78963 -0.34101,-44.11522 v -42.41015 l -2.0339,-3.34229 c -2.58193,-4.24287 -10.02368,-11.97381 -13.48327,-14.00726 l -2.65232,-1.55896 -51.79661,-0.3394 c -28.48813,-0.18666 -54.89448,-0.36972 -58.68076,-0.40678 l -6.88414,-0.0674 -35.49112,-32.7595 C 166.4989,100.66744 150.38645,85.696797 150.21357,85.417077 c -0.49526,-0.801362 37.30311,-1.226639 109.02285,-1.226639 h 65.27177 l 3.11393,2.850839 c 95.00142,86.974883 144.41581,132.325843 144.72201,132.821283 0.21298,0.3446 0.55241,11.02376 0.75429,23.73145 0.24627,15.50246 0.38195,-1.61215 0.41234,-52.01374 0.0249,-41.31526 -0.11886,-79.87875 -0.31948,-85.69666 -0.35092,-10.176638 -0.42,-10.672276 -1.82066,-13.062314 -1.66783,-2.845931 -4.96784,-6.005242 -7.58522,-7.261809 l -1.79511,-0.861808 1.8983,1.485724 c 3.53562,2.767178 6.97513,6.721534 7.83995,9.013463 0.77094,2.043153 0.84558,8.630224 0.71389,63.003424 l -0.14706,60.72172 -68.61017,-62.87666 C 365.94961,121.46318 333.00045,91.131156 330.46486,88.64084 l -4.61017,-4.527846 60.74576,0.178164 c 33.41017,0.09799 55.25424,0.02487 48.54238,-0.162476 -17.23346,-0.48105 -359.987013,-0.442062 -368.542376,0.04192 -4.046051,0.228888 11.855957,0.415634 37.314566,0.438206 l 44.36541,0.03933 6.07527,5.629864 c 3.34139,3.096425 19.60207,18.050608 36.13483,33.231528 16.53276,15.1809 29.83446,27.67541 29.55932,27.76556 -0.27513,0.0901 -10.99516,0.36455 -23.82228,0.60977 -26.42061,0.50509 -24.89255,0.23939 -29.82384,5.18586 -5.14492,5.16075 -5.14907,5.18045 -5.2269,24.78248 -0.0372,9.37701 -0.22029,21.41645 -0.40678,26.75432 l -0.33909,9.70521 -60.665841,-55.52647 -60.665845,-55.52648 0.195506,-5.70416 c 0.171464,-5.002718 0.373688,-6.008139 1.644476,-8.176044 1.30427,-2.225022 4.017542,-4.994195 7.57293,-7.728953 1.229529,-0.945738 1.210471,-0.945738 -0.537702,0 -3.275078,1.771774 -5.828005,4.370138 -7.717167,7.854516 L 38.397065,96.9362 38.257417,202.15654 c -0.07868,59.28117 0.07163,106.99634 0.344274,109.28814 0.314089,2.64019 0.379621,-2.5736 0.186729,-14.85615 -0.266992,-17.00082 -0.211669,-18.87483 0.544386,-18.44068 0.462868,0.2658 10.326428,9.1649 21.91902,19.77579 31.532661,28.86237 35.563061,32.50611 35.92887,32.48204 0.18426,-0.0122 -0.423794,-0.6833 -1.351225,-1.49152 z m 369.925709,-0.74762 c 2.69195,-1.78308 5.84298,-5.5927 6.76544,-8.17949 0.77841,-2.18285 0.23567,-1.82022 -1.05128,0.7024 -1.54448,3.02743 -4.66362,6.35728 -7.13697,7.61908 -1.99298,1.01675 -2.56893,1.57682 -1.62151,1.57682 0.24716,0 1.61711,-0.77346 3.04432,-1.71881 z m -47.42591,-13.11238 c 0,-0.10292 -0.54915,-0.65207 -1.22034,-1.22034 l -1.22034,-1.03321 1.03322,1.22034 c 0.97096,1.14681 1.40746,1.46725 1.40746,1.03321 z m -6.50848,-6.05016 c -1.31744,-1.34238 -2.51738,-2.44068 -2.66653,-2.44068 -0.14915,0 0.80672,1.0983 2.12416,2.44068 1.31744,1.34237 2.51738,2.44068 2.66653,2.44068 0.14916,0 -0.80672,-1.09831 -2.12416,-2.44068 z m -4.33898,-3.68141 c 0,-0.0858 -1.28136,-1.36715 -2.84746,-2.84746 l -2.84745,-2.69147 2.69147,2.84746 c 2.50097,2.6459 3.00344,3.09619 3.00344,2.69147 z m -5.9661,-5.42187 c 0,-0.0848 -1.40339,-1.48815 -3.11865,-3.11864 l -3.11864,-2.96452 2.96452,3.11864 c 2.75414,2.89732 3.27277,3.3671 3.27277,2.96452 z m -6.50848,-5.9661 c 0,-0.0848 -1.40339,-1.48816 -3.11864,-3.11864 l -3.11864,-2.96453 2.96452,3.11865 c 2.75414,2.89732 3.27276,3.3671 3.27276,2.96452 z m -6.50847,-5.9661 c 0,-0.0848 -1.40339,-1.48816 -3.11864,-3.11864 l -3.11865,-2.96453 2.96453,3.11865 c 2.75413,2.89732 3.27276,3.3671 3.27276,2.96452 z"
     id="path87"
     inkscape:connector-curvature="0"
     transform="scale(0.75)" />
  <path
     style="fill:#000000;stroke-width:0.54237288"
     d="m 26.788189,350.20086 c -0.928043,-1.05698 -2.47875,-3.43665 -3.446017,-5.28814 l -1.758667,-3.36635 V 210.56332 79.580268 l 1.213641,-2.630074 c 0.667502,-1.44654 2.091679,-3.826202 3.164837,-5.288135 l 1.951197,-2.658062 h 227.98211 227.98212 l 1.68603,2.033898 c 0.92732,1.118644 2.34848,3.376271 3.15813,5.016949 l 1.47211,2.983051 V 210.56332 342.08874 l -1.56239,2.98305 c -0.85932,1.64068 -2.28321,3.89831 -3.16422,5.01695 l -1.60183,2.0339 H 256.17039 28.475537 Z M 47.88859,328.48023 c -3.218904,-1.83592 -4.125771,-2.68576 -6.306296,-5.90967 -1.006114,-1.48754 -1.828068,-2.46382 -1.826565,-2.16949 0.01017,1.99177 7.897499,9.49957 9.956869,9.47775 0.339169,-0.004 -0.481635,-0.63296 -1.824008,-1.39859 z m 417.94113,-0.49857 c 2.58447,-1.78 5.57065,-5.27981 6.35855,-7.45224 0.55024,-1.51714 -0.0597,-1.09709 -0.97386,0.67064 -1.29738,2.50886 -4.07144,5.42755 -6.76982,7.12278 -1.34987,0.84805 -2.21235,1.54654 -1.91663,1.55221 0.29572,0.006 1.78152,-0.84636 3.30176,-1.89339 z m -371.297062,0.12059 c 0,-0.0858 -1.281356,-1.36715 -2.847458,-2.84745 l -2.847457,-2.69148 2.691476,2.84746 c 2.500968,2.6459 3.003439,3.09619 3.003439,2.69147 z m 182.237292,-2.71699 c 0,-0.0886 -1.03729,-1.1259 -2.30509,-2.30509 l -2.30508,-2.14397 2.14397,2.30509 c 1.99387,2.1437 2.4662,2.55432 2.4662,2.14397 z M 88.566556,322.59045 c 0,-0.13423 -11.226267,-10.53704 -24.947261,-23.11736 l -24.947262,-22.87331 -0.139396,-75.45891 -0.139396,-75.45891 -0.01111,85.9661 c -0.0061,47.28136 0.06127,81.51187 0.14974,76.0678 0.08847,-5.44407 0.338394,-9.8858 0.555394,-9.8705 0.216999,0.0153 11.377595,10.1273 24.801324,22.47115 13.423729,12.34385 24.467797,22.46015 24.542373,22.48067 0.07458,0.0205 0.135593,-0.0725 0.135594,-0.20673 z m 182.237284,-2.62193 c 0,-0.0848 -1.40339,-1.48816 -3.11864,-3.11864 l -3.11864,-2.96453 2.96452,3.11865 c 2.75414,2.89732 3.27276,3.3671 3.27276,2.96452 z M 263.753,313.4616 c 0,-0.0839 -1.52543,-1.60934 -3.38983,-3.38983 l -3.38983,-3.23726 3.23726,3.38983 c 3.00713,3.14886 3.5424,3.63802 3.5424,3.23726 z m 149.15254,-3.27138 c 0,-0.0933 -0.79322,-0.88657 -1.76271,-1.76272 l -1.76271,-1.59299 1.59299,1.76271 c 1.4849,1.64309 1.93243,2.01201 1.93243,1.593 z m -161.62712,-8.53496 -5.69491,-5.39608 14.64406,-0.0354 c 8.05424,-0.0195 30.26441,-0.22975 49.35594,-0.46726 29.7484,-0.37008 35.00105,-0.55431 36.73428,-1.2885 3.03454,-1.28539 7.26736,-5.54304 8.86213,-8.91409 1.29558,-2.73865 1.44948,-3.84928 1.92194,-13.86983 0.28246,-5.99103 0.63354,-11.01275 0.78017,-11.15938 0.14662,-0.14663 1.4208,0.81584 2.83149,2.13882 2.19188,2.05558 2.13107,1.94937 -0.41815,-0.73032 l -2.98305,-3.13574 -0.27119,-44.04927 -0.27118,-44.04928 -1.59362,-2.66253 c -2.1585,-3.60632 -10.76521,-12.52154 -13.82455,-14.3201 l -2.48014,-1.45805 -58.71592,-0.29087 -58.71592,-0.29087 -3.65682,-3.50574 -3.65681,-3.50574 3.23711,3.38983 3.23711,3.38983 -2.96606,0.0365 c -22.69834,0.27939 -44.44631,1.01796 -45.79613,1.55526 -2.57723,1.02586 -6.17676,4.27365 -8.32932,7.5154 l -1.99317,3.00169 -0.3858,27.09973 c -0.21218,14.90485 -0.49833,27.21226 -0.63588,27.34981 -0.13755,0.13755 -3.19784,-2.4806 -6.80065,-5.81811 -3.6028,-3.33751 -6.55055,-5.94207 -6.55055,-5.78792 0,0.15416 3.11186,3.14966 6.91525,6.65667 l 6.91526,6.37639 0.30133,28.51577 c 0.33189,31.40775 0.27209,30.85403 3.81019,35.28185 2.2274,2.78753 10.42373,10.07844 12.70204,11.2989 1.40721,0.75382 6.07592,0.94806 34.54537,1.43721 l 32.91826,0.56559 5.59022,5.2594 c 3.07462,2.89267 5.71225,5.2601 5.8614,5.26095 0.14915,10e-4 -2.29153,-2.42667 -5.42373,-5.39451 z m 155.66102,3.11123 c 0,-0.0933 -0.79322,-0.88657 -1.76271,-1.76272 l -1.76272,-1.59299 1.593,1.76271 c 1.4849,1.6431 1.93243,2.01201 1.93243,1.593 z m -6.50848,-5.96611 c 0,-0.0933 -0.79322,-0.88656 -1.76271,-1.76271 l -1.76271,-1.59299 1.593,1.76271 c 1.4849,1.64309 1.93242,2.01201 1.93242,1.59299 z m -5.9661,-5.4188 c 0,-0.0906 -0.91525,-1.00589 -2.0339,-2.0339 l -2.0339,-1.86911 1.86911,2.0339 c 1.73972,1.89311 2.19869,2.28328 2.19869,1.86911 z m -6.50847,-5.9661 c 0,-0.0906 -0.91526,-1.00589 -2.0339,-2.0339 l -2.0339,-1.86911 1.86911,2.0339 c 1.73972,1.89311 2.19869,2.28328 2.19869,1.86911 z m -7.59322,-7.05577 c 0,-0.0933 -0.79322,-0.88657 -1.76272,-1.76271 l -1.76271,-1.593 1.593,1.76271 c 1.4849,1.6431 1.93243,2.01201 1.93243,1.593 z m -7.59322,-7.15232 c -1.31744,-1.34238 -2.51738,-2.44068 -2.66654,-2.44068 -0.14915,0 0.80672,1.0983 2.12416,2.44068 1.31744,1.34237 2.51738,2.44067 2.66654,2.44067 0.14915,0 -0.80672,-1.0983 -2.12416,-2.44067 z m -3.79661,-3.13903 c 0,-0.0858 -1.28136,-1.36715 -2.84746,-2.84746 l -2.84746,-2.69148 2.69148,2.84746 c 2.50097,2.6459 3.00344,3.09619 3.00344,2.69148 z M 473.18691,115.91925 c -0.35973,-15.23868 -0.46511,-6.97432 -0.53424,41.89831 -0.0473,33.48474 -0.21633,60.88135 -0.37548,60.88135 -0.15915,0 -25.11508,-22.7536 -55.45763,-50.56355 C 340.3286,98.028841 334.51799,92.683959 330.04424,88.315127 l -3.94606,-3.853503 33.77656,-0.277352 C 378.45185,84.031728 329.82757,83.882165 251.82079,83.85191 173.81401,83.82166 102.05808,83.980332 92.363166,84.204526 79.016872,84.513158 83.609528,84.572571 111.2743,84.449172 l 36.53825,-0.16298 8.99583,8.223309 c 4.94771,4.52282 19.8072,18.171099 33.02108,30.329499 13.21387,12.15841 24.02523,21.99157 24.02523,21.85149 0,-0.14009 -13.97288,-13.16367 -31.05085,-28.9413 -17.07796,-15.777621 -31.48008,-29.171327 -32.00469,-29.763788 -0.94862,-1.071289 -0.85956,-1.079172 16.22404,-1.436083 9.44784,-0.197385 48.80589,-0.34655 87.46232,-0.331478 l 70.28444,0.0274 73.81173,67.686549 73.81173,67.68654 0.35776,4.23229 c 0.19677,2.32776 0.41761,8.16157 0.49077,12.96402 0.0731,4.80245 0.19152,-16.16319 0.26305,-46.5903 0.0715,-30.42712 -0.0716,-63.86441 -0.31808,-74.30509 z M 146.33863,205.69711 C 146.15941,205.40714 121.9823,183.1734 92.611703,156.28881 L 39.210624,107.40774 v -5.26487 c 0,-4.568214 0.184618,-5.635353 1.395218,-8.064711 0.774309,-1.553835 2.765617,-4.054312 4.474577,-5.618709 1.693646,-1.550379 2.511731,-2.516509 1.817964,-2.146955 -2.163676,1.152541 -5.421001,4.772904 -6.873845,7.639955 -1.267919,2.502118 -1.378855,3.245695 -1.238862,8.3038 l 0.153761,5.55559 34.169492,31.21883 c 18.79322,17.17036 42.955931,39.29729 53.694911,49.17096 10.73899,9.87367 19.60085,17.96801 19.69303,17.98742 0.0922,0.0194 0.021,-0.20196 -0.15824,-0.49194 z M 471.80545,93.512207 c -1.26231,-2.441027 -3.45653,-4.847186 -6.04312,-6.626804 -3.23952,-2.228847 -3.65504,-2.022973 -0.60989,0.302173 2.87252,2.193334 6.18569,6.308598 6.72504,8.353124 0.26137,0.990791 0.42417,1.130796 0.56136,0.482758 0.10628,-0.502008 -0.17875,-1.632071 -0.63339,-2.511251 z"
     id="path89"
     inkscape:connector-curvature="0"
     transform="scale(0.75)" />
  <path
     style="fill:#000000;stroke-width:0.54237288"
     d="m 26.714484,350.11691 c -0.968579,-1.10315 -2.582287,-3.73501 -3.586017,-5.84858 l -1.824963,-3.84285 0.14,-130.42261 0.140001,-130.422602 1.422804,-2.983051 c 0.782542,-1.640678 2.187463,-4.020339 3.122046,-5.288135 l 1.699242,-2.305085 h 228.024913 228.0249 l 1.69217,2.033898 c 0.93069,1.118644 2.41484,3.537323 3.2981,5.374842 l 1.60593,3.340944 -0.13997,131.167529 -0.13996,131.16753 -1.56239,2.98305 c -0.85932,1.64068 -2.28321,3.89831 -3.16422,5.01695 l -1.60183,2.0339 H 256.17039 28.475537 Z m 22.801225,-20.44917 c 0,-0.11969 -0.854238,-0.72162 -1.898305,-1.33764 -1.044068,-0.61602 -1.898306,-1.00264 -1.898306,-0.85916 0,0.22862 3.306006,2.40707 3.661017,2.41238 0.07458,10e-4 0.135594,-0.0959 0.135594,-0.21558 z M 467.7558,326.24141 c 1.50479,-1.40756 3.08425,-3.29909 3.5099,-4.20339 0.42565,-0.9043 0.46535,-1.15606 0.0882,-0.55945 -0.37712,0.59661 -2.08009,2.48814 -3.78438,4.20339 -3.73928,3.76335 -3.62048,4.1202 0.18625,0.55945 z m -373.765515,1.30474 c 0,-0.0933 -0.79322,-0.88657 -1.762712,-1.76271 l -1.762712,-1.593 1.592998,1.76271 c 1.484898,1.6431 1.932426,2.01201 1.932426,1.593 z m -49.355932,-1.10216 c 0,-0.10292 -0.549153,-0.65207 -1.220339,-1.22034 l -1.220339,-1.03321 1.033214,1.22034 c 0.970965,1.14681 1.407464,1.46725 1.407464,1.03321 z m 231.593217,-1.64477 c 0,-0.11262 -0.42712,-0.53974 -0.94915,-0.94915 -0.86024,-0.67465 -0.87942,-0.65546 -0.20478,0.20477 0.70854,0.90346 1.15393,1.19077 1.15393,0.74438 z M 41.380115,322.29213 c -0.637236,-0.89491 -1.280644,-1.62712 -1.429796,-1.62712 -0.149153,0 0.250187,0.73221 0.887424,1.62712 0.637236,0.89492 1.280644,1.62712 1.429796,1.62712 0.149153,0 -0.250188,-0.7322 -0.887424,-1.62712 z m 46.644068,-0.16111 c 0,-0.0886 -1.037288,-1.1259 -2.305084,-2.30508 l -2.305085,-2.14398 2.143973,2.30509 c 1.993871,2.14371 2.466196,2.55432 2.466196,2.14397 z m 182.237287,-2.71554 c 0,-0.0906 -0.91525,-1.00589 -2.0339,-2.0339 l -2.0339,-1.86911 1.86911,2.0339 c 1.73972,1.89311 2.19869,2.28328 2.19869,1.86911 z M 82.058082,316.71242 c 0,-0.0858 -1.281356,-1.36715 -2.847458,-2.84745 l -2.847458,-2.69148 2.691477,2.84746 c 2.500968,2.6459 3.003439,3.09619 3.003439,2.69147 z m 181.152538,-3.80174 c 0,-0.0886 -1.03728,-1.1259 -2.30508,-2.30508 l -2.30509,-2.14398 2.14398,2.30509 c 1.99387,2.14371 2.46619,2.55432 2.46619,2.14397 z M 75.549607,310.74632 c 0,-0.0858 -1.281356,-1.36715 -2.847458,-2.84746 l -2.847457,-2.69147 2.691475,2.84745 c 2.500969,2.64591 3.00344,3.09619 3.00344,2.69148 z m 177.898303,-7.16605 c -1.31744,-1.34237 -2.51738,-2.44068 -2.66653,-2.44068 -0.14915,0 0.80672,1.09831 2.12416,2.44068 1.31744,1.34237 2.51738,2.44068 2.66653,2.44068 0.14915,0 -0.80672,-1.09831 -2.12416,-2.44068 z m -184.406778,1.19995 c 0,-0.0858 -1.281356,-1.36715 -2.847457,-2.84746 l -2.847458,-2.69147 2.691476,2.84745 c 2.500967,2.64591 3.003439,3.09619 3.003439,2.69148 z m 178.440678,-6.62368 -1.83991,-1.89831 12.17419,-0.0202 c 6.69581,-0.0111 28.80272,-0.23588 49.12647,-0.49947 36.29401,-0.47073 37.00151,-0.50046 39.71636,-1.66835 3.35258,-1.44225 6.74995,-4.99078 8.55686,-8.93759 1.19272,-2.60524 1.38488,-4.02472 1.84118,-13.60058 0.28021,-5.88047 0.63789,-10.82018 0.79485,-10.97714 0.15696,-0.15696 1.07606,0.42669 2.04244,1.29701 0.99026,0.89182 0.75109,0.51055 -0.54803,-0.87364 l -2.30509,-2.45601 v -43.692 -43.69199 l -2.23837,-3.47392 c -2.57844,-4.00171 -11.2351,-12.87415 -14.03281,-14.38262 -1.81786,-0.98015 -4.38543,-1.03502 -60.58718,-1.29471 l -58.68888,-0.27119 -2.59878,-2.44068 -2.59878,-2.44067 2.14349,2.30508 2.1435,2.30508 -1.6016,0.023 c -0.88088,0.0126 -11.4397,0.23507 -23.46404,0.49434 l -21.86243,0.4714 -2.93716,1.43702 c -3.10479,1.51903 -6.09144,4.55442 -8.01968,8.15056 -1.12069,2.09008 -1.17638,3.03307 -1.52155,25.76271 -0.19705,12.97627 -0.38448,25.13305 -0.41649,27.01506 -0.0438,2.57603 -0.2258,3.32386 -0.73619,3.02541 -0.37288,-0.21803 -0.27506,0.0727 0.21737,0.64597 0.8001,0.9315 0.92299,4.07106 1.15536,29.51695 0.17504,19.16796 0.46304,29.12549 0.88117,30.46612 0.34164,1.09535 1.59178,3.16992 2.77809,4.61017 2.59878,3.15503 10.47386,10.22189 12.71145,11.40685 1.37512,0.72821 6.36025,0.92883 34.44068,1.386 l 32.83283,0.53454 1.88927,1.83206 c 2.48769,2.41237 2.90516,2.36221 0.55141,-0.0663 z m -184.406779,1.20181 c 0,-0.0848 -1.40339,-1.48816 -3.118644,-3.11864 l -3.118644,-2.96453 2.964523,3.11865 c 2.754136,2.89732 3.272765,3.3671 3.272765,2.96452 z m -9.787635,-9.21985 c -7.547734,-7.16814 -14.616935,-13.50452 -14.568831,-13.05857 0.02767,0.25654 3.993775,4.05124 8.81356,8.43267 8.920404,8.1091 12.190539,10.73753 5.755271,4.6259 z M 379.82079,279.78227 c 0,-0.11262 -0.42711,-0.53974 -0.94915,-0.94915 -0.86023,-0.67464 -0.87942,-0.65546 -0.20478,0.20478 0.70854,0.90345 1.15393,1.19076 1.15393,0.74437 z m -5.42373,-4.84629 c 0,-0.0933 -0.79322,-0.88656 -1.76271,-1.76271 l -1.76271,-1.593 1.593,1.76271 c 1.4849,1.6431 1.93242,2.01201 1.93242,1.593 z M 38.53178,239.95135 c -0.08808,-5.57359 -0.160013,-0.85922 -0.159852,10.47638 1.6e-4,11.33559 0.07223,15.8958 0.160143,10.13379 0.08792,-5.76201 0.08779,-15.03658 -2.91e-4,-20.61017 z m 329.89918,29.5609 c 0,-0.0933 -0.79322,-0.88656 -1.76271,-1.76271 l -1.76271,-1.593 1.593,1.76271 c 1.4849,1.6431 1.93242,2.01201 1.93242,1.593 z M 473.18612,128.39383 c -0.36316,-14.07017 -0.46421,-7.16493 -0.53377,36.47457 -0.0472,29.60678 -0.26117,53.83051 -0.47552,53.83051 -0.21435,0 -1.62644,-1.15932 -3.13797,-2.57627 -2.11171,-1.97956 -2.02145,-1.84185 0.38972,0.59456 2.52312,2.54954 3.13798,3.51485 3.13798,4.92656 0,0.96564 0.18305,1.9388 0.40678,2.16257 0.57998,0.58008 0.74782,-74.68279 0.21278,-95.4125 z m -316.82295,86.23729 c -1.31744,-1.34238 -2.51738,-2.44068 -2.66654,-2.44068 -0.14915,0 0.80672,1.0983 2.12416,2.44068 1.31744,1.34237 2.51738,2.44067 2.66654,2.44067 0.14915,0 -0.80672,-1.0983 -2.12416,-2.44067 z m 309.15254,-1.51006 c 0,-0.0848 -1.40339,-1.48815 -3.11864,-3.11864 l -3.11865,-2.96452 2.96452,3.11864 c 2.75414,2.89732 3.27277,3.3671 3.27277,2.96452 z m -312.94915,-1.63411 c 0,-0.0886 -1.03729,-1.1259 -2.30509,-2.30508 l -2.30508,-2.14397 2.14397,2.30508 c 1.99387,2.14371 2.4662,2.55432 2.4662,2.14397 z m 306.44067,-4.33199 c 0,-0.0848 -1.40339,-1.48816 -3.11864,-3.11864 l -3.11864,-2.96453 2.96452,3.11865 c 2.75414,2.89732 3.27276,3.3671 3.27276,2.96452 z m -312.94915,-1.63411 c 0,-0.0886 -1.03729,-1.1259 -2.30508,-2.30508 l -2.30509,-2.14398 2.14398,2.30509 c 1.99387,2.14371 2.46619,2.55432 2.46619,2.14397 z m 306.44068,-4.33199 c 0,-0.0848 -1.40339,-1.48816 -3.11864,-3.11864 l -3.11865,-2.96453 2.96453,3.11865 c 2.75413,2.89731 3.27276,3.3671 3.27276,2.96452 z m -312.94915,-1.63411 c 0,-0.0886 -1.03729,-1.1259 -2.30509,-2.30509 l -2.30508,-2.14397 2.14397,2.30509 c 1.99387,2.1437 2.4662,2.55432 2.4662,2.14397 z m 306.44068,-4.33385 c 0,-0.0858 -1.28136,-1.36715 -2.84746,-2.84746 l -2.84746,-2.69148 2.69148,2.84746 c 2.50096,2.64591 3.00344,3.09619 3.00344,2.69148 z m -312.40678,-1.08475 c 0,-0.0858 -1.28136,-1.36715 -2.84746,-2.84746 l -2.84746,-2.69147 2.69148,2.84745 c 2.50096,2.64591 3.00344,3.09619 3.00344,2.69148 z m 305.8983,-4.88135 c 0,-0.0858 -1.28136,-1.36715 -2.84746,-2.84746 l -2.84745,-2.69148 2.69147,2.84746 c 2.50097,2.64591 3.00344,3.09619 3.00344,2.69148 z m -314.57627,-3.36945 c -1.31744,-1.34237 -2.51738,-2.44068 -2.66653,-2.44068 -0.14916,0 0.80672,1.09831 2.12416,2.44068 1.31744,1.34238 2.51738,2.44068 2.66653,2.44068 0.14915,0 -0.80672,-1.0983 -2.12416,-2.44068 z m -3.79661,-3.13903 c 0,-0.0858 -1.28136,-1.36715 -2.84746,-2.84746 l -2.84746,-2.69147 2.69148,2.84745 c 2.50097,2.64591 3.00344,3.09619 3.00344,2.69148 z m 309.15254,-2.2847 c -1.31744,-1.34237 -2.51738,-2.44067 -2.66653,-2.44067 -0.14915,0 0.80672,1.0983 2.12416,2.44067 1.31744,1.34238 2.51738,2.44068 2.66653,2.44068 0.14915,0 -0.80672,-1.0983 -2.12416,-2.44068 z m -315.66102,-3.6814 c 0,-0.0858 -1.28135,-1.36715 -2.84745,-2.84746 l -2.84746,-2.69147 2.69148,2.84745 c 2.50096,2.64591 3.00343,3.09619 3.00343,2.69148 z m 309.15255,-2.2847 c -1.31744,-1.34237 -2.51738,-2.44068 -2.66654,-2.44068 -0.14915,0 0.80672,1.09831 2.12416,2.44068 1.31744,1.34238 2.51738,2.44068 2.66654,2.44068 0.14915,0 -0.80672,-1.0983 -2.12416,-2.44068 z m -3.79661,-3.13903 c 0,-0.0858 -1.28136,-1.36715 -2.84746,-2.84746 l -2.84746,-2.69147 2.69148,2.84745 c 2.50097,2.64591 3.00344,3.09619 3.00344,2.69148 z m -311.86441,-0.54237 c 0,-0.0858 -1.28136,-1.36715 -2.84746,-2.84746 l -2.84746,-2.69148 2.69148,2.84746 c 2.50097,2.64591 3.00344,3.09619 3.00344,2.69148 z m 305.35593,-5.42373 c 0,-0.0858 -1.28135,-1.36715 -2.84746,-2.84746 l -2.84745,-2.69148 2.69147,2.84746 c 2.50097,2.64591 3.00344,3.09619 3.00344,2.69148 z m -311.8644,-0.54237 c 0,-0.0858 -1.28136,-1.36715 -2.847462,-2.84746 l -2.847458,-2.69148 2.691477,2.84746 c 2.500963,2.64591 3.003443,3.09619 3.003443,2.69148 z m 305.35593,-5.42373 c 0,-0.0858 -1.28136,-1.36715 -2.84746,-2.84746 l -2.84746,-2.69148 2.69148,2.84746 c 2.50097,2.64591 3.00344,3.09619 3.00344,2.69148 z M 95.075031,158.88191 c 0,-0.0858 -1.281356,-1.36714 -2.847458,-2.84745 l -2.847458,-2.69148 2.691477,2.84746 c 2.500968,2.6459 3.003439,3.09619 3.003439,2.69147 z m -5.966102,-5.42186 c 0,-0.0848 -1.40339,-1.48816 -3.118644,-3.11865 l -3.118644,-2.96452 2.964523,3.11864 c 2.754137,2.89732 3.272765,3.3671 3.272765,2.96453 z m 311.322031,-0.002 c 0,-0.0858 -1.28135,-1.36715 -2.84745,-2.84746 l -2.84746,-2.69171 2.69147,2.84746 c 2.50097,2.64591 3.00344,3.09619 3.00344,2.69148 z m -317.830506,-5.9661 c 0,-0.0858 -1.281355,-1.36715 -2.847457,-2.84746 l -2.847458,-2.69171 2.691477,2.84746 c 2.500968,2.6459 3.003438,3.09619 3.003438,2.69147 z m 311.322036,0 c 0,-0.0858 -1.28136,-1.36715 -2.84746,-2.84746 l -2.84746,-2.69171 2.69148,2.84746 c 2.50097,2.6459 3.00344,3.09619 3.00344,2.69147 z M 211.6852,142.59723 c 0,-0.0933 -0.79322,-0.88656 -1.76271,-1.76271 l -1.76271,-1.59323 1.59299,1.76271 c 1.4849,1.64309 1.93243,2.01201 1.93243,1.59299 z M 76.09198,141.52622 c 0,-0.0858 -1.281356,-1.36715 -2.847458,-2.84746 l -2.847457,-2.69171 2.691475,2.84746 c 2.500969,2.6459 3.00344,3.09619 3.00344,2.69147 z m 311.32203,0 c 0,-0.0858 -1.28135,-1.36715 -2.84745,-2.84746 l -2.84746,-2.69171 2.69148,2.84746 c 2.50096,2.6459 3.00343,3.09619 3.00343,2.69147 z m -183.8644,-6.62392 c -1.31744,-1.34237 -2.51738,-2.44068 -2.66654,-2.44068 -0.14915,0 0.80672,1.09831 2.12416,2.44068 1.31744,1.34237 2.51738,2.44068 2.66654,2.44068 0.14915,0 -0.80672,-1.09831 -2.12416,-2.44068 z m -133.423732,1.20181 c 0,-0.0848 -1.40339,-1.48815 -3.118644,-3.11864 l -3.118644,-2.96452 2.964523,3.11864 c 2.754136,2.89732 3.272765,3.3671 3.272765,2.96452 z m 310.779662,-0.54423 c 0,-0.0858 -1.28136,-1.36715 -2.84746,-2.84746 l -2.84746,-2.69147 2.69148,2.84745 c 2.50097,2.64591 3.00344,3.09619 3.00344,2.69148 z M 199.21062,131.2209 c 0,-0.0858 -1.28135,-1.36715 -2.84745,-2.84746 l -2.84746,-2.69148 2.69148,2.84746 c 2.50096,2.64591 3.00343,3.09619 3.00343,2.69148 z M 63.617404,130.13801 c 0,-0.0848 -1.40339,-1.48816 -3.118645,-3.11864 l -3.118644,-2.96453 2.964524,3.11865 c 2.754136,2.89732 3.272765,3.3671 3.272765,2.96452 z m 310.779656,-0.54237 c 0,-0.0848 -1.40338,-1.48816 -3.11864,-3.11865 l -3.11864,-2.96452 2.96452,3.11865 c 2.75414,2.89731 3.27276,3.3671 3.27276,2.96452 z m -181.69491,-4.33898 c 0,-0.0848 -1.40339,-1.48816 -3.11864,-3.11865 l -3.11865,-2.96452 2.96452,3.11864 c 2.75414,2.89732 3.27277,3.3671 3.27277,2.96453 z M 57.108929,124.17005 c 0,-0.0858 -1.281356,-1.36715 -2.847458,-2.84746 l -2.847457,-2.69147 2.691475,2.84745 c 2.500967,2.64591 3.00344,3.09619 3.00344,2.69148 z m 310.779661,-0.54237 c 0,-0.0858 -1.28136,-1.36715 -2.84746,-2.84746 l -2.84745,-2.69148 2.69147,2.84746 c 2.50097,2.64591 3.00344,3.09619 3.00344,2.69148 z M 186.19367,119.2921 c 0,-0.0839 -1.52542,-1.60933 -3.38983,-3.38983 l -3.38983,-3.23726 3.23726,3.38983 c 3.00714,3.14887 3.5424,3.63802 3.5424,3.23726 z m -140.898036,-6.24027 -6.11838,-5.81055 0.0286,-5.15254 c 0.0347,-6.252982 0.883458,-8.438277 4.998969,-12.870886 1.985062,-2.138009 2.28479,-2.612896 0.971906,-1.53988 -2.341874,1.914004 -4.142592,4.247334 -5.470646,7.088735 -0.789595,1.68936 -1.00526,3.36982 -0.974485,7.593221 l 0.03952,5.42373 6.050263,5.53347 c 3.327643,3.04341 6.172295,5.53613 6.321447,5.53936 0.149153,0.003 -2.482084,-2.60885 -5.847194,-5.80466 z m 316.084486,4.61161 c 0,-0.0848 -1.40339,-1.48816 -3.11865,-3.11865 l -3.11864,-2.96452 2.96452,3.11864 c 2.75414,2.89732 3.27277,3.3671 3.27277,2.96453 z M 175.88859,109.5355 c -1.93898,-1.85978 -8.64297,-8.14018 -14.89775,-13.956457 l -11.37232,-10.575046 10.55876,-0.28894 10.55877,-0.28894 -11.37477,-0.11784 -11.37476,-0.117839 1.08571,1.085712 c 2.47834,2.478342 29.82134,27.58593 30.0706,27.61219 0.14915,0.0157 -1.31526,-1.49306 -3.25424,-3.35284 z m 178.98305,2.16183 c 0,-0.0848 -1.40339,-1.48815 -3.11864,-3.11864 l -3.11865,-2.96452 2.96453,3.11864 c 2.75413,2.89732 3.27276,3.3671 3.27276,2.96452 z m -6.50847,-5.9661 c 0,-0.0848 -1.40339,-1.48815 -3.11865,-3.11864 l -3.11864,-2.964525 2.96452,3.118645 c 2.75414,2.89732 3.27277,3.3671 3.27277,2.96452 z M 333.99029,92.064105 c -4.47458,-4.303584 -8.37967,-7.831035 -8.67797,-7.83878 -0.29831,-0.0077 1.77627,2.112969 4.61017,4.712699 2.8339,2.599731 6.61695,6.12942 8.40678,7.843755 1.78983,1.714335 3.37627,3.114734 3.52542,3.111998 0.14915,-0.0027 -3.38983,-3.526088 -7.8644,-7.829672 z m 137.85787,1.812074 c -1.01766,-2.370366 -4.12391,-5.893173 -6.3221,-7.169894 -1.27825,-0.742414 -0.82357,-0.09492 1.71814,2.446796 1.90101,1.901005 3.78704,4.254665 4.19118,5.230357 0.40415,0.975692 0.83829,1.670505 0.96477,1.54403 0.12647,-0.126475 -0.12192,-1.049555 -0.55199,-2.051289 z M 277.17673,83.783732 c -18.71865,-0.0791 -49.34916,-0.0791 -68.0678,0 -18.71864,0.0791 -3.40339,0.143817 34.0339,0.143817 37.43729,0 52.75254,-0.06472 34.0339,-0.143817 z"
     id="path91"
     inkscape:connector-curvature="0"
     transform="scale(0.75)" />
  <path
     style="fill:#000000;stroke-width:0.54237288"
     d="m 26.596921,349.96043 c -1.017925,-1.18921 -2.625354,-3.75084 -3.572065,-5.69248 l -1.721293,-3.53027 0.139971,-130.8499 0.139971,-130.849885 1.441124,-2.711864 c 0.792618,-1.491526 2.197539,-3.749153 3.122046,-5.016949 l 1.680922,-2.305085 H 255.79052 483.75344 l 1.42774,1.491525 c 0.78525,0.820339 2.29532,3.156718 3.35571,5.191953 l 1.92797,3.700427 V 210.21125 341.0346 l -1.81511,3.78131 c -0.99831,2.07972 -2.48441,4.57453 -3.30245,5.54402 l -1.48734,1.76271 H 256.15383 28.447693 Z M 470.39707,323.53514 c 0,-0.40726 -0.48696,0.0233 -2.73454,2.41801 l -2.41801,2.57627 2.57627,-2.41801 c 1.41695,-1.32991 2.57628,-2.48923 2.57628,-2.57627 z m -376.949158,3.43357 c 0,-0.11262 -0.427119,-0.53974 -0.949152,-0.94915 -0.860236,-0.67464 -0.87942,-0.65546 -0.204779,0.20478 0.70854,0.90345 1.153931,1.19076 1.153931,0.74437 z m -5.966102,-5.40607 c 0,-0.10292 -0.549152,-0.65208 -1.220339,-1.22034 l -1.220339,-1.03322 1.033215,1.22034 c 0.970967,1.14682 1.407463,1.46725 1.407463,1.03322 z m 182.23729,-2.72952 c 0,-0.11263 -0.42712,-0.53975 -0.94915,-0.94916 -0.86024,-0.67464 -0.87942,-0.65545 -0.20478,0.20478 0.70854,0.90346 1.15393,1.19077 1.15393,0.74438 z m -188.203391,-2.6768 c 0,-0.0933 -0.793221,-0.88657 -1.762712,-1.76271 l -1.762712,-1.593 1.592998,1.76271 c 1.484898,1.6431 1.932426,2.01201 1.932426,1.593 z M 262.66825,312.3423 c 0,-0.10292 -0.54915,-0.65208 -1.22034,-1.22034 l -1.22034,-1.03322 1.03322,1.22034 c 0.97096,1.14682 1.40746,1.46725 1.40746,1.03322 z M 75.007234,310.19022 c 0,-0.0933 -0.79322,-0.88657 -1.762712,-1.76272 l -1.762712,-1.59299 1.592999,1.76271 c 1.484897,1.64309 1.932425,2.01201 1.932425,1.593 z m 180.067796,-4.87644 c 0,-0.0906 -0.91525,-1.00589 -2.0339,-2.03389 l -2.0339,-1.86911 1.86911,2.0339 c 1.73972,1.8931 2.19869,2.28327 2.19869,1.8691 z M 68.49876,304.22411 c 0,-0.0933 -0.793221,-0.88656 -1.762712,-1.76271 l -1.762712,-1.593 1.592998,1.76272 c 1.484898,1.64309 1.932426,2.01201 1.932426,1.59299 z m 178.77464,-6.27323 -1.4961,-1.5616 33.53022,-0.32699 c 18.44162,-0.17985 40.85306,-0.51696 49.8032,-0.74914 l 16.27299,-0.42214 2.54066,-1.48893 c 2.97064,-1.74091 5.93794,-5.17066 7.47005,-8.63424 0.88574,-2.00237 1.1842,-4.43191 1.6193,-13.18155 0.29338,-5.8997 0.65774,-10.85104 0.80968,-11.00298 0.15195,-0.15194 0.70928,0.0543 1.23852,0.45828 0.52925,0.404 0.29108,-0.002 -0.52926,-0.90154 l -1.49153,-1.63609 V 214.8681 171.23224 l -2.28574,-3.49823 c -2.92711,-4.47982 -11.44014,-13.08886 -14.25663,-14.41742 -2.07274,-0.97773 -4.87847,-1.03753 -62.91525,-1.34077 -33.41017,-0.17458 -70.43179,-0.13979 -82.27027,0.0773 -19.82872,0.36362 -21.71725,0.47997 -23.97091,1.47688 -2.9742,1.31563 -6.87752,5.11262 -8.53622,8.30369 -1.20593,2.32001 -1.2311,2.77248 -1.61516,29.04056 -0.21457,14.67611 -0.53835,26.92365 -0.7195,27.21676 -0.18115,0.29311 -0.0813,0.68623 0.22185,0.8736 0.35751,0.22095 0.55999,7.81059 0.57618,21.5968 0.0137,11.69087 0.22473,25.09926 0.46891,29.79641 0.40763,7.84141 0.55664,8.71056 1.82096,10.62107 1.5761,2.38165 8.09335,8.82476 11.97263,11.83645 l 2.62644,2.03904 8.22102,0.39677 c 4.52155,0.21822 19.61291,0.56267 33.53634,0.76544 l 25.31532,0.36869 1.49802,1.56358 c 0.8239,0.85998 1.62004,1.56359 1.76919,1.56359 0.14916,0 -0.40206,-0.70272 -1.22491,-1.56159 z m -184.740742,0.85443 c 0,-0.0906 -0.915254,-1.00589 -2.033899,-2.0339 l -2.033898,-1.86911 1.869108,2.0339 c 1.739724,1.89311 2.198689,2.28328 2.198689,1.86911 z m -7.050848,-6.5048 c 0,-0.0886 -1.037288,-1.1259 -2.305084,-2.30508 l -2.305085,-2.14398 2.143972,2.30509 c 1.993872,2.14371 2.466197,2.55432 2.466197,2.14397 z m -5.423728,-4.87622 c 0,-0.0858 -1.281356,-1.36715 -2.847458,-2.84746 l -2.847458,-2.69148 2.691476,2.84746 c 2.500967,2.64591 3.00344,3.09619 3.00344,2.69148 z m -8.135594,-7.70843 c -1.317439,-1.34237 -2.517378,-2.44068 -2.66653,-2.44068 -0.149153,0 0.806718,1.09831 2.124157,2.44068 1.31744,1.34237 2.517379,2.44068 2.666531,2.44068 0.149153,0 -0.806718,-1.09831 -2.124158,-2.44068 z M 473.46867,173.68196 c -0.0361,-12.97627 -0.20281,-27.25423 -0.37043,-31.72881 -0.16761,-4.47458 -0.35581,10.96271 -0.41822,34.30508 -0.0624,23.34238 -0.28316,42.44068 -0.49056,42.44068 -0.20741,0 -1.01193,-0.54915 -1.78783,-1.22034 -0.77589,-0.67118 -0.6062,-0.42383 0.3771,0.54968 1.04481,1.03439 1.82828,2.38685 1.88515,3.25423 0.31267,4.76846 0.86038,-27.62664 0.80479,-47.60052 z m -315.47838,42.68267 c 0,-0.0906 -0.91526,-1.00589 -2.0339,-2.0339 l -2.0339,-1.86911 1.86911,2.0339 c 1.73972,1.89311 2.19869,2.28328 2.19869,1.86911 z m 306.98305,-3.79661 c 0,-0.0906 -0.91526,-1.00589 -2.0339,-2.0339 l -2.0339,-1.86911 1.86911,2.0339 c 1.73972,1.89311 2.19869,2.28328 2.19869,1.86911 z m -312.94916,-1.64945 c 0,-0.10292 -0.54915,-0.65208 -1.22034,-1.22034 l -1.22033,-1.03322 1.03321,1.22034 c 0.97097,1.14682 1.40746,1.46725 1.40746,1.03322 z m 306.44068,-4.31665 c 0,-0.0906 -0.91525,-1.00589 -2.0339,-2.0339 l -2.0339,-1.86911 1.86911,2.0339 c 1.73972,1.89311 2.19869,2.28328 2.19869,1.86911 z m -312.94915,-1.64945 c 0,-0.10292 -0.54915,-0.65208 -1.22034,-1.22034 l -1.22034,-1.03322 1.03322,1.22034 c 0.97096,1.14682 1.40746,1.46725 1.40746,1.03322 z m 306.44068,-4.31665 c 0,-0.0906 -0.91526,-1.00589 -2.0339,-2.0339 l -2.0339,-1.86911 1.86911,2.0339 c 1.73972,1.89311 2.19869,2.28327 2.19869,1.86911 z m -312.94916,-1.63898 c 0,-0.0971 -0.67118,-0.76833 -1.49152,-1.49152 l -1.49153,-1.31488 1.31488,1.49152 c 1.22896,1.39406 1.66817,1.74026 1.66817,1.31488 z m 306.44068,-4.33205 c 0,-0.0933 -0.79322,-0.88656 -1.76271,-1.76271 l -1.76271,-1.593 1.593,1.76271 c 1.48489,1.6431 1.93242,2.01202 1.93242,1.593 z m -312.40678,-1.08474 c 0,-0.0933 -0.79322,-0.88657 -1.76271,-1.76272 l -1.76271,-1.59299 1.593,1.76271 c 1.48489,1.64309 1.93242,2.01201 1.93242,1.593 z m 305.35593,-5.43066 c 0,-0.0971 -0.67118,-0.76834 -1.49152,-1.49153 l -1.49153,-1.31488 1.31488,1.49153 c 1.22896,1.39405 1.66817,1.74025 1.66817,1.31488 z m -311.8644,-0.53052 c 0,-0.0906 -0.91526,-1.00589 -2.0339,-2.0339 l -2.0339,-1.86911 1.86911,2.0339 c 1.73972,1.89311 2.19869,2.28328 2.19869,1.86911 z m 305.35593,-5.42373 c 0,-0.0906 -0.91525,-1.00589 -2.0339,-2.0339 l -2.0339,-1.86911 1.86911,2.0339 c 1.73972,1.89311 2.19869,2.28328 2.19869,1.86911 z m -311.86441,-0.55423 c 0,-0.0971 -0.67118,-0.76834 -1.49152,-1.49152 l -1.49153,-1.31488 1.31488,1.49152 c 1.22896,1.39406 1.66817,1.74025 1.66817,1.31488 z m -5.9661,-5.4168 c 0,-0.0933 -0.79322,-0.88656 -1.76271,-1.76271 l -1.76271,-1.593 1.593,1.76272 c 1.48489,1.64309 1.93242,2.01201 1.93242,1.59299 z m 311.32204,0.005 c 0,-0.0906 -0.91526,-1.00589 -2.0339,-2.03389 l -2.0339,-1.86907 1.86911,2.0339 c 1.73972,1.89311 2.19869,2.28328 2.19869,1.86911 z m -5.96611,-5.42865 c 0,-0.0933 -0.79322,-0.88656 -1.76271,-1.76271 l -1.76271,-1.59296 1.593,1.76272 c 1.4849,1.64309 1.93242,2.01201 1.93242,1.59299 z m -311.8644,-0.54237 c 0,-0.0933 -0.79322,-0.88656 -1.76271,-1.76271 l -1.76272,-1.59296 1.593,1.76271 c 1.4849,1.6431 1.93243,2.01202 1.93243,1.593 z m 305.35593,-5.42373 c 0,-0.0933 -0.79322,-0.88656 -1.76271,-1.76271 l -1.76271,-1.59296 1.59299,1.76272 c 1.4849,1.64309 1.93243,2.01201 1.93243,1.59299 z m -311.86441,-0.54237 c 0,-0.0933 -0.79322,-0.88657 -1.762709,-1.76272 l -1.762712,-1.59295 1.592998,1.76271 c 1.484893,1.6431 1.932423,2.01202 1.932423,1.593 z m 305.35593,-5.42373 c 0,-0.0933 -0.79322,-0.88656 -1.76271,-1.76271 l -1.76271,-1.59296 1.593,1.76271 c 1.4849,1.6431 1.93242,2.01202 1.93242,1.593 z M 94.532658,158.32577 c 0,-0.0934 -0.793221,-0.88657 -1.762712,-1.76272 l -1.762712,-1.59295 1.592998,1.76271 c 1.484898,1.6431 1.932426,2.01201 1.932426,1.593 z m -5.966102,-5.41881 c 0,-0.0906 -0.915254,-1.00589 -2.033898,-2.0339 l -2.033898,-1.86906 1.869109,2.0339 c 1.73972,1.8931 2.198687,2.28327 2.198687,1.8691 z m 311.322034,-0.005 c 0,-0.0933 -0.79322,-0.88656 -1.76271,-1.76271 l -1.76271,-1.593 1.59299,1.76271 c 1.4849,1.6431 1.93243,2.01202 1.93243,1.593 z m -317.830508,-5.9661 c 0,-0.0933 -0.793221,-0.88656 -1.762712,-1.76271 l -1.762712,-1.593 1.592998,1.76271 c 1.484897,1.6431 1.932426,2.01201 1.932426,1.593 z m 311.322038,0 c 0,-0.0933 -0.79322,-0.88656 -1.76272,-1.76271 l -1.76271,-1.593 1.593,1.76271 c 1.4849,1.6431 1.93243,2.01201 1.93243,1.593 z m -317.830513,-5.9661 c 0,-0.0933 -0.79322,-0.88657 -1.762712,-1.76272 l -1.762712,-1.59299 1.592999,1.76271 c 1.484897,1.6431 1.932425,2.01201 1.932425,1.593 z m 311.322033,0 c 0,-0.0933 -0.79322,-0.88657 -1.76271,-1.76272 l -1.76271,-1.59299 1.593,1.76271 c 1.48489,1.6431 1.93242,2.01201 1.93242,1.593 z m -181.69491,-4.33899 c 0,-0.0933 -0.79322,-0.88656 -1.76272,-1.76271 l -1.76271,-1.593 1.593,1.76272 c 1.4849,1.64309 1.93243,2.01201 1.93243,1.59299 z m -135.593225,-1.0797 c 0,-0.0906 -0.915254,-1.00589 -2.033898,-2.0339 l -2.033898,-1.86911 1.869107,2.0339 c 1.739725,1.89311 2.198689,2.28328 2.198689,1.86911 z m 310.779665,-0.5473 c 0,-0.0933 -0.79322,-0.88656 -1.76272,-1.76271 l -1.76271,-1.593 1.593,1.76272 c 1.4849,1.64309 1.93243,2.01201 1.93243,1.59299 z m -181.69492,-4.33898 c 0,-0.0933 -0.79322,-0.88656 -1.76271,-1.76271 l -1.76271,-1.593 1.593,1.76271 c 1.48489,1.6431 1.93242,2.01202 1.93242,1.593 z M 63.075031,129.58497 c 0,-0.0906 -0.915255,-1.00589 -2.033899,-2.0339 l -2.033898,-1.86911 1.869108,2.0339 c 1.739724,1.89311 2.198689,2.28328 2.198689,1.86911 z M 373.85469,129.0426 c 0,-0.0906 -0.91525,-1.00589 -2.0339,-2.0339 l -2.03389,-1.86911 1.8691,2.0339 c 1.73973,1.89311 2.19869,2.28327 2.19869,1.86911 z m -181.69491,-4.33899 c 0,-0.0906 -0.91526,-1.00589 -2.0339,-2.0339 l -2.0339,-1.8691 1.86911,2.0339 c 1.73972,1.8931 2.19869,2.28327 2.19869,1.8691 z M 56.566556,123.61887 c 0,-0.0906 -0.915254,-1.00589 -2.033898,-2.0339 l -2.033899,-1.86911 1.869108,2.0339 c 1.739724,1.89311 2.198689,2.28328 2.198689,1.86911 z M 367.34622,123.0765 c 0,-0.0906 -0.91526,-1.00589 -2.0339,-2.0339 l -2.0339,-1.86911 1.86911,2.0339 c 1.73972,1.89311 2.19869,2.28327 2.19869,1.86911 z M 185.6513,118.74119 c 0,-0.0886 -1.03729,-1.1259 -2.30508,-2.30509 l -2.30509,-2.14397 2.14398,2.30509 c 1.99387,2.1437 2.46619,2.55432 2.46619,2.14397 z M 50.058082,117.65644 c 0,-0.0886 -1.037289,-1.1259 -2.305085,-2.30508 l -2.305085,-2.14397 2.143972,2.30508 c 1.993872,2.14371 2.466198,2.55432 2.466198,2.14397 z m 310.779658,-0.54605 c 0,-0.0906 -0.91525,-1.00589 -2.0339,-2.0339 l -2.03389,-1.8691 1.86911,2.0339 c 1.73972,1.8931 2.19868,2.28327 2.19868,1.8691 z m -318.798186,-7.0387 -2.82893,-2.86452 -0.112565,-5.13548 -0.112565,-5.13549 -0.180254,5.11358 -0.180252,5.11359 2.850561,2.88641 c 1.567809,1.58753 2.972596,2.88642 3.121749,2.88642 0.149152,0 -1.001832,-1.28903 -2.557744,-2.86451 z m 136.018526,1.61865 c 0,-0.0886 -1.03729,-1.1259 -2.30508,-2.30508 l -2.30509,-2.14398 2.14398,2.30509 c 1.99387,2.14371 2.46619,2.55432 2.46619,2.14397 z m 176.27119,-0.54605 c 0,-0.0906 -0.91526,-1.00589 -2.0339,-2.0339 l -2.0339,-1.86911 1.86911,2.0339 c 1.73972,1.89311 2.19869,2.28328 2.19869,1.86911 z M 172.09198,106.2736 c 0,-0.0848 -1.40339,-1.48815 -3.11864,-3.11864 l -3.11865,-2.96452 2.96453,3.11864 c 2.75413,2.89732 3.27276,3.3671 3.27276,2.96452 z m 175.72881,-1.09541 c 0,-0.0906 -0.91525,-1.00589 -2.03389,-2.0339 l -2.0339,-1.86911 1.86911,2.0339 c 1.73972,1.89311 2.19868,2.28328 2.19868,1.86911 z m -182.23728,-4.93241 c 0,-0.11871 -3.47797,-3.468295 -7.72882,-7.443514 -4.25085,-3.97522 -7.80762,-7.409418 -7.90393,-7.631553 -0.0963,-0.222134 2.8325,-0.480797 6.50847,-0.574805 l 6.6836,-0.170925 -7.59322,-0.110034 -7.59322,-0.110034 5.42373,5.0004 c 2.98305,2.75022 6.88813,6.403367 8.67796,8.118105 3.22759,3.09218 3.52543,3.33906 3.52543,2.92236 z m 173.01694,-3.851953 c -1.31744,-1.342373 -2.51738,-2.440678 -2.66653,-2.440678 -0.14915,0 0.80672,1.098305 2.12416,2.440678 1.31744,1.342373 2.51738,2.440678 2.66653,2.440678 0.14916,0 -0.80672,-1.098305 -2.12416,-2.440678 z M 43.628255,89.782134 c 1.791215,-2.005285 1.909285,-2.232305 0.510477,-0.981527 -2.116404,1.892435 -4.933456,6.071215 -4.916197,7.292627 0.0066,0.463631 0.476232,-0.179753 1.043734,-1.429744 0.567502,-1.24999 2.080396,-3.4466 3.361986,-4.881356 z m 426.859465,1.862093 c -0.90257,-1.311835 -2.57356,-3.082793 -3.7133,-3.935463 -1.91334,-1.43141 -1.86033,-1.323103 0.69121,1.412213 1.51991,1.629388 3.0651,3.526131 3.43377,4.214987 0.36866,0.688855 0.79608,1.126677 0.94982,0.97294 0.15374,-0.153738 -0.45894,-1.352843 -1.3615,-2.664677 z M 332.61169,90.92524 c -1.32991,-1.367045 -3.63835,-3.479844 -5.12988,-4.695109 -1.49152,-1.215264 -0.51525,-0.108778 2.16949,2.458859 5.2804,5.050067 6.85457,6.239184 2.96039,2.23625 z"
     id="path93"
     inkscape:connector-curvature="0"
     transform="scale(0.75)" />
  <path
     style="fill:#000000;stroke-width:0.54237288"
     d="m 25.9988,349.26694 c -1.15125,-1.56157 -2.676673,-4.15094 -3.389831,-5.75416 l -1.29665,-2.91494 4.28e-4,-130.2376 4.28e-4,-130.237599 1.560852,-3.254237 c 0.858469,-1.789831 2.324214,-4.291526 3.257212,-5.559322 l 1.696358,-2.305085 H 255.83581 483.84402 l 1.68735,1.921784 c 0.92804,1.056981 2.41773,3.368666 3.31042,5.137076 l 1.62307,3.215291 V 210.29021 341.30226 l -1.86309,3.69962 c -1.0247,2.03478 -2.51081,4.46937 -3.30245,5.41018 l -1.43936,1.71058 -227.88399,-0.008 -227.88399,-0.008 z m 442.77115,-23.99176 c 1.01194,-1.04406 1.71787,-1.8983 1.56872,-1.8983 -0.14915,0 -1.09915,0.85424 -2.1111,1.8983 -1.01194,1.04407 -1.71787,1.89831 -1.56872,1.89831 0.14915,0 1.09915,-0.85424 2.1111,-1.89831 z M 74.464861,309.61278 c 0,-0.11263 -0.427118,-0.53974 -0.949152,-0.94915 -0.860234,-0.67465 -0.879418,-0.65546 -0.204776,0.20477 0.708539,0.90346 1.153928,1.19077 1.153928,0.74438 z m 180.067799,-4.88136 c 0,-0.11262 -0.42712,-0.53974 -0.94915,-0.94915 -0.86024,-0.67464 -0.87942,-0.65546 -0.20478,0.20478 0.70854,0.90346 1.15393,1.19077 1.15393,0.74437 z M 67.956387,303.64668 c 0,-0.11263 -0.427119,-0.53975 -0.949153,-0.94916 -0.860234,-0.67464 -0.879417,-0.65545 -0.204776,0.20478 0.70854,0.90346 1.153929,1.19077 1.153929,0.74438 z m 179.044263,-5.96735 -1.21262,-1.29077 29.72825,-0.33016 c 16.35053,-0.18158 38.75875,-0.52529 49.79604,-0.76378 22.54572,-0.48718 21.73667,-0.33874 26.0534,-4.78033 1.27842,-1.31539 2.88735,-3.55095 3.5754,-4.96791 1.26684,-2.60889 1.27904,-2.71167 2.4512,-20.6483 0.25372,-3.88236 0.41847,-4.46529 1.17944,-4.17328 0.62116,0.23836 0.52497,-0.0433 -0.32305,-0.94599 l -1.20758,-1.2854 v -43.6766 -43.67659 l -2.77759,-3.95514 c -3.51048,-4.99875 -10.933,-12.45487 -13.76802,-13.83034 -2.0903,-1.01415 -4.22621,-1.0613 -60.91844,-1.34493 -32.31371,-0.16167 -69.31424,-0.13858 -82.22339,0.0513 -26.76051,0.39365 -26.09364,0.28293 -30.87428,5.12631 -5.08409,5.1508 -4.80712,3.38658 -5.27163,33.57928 -0.22488,14.61695 -0.46939,26.82034 -0.54336,27.11864 -0.074,0.29831 0.008,0.90848 0.18109,1.35593 0.17357,0.44746 0.4373,13.13899 0.58607,28.20339 0.17723,17.9467 0.4906,28.41829 0.90894,30.37289 0.60068,2.80654 1.01461,3.35373 6.99544,9.24771 3.49633,3.44556 7.22759,6.67779 8.29168,7.18273 1.70305,0.80816 5.85472,0.99046 34.6741,1.52261 l 32.73939,0.60453 1.34361,1.29748 c 1.73864,1.67895 2.19154,1.68389 0.61591,0.007 z M 61.990285,298.2406 c 0,-0.10292 -0.549153,-0.65207 -1.220339,-1.22034 l -1.220339,-1.03321 1.033214,1.22034 c 0.970965,1.14681 1.407464,1.46725 1.407464,1.03321 z m -7.050848,-6.49799 c 0,-0.0971 -0.671186,-0.76834 -1.491525,-1.49153 l -1.491525,-1.31488 1.314882,1.49153 c 1.228955,1.39405 1.668168,1.74025 1.668168,1.31488 z m -5.423728,-4.8695 c 0,-0.0906 -0.915255,-1.00589 -2.033899,-2.0339 l -2.033898,-1.86911 1.869108,2.0339 c 1.739724,1.89311 2.198689,2.28327 2.198689,1.86911 z m -5.966102,-5.42373 c 0,-0.0906 -0.915254,-1.00589 -2.033898,-2.0339 l -2.033899,-1.86911 1.869108,2.0339 c 1.739724,1.89311 2.198689,2.28327 2.198689,1.86911 z m 429.430453,-92.71657 -0.12887,-31.59322 -0.27791,30.91525 c -0.26018,28.94265 -0.22692,32.27119 0.32249,32.27119 0.11724,0 0.15517,-14.21695 0.0843,-31.59322 z m -315.53215,27.04946 c 0,-0.11262 -0.42712,-0.53974 -0.94915,-0.94915 -0.86024,-0.67464 -0.87942,-0.65546 -0.20478,0.20478 0.70854,0.90345 1.15393,1.19076 1.15393,0.74437 z m -31.45763,-28.72811 c 0,-0.10292 -0.54915,-0.65207 -1.22033,-1.22034 l -1.22034,-1.03321 1.03321,1.22034 c 0.97097,1.14681 1.40746,1.46724 1.40746,1.03321 z m 305.35594,-5.42373 c 0,-0.10292 -0.54916,-0.65207 -1.22034,-1.22034 l -1.22034,-1.03321 1.03321,1.22034 c 0.97097,1.14681 1.40747,1.46725 1.40747,1.03321 z m -6.50848,-5.9661 c 0,-0.10292 -0.54915,-0.65207 -1.22034,-1.22034 l -1.22034,-1.03321 1.03322,1.22034 c 0.97097,1.14681 1.40746,1.46724 1.40746,1.03321 z m -317.83051,-5.98376 c 0,-0.11262 -0.42711,-0.53974 -0.94915,-0.94915 -0.86023,-0.67464 -0.87942,-0.65546 -0.20478,0.20478 0.70854,0.90346 1.15393,1.19077 1.15393,0.74437 z m -6.50847,-5.9661 c 0,-0.11262 -0.42712,-0.53974 -0.949153,-0.94915 -0.860236,-0.67464 -0.87942,-0.65546 -0.204778,0.20478 0.708541,0.90346 1.153931,1.19077 1.153931,0.74437 z m -6.508475,-5.9661 c 0,-0.11262 -0.427119,-0.53974 -0.949153,-0.94915 -0.860236,-0.67464 -0.879419,-0.65546 -0.204778,0.20478 0.70854,0.90345 1.153931,1.19077 1.153931,0.74437 z m -5.966102,-5.42373 c 0,-0.11262 -0.427118,-0.53974 -0.949152,-0.94915 -0.860236,-0.67464 -0.87942,-0.65546 -0.204779,0.20478 0.70854,0.90346 1.153931,1.19077 1.153931,0.74437 z m -6.508474,-5.9661 c 0,-0.11262 -0.427119,-0.53974 -0.949153,-0.94915 -0.860236,-0.67464 -0.87942,-0.65546 -0.204778,0.20478 0.708539,0.90345 1.153931,1.19077 1.153931,0.74437 z m -6.508475,-5.9661 c 0,-0.11262 -0.427119,-0.53974 -0.949152,-0.94915 -0.860234,-0.67464 -0.879418,-0.65546 -0.204776,0.20477 0.708537,0.90346 1.153928,1.19077 1.153928,0.74438 z m -6.508474,-5.9661 c 0,-0.11263 -0.427119,-0.53975 -0.949153,-0.94916 -0.860234,-0.67464 -0.879418,-0.65545 -0.204776,0.20478 0.708539,0.90346 1.153929,1.19077 1.153929,0.74438 z m -5.966102,-5.42373 c 0,-0.11263 -0.427119,-0.53974 -0.949153,-0.94915 -0.860234,-0.67465 -0.879417,-0.65546 -0.204775,0.20477 0.708539,0.90346 1.153928,1.19077 1.153928,0.74438 z m 310.779662,-0.54237 c 0,-0.11263 -0.42712,-0.53975 -0.94915,-0.94916 -0.86024,-0.67464 -0.87942,-0.65545 -0.20478,0.20478 0.70854,0.90346 1.15393,1.19077 1.15393,0.74438 z M 56.024183,123.03651 c 0,-0.11263 -0.427118,-0.53975 -0.949152,-0.94915 -0.860234,-0.67465 -0.879418,-0.65546 -0.204776,0.20477 0.708539,0.90346 1.153928,1.19077 1.153928,0.74438 z m 310.779657,-0.54237 c 0,-0.11263 -0.42711,-0.53975 -0.94915,-0.94916 -0.86023,-0.67464 -0.87942,-0.65545 -0.20478,0.20478 0.70854,0.90346 1.15393,1.19077 1.15393,0.74438 z m -182.23728,-4.88136 c 0,-0.11263 -0.42712,-0.53975 -0.94916,-0.94915 -0.86023,-0.67464 -0.87942,-0.65546 -0.20477,0.20477 0.70854,0.90346 1.15393,1.19077 1.15393,0.74438 z M 49.515709,117.08806 c 0,-0.10292 -0.549153,-0.65207 -1.220339,-1.22034 l -1.220339,-1.03321 1.033213,1.22033 c 0.970966,1.14682 1.407465,1.46725 1.407465,1.03322 z m 310.779661,-0.56003 c 0,-0.11262 -0.42712,-0.53974 -0.94915,-0.94915 -0.86024,-0.67464 -0.87942,-0.65546 -0.20478,0.20478 0.70854,0.90345 1.15393,1.19077 1.15393,0.74437 z m -318.528864,-6.7291 -2.555882,-2.5949 -0.109149,-4.32036 -0.10915,-4.320351 -0.18651,4.295511 -0.186509,4.2955 2.580355,2.61975 c 1.419195,1.44086 2.702389,2.61975 2.851541,2.61975 0.149153,0 -0.87896,-1.16771 -2.284696,-2.5949 z m 135.749204,1.33351 c 0,-0.0972 -0.67119,-0.76834 -1.49153,-1.49153 l -1.49152,-1.31488 1.31488,1.49153 c 1.22896,1.39405 1.66817,1.74025 1.66817,1.31488 z m 176.27119,-0.57051 c 0,-0.11262 -0.42712,-0.53974 -0.94916,-0.94915 -0.86023,-0.67464 -0.87942,-0.65546 -0.20478,0.20478 0.70854,0.90345 1.15394,1.19076 1.15394,0.74437 z m -182.23729,-4.84137 c 0,-0.0906 -0.91526,-1.00589 -2.0339,-2.0339 l -2.0339,-1.8691 1.86911,2.03389 c 1.73972,1.89311 2.19869,2.28328 2.19869,1.86911 z m 175.72881,-1.10708 c 0,-0.10292 -0.54915,-0.65207 -1.22034,-1.22034 l -1.22034,-1.03321 1.03322,1.22034 c 0.97096,1.14682 1.40746,1.46725 1.40746,1.03321 z M 165.04113,99.763269 c 0,-0.08579 -1.28135,-1.367146 -2.84746,-2.847458 l -2.84745,-2.691475 2.69147,2.847457 c 2.50097,2.645909 3.00344,3.096187 3.00344,2.691476 z m 175.18644,-1.635927 c 0,-0.09063 -0.91525,-1.005889 -2.03389,-2.033899 l -2.0339,-1.869107 1.86911,2.033898 c 1.73972,1.893109 2.19868,2.283274 2.19868,1.869108 z M 40.502316,94.196166 c 0.185218,-0.482671 0.09429,-0.700378 -0.213159,-0.510364 -0.294888,0.182251 -0.53616,0.561029 -0.53616,0.841729 0,0.780167 0.388754,0.608251 0.749319,-0.331365 z M 471.41634,93.275183 c -1.15718,-2.18599 -3.22482,-4.644933 -4.71386,-5.605992 -1.00778,-0.650435 -0.68522,-0.108247 1.04465,1.755933 1.37643,1.483308 2.78841,3.230955 3.13772,3.88366 0.34932,0.652707 0.75716,1.186738 0.90631,1.186738 0.14916,0 -0.0195,-0.549152 -0.37482,-1.220339 z M 154.32927,89.581588 c -2.46102,-2.387001 -4.47458,-4.443784 -4.47458,-4.570629 0,-0.126844 1.76949,-0.314857 3.93221,-0.417806 3.92746,-0.186954 3.92633,-0.187309 -0.94108,-0.294948 l -4.87328,-0.107767 5.14447,4.854371 c 2.82945,2.669905 5.2665,4.859413 5.41565,4.865576 0.14915,0.0062 -1.74237,-1.941796 -4.20339,-4.328797 z m 179.9322,3.130834 c 0,-0.08579 -1.28135,-1.367146 -2.84746,-2.847458 l -2.84745,-2.691476 2.69147,2.847458 c 2.50097,2.645909 3.00344,3.09619 3.00344,2.691476 z M 43.549607,89.885353 c 0.700607,-0.745763 1.151798,-1.355932 1.002646,-1.355932 -0.149153,0 -0.844411,0.610169 -1.545019,1.355932 -0.700607,0.745762 -1.151798,1.355932 -1.002646,1.355932 0.149153,0 0.844411,-0.61017 1.545019,-1.355932 z"
     id="path95"
     inkscape:connector-curvature="0"
     transform="scale(0.75)" />
</svg>
