<?xml version="1.0" encoding="UTF-8" standalone="no"?>
<svg
   xmlns:dc="http://purl.org/dc/elements/1.1/"
   xmlns:cc="http://creativecommons.org/ns#"
   xmlns:rdf="http://www.w3.org/1999/02/22-rdf-syntax-ns#"
   xmlns:svg="http://www.w3.org/2000/svg"
   xmlns="http://www.w3.org/2000/svg"
   xmlns:sodipodi="http://sodipodi.sourceforge.net/DTD/sodipodi-0.dtd"
   xmlns:inkscape="http://www.inkscape.org/namespaces/inkscape"
   width="384pt"
   height="384pt"
   version="1.1"
   viewBox="0 0 384 384"
   id="svg14"
   sodipodi:docname="edittrash.svg"
   inkscape:version="0.92.1 r15371">
  <metadata
     id="metadata20">
    <rdf:RDF>
      <cc:Work
         rdf:about="">
        <dc:format>image/svg+xml</dc:format>
        <dc:type
           rdf:resource="http://purl.org/dc/dcmitype/StillImage" />
      </cc:Work>
    </rdf:RDF>
  </metadata>
  <defs
     id="defs18" />
  <sodipodi:namedview
     pagecolor="#ffffff"
     bordercolor="#666666"
     borderopacity="1"
     objecttolerance="10"
     gridtolerance="10"
     guidetolerance="10"
     inkscape:pageopacity="0"
     inkscape:pageshadow="2"
     inkscape:window-width="2560"
     inkscape:window-height="1025"
     id="namedview16"
     showgrid="false"
     inkscape:zoom="0.4609375"
     inkscape:cx="-740.00438"
     inkscape:cy="353.18425"
     inkscape:window-x="0"
     inkscape:window-y="0"
     inkscape:window-maximized="1"
     inkscape:current-layer="svg14" />
  <path
     style="fill:#65caca;fill-opacity:1;stroke-width:0.66823524"
     d="m 126.22228,361.81009 c -9.45036,-2.03703 -18.56008,-8.25968 -23.98509,-16.38367 -3.413659,-5.11201 -5.315089,-10.25169 -6.140169,-16.59724 -0.36244,-2.78759 -4.25728,-46.71611 -8.65515,-97.61893 -4.39788,-50.90282 -8.18113,-94.12929 -8.40722,-96.05882 l -0.41107,-3.50823 H 68.008821 57.394051 V 107.58673 83.530259 l 29.56941,-0.0245 29.569409,-0.0245 26.21497,-23.36373 c 14.41824,-12.85005 26.44259,-23.363731 26.72076,-23.363731 0.27818,0 4.64439,4.130676 9.70268,9.179281 6.58449,6.57189 9.2,8.8022 9.20785,7.85176 0.0263,-3.17275 1.92973,-32.555053 2.11875,-32.705126 0.115,-0.09131 9.68134,4.736614 21.25851,10.72872 11.57718,5.992106 21.44683,10.909306 21.93257,10.927106 0.48573,0.0178 5.44057,-4.01893 11.01074,-8.970526 5.57017,-4.951597 10.31598,-8.785597 10.54622,-8.52 0.23027,0.265597 4.57881,13.488432 9.66344,29.384076 l 9.24477,28.90118 h 24.59878 24.59877 v 24.039491 24.0395 l -10.51584,0.18403 -10.51586,0.18403 -8.51849,96.89411 c -4.68518,53.29177 -8.96671,99.29976 -9.51452,102.24 -2.8499,15.29636 -14.82987,27.53037 -30.09764,30.73588 -6.75851,1.41896 -121.36603,1.38563 -127.96705,-0.0372 z m 3.19682,-29.5021 -12.50226,-12.50226 -1.76253,1.64343 c -1.58042,1.47361 -1.7228,1.9845 -1.3779,4.94412 0.85374,7.32603 6.34813,14.33188 13.35236,17.02553 2.41168,0.92746 5.13087,1.33217 9.11481,1.3566 l 5.67777,0.0348 z m 124.24399,11.07165 c 5.23032,-1.93475 10.19148,-6.8959 12.12623,-12.12623 1.84443,-4.98617 1.86729,-8.56084 0.0651,-10.19174 -1.34978,-1.22154 -1.48056,-1.12119 -11.40577,8.75055 -5.52218,5.49244 -10.94712,11.1139 -12.05541,12.49214 l -2.01509,2.50588 h 4.70873 c 3.16219,0 5.97895,-0.46988 8.57615,-1.4306 z m -82.16153,-15.44849 11.51909,-11.5332 -15.70433,-15.69367 -15.70433,-15.69364 -13.19198,13.19198 -13.192,13.192 14.02293,14.03487 14.02293,14.03487 h 3.35431 3.3543 z m 33.57248,11.02008 c 0,-0.2822 -3.15927,-3.66162 -7.0206,-7.50981 l -7.02058,-6.99669 -7.50982,7.50981 -7.50981,7.50982 h 14.53041 c 7.99172,0 14.5304,-0.23091 14.5304,-0.51313 z m 37.58232,-13.34671 13.87164,-13.85984 -13.19182,-13.20421 -13.19183,-13.20421 -15.5414,15.53084 -15.5414,15.53085 11.51909,11.5332 11.51908,11.53321 h 3.3425 3.34251 z m -35.91167,-32.91669 15.35857,-15.36946 -15.69287,-15.70353 -15.69286,-15.70352 -15.54179,15.53124 -15.5418,15.53125 15.53119,15.54174 c 8.54215,8.54797 15.68639,15.54175 15.87608,15.54175 0.1897,0 7.25626,-6.91626 15.70348,-15.36947 z m -78.82244,-31.37409 c -8.62344,-8.62344 -15.79825,-15.54157 -15.94403,-15.3736 -0.14577,0.16797 1.18736,12.63434 2.96252,27.70305 1.77515,15.0687 3.23547,27.69538 3.24513,28.05928 0.01,0.3639 5.73209,-5.04692 12.71647,-12.02406 l 12.69889,-12.68569 z m 138.95432,13.70722 c 1.65896,-14.31093 3.01629,-26.78782 3.01629,-27.72642 0,-1.43316 -2.51578,0.80749 -15.70299,13.98574 l -15.70297,15.69232 12.52721,12.54024 c 6.88997,6.89713 12.59898,12.31248 12.68668,12.03411 0.0877,-0.27837 1.51681,-12.21506 3.17578,-26.52599 z m -99.55579,-21.76098 15.36055,-15.37145 -20.2105,-20.2105 -20.21049,-20.21049 -15.53368,15.5337 -15.5337,15.53369 20.0399,20.04824 c 11.02193,11.02654 20.19457,20.04825 20.38363,20.04825 0.18906,0 7.256,-6.91715 15.70429,-15.37144 z m 83.36511,-4.51328 19.87642,-19.88472 -15.70471,-15.69406 -15.70472,-15.69404 -20.04595,20.0376 -20.04597,20.0376 15.53062,15.54117 c 8.54184,8.54765 15.68525,15.54117 15.87424,15.54117 0.18899,0 9.28802,-8.94812 20.22007,-19.88472 z m -39.4265,-39.42527 19.87582,-19.88411 -20.21822,-20.21007 -20.21823,-20.21007 -20.03877,20.04712 -20.03878,20.04713 20.03871,20.04706 c 11.02129,11.02588 20.19282,20.04705 20.38118,20.04705 0.18836,0 9.28659,-8.94785 20.21829,-19.88411 z m -94.36337,-37.21778 c -9.54197,-9.54198 -17.517849,-17.18026 -17.724149,-16.97395 -0.20632,0.20631 0.833979,14.11079 2.311769,30.89884 1.47779,16.78806 2.68688,31.1881 2.68688,32.0001 0,1.12156 3.61373,-2.1347 15.03728,-13.5498 l 15.03729,-15.02613 z m 162.68229,14.16595 c 1.5272,-16.99723 2.66692,-31.04151 2.53271,-31.20951 -0.13419,-0.16802 -7.97333,7.42387 -17.42029,16.87082 l -17.1763,17.1763 14.33258,14.34423 c 7.88292,7.88932 14.47254,14.20427 14.64359,14.03322 0.17105,-0.17106 1.56052,-14.21783 3.08771,-31.21506 z M 178.01875,136.32914 173.36871,131.6432 H 147.94646 122.5242 l -7.33108,7.35387 -7.33108,7.35389 17.3629,17.37254 17.3629,17.37255 20.04048,-20.04048 20.04047,-20.04048 z m 88.87195,2.66955 -7.3327,-7.35549 h -25.63637 -25.63636 l -4.63983,4.47937 -4.63983,4.47938 20.23842,20.24658 20.23842,20.24659 17.37047,-17.37046 17.37046,-17.37047 z M 105.50699,132.1723 c 0,-0.29101 -1.95458,-0.5291 -4.34352,-0.5291 -4.267639,0 -4.343529,0.0314 -4.343529,1.79457 0,0.98702 0.65929,2.49635 1.46507,3.35409 l 1.46509,1.55951 2.878439,-2.82499 c 1.58316,-1.55374 2.87845,-3.06307 2.87845,-3.35408 z m 178.53276,2.14384 0.22017,-2.33882 -3.84236,-0.20041 c -2.1133,-0.11023 -3.84235,0.0288 -3.84235,0.30882 0,0.28007 1.26634,1.79953 2.81408,3.37657 3.17657,3.23669 4.26309,2.96889 4.65046,-1.14616 z M 186.72643,66.185019 c -14.58843,-14.59654 -17.49665,-17.21745 -18.35176,-16.53883 -2.60621,2.06834 -37.47474,33.31378 -37.47474,33.58087 0,0.16676 16.46147,0.3032 36.58106,0.3032 h 36.58106 z m 77.57984,16.34533 c -0.21104,-0.54995 -3.29366,-10.09736 -6.85027,-21.21647 -3.55661,-11.11911 -6.54173,-20.310056 -6.6336,-20.424328 -0.12886,-0.16028 -35.07663,30.674648 -39.70974,35.036488 -0.84895,0.79924 -0.54395,1.36114 2.3137,4.26241 l 3.29156,3.34181 h 23.98602 c 21.02031,0 23.93858,-0.12364 23.60233,-0.99991 z m -49.15079,-22.43995 c 6.21615,-5.54133 11.30209,-10.18439 11.30209,-10.3179 0,-0.30167 -27.60163,-14.381344 -27.78358,-14.172484 -0.0725,0.08328 -0.50192,6.419894 -0.95418,14.081364 l -0.82227,13.92995 3.22783,3.27711 c 1.77532,1.80241 3.34038,3.27711 3.47793,3.27711 0.13755,0 5.33603,-4.53382 11.55218,-10.07515 z"
     id="path33"
     inkscape:connector-curvature="0"
     inkscape:export-filename="/home/ogresyus/Belgeler/Milis Linux Proje/icons cash/cop.png"
     inkscape:export-xdpi="96"
     inkscape:export-ydpi="96" />
</svg>
