<?xml version="1.0" encoding="UTF-8" standalone="no"?>
<svg
   xmlns:dc="http://purl.org/dc/elements/1.1/"
   xmlns:cc="http://creativecommons.org/ns#"
   xmlns:rdf="http://www.w3.org/1999/02/22-rdf-syntax-ns#"
   xmlns:svg="http://www.w3.org/2000/svg"
   xmlns="http://www.w3.org/2000/svg"
   xmlns:sodipodi="http://sodipodi.sourceforge.net/DTD/sodipodi-0.dtd"
   xmlns:inkscape="http://www.inkscape.org/namespaces/inkscape"
   width="384pt"
   height="384pt"
   version="1.1"
   viewBox="0 0 384 384"
   id="svg8"
   sodipodi:docname="user-trash.svg"
   inkscape:version="0.92.1 r15371">
  <metadata
     id="metadata14">
    <rdf:RDF>
      <cc:Work
         rdf:about="">
        <dc:format>image/svg+xml</dc:format>
        <dc:type
           rdf:resource="http://purl.org/dc/dcmitype/StillImage" />
      </cc:Work>
    </rdf:RDF>
  </metadata>
  <defs
     id="defs12" />
  <sodipodi:namedview
     pagecolor="#ffffff"
     bordercolor="#666666"
     borderopacity="1"
     objecttolerance="10"
     gridtolerance="10"
     guidetolerance="10"
     inkscape:pageopacity="0"
     inkscape:pageshadow="2"
     inkscape:window-width="1276"
     inkscape:window-height="1023"
     id="namedview10"
     showgrid="false"
     inkscape:zoom="0.4609375"
     inkscape:cx="256"
     inkscape:cy="256"
     inkscape:window-x="1280"
     inkscape:window-y="0"
     inkscape:window-maximized="0"
     inkscape:current-layer="svg8" />
  <g
     id="g4520"
     transform="translate(-268.47458,89.491529)"
     style="fill:#5fd3bc;fill-opacity:0.94117647">
    <path
       style="fill:#5fd3bc;fill-opacity:0.94117647;stroke-width:0.75"
       d="m 397.26557,271.03165 c -7.69643,-0.8062 -13.22106,-3.42877 -19.53275,-9.27228 -5.32485,-4.92986 -8.55595,-9.72261 -10.66096,-15.81356 -1.84782,-5.34675 -2.14811,-8.38217 -11.56845,-116.93946 -3.93753,-45.374995 -7.342,-83.59687 -7.56549,-84.937495 l -0.40634,-2.4375 h -8.90467 c -4.89758,0 -9.43853,-0.204855 -10.09102,-0.455242 -1.048,-0.402158 -1.18634,-3.288225 -1.18634,-24.75 0,-13.3621168 0.0844,-24.3659742 0.1875,-24.453017 0.24081,-0.2032575 58.76954,-1.3470195 67.6875,-1.3227412 3.7125,0.01011 22.275,0.1877467 41.25,0.3947557 24.5286,0.2675963 34.95353,0.1354883 36.06914,-0.45708 1.01892,-0.5412008 3.64885,-0.6583465 7.5,-0.3340747 4.8863,0.411432 24.59334,0.5539425 58.61836,0.4238969 6.91001,-0.026408 54.51636,1.1009641 54.75,1.2965438 0.10312,0.086327 0.1875,11.0895997 0.1875,24.4517165 0,21.461775 -0.13834,24.347842 -1.18634,24.75 -0.65249,0.250387 -5.02007,0.455242 -9.70574,0.455242 -4.68567,0 -8.70757,0.304462 -8.93754,0.676582 -0.22999,0.372128 -1.94338,18.006503 -3.80755,39.1875 -11.70979,133.048973 -14.21346,159.065403 -15.7179,163.329423 -3.48314,9.87227 -11.09464,18.87471 -19.54686,23.11889 -3.31443,1.66429 -6.35173,2.46517 -11.7259,3.09185 -8.64878,1.00854 -116.07262,1.00516 -125.70615,-0.004 z m 11.36051,-18.42683 c 0.64598,-0.64598 -20.51599,-21.97347 -21.80294,-21.97347 -3.16826,0 -2.29379,7.6185 1.52658,13.29972 3.92912,5.84294 7.9406,7.77099 18.93733,9.10194 0.44688,0.0541 1.04944,-0.1386 1.33903,-0.42819 z m 116.50155,-2.20852 c 2.14668,-1.01287 4.77844,-2.8819 5.84834,-4.15341 4.3155,-5.12868 6.45444,-11.94915 4.55449,-14.52297 -1.02333,-1.38627 -1.64077,-0.90052 -11.69122,9.19754 -5.83596,5.86361 -10.40015,11.00202 -10.14263,11.41869 0.73319,1.18631 7.09266,0.10712 11.43102,-1.93985 z m -84.52684,-14.14119 10.85685,-10.87624 -14.60933,-14.62376 c -8.03514,-8.04307 -14.95404,-14.62376 -15.37533,-14.62376 -0.42131,0 -6.15832,5.40022 -12.74892,12.00049 l -11.9829,12.00049 13.48388,13.49951 c 17.65295,17.67341 15.53504,17.49051 30.37575,2.62327 z m 26.43714,4.70099 -6.17525,-6.17525 -5.63156,5.59398 c -3.09737,3.07669 -5.63157,5.85556 -5.63157,6.17525 0,0.3197 5.31307,0.58127 11.80682,0.58127 h 11.80682 z m 44.61631,-6.75421 c 7.11992,-7.1112 12.94531,-13.26674 12.94531,-13.67897 0,-0.98104 -23.37926,-24.39157 -24.35899,-24.39157 -1.21602,0 -28.89101,28.00248 -28.89101,29.2329 0,0.61748 4.6361,5.76768 10.30245,11.4449 10.18992,10.20946 10.33934,10.3222 13.67968,10.3222 3.37176,0 3.39821,-0.0209 16.32256,-12.92946 z m -35.6244,-33.37563 c 7.73834,-7.73031 14.06971,-14.40732 14.06971,-14.8378 0,-0.43049 -6.58966,-7.34092 -14.64369,-15.35652 l -14.64369,-14.57382 -14.60631,14.5919 c -8.03347,8.02555 -14.60631,14.9752 -14.60631,15.44366 0,1.13437 28.29434,28.78767 29.45501,28.78767 0.49806,0 7.23693,-6.32479 14.97528,-14.05509 z m -74.98425,-3.76565 11.05228,-11.07073 -14.24916,-14.23437 c -13.65561,-13.64142 -14.24916,-14.13282 -14.24916,-11.79705 0,1.3405 1.18125,12.55581 2.625,24.92289 1.44375,12.36709 2.625,22.6576 2.625,22.86781 0,1.24422 2.26415,-0.74007 12.19604,-10.68855 z m 135.10825,-13.97114 c 1.50532,-13.15428 2.5697,-24.08413 2.36528,-24.28855 -0.49918,-0.49917 -10.17613,8.34075 -20.28349,18.529 l -8.23891,8.30485 11.21549,11.23422 c 6.16852,6.17882 11.43806,10.98743 11.71008,10.68579 0.27203,-0.30163 1.72622,-11.31102 3.23155,-24.46531 z M 436.8504,161.25551 451.46182,146.62965 432.3487,127.50551 c -10.51221,-10.51829 -19.45635,-19.12415 -19.87585,-19.12415 -0.4195,0 -7.34073,6.59841 -15.38051,14.66313 l -14.61779,14.66314 19.28381,19.08686 c 10.60609,10.49777 19.55308,19.08686 19.88221,19.08686 0.32912,0 7.17355,-6.58163 15.20983,-14.62584 z m 83.2483,-4.49831 19.11312,-19.12414 -14.61142,-14.62586 c -8.03628,-8.04421 -14.94969,-14.62584 -15.36312,-14.62584 -0.98059,0 -37.88773,36.8824 -37.88773,37.86233 0,0.74636 28.51175,29.63766 29.2483,29.63766 0.21325,0 8.98864,-8.60586 19.50085,-19.12415 z m -39.56717,-39.18272 c 10.21241,-10.20628 18.56802,-18.899385 18.56802,-19.318013 0,-0.418627 -8.60708,-9.363262 -19.12684,-19.876957 l -19.12686,-19.11582 -19.30698,19.306987 -19.30698,19.30698 19.11582,19.126853 c 10.51369,10.51976 19.45331,19.12684 19.86581,19.12684 0.4125,0 9.1056,-8.35059 19.31801,-18.55687 z m -91.20722,-5.5845 c 7.16388,-7.09025 13.02524,-13.30275 13.02524,-13.80555 0,-1.034303 -30.60553,-31.053075 -31.66004,-31.053075 -0.37503,0 -0.49835,1.434375 -0.27404,3.1875 0.2243,1.753125 1.2823,14.325 2.35111,27.9375 1.9695,25.083815 2.14513,26.625005 3.03419,26.625005 0.27407,0 6.35966,-5.80112 13.52354,-12.89138 z m 159.26231,-15.0957 c 1.29415,-14.361645 2.24241,-27.017895 2.10725,-28.125 -0.2255,-1.8471 -1.54213,-0.732487 -15.98254,13.530233 l -15.73678,15.543157 13.10224,13.1296 c 7.20623,7.22128 13.33953,12.88311 13.62954,12.58185 0.29002,-0.30127 1.58614,-12.2982 2.88029,-26.65984 z M 432.33944,69.016472 451.4433,49.90159 l -4.08376,-4.135118 -4.08375,-4.135117 h -25.16626 -25.16625 l -6.72334,6.754635 -6.72334,6.754635 16.48258,16.495365 c 9.06542,9.07245 16.6567,16.495365 16.86949,16.495365 0.2128,0 8.98364,-8.601698 19.49077,-19.114883 z m 94.13048,2.619518 16.48258,-16.495365 -6.72334,-6.754635 -6.72334,-6.754635 h -25.48987 -25.48988 l -3.58826,3.534308 c -1.97354,1.943864 -3.58826,3.882059 -3.58826,4.307084 0,0.76101 37.4979,38.658608 38.25088,38.658608 0.21279,0 7.80407,-7.422915 16.86949,-16.495365 z M 371.72799,44.140112 c 2.02388,-1.831575 1.68554,-2.508757 -1.25344,-2.508757 -2.7239,0 -3.42185,1.153148 -1.725,2.85 1.16119,1.161188 1.34105,1.140585 2.97844,-0.341243 z m 181.37156,-1.008757 c 0,-1.100002 -0.5,-1.5 -1.875,-1.5 -2.04721,0 -2.37309,0.70191 -0.975,2.1 1.38014,1.380143 2.85,1.0707 2.85,-0.6 z"
       id="path4534"
       inkscape:connector-curvature="0" />
    <path
       style="fill:#5fd3bc;fill-opacity:0.94117647;stroke-width:0.75"
       d="m 401.95854,271.17437 c -7.48626,-0.41987 -8.82011,-0.72674 -14.13986,-3.25308 -10.82681,-5.14163 -19.21881,-15.66208 -21.36993,-26.78994 -0.85341,-4.41473 -1.95802,-16.48188 -11.64482,-127.21118 -3.43234,-39.234897 -6.47739,-71.719273 -6.76676,-72.187498 -0.35028,-0.566767 -3.8956,-0.851317 -10.60688,-0.851317 H 327.34955 V 16.530752 -7.8198515 l 30.5625,-0.389238 c 16.80937,-0.2140807 33.51563,-0.381147 37.125,-0.3712583 5.69972,0.015615 67.66676,0.03177 84.5625,0.022043 3.3,-0.00188 16.96875,0.00127 30.375,0.00705 13.40625,0.00577 26.31562,0.0063 28.6875,0.00112 2.37188,-0.00518 15.70313,0.1548323 29.625,0.3555893 l 25.3125,0.3650122 v 24.3554393 24.35544 l -9.5625,0.01147 c -5.25937,0.006 -9.95055,0.259439 -10.42484,0.5625 -0.54954,0.351157 -1.85287,11.84055 -3.59324,31.676018 -12.89955,147.019706 -14.89179,167.268226 -17.02437,173.030186 -3.56214,9.62444 -10.65197,17.35174 -20.0223,21.82257 -5.01803,2.39424 -6.33808,2.67814 -15,3.22601 -10.89808,0.68931 -103.59538,0.66074 -116.01376,-0.0358 z m 7.89101,-18.61489 c 0,-0.31453 -5.06403,-5.62747 -11.2534,-11.80652 -9.60414,-9.58812 -11.44526,-11.1144 -12.5625,-10.41424 -1.90803,1.19575 -2.07522,6.31712 -0.33468,10.2519 3.51178,7.93897 10.50129,12.54073 19.04783,12.54073 2.80651,0 5.10275,-0.25734 5.10275,-0.57187 z m 114.42404,-0.84593 c 4.05931,-1.84374 8.34887,-5.6952 10.03616,-9.01119 1.94162,-3.81577 3.06923,-8.3176 2.57581,-10.28354 -0.924,-3.68152 -2.54995,-2.76667 -12.45504,7.00797 -5.33908,5.26876 -10.37695,10.50769 -11.19526,11.64206 l -1.48785,2.0625 4.73857,-0.0165 c 2.97488,-0.0103 5.87342,-0.53191 7.78761,-1.40133 z m -83.16966,-14.48622 c 5.91009,-5.85972 10.74562,-11.1786 10.74562,-11.81972 0,-1.48636 -28.51375,-30.02626 -29.99876,-30.02626 -1.22316,0 -25.50124,23.90453 -25.50124,25.10887 0,0.41301 5.98711,6.74497 13.30469,14.07103 l 13.30468,13.3201 h 3.6997 3.69969 z m 32.49562,9.91808 c 0,-0.97534 -9.6098,-11.13625 -11.47768,-12.13591 -1.26113,-0.67493 -2.32153,0.0737 -7.7418,5.46584 -3.45429,3.43635 -6.28052,6.50847 -6.28052,6.82695 0,0.31849 5.7375,0.57906 12.75,0.57906 7.83763,0 12.75,-0.28354 12.75,-0.73594 z m 37.9286,-11.76489 c 7.17761,-6.87546 13.2604,-13.16312 13.51731,-13.97259 0.37195,-1.17191 -2.03079,-3.97313 -11.79337,-13.74917 -6.74327,-6.75258 -12.59866,-12.27741 -13.01198,-12.27741 -1.21626,0 -29.64056,28.75308 -29.64056,29.98341 0,0.61755 4.80501,5.93643 10.6778,11.81971 10.46689,10.4856 10.74221,10.69688 13.9392,10.69688 3.19613,0 3.52264,-0.25023 16.3116,-12.50083 z m -34.92274,-33.72768 c 7.83428,-7.68818 14.24414,-14.52572 14.24414,-15.19454 0,-0.6688 -6.75,-7.95968 -15,-16.20195 l -15,-14.98593 -15,14.98593 c -8.25,8.24227 -15,15.33798 -15,15.76827 0,1.32675 28.88216,29.60673 30.23716,29.60673 0.70101,0 7.68443,-6.29033 15.5187,-13.97851 z m -74.99678,-4.44129 11.61592,-11.66981 -15,-14.63088 c -14.93698,-14.56942 -15.00092,-14.62044 -15.21935,-12.1427 -0.12064,1.3685 0.97623,12.76276 2.4375,25.32056 1.46127,12.55779 2.65685,23.27342 2.65685,23.8125 0,2.33396 2.56913,0.30102 13.50908,-10.68967 z m 132.30631,9.9823 c 0.18918,-0.92812 0.54038,-3.42656 0.78044,-5.55208 0.24007,-2.12552 1.43781,-12.58802 2.66165,-23.25 2.56326,-22.33086 2.49171,-21.26042 1.42113,-21.26042 -1.05796,0 -29.17194,27.7459 -29.19914,28.81686 -0.0226,0.88918 22.48322,22.93314 23.41362,22.93314 0.31809,0 0.73312,-0.75937 0.9223,-1.6875 z m -96.68958,-45.56331 14.98675,-15.00081 -19.48837,-19.49919 c -10.7186,-10.72455 -19.83147,-19.49918 -20.25081,-19.49918 -0.41935,0 -7.50928,6.75426 -15.75541,15.00946 l -14.99297,15.00946 19.52939,19.49054 c 10.74116,10.71979 19.85682,19.49053 20.25703,19.49053 0.40021,0 7.47168,-6.75036 15.71439,-15.00081 z m 83.27285,-3.86023 c 10.50574,-10.37358 19.10134,-19.22986 19.10134,-19.68064 0,-1.02794 -29.33785,-30.45831 -30.36256,-30.45831 -1.28165,0 -38.63744,37.79081 -38.63744,39.08739 0,1.28991 28.74812,29.9126 30.04369,29.9126 0.4145,0 9.34924,-8.48747 19.85497,-18.86104 z m -39.59157,-39.82094 c 10.4186,-10.41259 18.94291,-19.274403 18.94291,-19.69291 0,-0.418508 -8.775,-9.531052 -19.5,-20.250105 l -19.5,-19.489185 -19.5,19.489185 c -10.725,10.719053 -19.5,19.867455 -19.5,20.329792 0,1.148311 38.01472,38.545203 39.182,38.545203 0.5127,0 9.45649,-8.51939 19.87509,-18.93198 z m -91.11178,-5.63812 c 7.31758,-7.32606 13.30469,-13.677705 13.30469,-14.114775 0,-1.40565 -32.27762,-32.838308 -32.98246,-32.119035 -0.586,0.598005 3.19958,53.27245 4.15872,57.86642 0.19377,0.92812 0.77128,1.6875 1.28334,1.6875 0.51207,0 6.91814,-5.99405 14.23571,-13.32011 z m 156.91303,10.88261 c 0.72387,-3.15717 4.98283,-53.11871 4.73397,-55.533837 -0.24337,-2.361758 -0.53512,-2.11944 -16.73251,13.897822 l -16.4848,16.30149 13.49218,13.511015 c 7.42071,7.43105 13.74241,13.51101 14.04822,13.51101 0.30581,0 0.73013,-0.75938 0.94294,-1.6875 z M 432.71547,69.390438 452.19557,49.89952 447.73354,45.390438 443.27151,40.881355 H 417.84425 392.417 l -6.64806,6.9375 c -3.65644,3.815625 -6.65286,7.272187 -6.65873,7.681245 -0.014,0.976837 32.37304,33.381255 33.36336,33.381255 0.41899,0 9.52785,-8.770913 20.2419,-19.490917 z m 93.49784,3.463237 c 8.80618,-8.608972 16.30306,-16.157528 16.65973,-16.77456 0.48579,-0.84042 -1.10987,-2.887575 -6.36019,-8.15982 l -7.00867,-7.03794 h -25.49307 -25.49307 l -4.34342,4.298107 -4.34343,4.298108 19.6927,19.70322 c 10.83099,10.836772 19.91443,19.618245 20.18544,19.514393 0.27101,-0.103853 7.6978,-7.232536 16.50398,-15.841508 z M 372.11371,44.500623 c 2.61439,-2.456093 2.22233,-3.619268 -1.2199,-3.619268 -3.48419,0 -4.33093,0.97083 -3.00599,3.446512 1.19151,2.226345 2.00456,2.259585 4.22589,0.172756 z m 181.59815,-1.181768 c -0.24647,-2.14209 -2.3975,-3.064148 -4.9042,-2.102235 -1.00868,0.387067 -0.92621,0.72702 0.56028,2.30931 2.44122,2.598563 4.65461,2.493053 4.34392,-0.207075 z"
       id="path4532"
       inkscape:connector-curvature="0" />
    <path
       style="fill:#5fd3bc;fill-opacity:0.94117647;stroke-width:0.75"
       d="m 404.54229,271.23211 c -10.05979,-0.47003 -10.25944,-0.514 -16.59792,-3.65519 -10.23681,-5.07312 -17.45317,-13.35064 -20.40212,-23.40227 -1.44741,-4.93356 -1.51374,-5.6234 -10.9281,-113.6683 -4.1334,-47.437495 -7.69031,-87.00937 -7.90423,-87.937495 -0.38053,-1.65099 -0.61583,-1.6875 -10.87466,-1.6875 h -10.48571 v -24.375 -24.375 l 30.5625,-0.048419 c 34.1203,-0.054053 172.19192,-0.046845 210.75,0.011003 l 24.9375,0.037416 V 16.043882 39.95641 l -1.6875,0.452227 c -0.92813,0.24873 -5.46445,0.456848 -10.08073,0.46248 -5.35114,0.0068 -8.5805,0.313215 -8.90988,0.846165 -0.28414,0.459765 -1.8247,15.73164 -3.42345,33.9375 -6.63112,75.512148 -14.25076,158.661258 -14.94198,163.053778 -2.2914,14.56136 -12.02382,26.03865 -26.29153,31.0052 -4.76127,1.65738 -5.11527,1.66834 -59.16493,1.83074 -29.90625,0.0899 -58.95702,-0.0507 -64.55726,-0.31239 z m 5.59707,-17.96291 c 0.20808,-0.33669 -4.96301,-5.94568 -11.49132,-12.46443 l -11.86965,-11.85225 -1.58942,1.58941 c -1.88802,1.88803 -1.99639,3.99522 -0.43367,8.43263 2.48762,7.06371 7.66504,12.03195 14.4385,13.85517 4.04872,1.08981 10.38637,1.34426 10.94556,0.43947 z m 111.95984,-0.50798 c 7.69573,-2.28539 13.91697,-9.41427 14.97928,-17.16469 0.49711,-3.62676 -0.42575,-5.71518 -2.5255,-5.71518 -1.42647,0 -22.70343,21.47739 -22.70343,22.91729 0,1.45822 5.27816,1.43895 10.24965,-0.0374 z m -80.79764,-15.74185 11.67299,-11.61199 -15.36814,-15.38801 c -8.45247,-8.46341 -15.705,-15.38802 -16.11673,-15.38802 -1.23581,0 -25.14013,24.26367 -25.14013,25.51808 0,0.63806 6.18011,7.30753 13.73357,14.82102 17.94339,17.84846 15.49728,17.68792 31.21844,2.04892 z m 32.76002,10.65145 c 0.64115,-0.64279 -11.57409,-13.28947 -12.83611,-13.28947 -1.26173,0 -13.98072,13.1452 -13.33946,13.78647 0.74923,0.74922 25.39937,0.2812 26.17557,-0.497 z m 38.30441,-12.70037 c 7.55345,-7.51349 13.73356,-13.99936 13.73356,-14.41304 0,-0.41368 -5.74249,-6.49464 -12.7611,-13.51324 l -12.7611,-12.7611 -15.54573,15.54573 -15.54573,15.54574 11.61025,11.6284 c 15.68175,15.70628 13.27977,15.8624 31.26985,-2.03249 z m -35.49177,-33.48867 c 12.89683,-12.90893 14.78207,-15.08834 14.11074,-16.3125 -1.34088,-2.44502 -29.04564,-29.53793 -30.205,-29.53793 -0.60764,0 -7.83236,6.75825 -16.05494,15.01833 l -14.95014,15.01831 15.34297,15.35669 c 8.43864,8.44617 15.68673,15.35667 16.10687,15.35667 0.42014,0 7.46241,-6.7048 15.6495,-14.89957 z m -75.51672,-3.25649 c 6.32063,-6.27333 11.49205,-11.76095 11.49205,-12.19471 0,-1.16369 -28.71677,-29.64923 -29.88991,-29.64923 -0.7562,0 -0.89251,0.87084 -0.55764,3.5625 0.24376,1.95938 1.46007,12.675 2.7029,23.8125 2.776,24.87669 2.92815,25.875 3.94352,25.875 0.44937,0 5.98845,-5.13273 12.30908,-11.40606 z m 135.55074,-13.05848 c 2.97929,-25.8369 3.11738,-28.03546 1.76102,-28.03546 -1.12595,0 -29.06971,27.77969 -29.06971,28.89904 0,1.43066 23.23127,23.92128 23.94274,23.17941 0.37104,-0.38689 1.88571,-11.20624 3.36595,-24.04299 z m -99.50322,-22.96574 c 7.94449,-7.93666 14.44453,-14.98272 14.44453,-15.65791 0,-0.6752 -8.69063,-9.67218 -19.3125,-19.99329 -10.62187,-10.3211 -19.57811,-19.03753 -19.90275,-19.36983 -0.63051,-0.6454 -30.53475,28.79778 -30.53475,30.06398 0,1.21891 38.5078,39.38733 39.73756,39.38733 0.61786,0 7.62341,-6.49362 15.56791,-14.43028 z m 83.80101,-5.05119 19.47067,-19.48148 -15.32696,-15.39352 c -8.42982,-8.46644 -15.6598,-15.39352 -16.06661,-15.39352 -0.90468,0 -37.72787,36.55883 -38.81659,38.53792 -0.67384,1.22493 1.20336,3.3954 14.10834,16.3125 8.18709,8.19477 15.39745,14.89957 16.02305,14.89957 0.62559,0 9.89923,-8.76666 20.6081,-19.48147 z m -39.95216,-38.81183 c 10.64012,-10.61132 19.34568,-19.637058 19.34568,-20.057193 0,-1.24359 -38.5087,-39.399502 -39.76378,-39.399502 -0.63229,0 -9.9072,8.781375 -20.61094,19.514167 l -19.46135,19.514168 19.85023,19.86083 c 10.91762,10.92346 20.17519,19.86083 20.57236,19.86083 0.39717,0 9.42768,-8.68198 20.0678,-19.2933 z M 390.15851,112.53334 404.22455,98.685325 387.73094,82.15834 c -9.07148,-9.089843 -16.91836,-16.526985 -17.4375,-16.526985 -0.52551,0 -0.94389,0.897773 -0.94389,2.025435 0,3.215437 4.51972,56.74733 4.87898,57.78707 0.17817,0.51562 0.67044,0.9375 1.09394,0.9375 0.42349,0 7.09971,-6.23161 14.83604,-13.84802 z m 156.94104,11.72865 c 0,-0.34066 1.00177,-11.73128 2.22616,-25.3125 1.22439,-13.581225 2.403,-26.658 2.61913,-29.0595 0.32102,-3.566865 0.19317,-4.322168 -0.69822,-4.125 -1.81427,0.401295 -32.64707,30.639068 -32.64707,32.01702 0,1.656607 25.57112,27.09935 27.23609,27.09935 0.69515,0 1.26391,-0.27872 1.26391,-0.61937 z M 432.90664,69.949368 c 10.4186,-10.412588 18.94291,-19.430101 18.94291,-20.038913 0,-0.608812 -1.76035,-2.88942 -3.91188,-5.068012 l -3.91188,-3.961088 h -25.91543 -25.91544 l -7.09964,7.12929 -7.09965,7.12929 16.85821,16.87071 c 9.27202,9.278887 17.36484,16.87071 17.98405,16.87071 0.61921,0 9.65015,-8.519393 20.06875,-18.931987 z m 94.12415,2.625877 c 8.97532,-8.968357 16.31876,-16.822268 16.31876,-17.453137 0,-0.630863 -2.9598,-4.093118 -6.57734,-7.69389 l -6.57734,-6.546863 h -26.09255 -26.09256 l -4.0801,3.858795 c -2.24406,2.122335 -4.08011,4.229318 -4.08011,4.68219 0,1.26738 38.46199,39.459015 39.73834,39.459015 0.61828,0 8.4676,-7.337745 17.4429,-16.30611 z M 373.04848,43.953077 c 0.85309,-1.19805 1.55107,-2.3793 1.55107,-2.625 0,-0.245699 -1.6875,-0.446722 -3.75,-0.446722 -3.41304,0 -3.75,0.155002 -3.75,1.725 0,3.878235 3.57074,4.686578 5.94893,1.346722 z m 180.72669,0.490778 c 0.97519,-2.623455 0.18287,-3.5625 -3.00586,-3.5625 -3.50792,0 -3.86482,1.397745 -0.94362,3.695565 2.51213,1.97604 3.17376,1.95375 3.94948,-0.133065 z"
       id="path4530"
       inkscape:connector-curvature="0" />
    <path
       style="fill:#5fd3bc;fill-opacity:0.94117647;stroke-width:0.75"
       d="m 406.84955,271.20083 c -9.62664,-0.41108 -12.32045,-0.78747 -15.67061,-2.18961 -12.07217,-5.05254 -20.80395,-14.67762 -23.66295,-26.08375 -1.25437,-5.00441 -1.52565,-7.87724 -11.2794,-119.45024 -4.33119,-49.544365 -7.44031,-81.6826 -7.96308,-82.312503 -0.65033,-0.783592 -3.28277,-1.033372 -10.89079,-1.033372 h -10.03317 l -5e-5,-23.8125 -5e-5,-23.8125 L 400.662,-7.506 c 40.3219,-0.00679 75.8438,-0.047305 78.93755,-0.090022 3.09375,-0.04272 16.50937,-0.086863 29.8125,-0.098104 31.80641,-0.026872 31.21176,-0.027817 59.62517,0.094628 l 24.56267,0.105852 -1.7e-4,23.8125 -1.7e-4,23.8125 h -8.15625 c -10.32224,0 -12.75877,0.467107 -13.21374,2.533192 -0.19279,0.875498 -2.22864,23.191808 -4.5241,49.591808 -5.34024,61.417736 -12.15404,136.180916 -13.1498,144.283746 -1.94722,15.84505 -10.85044,27.13606 -25.83111,32.75884 l -5.25,1.97051 -52.5,0.2139 c -28.875,0.11765 -57.73125,-0.01 -64.125,-0.28252 z m 3.75,-18.24818 c 0,-1.06899 -22.49975,-23.8213 -23.55687,-23.8213 -1.71974,0 -3.44152,2.61469 -3.41021,5.17875 0.0918,7.51836 6.33861,15.7571 14.02806,18.50119 3.68942,1.31663 12.93902,1.41768 12.93902,0.14136 z m 112.69979,-0.25262 c 7.0544,-2.40368 14.05021,-11.19416 14.05021,-17.6546 0,-8.12115 -2.15713,-7.2667 -15.30031,6.06054 -6.08828,6.17353 -10.85395,11.57353 -10.59038,12 0.726,1.17469 7.92605,0.92784 11.84048,-0.40594 z m -81.81857,-15.09875 c 6.11533,-6.06654 11.11878,-11.54783 11.11878,-12.18064 0,-1.48651 -29.25104,-30.78929 -30.73492,-30.78929 -1.25431,0 -26.26508,24.65678 -26.26508,25.89333 0,0.43168 6.1801,6.93228 13.73357,14.44577 l 13.73356,13.6609 h 3.64765 3.64767 z m 32.6858,9.70605 c 0.3279,-0.98583 -9.62783,-11.74239 -12.09957,-13.07285 -1.19436,-0.64288 -2.41552,0.24567 -8.0625,5.86648 -3.66022,3.64327 -6.65495,7.06082 -6.65495,7.59457 0,1.39023 26.35238,1.00877 26.81702,-0.3882 z m 38.53503,-11.9435 c 7.36887,-7.29714 13.39795,-13.79039 13.39795,-14.42946 0,-1.25851 -24.62256,-26.30302 -25.85987,-26.30302 -1.21649,0 -30.39013,29.50363 -30.39013,30.73389 0,0.61762 4.9739,6.10516 11.05313,12.19453 l 11.05311,11.07158 h 3.67394 3.67393 z m -35.68566,-33.3496 c 8.02098,-7.90191 14.58361,-14.90195 14.58361,-15.55563 0,-1.51292 -29.22766,-30.82725 -30.7361,-30.82725 -1.25209,0 -30.7639,29.15569 -30.7639,30.39267 0,1.34939 29.64271,30.35733 31.02163,30.35733 0.72112,0 7.87376,-6.4652 15.89476,-14.36712 z m -75.0326,-4.41891 11.99121,-12.03602 -15.23321,-14.96398 c -8.37827,-8.23018 -15.55015,-14.96397 -15.9375,-14.96397 -0.38736,0 -0.70907,0.92813 -0.71491,2.0625 -0.0123,2.38857 5.23938,49.59786 5.67337,51 0.15959,0.51563 0.7266,0.9375 1.26,0.9375 0.53341,0 6.36588,-5.41621 12.96104,-12.03603 z m 132.36621,11.77231 c 0,-0.14505 1.15858,-10.18567 2.57462,-22.3125 3.13861,-26.87872 3.35687,-30.03902 2.10473,-30.47496 -1.00788,-0.35091 -30.16582,28.00598 -30.19897,29.36932 -0.0283,1.16168 23.26111,23.68186 24.49073,23.68186 0.56589,0 1.02889,-0.11867 1.02889,-0.26372 z m -97.39121,-46.51058 c 7.98391,-7.78212 14.80951,-14.65832 15.168,-15.28046 0.49902,-0.86603 -3.9822,-5.76762 -19.11969,-20.91319 -10.87432,-10.88012 -20.11446,-19.78204 -20.53365,-19.78204 -0.41919,0 -7.67784,6.92292 -16.13031,15.38427 l -15.36814,15.38427 19.99052,19.95222 c 10.99479,10.97372 20.325,19.82892 20.73379,19.67822 0.4088,-0.15068 7.27556,-6.64117 15.25948,-14.42329 z m 83.94172,-4.72241 c 10.69722,-10.5857 19.44949,-19.61081 19.44949,-20.05581 0,-1.02084 -30.09475,-31.19747 -31.11283,-31.19747 -1.27414,0 -39.38717,38.53712 -39.38717,39.82544 0,1.3216 29.46014,30.67455 30.78657,30.67455 0.44794,0 9.56671,-8.66102 20.26394,-19.24671 z m -39.58958,-39.45875 c 10.63476,-10.40575 19.32539,-19.42817 19.3125,-20.049845 -0.0129,-0.621668 -8.96718,-10.069275 -19.89843,-20.99469 l -19.875,-19.864387 -19.875,19.864387 c -10.93125,10.925415 -19.875,20.233875 -19.875,20.685473 0,1.184174 38.7068,39.318022 39.887,39.296562 0.5434,-0.01 9.68917,-8.53175 20.32393,-18.9375 z m -91.15584,-5.97443 c 7.5322,-7.52395 13.69491,-14.043877 13.69491,-14.488732 0,-1.069246 -32.58393,-33.331373 -33.66383,-33.331373 -1.27077,0 -1.05436,5.280675 1.41383,34.5 1.23698,14.643755 2.24926,26.709375 2.24952,26.812505 2.7e-4,0.10312 0.58777,0.1875 1.30557,0.1875 0.71781,0 7.46781,-6.15596 15,-13.6799 z m 157.23247,9.7424 c 0.65812,-4.58157 4.96244,-52.510888 4.96244,-55.257627 0,-1.296968 -0.39488,-2.304878 -0.90302,-2.304878 -0.49667,0 -8.34354,7.420163 -17.4375,16.489245 l -16.53448,16.489245 13.86739,13.885755 c 7.62708,7.63717 14.25438,13.88576 14.72735,13.88576 0.47297,0 1.06598,-1.43438 1.31782,-3.1875 z m -114.29577,-52.679285 19.85617,-19.86678 -4.83981,-4.88322 -4.83981,-4.88322 H 417.83714 392.4064 l -6.6426,6.50013 c -3.65343,3.575078 -6.85314,7.163498 -7.11047,7.974278 -0.37564,1.183515 2.83695,4.781415 16.29542,18.249869 9.21981,9.226643 17.106,16.775723 17.52486,16.775723 0.41886,0 9.69684,-8.940053 20.61773,-19.86678 z m 93.58495,3.92928 c 8.81732,-8.765625 16.37963,-16.571333 16.80515,-17.346015 0.66158,-1.204463 -0.29493,-2.481127 -6.60254,-8.8125 l -7.37621,-7.403985 H 504.12044 478.7382 l -4.44433,4.239165 c -2.44438,2.33154 -4.44432,4.607325 -4.44432,5.057288 0,1.003507 39.07941,40.203547 40.07983,40.203547 0.39349,0 7.9296,-7.171875 16.74691,-15.9375 z M 372.68165,44.67613 c 2.78391,-2.90577 2.1648,-4.544775 -1.71673,-4.544775 -3.95746,0 -5.08231,1.42152 -3.51823,4.446127 1.48665,2.874855 2.55588,2.895 5.23496,0.09865 z m 181.61237,-0.429518 c 0.2713,-1.080982 0.0783,-2.360339 -0.45256,-3 -1.0368,-1.249275 -4.28424,-1.460715 -5.97874,-0.389272 -0.92844,0.587063 -0.75067,1.079985 1.07783,2.988518 2.68746,2.805112 4.71197,2.956664 5.35347,0.400754 z"
       id="path4528"
       inkscape:connector-curvature="0" />
    <path
       style="fill:#5fd3bc;fill-opacity:0.94117647;stroke-width:0.75"
       d="m 412.47455,271.1957 c -13.63733,-0.43477 -16.3455,-0.72471 -20.18946,-2.16152 -13.1556,-4.91734 -23.04343,-16.43776 -25.13784,-29.28837 -0.80002,-4.90862 -4.86247,-50.24919 -13.18127,-147.114455 -2.32037,-27.01875 -4.52607,-49.884375 -4.90156,-50.8125 -0.6624,-1.637302 -0.99551,-1.6875 -11.19879,-1.6875 h -10.51608 v -23.625 -23.625 l 30.5625,-0.044813 c 35.59776,-0.052192 174.41041,-0.047392 210.75,0.00727 l 24.9375,0.037538 v 23.625 23.625 l -9.9375,0.01147 c -5.46563,0.006 -10.35042,0.273825 -10.85509,0.594465 -0.6338,0.402667 -2.55362,19.130078 -6.20731,60.551005 -6.27503,71.13827 -10.94602,122.4889 -12.03828,132.34305 -1.32763,11.97751 -3.93152,18.13844 -10.68922,25.2912 -4.76756,5.04628 -9.44145,8.00926 -16.349,10.36434 l -5.5486,1.89176 -46.875,0.25959 c -25.78125,0.14277 -53.9625,0.0336 -62.625,-0.24254 z m -1.29193,-17.92791 c 0.4266,-1.29374 -21.4312,-23.31967 -23.70905,-23.89141 -4.18596,-1.05068 -5.50059,5.23651 -2.50904,11.99941 1.66493,3.76386 6.3587,8.80704 9.90243,10.63957 4.82562,2.49542 15.63226,3.32497 16.31566,1.25243 z m 113.20623,-0.53175 c 6.52317,-2.72555 11.37914,-8.63772 13.0539,-15.89321 0.77268,-3.34739 0.72339,-4.12314 -0.36777,-5.78845 -0.69301,-1.05766 -1.70887,-1.92303 -2.25748,-1.92303 -1.28527,0 -12.11344,10.13209 -18.73184,17.5277 -6.48384,7.24523 -6.37068,8.39814 0.75263,7.66834 2.72665,-0.27936 6.1244,-0.99546 7.55056,-1.59135 z m -82.71088,-15.34203 12.04658,-11.98734 -15.7433,-15.76266 c -8.65882,-8.66946 -16.0802,-15.76266 -16.49196,-15.76266 -1.23563,0 -25.88974,25.014 -25.88974,26.26766 0,0.63757 6.34833,7.47566 14.1074,15.19577 18.41304,18.32058 15.78831,18.15235 31.97102,2.04923 z m 32.9763,10.48263 c 0.52293,-0.52293 -1.3685,-2.91283 -5.94062,-7.50624 -3.68931,-3.70647 -7.0859,-6.73905 -7.548,-6.73905 -1.14195,0 -14.5661,12.90258 -14.5661,14.00017 0,0.48116 0.42188,1.07131 0.9375,1.31144 1.57124,0.73176 26.29119,-0.2403 27.11722,-1.06632 z m 38.44578,-12.87065 c 7.56223,-7.55394 13.7495,-14.05287 13.7495,-14.44208 0,-1.21238 -25.00185,-25.93256 -26.22804,-25.93256 -0.63838,0 -8.07635,6.92448 -16.52882,15.38775 l -15.36814,15.38774 12.15082,12.09093 12.15082,12.09093 3.16218,-0.42414 c 2.9097,-0.39027 4.26001,-1.52076 16.91168,-14.15857 z m -35.85095,-33.1491 c 13.22707,-13.23888 15.15753,-15.46278 14.48566,-16.6875 -1.32136,-2.40865 -29.78443,-30.28804 -30.92214,-30.28804 -1.43584,0 -30.71307,29.29935 -30.71307,30.73627 0,1.24052 29.89979,31.51373 31.125,31.51373 0.42004,0 7.63109,-6.87351 16.02455,-15.27446 z m -75.51497,-3.25752 c 6.52598,-6.48009 11.86542,-12.13013 11.86542,-12.55564 0,-1.09156 -29.4161,-30.41238 -30.51121,-30.41238 -0.49514,0 -1.07919,0.28951 -1.29787,0.64334 -0.39959,0.64656 5.23965,51.41534 5.90587,53.16916 0.19587,0.51563 0.76478,0.9375 1.26425,0.9375 0.49946,0 6.24755,-5.30189 12.77354,-11.78198 z m 135.88713,-14.09302 c 3.00599,-26.24541 3.11041,-27.8003 1.91642,-28.53824 -0.86424,-0.53413 -30.68813,28.66385 -30.68813,30.04407 0,0.44286 5.40611,6.17331 12.01359,12.73431 10.27098,10.19876 12.15833,11.77179 13.01144,10.84449 0.64441,-0.70045 1.97151,-9.58555 3.74668,-25.08463 z m -99.84107,-21.93046 c 8.15064,-8.14301 14.81936,-15.32336 14.81936,-15.95635 0,-1.19807 -38.92877,-40.48818 -40.11583,-40.48818 -1.17021,0 -31.13304,30.26961 -31.15687,31.47587 -0.0285,1.44097 38.9914,39.7275 40.51584,39.7544 0.61498,0.0109 7.78685,-6.64274 15.9375,-14.78574 z m 83.25155,-4.50163 c 10.6248,-10.6189 19.31781,-19.82662 19.31781,-20.46161 0,-0.635 -6.88384,-8.00861 -15.29743,-16.38581 -13.14897,-13.09211 -15.49267,-15.12382 -16.6875,-14.46611 -1.92345,1.05878 -39.26507,38.64545 -39.26507,39.52273 0,1.19074 30.28216,31.09789 31.48783,31.09789 0.6196,0 9.81957,-8.68818 20.44436,-19.30709 z m -39.40226,-39.36157 c 10.84604,-10.81776 19.72007,-20.012283 19.72007,-20.432282 0,-1.228035 -39.25094,-40.149053 -40.48939,-40.149053 -1.48542,0 -39.76061,38.2779 -39.76061,39.763432 0,1.202903 38.93284,40.486563 40.125,40.486563 0.37667,0 9.55889,-8.85089 20.40493,-19.66866 z m -92.01959,-4.83995 c 7.46894,-7.29223 13.90422,-13.86462 14.30063,-14.605295 0.93056,-1.738777 -0.69627,-3.5367 -19.38079,-21.41895 -10.08388,-9.65091 -14.77514,-13.672177 -15.31746,-13.12986 -0.54231,0.54231 -0.06,9.702728 1.57477,29.90973 1.29607,16.020395 2.52178,29.887365 2.72379,30.815495 0.20202,0.92812 0.85147,1.6875 1.44323,1.6875 0.59176,0 7.18688,-5.96638 14.65583,-13.25862 z M 550.02753,98.256355 c 1.27085,-14.4375 2.43977,-27.678045 2.59761,-29.423437 0.57282,-6.334185 -0.5452,-5.625631 -18.14893,11.501985 -9.14466,8.897332 -16.62666,16.7502 -16.62666,17.450804 0,0.700613 6.24827,7.489053 13.88504,15.085413 12.02496,11.96134 14.02552,13.66581 14.93368,12.72341 0.75469,-0.78315 1.69633,-8.44636 3.35926,-27.338175 z M 433.28174,70.324262 c 10.6248,-10.618897 19.31781,-19.805985 19.31781,-20.415749 0,-0.609765 -1.93006,-3.05907 -4.28903,-5.442908 l -4.28901,-4.33425 h -25.94559 -25.94559 l -7.40736,7.539443 -7.40736,7.539442 17.19836,17.210558 c 9.45909,9.465809 17.70497,17.210557 18.32416,17.210557 0.61919,0 9.81882,-8.688187 20.44361,-19.307093 z m 94.12419,2.62584 c 9.18149,-9.174682 16.69362,-17.183969 16.69362,-17.798407 0,-0.614438 -3.11521,-4.245375 -6.92269,-8.068747 l -6.92268,-6.951593 h -26.133 -26.13298 l -4.44433,4.239165 c -2.44438,2.33154 -4.44432,4.607325 -4.44432,5.057288 0,1.263975 39.21564,40.203547 40.48858,40.203547 0.61831,0 8.63632,-7.506563 17.8178,-16.681253 z M 373.43891,44.536938 c 1.08498,-1.289431 1.84623,-2.723806 1.69167,-3.1875 -0.1618,-0.485408 -2.00018,-0.843083 -4.33326,-0.843083 -4.59303,0 -5.52105,1.250258 -3.36757,4.536878 1.62619,2.481885 3.63735,2.312437 6.00916,-0.506295 z m 180.373,1.26477 c 0.49281,-0.593805 0.78727,-2.02818 0.65434,-3.1875 -0.22271,-1.942238 -0.52161,-2.125815 -3.8042,-2.336445 -3.11942,-0.20016 -3.5625,-0.04523 -3.5625,1.245832 0,1.37517 3.877,5.35776 5.21571,5.35776 0.33034,0 1.00384,-0.485842 1.49665,-1.079647 z"
       id="path4526"
       inkscape:connector-curvature="0" />
    <path
       style="fill:#5fd3bc;fill-opacity:0.94117647;stroke-width:0.75"
       d="m 416.37623,271.37863 c -9.81658,-0.15103 -17.67123,-0.56114 -17.45478,-0.91136 0.21645,-0.35022 -1.14819,-0.84808 -3.03253,-1.10636 -8.14706,-1.11668 -19.92143,-9.89821 -24.46517,-18.24656 -4.19296,-7.70385 -3.08151,2.13551 -14.46463,-128.05129 -4.42749,-50.636465 -7.47381,-82.091892 -8.01318,-82.741797 -0.6873,-0.828143 -3.04839,-0.997688 -11.23435,-0.806708 l -10.36417,0.2418 10e-4,-23.25 0.001,-23.25 h 133.125 133.125 l -6.4e-4,23.25 -6.4e-4,23.25 h -10.52725 c -7.46001,0 -10.69143,0.265905 -11.09076,0.912622 -0.30993,0.501946 -2.01576,17.545695 -3.79073,37.875 -5.17169,59.233063 -13.53259,151.209023 -14.31367,157.460923 -0.97118,7.77338 -3.01942,13.25026 -7.08723,18.95077 -4.87422,6.83062 -14.01069,13.04156 -21.10552,14.34748 -1.62722,0.29951 -3.13887,0.81984 -3.35923,1.15627 -0.44425,0.67828 -77.91769,1.35044 -105.94767,0.91921 z m -4.60018,-17.5806 c 0.581,-0.9401 -23.47551,-25.41668 -24.98048,-25.41668 -2.06176,0 -3.94611,2.96022 -3.93869,6.1875 0.0177,7.69732 7.44962,16.84059 15.73781,19.36175 2.97577,0.90519 12.59981,0.80839 13.18136,-0.13257 z m 114.11608,-1.29751 c 7.15064,-3.67813 12.49862,-11.91033 12.06215,-18.56743 -0.17182,-2.62062 -0.64548,-3.77872 -1.87891,-4.59387 -1.55802,-1.02969 -1.93107,-0.82722 -6.75,3.6636 -11.08317,10.32857 -19.18842,19.24271 -18.68631,20.55118 0.72154,1.88033 10.91867,1.17605 15.25307,-1.05348 z m -83.98888,-14.54759 c 6.29546,-6.28564 11.4463,-11.93575 11.4463,-12.5558 0,-1.7796 -30.09583,-31.51578 -31.89696,-31.51578 -1.75889,0 -26.60304,24.55436 -26.60304,26.29274 0,0.58731 6.32479,7.39921 14.0551,15.13755 l 14.05509,14.06971 h 3.74861 3.7486 z m 33.07305,9.64255 c 0.18619,-0.96891 -1.80294,-3.49461 -6.34967,-8.0625 -3.64145,-3.6584 -6.97168,-6.65163 -7.40051,-6.65163 -1.39935,0 -15.58937,14.79893 -15.04092,15.68634 0.36568,0.59168 4.73538,0.78502 14.52153,0.64252 13.01957,-0.1896 14.0174,-0.30251 14.26957,-1.61473 z m 38.17835,-11.89402 c 7.53219,-7.52395 13.6949,-14.18606 13.6949,-14.80469 0,-1.2332 -25.39556,-27.01542 -26.61026,-27.01542 -1.21672,0 -31.13974,30.25416 -31.13974,31.48435 0,0.61769 5.14279,6.27389 11.42843,12.56936 l 11.42842,11.44629 h 3.75167 3.75167 z m -35.62446,-33.37557 c 8.15064,-8.14301 14.81936,-15.3179 14.81936,-15.9442 0,-1.17323 -30.62841,-32.25034 -31.78471,-32.25034 -1.07099,0 -30.41629,29.41411 -30.91598,30.98847 -0.36865,1.16155 2.64995,4.57503 14.79942,16.73535 9.68,9.68865 15.8112,15.27618 16.76254,15.27618 0.94888,0 6.94492,-5.4398 16.31937,-14.80546 z m -76.1856,-2.63204 c 6.40746,-6.29062 11.99089,-12.07336 12.40763,-12.85053 0.65369,-1.21905 -1.33738,-3.51001 -14.50312,-16.6875 -8.39345,-8.40096 -15.85454,-15.27447 -16.58019,-15.27447 -1.82014,0 -1.7765,0.94549 1.33286,28.875 2.6416,23.72793 3.29165,27.375 4.87927,27.375 0.4475,0 6.0561,-5.14687 12.46355,-11.4375 z m 133.75496,10.01204 c 0,-0.37151 1.16507,-10.58089 2.58903,-22.6875 1.42396,-12.10662 2.68959,-24.02558 2.8125,-26.48657 0.37871,-7.58286 -0.66377,-6.99753 -17.50682,9.82973 -8.19209,8.1844 -14.89471,15.21757 -14.89471,15.62924 0,0.41168 5.31167,6.06797 11.80371,12.56954 8.28557,8.29772 12.30929,11.82102 13.5,11.82102 0.93296,0 1.69629,-0.30396 1.69629,-0.67546 z m -96.97924,-46.73792 c 8.37608,-8.33986 15.22924,-15.50943 15.22924,-15.93238 0,-1.2308 -39.99725,-40.90423 -41.23809,-40.90423 -1.2316,0 -31.51191,29.897 -31.51191,31.11302 0,1.19711 39.99668,40.88697 41.20305,40.88697 0.59866,0 7.94163,-6.82352 16.31771,-15.16338 z m 83.25917,-4.50528 c 10.84604,-10.81775 19.72007,-20.18647 19.72007,-20.81936 0,-1.70131 -30.29958,-31.71695 -31.69682,-31.39977 -1.98581,0.45079 -40.30318,38.6264 -40.30318,40.15409 0,1.63058 29.89013,31.7337 31.50917,31.7337 0.57788,0 9.92472,-8.85089 20.77076,-19.66866 z m -39.69851,-39.01883 c 10.46321,-10.41563 19.36981,-19.565758 19.79244,-20.333615 0.66377,-1.205993 -1.92024,-4.091783 -18.97575,-21.191873 -10.85929,-10.887667 -20.38628,-19.999567 -21.1711,-20.248665 -1.12472,-0.356969 -5.61538,3.73329 -21.20198,19.31157 -10.87626,10.870456 -19.77503,20.27076 -19.77503,20.889563 0,1.728653 39.09335,40.51051 40.83589,40.51051 0.92086,0 8.5903,-7.08643 20.49553,-18.93749 z m -101.204,3.78012 c 12.02962,-11.21071 24.12258,-23.537008 24.12258,-24.588057 0,-1.544025 -33.06448,-34.504568 -34.61337,-34.504568 -0.67438,0 -1.38154,0.421875 -1.57146,0.9375 -0.38124,1.035022 4.42915,60.314405 5.01913,61.851895 0.66008,1.72012 1.96613,1.0346 7.04312,-3.69677 z m 167.69651,-0.40512 c 0.79587,-6.10158 4.9203,-52.910405 4.92326,-55.875005 0.002,-2.184712 -0.29155,-2.8125 -1.31594,-2.8125 -0.72531,0 -8.8615,7.548338 -18.0804,16.77408 -14.51792,14.528677 -16.65979,16.964408 -16.00068,18.195968 1.52221,2.844267 27.09825,27.279957 28.55304,27.279957 1.1718,0 1.54674,-0.69544 1.92072,-3.5625 z M 433.64628,70.678083 c 10.8368,-10.836795 19.70327,-20.174295 19.70327,-20.749996 0,-0.575707 -2.1375,-3.18423 -4.75,-5.796735 l -4.75,-4.749997 h -25.73006 -25.73005 l -7.39495,7.265385 c -4.06722,3.99597 -7.39494,7.790145 -7.39494,8.431515 0,1.49154 33.73974,35.3031 35.22812,35.3031 0.61343,0 9.98181,-8.86647 20.81861,-19.703272 z m 94.13478,2.646884 c 9.38767,-9.381007 17.06849,-17.586585 17.06849,-18.234607 0,-0.648023 -3.32773,-4.44765 -7.39494,-8.44362 l -7.39495,-7.265385 h -25.91961 -25.91962 l -4.21262,3.850102 c -7.18199,6.563933 -8.463,4.149128 14.3144,26.98389 11.06343,11.091308 20.62722,20.166008 21.25285,20.166008 0.62564,0 8.81834,-7.675373 18.206,-17.056388 z M 373.44191,44.664782 c 2.44838,-2.50737 2.74797,-3.145897 1.93538,-4.125 -1.30132,-1.568002 -7.04138,-1.537649 -8.62463,0.0456 -1.33005,1.330058 -0.96683,3.576961 0.92684,5.733473 1.67143,1.903418 2.52897,1.657267 5.76241,-1.654073 z m 181.90764,-1.965127 c 0,-0.977933 -0.64715,-2.111865 -1.45069,-2.541915 -1.7875,-0.956633 -5.30078,-0.989708 -6.76465,-0.06367 -0.95378,0.603352 -0.95378,0.94599 0,2.735872 0.59969,1.125375 2.10284,2.670113 3.34034,3.432758 2.21531,1.365248 2.27024,1.362075 3.5625,-0.205448 0.72188,-0.87564 1.3125,-2.386552 1.3125,-3.357592 z"
       id="path4524"
       inkscape:connector-curvature="0" />
    <path
       style="fill:#5fd3bc;fill-opacity:0.94117647;stroke-width:0.75"
       d="m 426.72455,271.19547 c -22.13118,-0.36646 -24.9037,-0.51778 -15.375,-0.83914 l 11.625,-0.39207 -12.48349,-0.16645 c -10.00729,-0.13344 -13.42899,-0.46154 -17.25001,-1.65407 -11.38301,-3.55262 -21.83823,-14.45183 -24.51663,-25.55776 -0.45369,-1.8812 -1.33525,-8.79995 -1.95903,-15.375 -1.61123,-16.98358 -16.16584,-183.557498 -16.16584,-185.014072 0,-2.99289 -1.93593,-3.565553 -12.05357,-3.565553 -5.96429,0 -9.69643,0.288675 -9.69643,0.75 0,0.4125 -0.3375,0.75 -0.75,0.75 -0.48413,0 -0.75,-8.375003 -0.75,-23.625 0,-15.2499998 0.26587,-23.625 0.75,-23.625 0.4125,0 0.75,0.2720557 0.75,0.6045682 0,0.3325125 59.23125,0.656886 131.625,0.7208295 83.77952,0.074 131.625,-0.1457595 131.625,-0.6045689 0,-0.3964561 0.3375,-0.7208288 0.75,-0.7208288 0.48413,0 0.75,8.3750002 0.75,23.625 0,15.249997 -0.26587,23.625 -0.75,23.625 -0.4125,0 -0.75,-0.35967 -0.75,-0.799267 0,-0.931455 -19.46162,-0.151208 -20.52122,0.822727 -0.35542,0.326693 -1.96426,15.55818 -3.5752,33.847762 -11.95942,135.779793 -14.66812,164.185053 -16.17578,169.631023 -2.98566,10.7848 -13.11136,21.07458 -24.1193,24.51014 -3.76704,1.17568 -7.22685,1.52052 -16.5,1.64451 l -11.7335,0.1569 11.25,0.4362 c 8.97076,0.34783 6.46359,0.46854 -12.375,0.59585 -12.99375,0.0878 -28.35,0.27342 -34.125,0.41248 -5.775,0.13907 -22.65,0.0517 -37.5,-0.19421 z m -14.00287,-17.56795 c 0.32991,-1.72693 -22.62221,-25.09037 -25.31316,-25.7668 -1.38137,-0.34724 -2.23405,0.0295 -3.5625,1.57389 -2.05925,2.39402 -2.24317,5.59777 -0.59072,10.28995 3.613,10.25926 12.10182,15.82331 23.58612,15.45966 4.7759,-0.15123 5.6563,-0.3843 5.88026,-1.5567 z m 110.19275,0.61433 c 8.17857,-2.42878 14.8591,-10.4016 15.72212,-18.76345 0.34237,-3.31726 0.1628,-4.40941 -0.92216,-5.60827 -2.84202,-3.1404 -4.43321,-2.16807 -16.60978,10.14979 -10.44131,10.56248 -12.51018,13.35631 -11.00506,14.86143 0.91542,0.91542 8.92481,0.51573 12.81488,-0.6395 z m -80.63591,-15.9142 c 6.50156,-6.49204 11.82103,-12.31693 11.82103,-12.9442 0,-1.74386 -30.85978,-32.2521 -32.62373,-32.2521 -1.75277,0 -27.37627,25.25721 -27.37627,26.98493 0,0.6193 6.49363,7.62604 14.43029,15.57054 l 14.43029,14.44453 h 3.74868 3.74869 z m 31.88353,11.33099 c 3.20304,-0.85838 1.9787,-3.33168 -5.23519,-10.57569 -3.80748,-3.82338 -7.34635,-6.9516 -7.86417,-6.9516 -1.37362,0 -15.96314,14.48125 -15.96314,15.84468 0,0.63543 0.225,1.38033 0.5,1.65532 0.62214,0.62215 26.25143,0.64664 28.5625,0.0273 z m 39.3301,-13.56386 c 9.25435,-9.20788 14.1074,-14.57114 14.1074,-15.59053 0,-1.77773 -25.28581,-27.3729 -27.04204,-27.3729 -1.43154,0 -32.20796,30.80205 -32.20796,32.23478 0,0.61774 5.31167,6.44263 11.80371,12.9442 l 11.80371,11.82102 h 3.71389 3.71389 z m -35.5868,-33.39406 c 9.63507,-9.62648 15.1942,-15.72951 15.1942,-16.68081 0,-0.95035 -5.56364,-7.06877 -15.18064,-16.69436 -11.64927,-11.65967 -15.61684,-15.1942 -17.0558,-15.1942 -1.438,0 -5.41737,3.53905 -17.06936,15.18064 -8.35681,8.34935 -15.1942,15.68703 -15.1942,16.30596 0,1.74798 30.84476,32.2634 32.61161,32.2634 0.95014,0 7.06971,-5.56474 16.69419,-15.18063 z m -76.14884,-2.63187 c 6.58503,-6.49687 12.3118,-12.43831 12.72615,-13.20319 0.64573,-1.19202 -1.47969,-3.63338 -14.87737,-17.08877 -16.1001,-16.16946 -18.34033,-17.76151 -18.84934,-13.39554 -0.2606,2.23521 5.61249,53.7693 6.24433,54.79164 1.10394,1.78621 3.57793,-0.0755 14.75623,-11.10414 z m 134.64268,3.1875 c 2.7493,-22.03629 5.2942,-46.40925 4.94174,-47.32776 -1.09461,-2.8525 -3.92965,-0.72087 -18.79718,14.1334 -8.35681,8.34935 -15.1942,15.5175 -15.1942,15.92923 0,0.41172 5.48438,6.24746 12.1875,12.96831 15.27038,15.31077 15.48131,15.36451 16.86214,4.29682 z m -97.90293,-39.91393 c 8.58181,-8.54641 15.60329,-16.04139 15.60329,-16.65551 0,-1.78774 -39.82828,-41.30555 -41.63006,-41.30555 -1.76287,0 -32.60401,30.50684 -32.64462,32.29078 -0.0313,1.37695 40.52551,41.16882 41.98389,41.19199 0.59632,0.009 8.1057,-6.9753 16.6875,-15.52171 z m 83.2588,-4.50506 c 11.05197,-11.0242 20.09449,-20.55563 20.09449,-21.18096 0,-1.75719 -30.83749,-32.27504 -32.61309,-32.27504 -2.08121,0 -40.88691,38.81172 -40.88691,40.89326 0,1.74584 30.53158,32.60673 32.2588,32.60673 0.57873,0 10.09475,-9.0198 21.14671,-20.04399 z m -39.34822,-39.38819 c 12.83707,-12.83023 19.69271,-20.212685 19.69271,-21.206015 0,-1.773165 -39.52787,-41.6118 -41.28719,-41.6118 -1.44491,0 -41.21281,39.80379 -41.21281,41.25 0,1.7472 39.85193,41.249995 41.61458,41.249995 0.96163,0 8.56802,-7.06424 21.19271,-19.68218 z m -90.86963,-5.9796 c 9.14552,-8.9665 13.82045,-14.0777 13.83636,-15.127588 0.034,-2.242537 -33.48552,-34.93131 -35.83652,-34.94838 -1.53409,-0.01114 -1.6875,0.34044 -1.6875,3.867203 0,2.133698 1.03983,16.393072 2.31073,31.6875 2.45789,29.579145 2.6893,30.672385 6.10554,28.844065 0.80248,-0.42948 7.6746,-6.87474 15.27139,-14.3228 z m 156.61005,13.03683 c 0.54301,-0.87859 4.88891,-48.644848 5.12916,-56.375045 0.3074,-9.8907 0.10058,-9.78804 -19.94859,9.902115 -9.36528,9.197587 -17.01665,17.219272 -17.00304,17.82597 0.0136,0.606697 6.36275,7.44107 14.10918,15.1875 13.39784,13.39784 16.36021,15.6488 17.71329,13.45946 z M 434.05555,71.036867 c 11.0242,-11.051962 20.044,-20.538952 20.044,-21.0822 0,-0.54324 -2.17571,-3.228847 -4.83491,-5.968012 l -4.83492,-4.9803 -25.99506,-0.215798 -25.99505,-0.215797 -7.79503,7.670715 c -4.28727,4.2189 -7.79503,8.19462 -7.79503,8.83494 0,1.51185 34.50228,36.05094 36.01252,36.05094 0.63222,0 10.16929,-9.042518 21.19348,-20.094488 z m 94.10064,2.662973 c 9.59385,-9.587332 17.44336,-17.946787 17.44336,-18.57657 0,-0.629783 -3.38135,-4.513725 -7.51412,-8.630985 l -7.51413,-7.48593 H 503.98415 477.397 l -4.52373,4.476525 c -2.56782,2.541037 -4.52372,5.133007 -4.52372,5.994885 0,1.786365 39.47035,41.65359 41.23893,41.65359 0.61839,0 8.97386,-7.844182 18.56771,-17.431515 z M 373.96568,45.349772 c 1.58613,-1.667369 2.88387,-3.531967 2.88387,-4.143562 0,-2.18508 -6.75904,-3.425573 -9.79931,-1.79847 -2.00933,1.075365 -1.91142,5.011522 0.18005,7.237777 2.26724,2.413365 3.4175,2.192085 6.73539,-1.295745 z m 181.53169,-0.343417 c 1.09704,-3.96897 0.26103,-5.42496 -3.3297,-5.798977 -3.87314,-0.403433 -6.56812,0.460439 -6.56812,2.105415 0,0.670207 1.17092,2.389477 2.60204,3.820597 3.33777,3.337778 6.35259,3.285285 7.29578,-0.127035 z"
       id="path4522"
       inkscape:connector-curvature="0" />
  </g>
</svg>
